<?xml version="1.0" standalone="no"?>
<!DOCTYPE svg PUBLIC "-//W3C//DTD SVG 1.1//EN" "http://www.w3.org/Graphics/SVG/1.1/DTD/svg11.dtd" >
<svg xmlns="http://www.w3.org/2000/svg" xmlns:xlink="http://www.w3.org/1999/xlink" version="1.1">
<metadata>
Created by FontForge 20170731 at Fri Sep  7 16:54:18 2018
 By Aleksey,,,
Copyright (c) 2018, Cadson Demak (info@cadsondemak.com)
</metadata>
<defs>
<font id="Niramit-Medium" horiz-adv-x="0" >
  <font-face 
    font-family="Niramit Medium"
    font-weight="500"
    font-stretch="normal"
    units-per-em="1000"
    panose-1="0 0 6 0 0 0 0 0 0 0"
    ascent="800"
    descent="-200"
    x-height="485"
    cap-height="700"
    bbox="-666 -488 1142 1219"
    underline-thickness="50"
    underline-position="-150"
    unicode-range="U+000D-FB02"
  />
<missing-glyph horiz-adv-x="620" 
d="M90 747h440v-747h-440v747zM480 52v643h-340v-643h340z" />
    <glyph glyph-name="fi" unicode="fi" horiz-adv-x="547" 
d="M469 0h-100v403h-152v-403h-100v403h-85l21 82h64v83q0 75 50 121.5t136 46.5q34 0 71.5 -7.5t61.5 -17.5l-18 -79q-19 9 -47 15t-59 6q-51 0 -73 -21t-22 -64v-83h252v-485z" />
    <glyph glyph-name="fl" unicode="fl" horiz-adv-x="524" 
d="M469 734v-734h-100v403h-152v-403h-100v403h-85l21 82h64v83q0 75 50 121.5t136 46.5q25 0 66 -9v7h100zM369 485v161q-30 7 -57 7q-51 0 -73 -21t-22 -64v-83h152z" />
    <glyph glyph-name="uni0E240E45" unicode="&#xe24;&#xe45;" horiz-adv-x="1000" 
d="M472 401q0 30 6 43q-25 38 -63 58t-94 20q-68 0 -114 -26.5t-69 -71.5l46 -30q11 15 29.5 27t39.5 19l34 -62q-34 -16 -49.5 -41t-15.5 -64v-93q18 7 32 7q40 0 64 -26t24 -70t-30 -72.5t-80 -28.5q-48 0 -79 30t-31 78v161q0 46 20 72l-104 67q11 54 51 101t100.5 75.5
t130.5 28.5q69 0 117.5 -21.5t85.5 -62.5q36 41 81.5 62.5t98.5 21.5q119 0 188 -87q7 7 17 7q12 0 24 -12q20 -17 20 -39q0 -9 -3 -14t-10 -12q-8 -7 -12.5 -14.5t-4.5 -20.5v-770h-100v771q0 28 8 43q-24 34 -53.5 50.5t-72.5 16.5q-60 0 -96 -36.5t-36 -89.5v-755h-100
v760zM263.5 60.5q12.5 12.5 12.5 30.5q0 19 -12.5 30.5t-31.5 11.5q-18 0 -30 -12t-12 -30t12.5 -30.5t29.5 -12.5q19 0 31.5 12.5z" />
    <glyph glyph-name="uni0E260E45" unicode="&#xe26;&#xe45;" horiz-adv-x="1003" 
d="M474 401q0 28 7 43q-52 78 -152 78q-65 0 -112 -26.5t-69 -70.5l53 -33q12 15 30.5 28t37.5 18l34 -62q-34 -15 -48.5 -41t-14.5 -65v-131q11 -20 11 -48q0 -44 -30 -72.5t-79 -28.5q-50 0 -80 29t-30 72q0 41 25.5 69.5t63.5 28.5q8 0 20 -4v70q0 52 17 74l-111 69
q12 54 52 101t100 75.5t129 28.5q72 0 118 -21.5t82 -64.5q75 86 178 86q62 0 106.5 -23t80.5 -65q10 8 18 8q11 0 24 -12q20 -17 20 -39q0 -9 -3 -14t-10 -12q-8 -7 -12.5 -14.5t-4.5 -20.5v-770h-100v771q0 28 8 43q-24 34 -53.5 50.5t-72.5 16.5q-60 0 -96.5 -36.5
t-36.5 -89.5v-755h-100v760zM171.5 60.5q12.5 12.5 12.5 30.5t-12 30t-30 12q-19 0 -31.5 -11.5t-12.5 -30.5q0 -18 12.5 -30.5t31.5 -12.5q17 0 29.5 12.5z" />
    <glyph glyph-name=".notdef" horiz-adv-x="620" 
d="M90 747h440v-747h-440v747zM480 52v643h-340v-643h340z" />
    <glyph glyph-name=".null" horiz-adv-x="497" 
 />
    <glyph glyph-name="nonmarkingreturn" unicode="&#xd;" horiz-adv-x="258" 
 />
    <glyph glyph-name="space" unicode=" " horiz-adv-x="258" 
 />
    <glyph glyph-name="exclam" unicode="!" horiz-adv-x="248" 
d="M72 700h102l-8 -498h-85zM74.5 18.5q-19.5 18.5 -19.5 47.5q0 30 19.5 48.5t49.5 18.5t49.5 -18.5t19.5 -48.5q0 -29 -19.5 -47.5t-49.5 -18.5t-49.5 18.5z" />
    <glyph glyph-name="quotedbl" unicode="&#x22;" horiz-adv-x="329" 
d="M42 693h100l-7 -190h-84zM186 693h101l-7 -190h-85z" />
    <glyph glyph-name="numbersign" unicode="#" horiz-adv-x="698" 
d="M547 423l-18 -159h102v-82h-112l-21 -182h-99l21 182h-166l-21 -182h-99l21 182h-113v82h123l18 159h-116v82h126l21 185h99l-21 -185h166l21 185h99l-21 -185h100v-82h-110zM448 423h-166l-18 -159h166z" />
    <glyph glyph-name="dollar" unicode="$" horiz-adv-x="588" 
d="M487 41q-59 -47 -162 -51v-88h-50v89q-72 6 -132 34.5t-101 73.5l61 64q72 -76 172 -87v231h-1q-113 41 -163.5 91t-50.5 127q0 83 57.5 131.5t157.5 53.5v89h50v-90q58 -4 109 -24.5t89 -52.5l-53 -70q-36 29 -69.5 43.5t-75.5 18.5v-234l7 -3q80 -30 126 -59t67 -67
t21 -93q0 -80 -59 -127zM188.5 460.5q24.5 -25.5 86.5 -51.5v215q-111 -6 -111 -98q0 -40 24.5 -65.5zM412 101.5q30 24.5 30 66.5q0 29 -9.5 48t-34.5 35.5t-73 35.5v-213q57 3 87 27.5z" />
    <glyph glyph-name="percent" unicode="%" horiz-adv-x="770" 
d="M84.5 412.5q-42.5 46.5 -42.5 125.5t42.5 125.5t114.5 46.5t114.5 -46.5t42.5 -125.5t-42.5 -125.5t-114.5 -46.5t-114.5 46.5zM505 710h103l-344 -720h-103zM244 471q15 25 15 67q0 41 -15 66t-45 25t-45 -25t-15 -66q0 -42 15 -67t45 -25t45 25zM457.5 36.5
q-42.5 46.5 -42.5 125.5t42.5 125.5t114.5 46.5t114.5 -46.5t42.5 -125.5t-42.5 -125.5t-114.5 -46.5t-114.5 46.5zM617 95q15 25 15 67q0 41 -15 66t-45 25t-45 -25t-15 -66q0 -42 15 -67t45 -25t45 25z" />
    <glyph glyph-name="ampersand" unicode="&#x26;" horiz-adv-x="724" 
d="M155 16q-54 26 -83.5 72.5t-29.5 105.5q0 130 153 221q-37 39 -55 72.5t-18 77.5q0 65 44 105t118 40q73 0 117 -40.5t44 -105.5q0 -50 -25.5 -86t-83.5 -78l149 -168q16 42 14 107h102q5 -107 -45 -192l127 -147h-120l-66 79q-81 -89 -215 -89q-73 0 -127 26zM327.5 508
q16.5 23 16.5 56q0 28 -16.5 46t-43.5 18q-29 0 -45.5 -18t-16.5 -46q0 -29 13 -51.5t42 -50.5q34 23 50.5 46zM373 93.5q40 18.5 66 51.5l-182 203q-56 -32 -83.5 -68t-27.5 -86q0 -54 37.5 -86.5t101.5 -32.5q48 0 88 18.5z" />
    <glyph glyph-name="quotesingle" unicode="'" horiz-adv-x="187" 
d="M42 693h103l-7 -190h-87z" />
    <glyph glyph-name="parenleft" unicode="(" horiz-adv-x="323" 
d="M75 80.5q-33 101.5 -33 224.5q0 120 33 222.5t104 202.5h101q-71 -102 -102.5 -203.5t-31.5 -223.5q0 -123 31.5 -223t103.5 -198h-102q-71 97 -104 198.5z" />
    <glyph glyph-name="parenright" unicode=")" horiz-adv-x="323" 
d="M145 80.5q32 100.5 32 222.5t-31.5 223.5t-102.5 203.5h100q72 -100 105 -202.5t33 -222.5q0 -123 -33 -224.5t-105 -198.5h-101q71 98 103 198.5z" />
    <glyph glyph-name="asterisk" unicode="*" horiz-adv-x="431" 
d="M178 359q-14 12 -14 31q0 6 1 9l12 73l-57 -45q-13 -10 -31 -10q-13 0 -23.5 6.5t-17.5 18.5q-7 14 -7 23q0 27 32 40l81 32l-81 32q-14 6 -22.5 16.5t-8.5 23.5q0 23 14 35.5t33 12.5q20 0 31 -10l57 -45l-12 73q-1 3 -1 9q0 19 14 31t36 12q21 0 35.5 -12.5t14.5 -31.5
l-1 -8l-10 -73l57 45q14 11 31 11q13 0 23.5 -6t16.5 -18q7 -13 7 -25q0 -13 -8.5 -23.5t-22.5 -16.5l-81 -32l81 -32q32 -13 32 -40q0 -9 -7 -23q-7 -12 -17.5 -18.5t-23.5 -6.5q-18 0 -31 10l-57 45l10 -73l1 -8q0 -19 -14.5 -31.5t-35.5 -12.5q-22 0 -36 12z" />
    <glyph glyph-name="plus" unicode="+" horiz-adv-x="536" 
d="M505 244h-186v-187h-102v187h-186v82h186v187h102v-187h186v-82z" />
    <glyph glyph-name="comma" unicode="," horiz-adv-x="232" 
d="M42 -63q24 10 43 28.5t26 38.5q-25 -2 -43.5 14.5t-18.5 41.5q0 31 19 49t51 18q33 0 52 -20.5t19 -56.5q0 -51 -31.5 -93.5t-89.5 -69.5z" />
    <glyph glyph-name="hyphen" unicode="-" horiz-adv-x="503" 
d="M42 326h420v-82h-420v82z" />
    <glyph glyph-name="period" unicode="." horiz-adv-x="211" 
d="M60.5 18q-18.5 18 -18.5 44t18.5 44t45.5 18t45 -18t18 -44t-18 -44t-45 -18t-45.5 18z" />
    <glyph glyph-name="slash" unicode="/" horiz-adv-x="457" 
d="M314 710h102l-273 -714h-101z" />
    <glyph glyph-name="zero" unicode="0" horiz-adv-x="635" 
d="M170 33q-62 43 -95 124t-33 195q0 112 33 192.5t95 123t148 42.5t148 -42.5t95 -123t33 -192.5q0 -114 -33 -195t-95 -124t-148 -43t-148 43zM444.5 147q45.5 72 45.5 205q0 132 -45.5 202.5t-126.5 70.5t-126.5 -70.5t-45.5 -202.5q0 -134 45.5 -205.5t126.5 -71.5
t126.5 72z" />
    <glyph glyph-name="one" unicode="1" horiz-adv-x="355" 
d="M189 542l-98 -82l-59 68l198 164q21 18 40 18q18 0 34 -17q17 -19 17 -33t-17 -29l-13 -10v-622h-102v543z" />
    <glyph glyph-name="two" unicode="2" horiz-adv-x="619" 
d="M52.5 6q-10.5 6 -10.5 26q0 8 1 13q3 26 12 33.5t31 8.5q25 47 67 85t113 89q60 43 95 73t59 68t24 83q0 67 -33.5 103.5t-99.5 36.5q-76 0 -114 -41.5t-46 -130.5l-97 9q7 117 76 182.5t181 65.5q111 0 174 -60.5t63 -164.5q0 -58 -27.5 -105.5t-67.5 -83.5t-104 -82
q-57 -43 -87.5 -69.5t-49.5 -56.5h249l27 60l89 -31l-53 -117h-433q-28 0 -38.5 6z" />
    <glyph glyph-name="three" unicode="3" horiz-adv-x="648" 
d="M147 41q-74 51 -105 152l93 31q41 -149 197 -149q84 0 127 39t43 110q0 67 -31 101t-88 34q-32 0 -54 -9l-16 -20q-13 -18 -30 -18q-15 0 -37 16q-16 13 -16 26q0 12 12 30l150 234h-198l-31 -89l-80 50l41 121h402q23 0 33.5 -6t10.5 -20q0 -10 -4 -22
q-7 -21 -17.5 -27.5t-31.5 -6.5h-20l-122 -187q20 7 50 7q51 0 92.5 -24.5t65 -73t23.5 -116.5q0 -70 -32.5 -123t-94 -82t-147.5 -29q-111 0 -185 51z" />
    <glyph glyph-name="four" unicode="4" horiz-adv-x="618" 
d="M389 149h-312q-20 0 -32.5 11t-12.5 27t12 32l380 470q17 20 37 20q16 0 31 -12q22 -18 22 -34q0 -11 -9 -23l-14 -18v-391h92v-82h-92v-149h-102v149zM393 231v285l-230 -285h230z" />
    <glyph glyph-name="five" unicode="5" horiz-adv-x="620" 
d="M157 19q-67 29 -115 85l63 64q46 -51 92.5 -72t109.5 -21q77 0 122.5 44.5t45.5 129.5q0 84 -43 126t-114 42q-59 0 -100 -26t-74 -82l-79 28l40 287q-18 3 -18 24q0 4 2 16q4 23 12.5 29.5t29.5 6.5h403v-85h-340l-24 -170q64 57 158 57q114 0 182.5 -65.5t68.5 -186.5
q0 -81 -34.5 -139.5t-95.5 -89.5t-141 -31q-84 0 -151 29z" />
    <glyph glyph-name="six" unicode="6" horiz-adv-x="622" 
d="M115 77.5q-73 87.5 -73 256.5q0 117 34 201.5t98.5 129.5t154.5 45q95 0 152 -44t75 -125l-84 -29q-18 57 -50 85t-95 28q-60 0 -104 -34.5t-67 -96t-23 -142.5h4q31 53 83.5 82.5t119.5 29.5q112 0 176.5 -63t64.5 -169q0 -73 -31 -128t-88.5 -84.5t-136.5 -29.5
q-137 0 -210 87.5zM436 116.5q41 41.5 41 114.5q0 70 -39.5 109t-110.5 39q-72 0 -115 -41.5t-43 -114.5q0 -68 42 -108t114 -40q70 0 111 41.5z" />
    <glyph glyph-name="seven" unicode="7" horiz-adv-x="599" 
d="M218 206.5q24 91.5 73 172.5t130 174q16 21 16 62h-302l10 -56l-91 -38l-21 120q-1 4 -1 12q0 21 13.5 34t37.5 13h447q22 0 29.5 -7.5t7.5 -31.5q0 -25 -8.5 -34t-25.5 -9q-1 -33 -7 -54.5t-28 -48.5q-82 -97 -124.5 -168.5t-60 -151t-16.5 -195.5h-102q-1 115 23 206.5
z" />
    <glyph glyph-name="eight" unicode="8" horiz-adv-x="621" 
d="M112.5 43.5q-70.5 53.5 -70.5 150.5q0 61 36 105.5t97 64.5q-47 21 -75.5 61t-28.5 89q0 91 64.5 143.5t175.5 52.5q110 0 175 -52.5t65 -143.5q0 -49 -28.5 -89t-75.5 -61q61 -20 97 -64.5t36 -105.5q0 -97 -71 -150.5t-198 -53.5q-128 0 -198.5 53.5zM409.5 429.5
q37.5 30.5 37.5 83.5q0 55 -37 83.5t-99 28.5q-63 0 -99.5 -28.5t-36.5 -83.5q0 -53 37 -83.5t99 -30.5q61 0 98.5 30.5zM433 106.5q43 31.5 43 88.5q0 60 -43.5 93.5t-121.5 33.5q-79 0 -122 -33.5t-43 -93.5q0 -57 43 -88.5t122 -31.5t122 31.5z" />
    <glyph glyph-name="nine" unicode="9" horiz-adv-x="622" 
d="M151 34q-61 44 -78 120l85 28q17 -53 53.5 -80t98.5 -27q89 0 134 73.5t45 199.5h-4q-31 -54 -80.5 -83t-113.5 -29q-76 0 -132 28.5t-86.5 81t-30.5 122.5q0 73 31 127.5t89.5 84.5t137.5 30q137 0 209 -88t72 -258q0 -178 -69 -276t-203 -98q-97 0 -158 44z
M411.5 362.5q42.5 41.5 42.5 114.5q0 68 -41.5 108t-112.5 40t-112.5 -41.5t-41.5 -114.5q0 -70 40 -109t111 -39q72 0 114.5 41.5z" />
    <glyph glyph-name="colon" unicode=":" horiz-adv-x="220" 
d="M61.5 395q-19.5 19 -19.5 48q0 27 19.5 47t48.5 20q28 0 47.5 -20t19.5 -47q0 -28 -19.5 -47.5t-47.5 -19.5q-29 0 -48.5 19zM61.5 22q-19.5 19 -19.5 47t20 48t48 20t48 -20t20 -48q0 -27 -20 -46.5t-48 -19.5q-29 0 -48.5 19z" />
    <glyph glyph-name="semicolon" unicode=";" horiz-adv-x="229" 
d="M69.5 392.5q-19.5 19.5 -19.5 48.5q0 27 19.5 47t48.5 20q28 0 48 -20t20 -47q0 -28 -20 -48t-48 -20q-29 0 -48.5 19.5zM42 -64q24 11 43 29.5t26 36.5q-25 -1 -43.5 15.5t-18.5 41.5q0 30 19.5 48.5t50.5 18.5q33 0 50.5 -20t17.5 -56q0 -52 -30 -94t-88 -69z" />
    <glyph glyph-name="less" unicode="&#x3c;" horiz-adv-x="611" 
d="M74 220q-17 7 -24.5 16.5t-7.5 26.5q0 23 10 36t29 13q6 0 10 -1l10 -2l468 206v-97l-378 -160l378 -159v-97z" />
    <glyph glyph-name="equal" unicode="=" horiz-adv-x="536" 
d="M61 409h414v-82h-414v82zM61 243h414v-82h-414v82z" />
    <glyph glyph-name="greater" unicode="&#x3e;" horiz-adv-x="611" 
d="M42 99l378 159l-378 160v97l467 -206l10 2q4 1 11 1q19 0 29 -13t10 -36q0 -17 -8 -26.5t-25 -16.5l-494 -218v97z" />
    <glyph glyph-name="question" unicode="?" horiz-adv-x="518" 
d="M204 242q0 52 24 87.5t69 76.5q38 35 56.5 60.5t18.5 59.5q0 47 -25.5 73t-78.5 26q-52 0 -87 -28t-55 -84l-84 41q25 74 86.5 115t142.5 41q96 0 150.5 -50t54.5 -134q0 -49 -23 -82t-67 -72q-40 -35 -60 -63t-20 -67v-40h-102v40zM207 18.5q-19 18.5 -19 47.5
q0 30 19 48.5t50 18.5q30 0 49.5 -18.5t19.5 -48.5q0 -29 -19.5 -47.5t-49.5 -18.5q-31 0 -50 18.5z" />
    <glyph glyph-name="at" unicode="@" horiz-adv-x="860" 
d="M218.5 15q-84.5 43 -130.5 124.5t-46 193.5q0 120 48 209t136 137.5t205 48.5q119 0 206.5 -40.5t134.5 -117t47 -182.5q0 -78 -25 -137.5t-70.5 -92.5t-103.5 -33q-35 0 -65 20.5t-43 57.5h-1q-20 -37 -55 -58t-77 -21q-73 0 -117 51t-44 139q0 83 27 143t73.5 91.5
t103.5 31.5q37 0 64 -16t42 -42l8 44h78l-50 -287q-2 -12 -2 -18q0 -26 13.5 -41.5t35.5 -15.5q48 0 76 49t28 135q0 128 -72.5 191.5t-211.5 63.5q-134 0 -209.5 -81.5t-75.5 -228.5q0 -133 71 -204.5t201 -71.5q105 0 189 38v-81q-38 -20 -86.5 -31t-102.5 -11
q-115 0 -199.5 43zM491 340q5 35 5 57q0 52 -18.5 80t-51.5 28q-50 0 -80.5 -50.5t-30.5 -138.5q0 -54 20.5 -82.5t57.5 -28.5q76 0 98 135z" />
    <glyph glyph-name="A" unicode="A" horiz-adv-x="679" 
d="M282 668q9 26 24.5 38t38.5 12q29 0 45.5 -12.5t16.5 -31.5q0 -4 -5 -17l239 -657h-107l-66 189h-257l-66 -189h-107zM445 271l-104 306l-104 -306h208z" />
    <glyph glyph-name="B" unicode="B" horiz-adv-x="601" 
d="M70 598q0 19 -5 28t-14 18q-6 5 -8.5 10t-0.5 12q4 19 19.5 35.5t33.5 16.5q19 0 34 -18h201q97 0 153.5 -51t56.5 -134q0 -61 -28 -95.5t-80 -52.5v-3q59 -21 93.5 -61t34.5 -99q0 -96 -60.5 -150t-166.5 -54h-263v598zM309 405q59 0 93 27.5t34 82.5q0 47 -29 75.5
t-84 28.5h-153v-214h139zM328 81q63 0 95.5 31t32.5 92q0 57 -36.5 88t-102.5 31h-147v-242h158z" />
    <glyph glyph-name="C" unicode="C" horiz-adv-x="632" 
d="M193 34q-73 44 -112 125.5t-39 191.5q0 109 38 190t109.5 125t169.5 44q64 0 119.5 -22t91.5 -61l-42 -72q-34 35 -73 52.5t-96 17.5q-101 0 -157 -73t-56 -201q0 -129 58.5 -202.5t164.5 -73.5q99 0 159 67l62 -58q-39 -45 -98.5 -69.5t-124.5 -24.5q-101 0 -174 44z
" />
    <glyph glyph-name="D" unicode="D" horiz-adv-x="642" 
d="M70 598q0 18 -5 28t-14 19t-9 16q0 9 8 23t20.5 24t25.5 10q17 0 33 -18h138q103 0 178 -42t115.5 -120t40.5 -186q0 -169 -85 -260.5t-244 -91.5h-202v598zM272 88q225 0 225 264q0 128 -60 194t-173 66h-92v-524h100z" />
    <glyph glyph-name="E" unicode="E" horiz-adv-x="533" 
d="M70 598q0 18 -5 27.5t-14 18.5q-7 8 -9 12t1 12q6 18 21 34t32 16q18 0 33 -18h353v-88h-310v-203h226v-84h-226v-237h319v-88h-421v598z" />
    <glyph glyph-name="F" unicode="F" horiz-adv-x="524" 
d="M70 598q0 18 -5 27.5t-14 18.5q-7 8 -9 12t1 12q6 18 21 34t32 16q18 0 33 -18h353v-88h-310v-214h226v-85h-226v-313h-102v598z" />
    <glyph glyph-name="G" unicode="G" horiz-adv-x="657" 
d="M188.5 34q-71.5 44 -109 125.5t-37.5 191.5q0 109 38 190t109.5 125t169.5 44q68 0 122 -21.5t91 -61.5l-42 -72q-33 36 -72.5 53t-98.5 17q-101 0 -157 -73t-56 -201q0 -129 56.5 -202.5t158.5 -73.5q43 0 71 7t54 24v189h-161v85h204q15 16 32 16q18 0 33.5 -17
t19.5 -35q2 -7 0 -11t-8 -10q-8 -7 -13 -16.5t-5 -28.5v-219q-61 -38 -112 -53.5t-117 -15.5q-99 0 -170.5 44z" />
    <glyph glyph-name="H" unicode="H" horiz-adv-x="619" 
d="M55 700h102v-288h305v288h102v-700h-102v324h-305v-324h-102v700z" />
    <glyph glyph-name="I" unicode="I" horiz-adv-x="292" 
d="M95 700h102v-700h-102v700z" />
    <glyph glyph-name="J" unicode="J" horiz-adv-x="438" 
d="M103.5 2.5q-41.5 12.5 -71.5 34.5l41 73q55 -34 112 -34q97 0 97 103v521h102v-518q0 -89 -53 -140.5t-145 -51.5q-41 0 -82.5 12.5z" />
    <glyph glyph-name="K" unicode="K" horiz-adv-x="602" 
d="M55 700h102v-276l247 276h126l-303 -334l333 -366h-126l-277 307v-307h-102v700z" />
    <glyph glyph-name="L" unicode="L" horiz-adv-x="507" 
d="M60.5 4q-14.5 14 -18.5 32q-2 7 0 11.5t8 10.5q9 10 13.5 19t4.5 26v597h102v-612h302v-88h-346q-11 -10 -33 -10q-18 0 -32.5 14z" />
    <glyph glyph-name="M" unicode="M" horiz-adv-x="782" 
d="M364 -2.5q-12 7.5 -17 21.5l-156 480l-46 -500h-103l68 646l-6 9q-4 8 -4 19q0 18 13.5 31.5t39.5 13.5q32 0 47.5 -13t24.5 -41l165 -511l167 511q10 28 25 41t46 13q27 0 40.5 -13.5t13.5 -32.5q0 -11 -4 -18l-6 -9l68 -646h-103l-46 500l-145 -445l3 -10q2 -5 2 -14
q0 -18 -16.5 -29t-41.5 -11q-17 0 -29 7.5z" />
    <glyph glyph-name="N" unicode="N" horiz-adv-x="618" 
d="M64 612q0 11 -3.5 18t-9.5 14q-9 11 -9 20q0 5 1 9q6 20 22 32.5t36 12.5q28 0 45 -25l315 -508v515h102v-700h-87l-310 498v-498h-102v612z" />
    <glyph glyph-name="O" unicode="O" horiz-adv-x="673" 
d="M118.5 86.5q-76.5 96.5 -76.5 263.5t76.5 263.5t218.5 96.5q94 0 160.5 -44t100.5 -125.5t34 -190.5t-34 -190.5t-100.5 -125.5t-160.5 -44q-142 0 -218.5 96.5zM480.5 149q47.5 74 47.5 201t-47.5 201t-143.5 74t-143.5 -73.5t-47.5 -201.5t47.5 -201.5t143.5 -73.5
t143.5 74z" />
    <glyph glyph-name="P" unicode="P" horiz-adv-x="594" 
d="M67 608q0 13 -4 20.5t-11 14.5q-6 7 -8.5 12.5t-1.5 15.5q5 18 19.5 32.5t34.5 14.5t40 -18h139q132 0 204.5 -58t72.5 -171q0 -112 -71.5 -170.5t-199.5 -58.5h-112v-242h-102v608zM278 329q83 0 126.5 35.5t43.5 106.5q0 69 -43 105t-127 36h-109v-283h109z" />
    <glyph glyph-name="Q" unicode="Q" horiz-adv-x="673" 
d="M579.5 122.5q-52.5 -91.5 -151.5 -120.5l130 -165h-123l-114 153q-134 6 -206.5 102t-72.5 258q0 167 76.5 263.5t218.5 96.5q94 0 160.5 -44t100.5 -125.5t34 -190.5q0 -136 -52.5 -227.5zM193.5 148.5q47.5 -73.5 143.5 -73.5t143.5 74t47.5 201t-47.5 201t-143.5 74
t-143.5 -73.5t-47.5 -201.5t47.5 -201.5z" />
    <glyph glyph-name="R" unicode="R" horiz-adv-x="592" 
d="M68 608q0 13 -4 20.5t-11 14.5q-6 6 -8.5 10t-2.5 11q0 19 16.5 36.5t38.5 17.5q20 0 40 -18h139q133 0 204 -53t71 -162q0 -92 -53 -144t-145 -61l183 -280h-117l-177 272h-72v-272h-102v608zM279 359q86 0 127 29.5t41 96.5q0 66 -41.5 96.5t-127.5 30.5h-108v-253h109
z" />
    <glyph glyph-name="S" unicode="S" horiz-adv-x="588" 
d="M157 19.5q-69 29.5 -115 79.5l61 64q44 -46 95 -67.5t113 -21.5q64 0 97.5 25t33.5 69q0 33 -13 54t-48 40t-107 45q-113 41 -163.5 91t-50.5 127q0 87 63 136t171 49q67 0 126 -21t103 -57l-53 -70q-41 33 -81 48t-95 15q-130 0 -130 -99q0 -33 16.5 -55.5t51 -41
t100.5 -42.5q80 -30 126 -59t67 -67t21 -93q0 -83 -63 -130.5t-174 -47.5q-83 0 -152 29.5z" />
    <glyph glyph-name="T" unicode="T" horiz-adv-x="572" 
d="M235 612h-200v88h502v-88h-200v-612h-102v612z" />
    <glyph glyph-name="U" unicode="U" horiz-adv-x="636" 
d="M121 58.5q-71 68.5 -71 191.5v450h102v-456q0 -83 44 -126t122 -43t122 43t44 126v456h102v-450q0 -123 -71 -191.5t-197 -68.5t-197 68.5z" />
    <glyph glyph-name="V" unicode="V" horiz-adv-x="674" 
d="M274 32q0 11 6 23l-238 645h104l192 -540l190 540h104l-245 -668q-8 -20 -23 -31t-33 -11q-16 0 -29 7q-28 13 -28 35z" />
    <glyph glyph-name="W" unicode="W" horiz-adv-x="836" 
d="M150 34q0 8 3 17l5 10l-116 639h102l84 -512l144 492q9 30 45 30q30 0 46 -10.5t16 -26.5q0 -3 -2 -11l-3 -10l134 -463l83 511h103l-118 -639l4 -10q3 -9 3 -17q0 -29 -36 -39q-18 -5 -28 -5q-21 0 -34 13t-21 41l-146 502l-149 -502q-8 -28 -21 -41t-33 -13
q-11 0 -29 5q-36 10 -36 39z" />
    <glyph glyph-name="X" unicode="X" horiz-adv-x="679" 
d="M282 375l-219 325h114l162 -247l162 247h114l-218 -325l240 -375h-114l-184 298l-183 -298h-114z" />
    <glyph glyph-name="Y" unicode="Y" horiz-adv-x="642" 
d="M272 270l-230 430h110l169 -337l169 337h110l-230 -430v-270h-98v270z" />
    <glyph glyph-name="Z" unicode="Z" horiz-adv-x="625" 
d="M94 -11q-18 0 -45 31q-7 8 -7 16q0 9 15 29l379 547h-369v88h427l9 8q7 10 25 10t32 -11q22 -16 22 -35q0 -16 -15 -37l-380 -547h396v-88h-464l-12 -7q-8 -4 -13 -4z" />
    <glyph glyph-name="bracketleft" unicode="[" horiz-adv-x="265" 
d="M53 746h187v-82h-85v-716h85v-82h-187v880z" />
    <glyph glyph-name="backslash" unicode="\" horiz-adv-x="460" 
d="M42 710h101l275 -721h-102z" />
    <glyph glyph-name="bracketright" unicode="]" horiz-adv-x="265" 
d="M25 -52h85v716h-85v82h187v-880h-187v82z" />
    <glyph glyph-name="asciicircum" unicode="^" horiz-adv-x="461" 
d="M187 699q8 13 18.5 19t27.5 6q22 0 35.5 -10t13.5 -26q0 -6 -3 -14l-3 -5l143 -234h-104l-89 171l-80 -171h-104z" />
    <glyph glyph-name="underscore" unicode="_" horiz-adv-x="573" 
d="M42 -50h490v-82h-490v82z" />
    <glyph glyph-name="grave" unicode="`" horiz-adv-x="284" 
d="M43 724h112l86 -182h-83z" />
    <glyph glyph-name="a" unicode="a" horiz-adv-x="573" 
d="M142.5 21.5q-48.5 31.5 -74.5 87.5t-26 128q0 76 26.5 134.5t76.5 91t118 32.5q94 0 147 -74v64h97v-356q0 -37 6 -62t18 -44l-82 -33q-26 31 -30 81l-2 1q-29 -40 -70 -61t-92 -21q-64 0 -112.5 31.5zM373 115q36 43 36 110v34q0 39 -15 74.5t-45.5 57.5t-74.5 22
q-64 0 -98 -47.5t-34 -128.5q0 -77 33 -121t96 -44q66 0 102 43z" />
    <glyph glyph-name="b" unicode="b" horiz-adv-x="577" 
d="M42 22q12 21 18 44.5t6 62.5v605h100v-311q27 32 67.5 52t87.5 20q103 0 158.5 -68t55.5 -185q0 -72 -27 -129.5t-77 -90t-115 -32.5q-102 0 -160 82q-1 -25 -9.5 -47t-21.5 -35zM401 119.5q33 47.5 33 122.5q0 80 -32.5 125.5t-100.5 45.5q-43 0 -73.5 -22t-46.5 -57
t-16 -75v-34q0 -66 37 -109.5t102 -43.5q64 0 97 47.5z" />
    <glyph glyph-name="c" unicode="c" horiz-adv-x="521" 
d="M110 57q-68 67 -68 185q0 77 30.5 134.5t87 88t132.5 30.5q51 0 98 -17t75 -45l-36 -69q-24 22 -59 35t-74 13q-71 0 -111.5 -43.5t-40.5 -126.5q0 -82 41.5 -125.5t116.5 -43.5q35 0 67 12t56 36l55 -58q-31 -34 -80 -53.5t-102 -19.5q-120 0 -188 67z" />
    <glyph glyph-name="d" unicode="d" horiz-adv-x="577" 
d="M430.5 24.5q-8.5 21.5 -9.5 47.5q-58 -82 -161 -82q-66 0 -115.5 30t-76 85.5t-26.5 129.5q0 118 59 189t165 71q89 0 145 -72v311h100v-605q0 -39 6 -62.5t18 -44.5l-83 -32q-13 13 -21.5 34.5zM375.5 115.5q36.5 43.5 36.5 109.5v34q0 40 -15.5 75t-46 57t-73.5 22
q-69 0 -102 -48.5t-33 -129.5q0 -74 33 -118.5t98 -44.5q66 0 102.5 43.5z" />
    <glyph glyph-name="e" unicode="e" horiz-adv-x="549" 
d="M107.5 57.5q-65.5 67.5 -65.5 181.5q0 112 58.5 184t173.5 72q78 0 130.5 -35t77.5 -90t25 -114q0 -56 -65 -56h-300q0 -58 39 -92.5t106 -34.5q86 0 139 51l52 -56q-33 -37 -82 -57.5t-109 -20.5q-114 0 -179.5 67.5zM407 280q0 58 -35.5 95.5t-97.5 37.5t-97 -39.5
t-35 -93.5h265z" />
    <glyph glyph-name="f" unicode="f" horiz-adv-x="406" 
d="M117 403h-85l21 82h64v97q0 71 45.5 112.5t117.5 41.5q23 0 49.5 -6t45.5 -16l-19 -75q-14 6 -32.5 10t-34.5 4q-72 0 -72 -72v-96h142l-21 -82h-121v-403h-100v403z" />
    <glyph glyph-name="g" unicode="g" horiz-adv-x="575" 
d="M172 -208q-41 10 -75 27l30 75q58 -29 130 -29q83 0 117.5 41t34.5 124v42q-25 -34 -63 -53t-85 -19q-104 0 -161.5 67.5t-57.5 183.5q0 112 57.5 178.5t156.5 66.5q101 0 163 -82q3 51 32 82l83 -33q-13 -22 -19 -45t-6 -62v-324q0 -123 -66 -186.5t-186 -63.5
q-44 0 -85 10zM348.5 104q30.5 22 46.5 57t16 75v25q0 65 -37 109t-102 44t-97.5 -44t-32.5 -119q0 -80 32.5 -124.5t100.5 -44.5q43 0 73.5 22z" />
    <glyph glyph-name="h" unicode="h" horiz-adv-x="544" 
d="M380 115v180q0 60 -24.5 88.5t-75.5 28.5q-56 0 -91.5 -44.5t-35.5 -108.5v-259h-100v734h100v-313q27 35 66 54.5t86 19.5q89 0 132 -51.5t43 -149.5v-178q0 -52 22 -91l-90 -35q-32 57 -32 125z" />
    <glyph glyph-name="i" unicode="i" horiz-adv-x="256" 
d="M77 593q-20 20 -20 49t20 48.5t51 19.5q30 0 50.5 -19.5t20.5 -48.5t-20.5 -49t-50.5 -20q-31 0 -51 20zM77 485h100v-485h-100v485z" />
    <glyph glyph-name="j" unicode="j" horiz-adv-x="430" 
d="M250.5 593q-20.5 20 -20.5 49t20.5 48.5t51.5 19.5q30 0 50.5 -19.5t20.5 -48.5t-20.5 -49t-50.5 -20q-31 0 -51.5 20zM96.5 -204.5q-40.5 13.5 -64.5 34.5l38 68q46 -34 101 -34q43 0 61.5 24t18.5 81v516h100v-512q0 -191 -174 -191q-40 0 -80.5 13.5z" />
    <glyph glyph-name="k" unicode="k" horiz-adv-x="494" 
d="M55 734h100v-409l166 160h126l-238 -225l267 -260h-130l-191 190v-190h-100v734z" />
    <glyph glyph-name="l" unicode="l" horiz-adv-x="210" 
d="M55 734h100v-734h-100v734z" />
    <glyph glyph-name="m" unicode="m" horiz-adv-x="796" 
d="M632 115v182q0 60 -19 87.5t-64 27.5q-49 0 -74.5 -33t-25.5 -87v-292h-98v297q0 57 -20 86t-63 29q-51 0 -77.5 -38.5t-26.5 -104.5v-269h-100v358q0 33 -5 56.5t-17 46.5l86 34q23 -38 25 -81q21 39 56.5 60t77.5 21q87 0 124 -85q53 85 155 85q82 0 124 -48t42 -129
v-202q0 -52 22 -91l-90 -35q-32 54 -32 125z" />
    <glyph glyph-name="n" unicode="n" horiz-adv-x="554" 
d="M391 115v180q0 60 -24.5 88.5t-75.5 28.5q-57 0 -92 -44.5t-35 -108.5v-259h-100v358q0 32 -5 56t-17 47l89 34q8 -16 15.5 -38.5t9.5 -44.5q27 38 70 60.5t92 22.5q173 0 173 -201v-178q0 -52 22 -91l-90 -35q-32 54 -32 125z" />
    <glyph glyph-name="o" unicode="o" horiz-adv-x="555" 
d="M150 22.5q-53 32.5 -80.5 90t-27.5 130.5t27.5 130t80.5 89.5t127 32.5t127.5 -32.5t81 -89.5t27.5 -130t-27.5 -130.5t-81 -90t-127.5 -32.5t-127 32.5zM377 118.5q34 45.5 34 124.5q0 78 -34 123.5t-100 45.5q-65 0 -99 -46t-34 -123q0 -79 34 -124.5t99 -45.5
q66 0 100 45.5z" />
    <glyph glyph-name="p" unicode="p" horiz-adv-x="577" 
d="M66 356q0 39 -5.5 62t-18.5 45l83 32q29 -31 32 -82q63 83 163 83q66 0 114.5 -31.5t74.5 -88.5t26 -133q0 -116 -58 -184t-163 -68q-46 0 -84 19t-64 53v-283h-100v576zM401 117.5q33 45.5 33 125.5q0 77 -32.5 124t-97.5 47t-102 -44t-37 -109v-34q0 -40 15.5 -75.5
t46 -57.5t73.5 -22q68 0 101 45.5z" />
    <glyph glyph-name="q" unicode="q" horiz-adv-x="578" 
d="M411 -105v168q-26 -34 -64 -53t-84 -19q-105 0 -163 68t-58 184q0 76 26 133t74.5 88.5t114.5 31.5q100 0 163 -83q3 51 31 83l84 -33q-13 -22 -18.5 -45t-5.5 -62v-461q0 -52 24 -92l-88 -36q-36 54 -36 128zM350.5 94q30.5 22 46 57.5t15.5 75.5v34q0 65 -37 109
t-102 44t-98 -47t-33 -124q0 -79 33 -125t102 -46q43 0 73.5 22z" />
    <glyph glyph-name="r" unicode="r" horiz-adv-x="403" 
d="M64 358q0 32 -5 56t-17 47l89 34q8 -16 15.5 -38.5t9.5 -44.5q25 41 56 62t74 21q25 0 45 -6.5t43 -21.5l-38 -71q-28 16 -59 16q-55 0 -84 -40t-29 -108v-264h-100v358z" />
    <glyph glyph-name="s" unicode="s" horiz-adv-x="493" 
d="M139.5 12.5q-56.5 22.5 -97.5 63.5l58 63q30 -33 73.5 -50.5t91.5 -17.5q42 0 64 13.5t22 38.5q0 18 -8 29.5t-32 23.5t-75 29q-95 31 -135 65.5t-40 92.5q0 61 49 96.5t137 35.5q99 0 175 -55l-36 -68q-37 22 -69.5 32t-70.5 10q-42 0 -63.5 -14t-21.5 -37
q0 -19 11.5 -31.5t34 -22.5t70.5 -26q66 -23 103 -43.5t54 -48.5t17 -70q0 -61 -49 -96t-137 -35q-69 0 -125.5 22.5z" />
    <glyph glyph-name="t" unicode="t" horiz-adv-x="379" 
d="M151 26q-33 36 -33 103v274h-86l21 82h66v116l97 44v-160h127l-20 -82h-105v-275q0 -31 11 -44t38 -13q28 0 52 12l25 -74q-16 -7 -43.5 -13t-51.5 -6q-65 0 -98 36z" />
    <glyph glyph-name="u" unicode="u" horiz-adv-x="540" 
d="M99.5 43q-49.5 53 -49.5 146l1 296h100v-295q0 -60 26 -88.5t81 -28.5q57 0 87.5 41t30.5 102v269h100v-358q0 -32 5 -56t17 -47l-89 -34q-8 16 -15.5 38.5t-9.5 44.5q-51 -83 -150 -83q-85 0 -134.5 53z" />
    <glyph glyph-name="v" unicode="v" horiz-adv-x="552" 
d="M230.5 0.5q-13.5 10.5 -13.5 26.5q0 4 2 12l2 7l-179 439h104l130 -350l129 350h105l-188 -465q-6 -16 -18.5 -23t-37.5 -7q-22 0 -35.5 10.5z" />
    <glyph glyph-name="w" unicode="w" horiz-adv-x="715" 
d="M175.5 0q-12.5 10 -12.5 28q0 7 1 11l1 9l-123 437h104l78 -338l96 324q6 24 45 24q51 0 51 -36q0 -8 -1 -12l-4 -22l80 -278l79 338h104l-124 -437l2 -9q1 -3 1 -10q0 -18 -13 -28.5t-36 -10.5q-25 0 -37.5 8.5t-17.5 26.5l-91 315l-91 -315q-5 -18 -18 -26.5t-38 -8.5
q-23 0 -35.5 10z" />
    <glyph glyph-name="x" unicode="x" horiz-adv-x="525" 
d="M198 251l-156 234h112l109 -173l108 173h113l-157 -234l157 -251h-115l-106 186l-107 -186h-114z" />
    <glyph glyph-name="y" unicode="y" horiz-adv-x="575" 
d="M79 -148q66 23 106.5 66.5t55.5 113.5l-199 453h115l136 -347l126 347h114l-198 -494q-35 -88 -87 -139t-140 -82z" />
    <glyph glyph-name="z" unicode="z" horiz-adv-x="534" 
d="M95 -10q-12 0 -25 9.5t-24 29.5q-4 8 -4 16q0 15 18 28q10 5 17 15l274 315h-284v82h331q21 0 28 6q6 4 14 4q22 0 40 -22q12 -13 12 -28q0 -13 -13 -27l-293 -336h303v-82h-351q-19 0 -30 -7q-6 -3 -13 -3z" />
    <glyph glyph-name="braceleft" unicode="{" horiz-adv-x="348" 
d="M142 -107q-28 27 -28 72v251q0 49 -39 49h-33v82h33q39 0 39 49v251q0 45 28 72t76 27h89v-82h-65q-26 0 -26 -31v-227q0 -37 -10 -60.5t-39 -39.5q29 -16 39 -39.5t10 -60.5v-227q0 -31 26 -31h65v-82h-89q-48 0 -76 27z" />
    <glyph glyph-name="bar" unicode="|" horiz-adv-x="209" 
d="M53 800h102v-940h-102v940z" />
    <glyph glyph-name="braceright" unicode="}" horiz-adv-x="348" 
d="M42 -52h64q27 0 27 31v227q0 38 9.5 61t38.5 39q-29 16 -38.5 39t-9.5 61v227q0 31 -27 31h-64v82h89q48 0 76 -27t28 -72v-251q0 -49 38 -49h34v-82h-34q-38 0 -38 -49v-251q0 -45 -28 -72t-76 -27h-89v82z" />
    <glyph glyph-name="asciitilde" unicode="~" horiz-adv-x="594" 
d="M42 236q24 46 61.5 70t85.5 24q25 0 48 -7.5t62 -23.5q32 -14 55.5 -21.5t45.5 -7.5q35 0 57 15.5t37 46.5l58 -54q-22 -47 -59 -71.5t-85 -24.5q-24 0 -48.5 7.5t-63.5 23.5q-38 15 -59.5 21.5t-42.5 6.5q-60 0 -92 -65z" />
    <glyph glyph-name="uni00A0" unicode="&#xa0;" horiz-adv-x="258" 
 />
    <glyph glyph-name="exclamdown" unicode="&#xa1;" horiz-adv-x="248" 
d="M74.5 349.5q-19.5 18.5 -19.5 48.5q0 29 19.5 47.5t49.5 18.5t49.5 -18.5t19.5 -47.5q0 -30 -19.5 -48.5t-49.5 -18.5t-49.5 18.5zM81 262h85l8 -498h-102z" />
    <glyph glyph-name="cent" unicode="&#xa2;" horiz-adv-x="521" 
d="M408 13q-44 -19 -91 -22v-89h-52v89q-105 10 -164 76t-59 175q0 110 60 177t163 75v94h52v-94q44 -4 83.5 -20t64.5 -41l-36 -69q-21 19 -50 31.5t-62 15.5v-337q30 2 58.5 13.5t49.5 33.5l55 -58q-28 -31 -72 -50zM175.5 128.5q31.5 -42.5 89.5 -52.5v334
q-57 -9 -89 -51.5t-32 -116.5q0 -71 31.5 -113.5z" />
    <glyph glyph-name="sterling" unicode="&#xa3;" horiz-adv-x="574" 
d="M47 73q41 12 74 44t51.5 75.5t18.5 87.5q0 20 -2 30h-147l20 82h100q-18 28 -28 60.5t-10 64.5q0 55 28 99t78 69t115 25q57 0 106.5 -21t80.5 -57l-38 -69q-57 62 -149 62q-58 0 -87.5 -29t-29.5 -79q0 -67 41 -125h170l-21 -82h-127q1 -9 1 -26q0 -55 -23 -108.5
t-68 -93.5h328v-82h-482v73z" />
    <glyph glyph-name="currency" unicode="&#xa4;" horiz-adv-x="613" 
d="M41 121l84 87q-49 52 -49 129q0 72 42 120l-83 86l63 62l88 -92q54 30 120 30t120 -30l88 92l64 -62l-84 -86q42 -48 42 -120q0 -77 -49 -129l85 -87l-64 -62l-91 96q-55 -25 -111 -25q-57 0 -110 25l-92 -96zM404.5 244.5q35.5 32.5 35.5 92.5q0 59 -35.5 91.5
t-98.5 32.5t-98.5 -32.5t-35.5 -91.5q0 -60 35.5 -92.5t98.5 -32.5t98.5 32.5z" />
    <glyph glyph-name="yen" unicode="&#xa5;" horiz-adv-x="642" 
d="M370 270h159v-46h-159v-67h159v-46h-159v-111h-98v111h-156v46h156v67h-156v46h156l-230 430h110l169 -337l169 337h110z" />
    <glyph glyph-name="brokenbar" unicode="&#xa6;" horiz-adv-x="209" 
d="M53 800h102v-394h-102v394zM53 254h102v-394h-102v394z" />
    <glyph glyph-name="section" unicode="&#xa7;" horiz-adv-x="499" 
d="M137.5 -38q-54.5 21 -92.5 58l54 63q29 -28 69 -44t87 -16q44 0 68 19t24 49q0 22 -10.5 37.5t-37 29.5t-76.5 32q-94 33 -134 70t-40 96q0 35 17 65.5t46 52.5q-49 36 -49 106q0 63 50 102.5t136 39.5q103 0 177 -54l-36 -67q-35 20 -68.5 30t-72.5 10q-41 0 -63.5 -17
t-22.5 -44q0 -23 11 -37.5t35.5 -25.5t75.5 -28q94 -31 133 -66.5t39 -97.5q0 -72 -59 -123q24 -19 36.5 -48t12.5 -64q0 -67 -52.5 -108t-139.5 -41q-63 0 -117.5 21zM358 319q0 24 -18 44.5t-64 37.5q-35 13 -87 34q-42 -28 -42 -75q0 -25 16.5 -42.5t61.5 -36.5l101 -40
q32 36 32 78z" />
    <glyph glyph-name="dieresis" unicode="&#xa8;" horiz-adv-x="402" 
d="M55 579q-18 18 -18 44q0 27 18 44.5t45 17.5t44.5 -18t17.5 -44t-17.5 -44t-44.5 -18t-45 18zM258 579q-18 18 -18 44t18 44t46 18q27 0 44 -18t17 -44t-17 -44t-44 -18q-28 0 -46 18z" />
    <glyph glyph-name="copyright" unicode="&#xa9;" horiz-adv-x="847" 
d="M227 34.5q-87 45.5 -136 127t-49 187.5t49 188t136 127.5t196 45.5t196 -45.5t136.5 -127.5t49.5 -188q0 -107 -49.5 -188.5t-136.5 -126.5t-196 -45t-196 45.5zM569 106q65 32 102.5 94t37.5 149t-37.5 149.5t-102.5 94.5t-146 32t-145.5 -32t-102 -94.5t-37.5 -149.5
t37 -149.5t102 -94t146 -31.5t146 32zM315.5 153q-51.5 26 -81 76t-29.5 119t29 119t80 76.5t115 26.5q46 0 91 -16.5t76 -47.5l-41 -63q-23 22 -55.5 34.5t-67.5 12.5q-59 0 -94 -36.5t-35 -105.5q0 -67 37 -104t101 -37q69 0 111 45l55 -55q-34 -34 -79.5 -52t-94.5 -18
q-66 0 -117.5 26z" />
    <glyph glyph-name="ordfeminine" unicode="&#xaa;" horiz-adv-x="424" 
d="M82.5 428q-40.5 44 -40.5 119q0 78 42.5 124.5t110.5 46.5q60 0 95 -45v39h77v-240q0 -24 3.5 -39.5t11.5 -28.5l-68 -20q-15 20 -19 51h-1q-18 -25 -45.5 -38t-60.5 -13q-65 0 -105.5 44zM266.5 470q23.5 24 23.5 69v23q0 39 -22 66t-63 27q-39 0 -61 -27t-22 -81
q0 -50 21.5 -75.5t59.5 -25.5q40 0 63.5 24z" />
    <glyph glyph-name="guillemotleft" unicode="&#xab;" horiz-adv-x="477" 
d="M48 238q-6 8 -6 22t6 22l129 194h99l-139 -216l139 -217h-99zM207 238q-6 8 -6 22t6 22l129 194h99l-139 -216l139 -217h-99z" />
    <glyph glyph-name="logicalnot" unicode="&#xac;" horiz-adv-x="471" 
d="M328 244h-286v82h388v-215h-102v133z" />
    <glyph glyph-name="uni00AD" unicode="&#xad;" horiz-adv-x="503" 
d="M42 326h420v-82h-420v82z" />
    <glyph glyph-name="registered" unicode="&#xae;" horiz-adv-x="847" 
d="M227 34.5q-87 45.5 -136 127t-49 187.5t49 188t136 127.5t196 45.5t196 -45.5t136.5 -127.5t49.5 -188q0 -107 -49.5 -188.5t-136.5 -126.5t-196 -45t-196 45.5zM569 106q65 32 102.5 94t37.5 149t-37.5 149.5t-102.5 94.5t-146 32t-145.5 -32t-102 -94.5t-37.5 -149.5
t37 -149.5t102 -94t146 -31.5t146 32zM274 493q0 11 -9.5 21.5t-9.5 18.5l2 9q13 35 46 35q18 0 28 -14h108q78 0 122 -35.5t44 -104.5q0 -53 -33.5 -85.5t-86.5 -42.5l106 -154h-97l-93 144h-41v-144h-86v352zM428 352q45 0 67 16.5t22 54.5t-20.5 55t-64.5 17h-72v-143h68
z" />
    <glyph glyph-name="macron" unicode="&#xaf;" horiz-adv-x="406" 
d="M43 634h320v-78h-320v78z" />
    <glyph glyph-name="degree" unicode="&#xb0;" horiz-adv-x="346" 
d="M75 513.5q-40 34.5 -40 90.5t40 91t98 35q59 0 98.5 -35t39.5 -91t-40 -90.5t-98 -34.5t-98 34.5zM214.5 562.5q16.5 15.5 16.5 41.5q0 27 -16.5 43t-41.5 16t-41.5 -16t-16.5 -43q0 -26 16.5 -41.5t41.5 -15.5t41.5 15.5z" />
    <glyph glyph-name="plusminus" unicode="&#xb1;" horiz-adv-x="536" 
d="M482 351v-82h-163v-147h-102v147h-163v82h163v146h102v-146h163zM54 82h428v-82h-428v82z" />
    <glyph glyph-name="uni00B2" unicode="&#xb2;" horiz-adv-x="486" 
d="M51.5 419.5q-9.5 6.5 -9.5 25.5q0 30 7.5 39t26.5 10q19 35 49.5 61t82.5 60q57 37 85 65t28 66q0 42 -20 64t-59 22q-49 0 -73 -25.5t-29 -88.5l-91 9q3 84 55 133.5t137 49.5q84 0 130.5 -44.5t46.5 -119.5q0 -39 -18.5 -69.5t-44 -51.5t-69.5 -51q-40 -27 -59.5 -42.5
t-32.5 -35.5h147l20 45l83 -29l-43 -99h-315q-25 0 -34.5 6.5z" />
    <glyph glyph-name="uni00B3" unicode="&#xb3;" horiz-adv-x="505" 
d="M120.5 440q-55.5 37 -78.5 110l87 29q25 -98 129 -98q109 0 109 91q0 39 -20 59.5t-56 20.5q-17 0 -28 -4l-10 -12q-13 -16 -26 -16q-12 0 -36 15q-15 11 -15 22q0 12 11 27l91 140h-111l-21 -60l-73 46l30 90h295q20 0 29.5 -5t9.5 -18q0 -10 -4 -21q-6 -19 -15.5 -25.5
t-28.5 -6.5h-14l-70 -104q10 4 36 4q52 0 87 -40t35 -112q0 -77 -54.5 -123t-150.5 -46q-82 0 -137.5 37z" />
    <glyph glyph-name="acute" unicode="&#xb4;" horiz-adv-x="284" 
d="M128 724h113l-116 -182h-82z" />
    <glyph glyph-name="paragraph" unicode="&#xb6;" horiz-adv-x="655" 
d="M283 298q-115 0 -178 52t-63 145q0 96 62 150.5t170 54.5h339v-82h-53v-798h-102v798h-73v-798h-102v478z" />
    <glyph glyph-name="periodcentered" unicode="&#xb7;" horiz-adv-x="211" 
d="M60.5 296q-18.5 18 -18.5 44t18.5 44t45.5 18t45 -18t18 -44t-18 -44t-45 -18t-45.5 18z" />
    <glyph glyph-name="cedilla" unicode="&#xb8;" horiz-adv-x="316" 
d="M42 -185l26 51q36 -24 70 -24q39 0 39 34q0 16 -10.5 25t-30.5 9q-5 0 -21 -2l-20 24l45 74h76l-35 -55q76 -12 76 -81q0 -40 -29 -65t-82 -25q-54 0 -104 35z" />
    <glyph glyph-name="uni00B9" unicode="&#xb9;" horiz-adv-x="305" 
d="M151 760l-59 -50l-54 63l146 120q20 19 38 19q17 0 30 -19q12 -16 12 -26q0 -8 -9 -16l-9 -9l1 -430h-96v348z" />
    <glyph glyph-name="ordmasculine" unicode="&#xba;" horiz-adv-x="415" 
d="M87 431q-45 47 -45 120t45 120t120 47t120.5 -47t45.5 -120t-45.5 -120t-120.5 -47t-120 47zM270 474.5q21 27.5 21 76.5t-21 76.5t-63 27.5t-63 -27.5t-21 -76.5t21 -76.5t63 -27.5t63 27.5z" />
    <glyph glyph-name="guillemotright" unicode="&#xbb;" horiz-adv-x="477" 
d="M181 260l-139 216h99l129 -194q6 -10 6 -22q0 -11 -6 -22l-129 -195h-99zM340 260l-139 216h99l129 -194q6 -10 6 -22q0 -11 -6 -22l-129 -195h-99z" />
    <glyph glyph-name="onequarter" unicode="&#xbc;" horiz-adv-x="853" 
d="M154 586l-58 -50l-54 62l145 120q20 19 38 19q17 0 30 -18q12 -16 12 -27q0 -8 -8 -16l-9 -9v-429h-96v348zM521 710h103l-344 -720h-103zM653 98h-207q-19 0 -30.5 10t-11.5 25q0 14 12 29l265 316q16 18 35 18q13 0 26 -9q23 -18 23 -33q0 -9 -8 -20l-8 -11v-249h62
v-76h-62v-98h-96v98zM658 174v157l-131 -157h131z" />
    <glyph glyph-name="onehalf" unicode="&#xbd;" horiz-adv-x="933" 
d="M154 586l-58 -50l-54 62l145 120q20 19 38 19q17 0 30 -18q12 -16 12 -27q0 -8 -8 -16l-9 -9v-429h-96v348zM521 710h103l-344 -720h-103zM498.5 6.5q-9.5 6.5 -9.5 25.5q0 30 8 39t26 9q19 36 49.5 61.5t83.5 60.5q57 37 84.5 64.5t27.5 65.5q0 42 -20 64.5t-60 22.5
q-48 0 -72 -25.5t-29 -88.5l-91 8q3 84 55 134t137 50q84 0 130 -44.5t46 -120.5q0 -39 -18.5 -69.5t-44 -52t-69.5 -50.5q-38 -26 -58 -42t-33 -36h147l20 45l83 -28l-43 -99h-316q-24 0 -33.5 6.5z" />
    <glyph glyph-name="threequarters" unicode="&#xbe;" horiz-adv-x="1009" 
d="M677 710h103l-344 -720h-103zM120.5 248q-55.5 37 -78.5 110l87 29q25 -98 129 -98q109 0 109 91q0 40 -20 60t-56 20q-17 0 -28 -4l-10 -12q-13 -16 -26 -16q-12 0 -36 15q-15 11 -15 22q0 12 11 27l91 140h-111l-21 -60l-73 46l30 90h295q20 0 29.5 -5t9.5 -18
q0 -10 -4 -21q-6 -19 -15.5 -25.5t-28.5 -6.5h-14l-70 -104q10 4 36 4q52 0 87 -40t35 -112q0 -77 -54.5 -123t-150.5 -46q-82 0 -137.5 37zM809 98h-207q-19 0 -30.5 10t-11.5 25q0 14 12 29l265 316q16 18 35 18q12 0 26 -9q23 -18 23 -33q0 -9 -8 -20l-8 -11v-249h62v-76
h-62v-98h-96v98zM814 174v157l-131 -157h131z" />
    <glyph glyph-name="questiondown" unicode="&#xbf;" horiz-adv-x="518" 
d="M211.5 345.5q-19.5 18.5 -19.5 48.5q0 29 19.5 47.5t49.5 18.5q31 0 50 -18.5t19 -47.5q0 -30 -19 -48.5t-50 -18.5q-30 0 -49.5 18.5zM96.5 -200q-54.5 50 -54.5 134q0 49 23 82t67 72q40 35 60 63t20 67v40h102v-40q0 -52 -24 -87.5t-69 -76.5q-38 -35 -56.5 -60.5
t-18.5 -59.5q0 -47 25.5 -73t78.5 -26q52 0 87 28t55 84l84 -41q-25 -74 -86.5 -115t-142.5 -41q-96 0 -150.5 50z" />
    <glyph glyph-name="Agrave" unicode="&#xc0;" horiz-adv-x="679" 
d="M282 668q9 26 24.5 38t38.5 12q29 0 45.5 -12.5t16.5 -31.5q0 -4 -5 -17l239 -657h-107l-66 189h-257l-66 -189h-107zM445 271l-104 306l-104 -306h208zM190 954h113l84 -182h-82z" />
    <glyph glyph-name="Aacute" unicode="&#xc1;" horiz-adv-x="679" 
d="M282 668q9 26 24.5 38t38.5 12q29 0 45.5 -12.5t16.5 -31.5q0 -4 -5 -17l239 -657h-107l-66 189h-257l-66 -189h-107zM445 271l-104 306l-104 -306h208zM387 954h112l-115 -182h-83z" />
    <glyph glyph-name="Acircumflex" unicode="&#xc2;" horiz-adv-x="679" 
d="M282 668q9 26 24.5 38t38.5 12q29 0 45.5 -12.5t16.5 -31.5q0 -4 -5 -17l239 -657h-107l-66 189h-257l-66 -189h-107zM445 271l-104 306l-104 -306h208zM303 929q13 16 23 22t25 6q26 0 38 -13t7 -26l-3 -6l127 -136h-106l-70 92l-67 -92h-103z" />
    <glyph glyph-name="Atilde" unicode="&#xc3;" horiz-adv-x="679" 
d="M282 668q9 26 24.5 38t38.5 12q29 0 45.5 -12.5t16.5 -31.5q0 -4 -5 -17l239 -657h-107l-66 189h-257l-66 -189h-107zM445 271l-104 306l-104 -306h208zM180 813q7 39 34 65t61 26q25 0 45 -8.5t43 -23.5q11 -7 22.5 -13t20.5 -6q19 0 29.5 11.5t14.5 37.5l55 -26
q-1 -43 -25 -68.5t-62 -25.5q-21 0 -38 7t-43 22q-20 11 -30 16t-21 5q-39 0 -47 -50z" />
    <glyph glyph-name="Adieresis" unicode="&#xc4;" horiz-adv-x="679" 
d="M282 668q9 26 24.5 38t38.5 12q29 0 45.5 -12.5t16.5 -31.5q0 -4 -5 -17l239 -657h-107l-66 189h-257l-66 -189h-107zM445 271l-104 306l-104 -306h208zM195 797q-18 18 -18 44t18 44t46 18q27 0 45 -18t18 -44t-18 -44t-45 -18q-28 0 -46 18zM406 797q-19 18 -19 44
t19 44t47 18q26 0 44 -18t18 -44t-18 -44t-44 -18q-28 0 -47 18z" />
    <glyph glyph-name="Aring" unicode="&#xc5;" horiz-adv-x="679" 
d="M282 668q9 26 24.5 38t38.5 12q29 0 45.5 -12.5t16.5 -31.5q0 -4 -5 -17l239 -657h-107l-66 189h-257l-66 -189h-107zM445 271l-104 306l-104 -306h208zM265.5 776q-33.5 27 -33.5 76q0 48 33.5 75t79.5 27t79.5 -27t33.5 -75q0 -49 -33.5 -76t-79.5 -27t-79.5 27z
M379 818q14 12 14 34t-13.5 34t-34.5 12t-34.5 -12t-13.5 -34t14 -34t34 -12t34 12z" />
    <glyph glyph-name="AE" unicode="&#xc6;" horiz-adv-x="819" 
d="M325 700h443v-88h-290v-203h206v-84h-206v-237h299v-88h-400v189h-154l-75 -189h-106zM377 271v323l-127 -323h127z" />
    <glyph glyph-name="Ccedilla" unicode="&#xc7;" horiz-adv-x="632" 
d="M504 20.5q-51 -24.5 -109 -29.5l-25 -40q76 -12 76 -81q0 -40 -29 -65t-81 -25q-27 0 -55 9t-52 26l27 52q35 -24 70 -24q18 0 28.5 8.5t10.5 24.5t-11 25t-31 9q-6 0 -20 -2l-22 24l38 61q-131 16 -204 111t-73 247q0 109 38 190t109.5 125t169.5 44q64 0 119.5 -22
t91.5 -61l-42 -72q-34 35 -73 52.5t-96 17.5q-101 0 -157 -73t-56 -201q0 -129 58.5 -202.5t164.5 -73.5q99 0 159 67l62 -58q-35 -39 -86 -63.5z" />
    <glyph glyph-name="Egrave" unicode="&#xc8;" horiz-adv-x="533" 
d="M70 598q0 18 -5 27.5t-14 18.5q-7 8 -9 12t1 12q6 18 21 34t32 16q18 0 33 -18h353v-88h-310v-203h226v-84h-226v-237h319v-88h-421v598zM123 954h113l84 -182h-82z" />
    <glyph glyph-name="Eacute" unicode="&#xc9;" horiz-adv-x="533" 
d="M70 598q0 18 -5 27.5t-14 18.5q-7 8 -9 12t1 12q6 18 21 34t32 16q18 0 33 -18h353v-88h-310v-203h226v-84h-226v-237h319v-88h-421v598zM320 954h112l-115 -182h-83z" />
    <glyph glyph-name="Ecircumflex" unicode="&#xca;" horiz-adv-x="533" 
d="M70 598q0 18 -5 27.5t-14 18.5q-7 8 -9 12t1 12q6 18 21 34t32 16q18 0 33 -18h353v-88h-310v-203h226v-84h-226v-237h319v-88h-421v598zM236 929q13 16 23 22t25 6q26 0 38 -13t7 -26l-3 -6l127 -136h-106l-70 92l-67 -92h-103z" />
    <glyph glyph-name="Edieresis" unicode="&#xcb;" horiz-adv-x="533" 
d="M70 598q0 18 -5 27.5t-14 18.5q-7 8 -9 12t1 12q6 18 21 34t32 16q18 0 33 -18h353v-88h-310v-203h226v-84h-226v-237h319v-88h-421v598zM128 797q-18 18 -18 44t18 44t46 18q27 0 45 -18t18 -44t-18 -44t-45 -18q-28 0 -46 18zM339 797q-19 18 -19 44t19 44t47 18
q26 0 44 -18t18 -44t-18 -44t-44 -18q-28 0 -47 18z" />
    <glyph glyph-name="Igrave" unicode="&#xcc;" horiz-adv-x="292" 
d="M95 700h102v-700h-102v700zM-9 954h113l84 -182h-82z" />
    <glyph glyph-name="Iacute" unicode="&#xcd;" horiz-adv-x="292" 
d="M95 700h102v-700h-102v700zM188 954h112l-115 -182h-83z" />
    <glyph glyph-name="Icircumflex" unicode="&#xce;" horiz-adv-x="292" 
d="M95 700h102v-700h-102v700zM104 929q13 16 23 22t25 6q26 0 38 -13t7 -26l-3 -6l127 -136h-106l-70 92l-67 -92h-103z" />
    <glyph glyph-name="Idieresis" unicode="&#xcf;" horiz-adv-x="292" 
d="M95 700h102v-700h-102v700zM-4 797q-18 18 -18 44t18 44t46 18q27 0 45 -18t18 -44t-18 -44t-45 -18q-28 0 -46 18zM207 797q-19 18 -19 44t19 44t47 18q26 0 44 -18t18 -44t-18 -44t-44 -18q-28 0 -47 18z" />
    <glyph glyph-name="Eth" unicode="&#xd0;" horiz-adv-x="675" 
d="M477.5 658.5q75.5 -41.5 115.5 -120t40 -186.5q0 -169 -85 -260.5t-244 -91.5h-202v311h-60v76h60v211q0 19 -4.5 28.5t-13.5 17.5q-6 7 -8.5 11.5t-0.5 12.5q7 18 21.5 34t32.5 16q17 0 32 -18h138q103 0 178.5 -41.5zM474 154.5q55 66.5 55 197.5q0 128 -60 194
t-173 66h-92v-225h158v-76h-158v-223h100q115 0 170 66.5z" />
    <glyph glyph-name="Ntilde" unicode="&#xd1;" horiz-adv-x="618" 
d="M64 612q0 11 -3.5 18t-9.5 14q-9 11 -9 20q0 5 1 9q6 20 22 32.5t36 12.5q28 0 45 -25l315 -508v515h102v-700h-87l-310 498v-498h-102v612zM154 813q7 39 34 65t61 26q25 0 45 -8.5t43 -23.5q11 -7 22.5 -13t20.5 -6q19 0 29.5 11.5t14.5 37.5l55 -26q-1 -43 -25 -68.5
t-62 -25.5q-21 0 -38 7t-43 22q-20 11 -30 16t-21 5q-39 0 -47 -50z" />
    <glyph glyph-name="Ograve" unicode="&#xd2;" horiz-adv-x="673" 
d="M118.5 86.5q-76.5 96.5 -76.5 263.5t76.5 263.5t218.5 96.5q94 0 160.5 -44t100.5 -125.5t34 -190.5t-34 -190.5t-100.5 -125.5t-160.5 -44q-142 0 -218.5 96.5zM480.5 149q47.5 74 47.5 201t-47.5 201t-143.5 74t-143.5 -73.5t-47.5 -201.5t47.5 -201.5t143.5 -73.5
t143.5 74zM182 954h113l84 -182h-82z" />
    <glyph glyph-name="Oacute" unicode="&#xd3;" horiz-adv-x="673" 
d="M118.5 86.5q-76.5 96.5 -76.5 263.5t76.5 263.5t218.5 96.5q94 0 160.5 -44t100.5 -125.5t34 -190.5t-34 -190.5t-100.5 -125.5t-160.5 -44q-142 0 -218.5 96.5zM480.5 149q47.5 74 47.5 201t-47.5 201t-143.5 74t-143.5 -73.5t-47.5 -201.5t47.5 -201.5t143.5 -73.5
t143.5 74zM379 954h112l-115 -182h-83z" />
    <glyph glyph-name="Ocircumflex" unicode="&#xd4;" horiz-adv-x="673" 
d="M118.5 86.5q-76.5 96.5 -76.5 263.5t76.5 263.5t218.5 96.5q94 0 160.5 -44t100.5 -125.5t34 -190.5t-34 -190.5t-100.5 -125.5t-160.5 -44q-142 0 -218.5 96.5zM480.5 149q47.5 74 47.5 201t-47.5 201t-143.5 74t-143.5 -73.5t-47.5 -201.5t47.5 -201.5t143.5 -73.5
t143.5 74zM295 929q13 16 23 22t25 6q26 0 38 -13t7 -26l-3 -6l127 -136h-106l-70 92l-67 -92h-103z" />
    <glyph glyph-name="Otilde" unicode="&#xd5;" horiz-adv-x="673" 
d="M118.5 86.5q-76.5 96.5 -76.5 263.5t76.5 263.5t218.5 96.5q94 0 160.5 -44t100.5 -125.5t34 -190.5t-34 -190.5t-100.5 -125.5t-160.5 -44q-142 0 -218.5 96.5zM480.5 149q47.5 74 47.5 201t-47.5 201t-143.5 74t-143.5 -73.5t-47.5 -201.5t47.5 -201.5t143.5 -73.5
t143.5 74zM172 813q7 39 34 65t61 26q25 0 45 -8.5t43 -23.5q11 -7 22.5 -13t20.5 -6q19 0 29.5 11.5t14.5 37.5l55 -26q-1 -43 -25 -68.5t-62 -25.5q-21 0 -38 7t-43 22q-20 11 -30 16t-21 5q-39 0 -47 -50z" />
    <glyph glyph-name="Odieresis" unicode="&#xd6;" horiz-adv-x="673" 
d="M118.5 86.5q-76.5 96.5 -76.5 263.5t76.5 263.5t218.5 96.5q94 0 160.5 -44t100.5 -125.5t34 -190.5t-34 -190.5t-100.5 -125.5t-160.5 -44q-142 0 -218.5 96.5zM480.5 149q47.5 74 47.5 201t-47.5 201t-143.5 74t-143.5 -73.5t-47.5 -201.5t47.5 -201.5t143.5 -73.5
t143.5 74zM187 797q-18 18 -18 44t18 44t46 18q27 0 45 -18t18 -44t-18 -44t-45 -18q-28 0 -46 18zM398 797q-19 18 -19 44t19 44t47 18q26 0 44 -18t18 -44t-18 -44t-44 -18q-28 0 -47 18z" />
    <glyph glyph-name="multiply" unicode="&#xd7;" horiz-adv-x="536" 
d="M66 145l140 138l-140 140l63 62l140 -139l139 139l63 -62l-140 -140l140 -139l-63 -62l-139 139l-140 -138z" />
    <glyph glyph-name="Oslash" unicode="&#xd8;" horiz-adv-x="673" 
d="M604 525q28 -76 28 -175q0 -109 -34 -190.5t-100.5 -125.5t-160.5 -44q-92 0 -156 41l-57 -102l-45 25l61 110q-48 46 -73 119t-25 167q0 167 76.5 263.5t218.5 96.5q80 0 143 -34l52 95l45 -25l-55 -99q54 -46 82 -122zM190 154l246 443q-42 28 -99 28
q-96 0 -143.5 -73.5t-47.5 -201.5q0 -126 44 -196zM480.5 149q47.5 74 47.5 201q0 138 -54 210l-248 -448q43 -37 111 -37q96 0 143.5 74z" />
    <glyph glyph-name="Ugrave" unicode="&#xd9;" horiz-adv-x="636" 
d="M121 58.5q-71 68.5 -71 191.5v450h102v-456q0 -83 44 -126t122 -43t122 43t44 126v456h102v-450q0 -123 -71 -191.5t-197 -68.5t-197 68.5zM163 954h113l84 -182h-82z" />
    <glyph glyph-name="Uacute" unicode="&#xda;" horiz-adv-x="636" 
d="M121 58.5q-71 68.5 -71 191.5v450h102v-456q0 -83 44 -126t122 -43t122 43t44 126v456h102v-450q0 -123 -71 -191.5t-197 -68.5t-197 68.5zM360 954h112l-115 -182h-83z" />
    <glyph glyph-name="Ucircumflex" unicode="&#xdb;" horiz-adv-x="636" 
d="M121 58.5q-71 68.5 -71 191.5v450h102v-456q0 -83 44 -126t122 -43t122 43t44 126v456h102v-450q0 -123 -71 -191.5t-197 -68.5t-197 68.5zM276 929q13 16 23 22t25 6q26 0 38 -13t7 -26l-3 -6l127 -136h-106l-70 92l-67 -92h-103z" />
    <glyph glyph-name="Udieresis" unicode="&#xdc;" horiz-adv-x="636" 
d="M121 58.5q-71 68.5 -71 191.5v450h102v-456q0 -83 44 -126t122 -43t122 43t44 126v456h102v-450q0 -123 -71 -191.5t-197 -68.5t-197 68.5zM168 797q-18 18 -18 44t18 44t46 18q27 0 45 -18t18 -44t-18 -44t-45 -18q-28 0 -46 18zM379 797q-19 18 -19 44t19 44t47 18
q26 0 44 -18t18 -44t-18 -44t-44 -18q-28 0 -47 18z" />
    <glyph glyph-name="Yacute" unicode="&#xdd;" horiz-adv-x="642" 
d="M272 270l-230 430h110l169 -337l169 337h110l-230 -430v-270h-98v270zM363 954h112l-115 -182h-83z" />
    <glyph glyph-name="Thorn" unicode="&#xde;" horiz-adv-x="584" 
d="M63 700h102v-130h113q122 0 193 -56t71 -164t-71 -164t-193 -56h-113v-130h-102v700zM275 218q79 0 121 34t42 98t-42 98t-121 34h-110v-264h110z" />
    <glyph glyph-name="germandbls" unicode="&#xdf;" horiz-adv-x="600" 
d="M50 500q0 60 29.5 107.5t83 75t123.5 27.5t123 -24t82 -66.5t29 -96.5q0 -59 -32.5 -96.5t-86.5 -52.5v-1q157 -34 157 -174q0 -95 -56.5 -152t-156.5 -57q-36 0 -74.5 6.5t-68.5 17.5l26 77q47 -20 110 -20q56 0 86 35t30 94q0 69 -46 99.5t-133 30.5h-39v80h39
q69 0 105 27t36 86q0 50 -34.5 78t-95.5 28q-65 0 -100 -33t-35 -94v-752h-101v750z" />
    <glyph glyph-name="agrave" unicode="&#xe0;" horiz-adv-x="573" 
d="M142.5 21.5q-48.5 31.5 -74.5 87.5t-26 128q0 76 26.5 134.5t76.5 91t118 32.5q94 0 147 -74v64h97v-356q0 -37 6 -62t18 -44l-82 -33q-26 31 -30 81l-2 1q-29 -40 -70 -61t-92 -21q-64 0 -112.5 31.5zM373 115q36 43 36 110v34q0 39 -15 74.5t-45.5 57.5t-74.5 22
q-64 0 -98 -47.5t-34 -128.5q0 -77 33 -121t96 -44q66 0 102 43zM123 739h113l84 -182h-82z" />
    <glyph glyph-name="aacute" unicode="&#xe1;" horiz-adv-x="573" 
d="M142.5 21.5q-48.5 31.5 -74.5 87.5t-26 128q0 76 26.5 134.5t76.5 91t118 32.5q94 0 147 -74v64h97v-356q0 -37 6 -62t18 -44l-82 -33q-26 31 -30 81l-2 1q-29 -40 -70 -61t-92 -21q-64 0 -112.5 31.5zM373 115q36 43 36 110v34q0 39 -15 74.5t-45.5 57.5t-74.5 22
q-64 0 -98 -47.5t-34 -128.5q0 -77 33 -121t96 -44q66 0 102 43zM320 739h112l-115 -182h-83z" />
    <glyph glyph-name="acircumflex" unicode="&#xe2;" horiz-adv-x="573" 
d="M142.5 21.5q-48.5 31.5 -74.5 87.5t-26 128q0 76 26.5 134.5t76.5 91t118 32.5q94 0 147 -74v64h97v-356q0 -37 6 -62t18 -44l-82 -33q-26 31 -30 81l-2 1q-29 -40 -70 -61t-92 -21q-64 0 -112.5 31.5zM373 115q36 43 36 110v34q0 39 -15 74.5t-45.5 57.5t-74.5 22
q-64 0 -98 -47.5t-34 -128.5q0 -77 33 -121t96 -44q66 0 102 43zM236 714q13 16 23 22t25 6q26 0 38 -13t7 -26l-3 -6l127 -136h-106l-70 92l-67 -92h-103z" />
    <glyph glyph-name="atilde" unicode="&#xe3;" horiz-adv-x="573" 
d="M142.5 21.5q-48.5 31.5 -74.5 87.5t-26 128q0 76 26.5 134.5t76.5 91t118 32.5q94 0 147 -74v64h97v-356q0 -37 6 -62t18 -44l-82 -33q-26 31 -30 81l-2 1q-29 -40 -70 -61t-92 -21q-64 0 -112.5 31.5zM373 115q36 43 36 110v34q0 39 -15 74.5t-45.5 57.5t-74.5 22
q-64 0 -98 -47.5t-34 -128.5q0 -77 33 -121t96 -44q66 0 102 43zM113 598q7 39 34 65t61 26q25 0 45 -8.5t43 -23.5q11 -7 22.5 -13t20.5 -6q19 0 29.5 11.5t14.5 37.5l55 -26q-1 -43 -25 -68.5t-62 -25.5q-21 0 -38 7t-43 22q-20 11 -30 16t-21 5q-39 0 -47 -50z" />
    <glyph glyph-name="adieresis" unicode="&#xe4;" horiz-adv-x="573" 
d="M142.5 21.5q-48.5 31.5 -74.5 87.5t-26 128q0 76 26.5 134.5t76.5 91t118 32.5q94 0 147 -74v64h97v-356q0 -37 6 -62t18 -44l-82 -33q-26 31 -30 81l-2 1q-29 -40 -70 -61t-92 -21q-64 0 -112.5 31.5zM373 115q36 43 36 110v34q0 39 -15 74.5t-45.5 57.5t-74.5 22
q-64 0 -98 -47.5t-34 -128.5q0 -77 33 -121t96 -44q66 0 102 43zM128 582q-18 18 -18 44t18 44t46 18q27 0 45 -18t18 -44t-18 -44t-45 -18q-28 0 -46 18zM339 582q-19 18 -19 44t19 44t47 18q26 0 44 -18t18 -44t-18 -44t-44 -18q-28 0 -47 18z" />
    <glyph glyph-name="aring" unicode="&#xe5;" horiz-adv-x="573" 
d="M142.5 21.5q-48.5 31.5 -74.5 87.5t-26 128q0 76 26.5 134.5t76.5 91t118 32.5q94 0 147 -74v64h97v-356q0 -37 6 -62t18 -44l-82 -33q-26 31 -30 81l-2 1q-29 -40 -70 -61t-92 -21q-64 0 -112.5 31.5zM373 115q36 43 36 110v34q0 39 -15 74.5t-45.5 57.5t-74.5 22
q-64 0 -98 -47.5t-34 -128.5q0 -77 33 -121t96 -44q66 0 102 43zM198.5 561q-33.5 27 -33.5 76q0 48 33.5 75t79.5 27t79.5 -27t33.5 -75q0 -49 -33.5 -76t-79.5 -27t-79.5 27zM312 603q14 12 14 34t-13.5 34t-34.5 12t-34.5 -12t-13.5 -34t14 -34t34 -12t34 12z" />
    <glyph glyph-name="ae" unicode="&#xe6;" horiz-adv-x="894" 
d="M92 32q-50 42 -50 115q0 72 52.5 112.5t143.5 40.5h144v11q0 42 -33.5 72t-86.5 30q-45 0 -80.5 -13.5t-68.5 -40.5l-51 58q36 36 90 57t112 21q59 0 102.5 -24.5t68.5 -67.5h1q27 41 75 66.5t110 25.5q117 0 174 -67t57 -171q0 -27 -16 -39.5t-49 -12.5h-303v-12
q-1 -52 38 -86t106 -34q87 0 145 55l51 -60q-37 -37 -87 -57.5t-109 -20.5q-70 0 -122.5 30.5t-73.5 76.5h-1q-29 -46 -84 -76.5t-120 -30.5q-85 0 -135 42zM751 284q0 59 -33.5 94t-98.5 35q-41 0 -71.5 -16.5t-47 -43t-17.5 -55.5v-14h268zM315.5 89.5q32.5 16.5 50 43.5
t17.5 57v31h-149q-47 0 -69.5 -19.5t-22.5 -53.5q0 -75 96 -75q45 0 77.5 16.5z" />
    <glyph glyph-name="ccedilla" unicode="&#xe7;" horiz-adv-x="521" 
d="M411 14.5q-41 -19.5 -86 -23.5l-25 -40q76 -12 76 -81q0 -40 -29 -65t-81 -25q-27 0 -55 9t-52 26l27 52q35 -24 70 -24q18 0 28.5 8.5t10.5 24.5t-11 25t-31 9q-6 0 -20 -2l-22 24l38 61q-98 14 -152.5 79t-54.5 170q0 77 30.5 134.5t87 88t132.5 30.5q51 0 98 -17
t75 -45l-36 -69q-24 22 -59 35t-74 13q-71 0 -111.5 -43.5t-40.5 -126.5q0 -82 41.5 -125.5t116.5 -43.5q35 0 67 12t56 36l55 -58q-28 -29 -69 -48.5z" />
    <glyph glyph-name="egrave" unicode="&#xe8;" horiz-adv-x="549" 
d="M107.5 57.5q-65.5 67.5 -65.5 181.5q0 112 58.5 184t173.5 72q78 0 130.5 -35t77.5 -90t25 -114q0 -56 -65 -56h-300q0 -58 39 -92.5t106 -34.5q86 0 139 51l52 -56q-33 -37 -82 -57.5t-109 -20.5q-114 0 -179.5 67.5zM407 280q0 58 -35.5 95.5t-97.5 37.5t-97 -39.5
t-35 -93.5h265zM125 739h113l84 -182h-82z" />
    <glyph glyph-name="eacute" unicode="&#xe9;" horiz-adv-x="549" 
d="M107.5 57.5q-65.5 67.5 -65.5 181.5q0 112 58.5 184t173.5 72q78 0 130.5 -35t77.5 -90t25 -114q0 -56 -65 -56h-300q0 -58 39 -92.5t106 -34.5q86 0 139 51l52 -56q-33 -37 -82 -57.5t-109 -20.5q-114 0 -179.5 67.5zM407 280q0 58 -35.5 95.5t-97.5 37.5t-97 -39.5
t-35 -93.5h265zM322 739h112l-115 -182h-83z" />
    <glyph glyph-name="ecircumflex" unicode="&#xea;" horiz-adv-x="549" 
d="M107.5 57.5q-65.5 67.5 -65.5 181.5q0 112 58.5 184t173.5 72q78 0 130.5 -35t77.5 -90t25 -114q0 -56 -65 -56h-300q0 -58 39 -92.5t106 -34.5q86 0 139 51l52 -56q-33 -37 -82 -57.5t-109 -20.5q-114 0 -179.5 67.5zM407 280q0 58 -35.5 95.5t-97.5 37.5t-97 -39.5
t-35 -93.5h265zM238 714q13 16 23 22t25 6q26 0 38 -13t7 -26l-3 -6l127 -136h-106l-70 92l-67 -92h-103z" />
    <glyph glyph-name="edieresis" unicode="&#xeb;" horiz-adv-x="549" 
d="M107.5 57.5q-65.5 67.5 -65.5 181.5q0 112 58.5 184t173.5 72q78 0 130.5 -35t77.5 -90t25 -114q0 -56 -65 -56h-300q0 -58 39 -92.5t106 -34.5q86 0 139 51l52 -56q-33 -37 -82 -57.5t-109 -20.5q-114 0 -179.5 67.5zM407 280q0 58 -35.5 95.5t-97.5 37.5t-97 -39.5
t-35 -93.5h265zM130 582q-18 18 -18 44t18 44t46 18q27 0 45 -18t18 -44t-18 -44t-45 -18q-28 0 -46 18zM341 582q-19 18 -19 44t19 44t47 18q26 0 44 -18t18 -44t-18 -44t-44 -18q-28 0 -47 18z" />
    <glyph glyph-name="igrave" unicode="&#xec;" horiz-adv-x="256" 
d="M78 485h100v-485h-100v485zM-27 739h113l84 -182h-82z" />
    <glyph glyph-name="iacute" unicode="&#xed;" horiz-adv-x="256" 
d="M78 485h100v-485h-100v485zM170 739h112l-115 -182h-83z" />
    <glyph glyph-name="icircumflex" unicode="&#xee;" horiz-adv-x="256" 
d="M78 485h100v-485h-100v485zM86 714q13 16 23 22t25 6q26 0 38 -13t7 -26l-3 -6l127 -136h-106l-70 92l-67 -92h-103z" />
    <glyph glyph-name="idieresis" unicode="&#xef;" horiz-adv-x="256" 
d="M78 485h100v-485h-100v485zM-22 582q-18 18 -18 44t18 44t46 18q27 0 45 -18t18 -44t-18 -44t-45 -18q-28 0 -46 18zM189 582q-19 18 -19 44t19 44t47 18q26 0 44 -18t18 -44t-18 -44t-44 -18q-28 0 -47 18z" />
    <glyph glyph-name="eth" unicode="&#xf0;" horiz-adv-x="637" 
d="M170 22q-63 32 -97.5 91t-34.5 137q0 77 34 135t96.5 90.5t145.5 32.5q66 0 115 -33l3 2q-42 73 -113 122l-147 -68l-34 74l102 46q-49 30 -108 49l36 73q52 -17 89 -34.5t77 -43.5l150 70l34 -74l-109 -50q89 -74 139 -172.5t50 -207.5q0 -76 -35 -138t-99.5 -97.5
t-148.5 -35.5q-82 0 -145 32zM444.5 123.5q48.5 48.5 48.5 131.5q0 79 -47.5 123.5t-128.5 44.5q-80 0 -127.5 -47t-47.5 -126q0 -81 47.5 -128t126.5 -47q80 0 128.5 48.5z" />
    <glyph glyph-name="ntilde" unicode="&#xf1;" horiz-adv-x="554" 
d="M391 115v180q0 60 -24.5 88.5t-75.5 28.5q-57 0 -92 -44.5t-35 -108.5v-259h-100v358q0 32 -5 56t-17 47l89 34q8 -16 15.5 -38.5t9.5 -44.5q27 38 70 60.5t92 22.5q173 0 173 -201v-178q0 -52 22 -91l-90 -35q-32 54 -32 125zM115 598q7 39 34 65t61 26q25 0 45 -8.5
t43 -23.5q11 -7 22.5 -13t20.5 -6q19 0 29.5 11.5t14.5 37.5l55 -26q-1 -43 -25 -68.5t-62 -25.5q-21 0 -38 7t-43 22q-20 11 -30 16t-21 5q-39 0 -47 -50z" />
    <glyph glyph-name="ograve" unicode="&#xf2;" horiz-adv-x="555" 
d="M150 22.5q-53 32.5 -80.5 90t-27.5 130.5t27.5 130t80.5 89.5t127 32.5t127.5 -32.5t81 -89.5t27.5 -130t-27.5 -130.5t-81 -90t-127.5 -32.5t-127 32.5zM377 118.5q34 45.5 34 124.5q0 78 -34 123.5t-100 45.5q-65 0 -99 -46t-34 -123q0 -79 34 -124.5t99 -45.5
q66 0 100 45.5zM122 739h113l84 -182h-82z" />
    <glyph glyph-name="oacute" unicode="&#xf3;" horiz-adv-x="555" 
d="M150 22.5q-53 32.5 -80.5 90t-27.5 130.5t27.5 130t80.5 89.5t127 32.5t127.5 -32.5t81 -89.5t27.5 -130t-27.5 -130.5t-81 -90t-127.5 -32.5t-127 32.5zM377 118.5q34 45.5 34 124.5q0 78 -34 123.5t-100 45.5q-65 0 -99 -46t-34 -123q0 -79 34 -124.5t99 -45.5
q66 0 100 45.5zM319 739h112l-115 -182h-83z" />
    <glyph glyph-name="ocircumflex" unicode="&#xf4;" horiz-adv-x="555" 
d="M150 22.5q-53 32.5 -80.5 90t-27.5 130.5t27.5 130t80.5 89.5t127 32.5t127.5 -32.5t81 -89.5t27.5 -130t-27.5 -130.5t-81 -90t-127.5 -32.5t-127 32.5zM377 118.5q34 45.5 34 124.5q0 78 -34 123.5t-100 45.5q-65 0 -99 -46t-34 -123q0 -79 34 -124.5t99 -45.5
q66 0 100 45.5zM235 714q13 16 23 22t25 6q26 0 38 -13t7 -26l-3 -6l127 -136h-106l-70 92l-67 -92h-103z" />
    <glyph glyph-name="otilde" unicode="&#xf5;" horiz-adv-x="555" 
d="M150 22.5q-53 32.5 -80.5 90t-27.5 130.5t27.5 130t80.5 89.5t127 32.5t127.5 -32.5t81 -89.5t27.5 -130t-27.5 -130.5t-81 -90t-127.5 -32.5t-127 32.5zM377 118.5q34 45.5 34 124.5q0 78 -34 123.5t-100 45.5q-65 0 -99 -46t-34 -123q0 -79 34 -124.5t99 -45.5
q66 0 100 45.5zM112 598q7 39 34 65t61 26q25 0 45 -8.5t43 -23.5q11 -7 22.5 -13t20.5 -6q19 0 29.5 11.5t14.5 37.5l55 -26q-1 -43 -25 -68.5t-62 -25.5q-21 0 -38 7t-43 22q-20 11 -30 16t-21 5q-39 0 -47 -50z" />
    <glyph glyph-name="odieresis" unicode="&#xf6;" horiz-adv-x="555" 
d="M150 22.5q-53 32.5 -80.5 90t-27.5 130.5t27.5 130t80.5 89.5t127 32.5t127.5 -32.5t81 -89.5t27.5 -130t-27.5 -130.5t-81 -90t-127.5 -32.5t-127 32.5zM377 118.5q34 45.5 34 124.5q0 78 -34 123.5t-100 45.5q-65 0 -99 -46t-34 -123q0 -79 34 -124.5t99 -45.5
q66 0 100 45.5zM127 582q-18 18 -18 44t18 44t46 18q27 0 45 -18t18 -44t-18 -44t-45 -18q-28 0 -46 18zM338 582q-19 18 -19 44t19 44t47 18q26 0 44 -18t18 -44t-18 -44t-44 -18q-28 0 -47 18z" />
    <glyph glyph-name="divide" unicode="&#xf7;" horiz-adv-x="536" 
d="M226 403q-17 17 -17 41q0 23 17 40t42 17t42 -16.5t17 -40.5t-17 -41t-42 -17t-42 17zM50 326h436v-82h-436v82zM226 79q-17 17 -17 41t17 40.5t42 16.5t42 -16.5t17 -40.5t-17 -41t-42 -17t-42 17z" />
    <glyph glyph-name="oslash" unicode="&#xf8;" horiz-adv-x="555" 
d="M489 365q24 -54 24 -122q0 -73 -27.5 -130.5t-81 -90t-127.5 -32.5q-57 0 -102 20l-45 -81l-45 25l46 82q-43 33 -66 87t-23 120q0 73 27.5 130t80.5 89.5t127 32.5q56 0 98 -18l44 79l45 -25l-44 -79q45 -33 69 -87zM177 120l156 281q-25 11 -56 11q-65 0 -99 -46
t-34 -123q0 -78 33 -123zM377 118.5q34 45.5 34 124.5q0 82 -37 126l-157 -283q28 -13 60 -13q66 0 100 45.5z" />
    <glyph glyph-name="ugrave" unicode="&#xf9;" horiz-adv-x="540" 
d="M99.5 43q-49.5 53 -49.5 146l1 296h100v-295q0 -60 26 -88.5t81 -28.5q57 0 87.5 41t30.5 102v269h100v-358q0 -32 5 -56t17 -47l-89 -34q-8 16 -15.5 38.5t-9.5 44.5q-51 -83 -150 -83q-85 0 -134.5 53zM116 739h113l84 -182h-82z" />
    <glyph glyph-name="uacute" unicode="&#xfa;" horiz-adv-x="540" 
d="M99.5 43q-49.5 53 -49.5 146l1 296h100v-295q0 -60 26 -88.5t81 -28.5q57 0 87.5 41t30.5 102v269h100v-358q0 -32 5 -56t17 -47l-89 -34q-8 16 -15.5 38.5t-9.5 44.5q-51 -83 -150 -83q-85 0 -134.5 53zM313 739h112l-115 -182h-83z" />
    <glyph glyph-name="ucircumflex" unicode="&#xfb;" horiz-adv-x="540" 
d="M99.5 43q-49.5 53 -49.5 146l1 296h100v-295q0 -60 26 -88.5t81 -28.5q57 0 87.5 41t30.5 102v269h100v-358q0 -32 5 -56t17 -47l-89 -34q-8 16 -15.5 38.5t-9.5 44.5q-51 -83 -150 -83q-85 0 -134.5 53zM229 714q13 16 23 22t25 6q26 0 38 -13t7 -26l-3 -6l127 -136
h-106l-70 92l-67 -92h-103z" />
    <glyph glyph-name="udieresis" unicode="&#xfc;" horiz-adv-x="540" 
d="M99.5 43q-49.5 53 -49.5 146l1 296h100v-295q0 -60 26 -88.5t81 -28.5q57 0 87.5 41t30.5 102v269h100v-358q0 -32 5 -56t17 -47l-89 -34q-8 16 -15.5 38.5t-9.5 44.5q-51 -83 -150 -83q-85 0 -134.5 53zM121 582q-18 18 -18 44t18 44t46 18q27 0 45 -18t18 -44t-18 -44
t-45 -18q-28 0 -46 18zM332 582q-19 18 -19 44t19 44t47 18q26 0 44 -18t18 -44t-18 -44t-44 -18q-28 0 -47 18z" />
    <glyph glyph-name="yacute" unicode="&#xfd;" horiz-adv-x="575" 
d="M79 -148q66 23 106.5 66.5t55.5 113.5l-199 453h115l136 -347l126 347h114l-198 -494q-35 -88 -87 -139t-140 -82zM331 739h112l-115 -182h-83z" />
    <glyph glyph-name="thorn" unicode="&#xfe;" horiz-adv-x="565" 
d="M53 704h100v-280q26 34 65 53t88 19q66 0 115 -31t75.5 -88t26.5 -133q0 -116 -58.5 -184.5t-163.5 -68.5q-46 0 -84 19t-64 53v-282h-100v923zM389 118.5q33 45.5 33 125.5q0 77 -33 124t-98 47t-102 -44.5t-37 -109.5v-34q0 -40 15.5 -75t46 -57t73.5 -22
q69 0 102 45.5z" />
    <glyph glyph-name="ydieresis" unicode="&#xff;" horiz-adv-x="575" 
d="M79 -148q66 23 106.5 66.5t55.5 113.5l-199 453h115l136 -347l126 347h114l-198 -494q-35 -88 -87 -139t-140 -82zM139 582q-18 18 -18 44t18 44t46 18q27 0 45 -18t18 -44t-18 -44t-45 -18q-28 0 -46 18zM350 582q-19 18 -19 44t19 44t47 18q26 0 44 -18t18 -44t-18 -44
t-44 -18q-28 0 -47 18z" />
    <glyph glyph-name="Amacron" unicode="&#x100;" horiz-adv-x="679" 
d="M282 668q9 26 24.5 38t38.5 12q29 0 45.5 -12.5t16.5 -31.5q0 -4 -5 -17l239 -657h-107l-66 189h-257l-66 -189h-107zM445 271l-104 306l-104 -306h208zM185 864h320v-78h-320v78z" />
    <glyph glyph-name="amacron" unicode="&#x101;" horiz-adv-x="573" 
d="M142.5 21.5q-48.5 31.5 -74.5 87.5t-26 128q0 76 26.5 134.5t76.5 91t118 32.5q94 0 147 -74v64h97v-356q0 -37 6 -62t18 -44l-82 -33q-26 31 -30 81l-2 1q-29 -40 -70 -61t-92 -21q-64 0 -112.5 31.5zM373 115q36 43 36 110v34q0 39 -15 74.5t-45.5 57.5t-74.5 22
q-64 0 -98 -47.5t-34 -128.5q0 -77 33 -121t96 -44q66 0 102 43zM118 649h320v-78h-320v78z" />
    <glyph glyph-name="Abreve" unicode="&#x102;" horiz-adv-x="679" 
d="M282 668q9 26 24.5 38t38.5 12q29 0 45.5 -12.5t16.5 -31.5q0 -4 -5 -17l239 -657h-107l-66 189h-257l-66 -189h-107zM445 271l-104 306l-104 -306h208zM239 803.5q-41 37.5 -41 107.5v9h87v-10q0 -37 15.5 -56t44.5 -19t44.5 19t15.5 56v10h87v-9q0 -70 -41 -107.5
t-106 -37.5t-106 37.5z" />
    <glyph glyph-name="abreve" unicode="&#x103;" horiz-adv-x="573" 
d="M142.5 21.5q-48.5 31.5 -74.5 87.5t-26 128q0 76 26.5 134.5t76.5 91t118 32.5q94 0 147 -74v64h97v-356q0 -37 6 -62t18 -44l-82 -33q-26 31 -30 81l-2 1q-29 -40 -70 -61t-92 -21q-64 0 -112.5 31.5zM373 115q36 43 36 110v34q0 39 -15 74.5t-45.5 57.5t-74.5 22
q-64 0 -98 -47.5t-34 -128.5q0 -77 33 -121t96 -44q66 0 102 43zM172 588.5q-41 37.5 -41 107.5v9h87v-10q0 -37 15.5 -56t44.5 -19t44.5 19t15.5 56v10h87v-9q0 -70 -41 -107.5t-106 -37.5t-106 37.5z" />
    <glyph glyph-name="Aogonek" unicode="&#x104;" horiz-adv-x="679" 
d="M282 668q9 26 24.5 38t38.5 12q29 0 45.5 -12.5t16.5 -31.5q0 -4 -5 -17l239 -657h-107l-66 189h-257l-66 -189h-107zM445 271l-104 306l-104 -306h208zM497.5 -198q-29.5 27 -29.5 74q0 40 25 72.5t66 51.5h82q-46 -29 -68.5 -56t-22.5 -57q0 -40 46 -40q23 0 50 16
l20 -59q-40 -29 -90 -29q-49 0 -78.5 27z" />
    <glyph glyph-name="aogonek" unicode="&#x105;" horiz-adv-x="573" 
d="M556 -174q-40 -28 -90 -28q-48 0 -78.5 26.5t-30.5 72.5q0 36 20.5 67t55.5 51q-11 24 -14 56l-2 1q-29 -40 -70 -61t-92 -21q-64 0 -112.5 31.5t-74.5 87.5t-26 128q0 76 26.5 134.5t76.5 91t118 32.5q94 0 147 -74v64h97v-356q0 -37 6 -62t18 -44q-47 -29 -69 -56
t-22 -58q0 -19 11.5 -29.5t33.5 -10.5q24 0 50 16zM409 259q0 39 -15 74.5t-45.5 57.5t-74.5 22q-64 0 -98 -47.5t-34 -128.5q0 -77 33 -121t96 -44q66 0 102 43t36 110v34z" />
    <glyph glyph-name="Cacute" unicode="&#x106;" horiz-adv-x="632" 
d="M193 34q-73 44 -112 125.5t-39 191.5q0 109 38 190t109.5 125t169.5 44q64 0 119.5 -22t91.5 -61l-42 -72q-34 35 -73 52.5t-96 17.5q-101 0 -157 -73t-56 -201q0 -129 58.5 -202.5t164.5 -73.5q99 0 159 67l62 -58q-39 -45 -98.5 -69.5t-124.5 -24.5q-101 0 -174 44z
M388 954h112l-115 -182h-83z" />
    <glyph glyph-name="cacute" unicode="&#x107;" horiz-adv-x="521" 
d="M110 57q-68 67 -68 185q0 77 30.5 134.5t87 88t132.5 30.5q51 0 98 -17t75 -45l-36 -69q-24 22 -59 35t-74 13q-71 0 -111.5 -43.5t-40.5 -126.5q0 -82 41.5 -125.5t116.5 -43.5q35 0 67 12t56 36l55 -58q-31 -34 -80 -53.5t-102 -19.5q-120 0 -188 67zM328 739h112
l-115 -182h-83z" />
    <glyph glyph-name="Ccircumflex" unicode="&#x108;" horiz-adv-x="632" 
d="M193 34q-73 44 -112 125.5t-39 191.5q0 109 38 190t109.5 125t169.5 44q64 0 119.5 -22t91.5 -61l-42 -72q-34 35 -73 52.5t-96 17.5q-101 0 -157 -73t-56 -201q0 -129 58.5 -202.5t164.5 -73.5q99 0 159 67l62 -58q-39 -45 -98.5 -69.5t-124.5 -24.5q-101 0 -174 44z
M304 929q13 16 23 22t25 6q26 0 38 -13t7 -26l-3 -6l127 -136h-106l-70 92l-67 -92h-103z" />
    <glyph glyph-name="ccircumflex" unicode="&#x109;" horiz-adv-x="521" 
d="M110 57q-68 67 -68 185q0 77 30.5 134.5t87 88t132.5 30.5q51 0 98 -17t75 -45l-36 -69q-24 22 -59 35t-74 13q-71 0 -111.5 -43.5t-40.5 -126.5q0 -82 41.5 -125.5t116.5 -43.5q35 0 67 12t56 36l55 -58q-31 -34 -80 -53.5t-102 -19.5q-120 0 -188 67zM244 714
q13 16 23 22t25 6q26 0 38 -13t7 -26l-3 -6l127 -136h-106l-70 92l-67 -92h-103z" />
    <glyph glyph-name="Cdotaccent" unicode="&#x10a;" horiz-adv-x="632" 
d="M193 34q-73 44 -112 125.5t-39 191.5q0 109 38 190t109.5 125t169.5 44q64 0 119.5 -22t91.5 -61l-42 -72q-34 35 -73 52.5t-96 17.5q-101 0 -157 -73t-56 -201q0 -129 58.5 -202.5t164.5 -73.5q99 0 159 67l62 -58q-39 -45 -98.5 -69.5t-124.5 -24.5q-101 0 -174 44z
M301.5 809q-17.5 18 -17.5 44q0 27 17.5 44.5t45.5 17.5q27 0 44 -18t17 -44t-17 -44t-44 -18q-28 0 -45.5 18z" />
    <glyph glyph-name="cdotaccent" unicode="&#x10b;" horiz-adv-x="521" 
d="M110 57q-68 67 -68 185q0 77 30.5 134.5t87 88t132.5 30.5q51 0 98 -17t75 -45l-36 -69q-24 22 -59 35t-74 13q-71 0 -111.5 -43.5t-40.5 -126.5q0 -82 41.5 -125.5t116.5 -43.5q35 0 67 12t56 36l55 -58q-31 -34 -80 -53.5t-102 -19.5q-120 0 -188 67zM241.5 594
q-17.5 18 -17.5 44q0 27 17.5 44.5t45.5 17.5q27 0 44 -18t17 -44t-17 -44t-44 -18q-28 0 -45.5 18z" />
    <glyph glyph-name="Ccaron" unicode="&#x10c;" horiz-adv-x="632" 
d="M193 34q-73 44 -112 125.5t-39 191.5q0 109 38 190t109.5 125t169.5 44q64 0 119.5 -22t91.5 -61l-42 -72q-34 35 -73 52.5t-96 17.5q-101 0 -157 -73t-56 -201q0 -129 58.5 -202.5t164.5 -73.5q99 0 159 67l62 -58q-39 -45 -98.5 -69.5t-124.5 -24.5q-101 0 -174 44z
M307 785.5q-12 9.5 -12 21.5q0 2 2 8l2 5l-126 137h105l71 -93l66 93h103l-128 -155q-13 -15 -23 -20.5t-26 -5.5q-22 0 -34 9.5z" />
    <glyph glyph-name="ccaron" unicode="&#x10d;" horiz-adv-x="521" 
d="M110 57q-68 67 -68 185q0 77 30.5 134.5t87 88t132.5 30.5q51 0 98 -17t75 -45l-36 -69q-24 22 -59 35t-74 13q-71 0 -111.5 -43.5t-40.5 -126.5q0 -82 41.5 -125.5t116.5 -43.5q35 0 67 12t56 36l55 -58q-31 -34 -80 -53.5t-102 -19.5q-120 0 -188 67zM247 570.5
q-12 9.5 -12 21.5q0 2 2 8l2 5l-126 137h105l71 -93l66 93h103l-128 -155q-13 -15 -23 -20.5t-26 -5.5q-22 0 -34 9.5z" />
    <glyph glyph-name="Dcaron" unicode="&#x10e;" horiz-adv-x="642" 
d="M70 598q0 18 -5 28t-14 19t-9 16q0 9 8 23t20.5 24t25.5 10q17 0 33 -18h138q103 0 178 -42t115.5 -120t40.5 -186q0 -169 -85 -260.5t-244 -91.5h-202v598zM272 88q225 0 225 264q0 128 -60 194t-173 66h-92v-524h100zM272 785.5q-12 9.5 -12 21.5q0 2 2 8l2 5l-126 137
h105l71 -93l66 93h103l-128 -155q-13 -15 -23 -20.5t-26 -5.5q-22 0 -34 9.5z" />
    <glyph glyph-name="dcaron" unicode="&#x10f;" horiz-adv-x="751" 
d="M559 553q24 10 41.5 26t23.5 33q-22 0 -39 16.5t-17 39.5q0 30 19 48.5t50 18.5q33 0 52 -20.5t19 -55.5q0 -47 -34 -88t-86 -65zM430.5 24.5q-8.5 21.5 -9.5 47.5q-58 -82 -161 -82q-66 0 -115.5 30t-76 85.5t-26.5 129.5q0 118 59 189t165 71q89 0 145 -72v311h100
v-605q0 -39 6 -62.5t18 -44.5l-83 -32q-13 13 -21.5 34.5zM375.5 115.5q36.5 43.5 36.5 109.5v34q0 40 -15.5 75t-46 57t-73.5 22q-69 0 -102 -48.5t-33 -129.5q0 -74 33 -118.5t98 -44.5q66 0 102.5 43.5z" />
    <glyph glyph-name="Dcroat" unicode="&#x110;" horiz-adv-x="675" 
d="M477.5 658.5q75.5 -41.5 115.5 -120t40 -186.5q0 -169 -85 -260.5t-244 -91.5h-202v311h-60v76h60v211q0 19 -4.5 28.5t-13.5 17.5q-6 7 -8.5 11.5t-0.5 12.5q7 18 21.5 34t32.5 16q17 0 32 -18h138q103 0 178.5 -41.5zM474 154.5q55 66.5 55 197.5q0 128 -60 194
t-173 66h-92v-225h158v-76h-158v-223h100q115 0 170 66.5z" />
    <glyph glyph-name="dcroat" unicode="&#x111;" horiz-adv-x="610" 
d="M511 569v-440q0 -39 6 -62.5t18 -44.5l-83 -32q-13 13 -21.5 34.5t-9.5 47.5q-58 -82 -161 -82q-66 0 -115.5 30t-76 85.5t-26.5 129.5q0 118 59 189t165 71q89 0 145 -72v146h-106v76h106v89h100v-89h56v-76h-56zM412 259q0 40 -15.5 75t-46 57t-73.5 22
q-69 0 -102 -48.5t-33 -129.5q0 -74 33 -118.5t98 -44.5q66 0 102.5 43.5t36.5 109.5v34z" />
    <glyph glyph-name="Emacron" unicode="&#x112;" horiz-adv-x="533" 
d="M70 598q0 18 -5 27.5t-14 18.5q-7 8 -9 12t1 12q6 18 21 34t32 16q18 0 33 -18h353v-88h-310v-203h226v-84h-226v-237h319v-88h-421v598zM118 864h320v-78h-320v78z" />
    <glyph glyph-name="emacron" unicode="&#x113;" horiz-adv-x="549" 
d="M107.5 57.5q-65.5 67.5 -65.5 181.5q0 112 58.5 184t173.5 72q78 0 130.5 -35t77.5 -90t25 -114q0 -56 -65 -56h-300q0 -58 39 -92.5t106 -34.5q86 0 139 51l52 -56q-33 -37 -82 -57.5t-109 -20.5q-114 0 -179.5 67.5zM407 280q0 58 -35.5 95.5t-97.5 37.5t-97 -39.5
t-35 -93.5h265zM120 649h320v-78h-320v78z" />
    <glyph glyph-name="Ebreve" unicode="&#x114;" horiz-adv-x="533" 
d="M70 598q0 18 -5 27.5t-14 18.5q-7 8 -9 12t1 12q6 18 21 34t32 16q18 0 33 -18h353v-88h-310v-203h226v-84h-226v-237h319v-88h-421v598zM172 803.5q-41 37.5 -41 107.5v9h87v-10q0 -37 15.5 -56t44.5 -19t44.5 19t15.5 56v10h87v-9q0 -70 -41 -107.5t-106 -37.5
t-106 37.5z" />
    <glyph glyph-name="ebreve" unicode="&#x115;" horiz-adv-x="549" 
d="M107.5 57.5q-65.5 67.5 -65.5 181.5q0 112 58.5 184t173.5 72q78 0 130.5 -35t77.5 -90t25 -114q0 -56 -65 -56h-300q0 -58 39 -92.5t106 -34.5q86 0 139 51l52 -56q-33 -37 -82 -57.5t-109 -20.5q-114 0 -179.5 67.5zM407 280q0 58 -35.5 95.5t-97.5 37.5t-97 -39.5
t-35 -93.5h265zM174 588.5q-41 37.5 -41 107.5v9h87v-10q0 -37 15.5 -56t44.5 -19t44.5 19t15.5 56v10h87v-9q0 -70 -41 -107.5t-106 -37.5t-106 37.5z" />
    <glyph glyph-name="Edotaccent" unicode="&#x116;" horiz-adv-x="533" 
d="M70 598q0 18 -5 27.5t-14 18.5q-7 8 -9 12t1 12q6 18 21 34t32 16q18 0 33 -18h353v-88h-310v-203h226v-84h-226v-237h319v-88h-421v598zM233.5 809q-17.5 18 -17.5 44q0 27 17.5 44.5t45.5 17.5q27 0 44 -18t17 -44t-17 -44t-44 -18q-28 0 -45.5 18z" />
    <glyph glyph-name="edotaccent" unicode="&#x117;" horiz-adv-x="549" 
d="M107.5 57.5q-65.5 67.5 -65.5 181.5q0 112 58.5 184t173.5 72q78 0 130.5 -35t77.5 -90t25 -114q0 -56 -65 -56h-300q0 -58 39 -92.5t106 -34.5q86 0 139 51l52 -56q-33 -37 -82 -57.5t-109 -20.5q-114 0 -179.5 67.5zM407 280q0 58 -35.5 95.5t-97.5 37.5t-97 -39.5
t-35 -93.5h265zM235.5 594q-17.5 18 -17.5 44q0 27 17.5 44.5t45.5 17.5q27 0 44 -18t17 -44t-17 -44t-44 -18q-28 0 -45.5 18z" />
    <glyph glyph-name="Eogonek" unicode="&#x118;" horiz-adv-x="533" 
d="M507 -190q-38 -29 -90 -29q-48 0 -78 27t-30 74q0 37 22 67.5t58 50.5h-319v598q0 18 -5 27.5t-14 18.5q-7 8 -9 12t1 12q6 18 21 34t32 16q18 0 33 -18h353v-88h-310v-203h226v-84h-226v-237h319v-88h-18q-41 -27 -61 -52.5t-20 -54.5q0 -40 45 -40q24 0 50 16z" />
    <glyph glyph-name="eogonek" unicode="&#x119;" horiz-adv-x="549" 
d="M442 200h-300q0 -58 39 -92.5t106 -34.5q86 0 139 51l52 -56q-57 -63 -151 -75q-35 -25 -52.5 -49t-17.5 -51q0 -40 45 -40q24 0 50 16l21 -59q-40 -29 -90 -29q-48 0 -78.5 26.5t-30.5 72.5q0 34 18.5 63.5t49.5 49.5q-95 13 -147.5 78.5t-52.5 167.5q0 112 58.5 184
t173.5 72q78 0 130.5 -35t77.5 -90t25 -114q0 -56 -65 -56zM407 280q0 58 -35.5 95.5t-97.5 37.5t-97 -39.5t-35 -93.5h265z" />
    <glyph glyph-name="Ecaron" unicode="&#x11a;" horiz-adv-x="533" 
d="M70 598q0 18 -5 27.5t-14 18.5q-7 8 -9 12t1 12q6 18 21 34t32 16q18 0 33 -18h353v-88h-310v-203h226v-84h-226v-237h319v-88h-421v598zM239 785.5q-12 9.5 -12 21.5q0 2 2 8l2 5l-126 137h105l71 -93l66 93h103l-128 -155q-13 -15 -23 -20.5t-26 -5.5q-22 0 -34 9.5z
" />
    <glyph glyph-name="ecaron" unicode="&#x11b;" horiz-adv-x="549" 
d="M107.5 57.5q-65.5 67.5 -65.5 181.5q0 112 58.5 184t173.5 72q78 0 130.5 -35t77.5 -90t25 -114q0 -56 -65 -56h-300q0 -58 39 -92.5t106 -34.5q86 0 139 51l52 -56q-33 -37 -82 -57.5t-109 -20.5q-114 0 -179.5 67.5zM407 280q0 58 -35.5 95.5t-97.5 37.5t-97 -39.5
t-35 -93.5h265zM241 570.5q-12 9.5 -12 21.5q0 2 2 8l2 5l-126 137h105l71 -93l66 93h103l-128 -155q-13 -15 -23 -20.5t-26 -5.5q-22 0 -34 9.5z" />
    <glyph glyph-name="Gcircumflex" unicode="&#x11c;" horiz-adv-x="657" 
d="M188.5 34q-71.5 44 -109 125.5t-37.5 191.5q0 109 38 190t109.5 125t169.5 44q68 0 122 -21.5t91 -61.5l-42 -72q-33 36 -72.5 53t-98.5 17q-101 0 -157 -73t-56 -201q0 -129 56.5 -202.5t158.5 -73.5q43 0 71 7t54 24v189h-161v85h204q15 16 32 16q18 0 33.5 -17
t19.5 -35q2 -7 0 -11t-8 -10q-8 -7 -13 -16.5t-5 -28.5v-219q-61 -38 -112 -53.5t-117 -15.5q-99 0 -170.5 44zM314 929q13 16 23 22t25 6q26 0 38 -13t7 -26l-3 -6l127 -136h-106l-70 92l-67 -92h-103z" />
    <glyph glyph-name="gcircumflex" unicode="&#x11d;" horiz-adv-x="575" 
d="M172 -208q-41 10 -75 27l30 75q58 -29 130 -29q83 0 117.5 41t34.5 124v42q-25 -34 -63 -53t-85 -19q-104 0 -161.5 67.5t-57.5 183.5q0 112 57.5 178.5t156.5 66.5q101 0 163 -82q3 51 32 82l83 -33q-13 -22 -19 -45t-6 -62v-324q0 -123 -66 -186.5t-186 -63.5
q-44 0 -85 10zM348.5 104q30.5 22 46.5 57t16 75v25q0 65 -37 109t-102 44t-97.5 -44t-32.5 -119q0 -80 32.5 -124.5t100.5 -44.5q43 0 73.5 22zM251 714q13 16 23 22t25 6q26 0 38 -13t7 -26l-3 -6l127 -136h-106l-70 92l-67 -92h-103z" />
    <glyph glyph-name="Gbreve" unicode="&#x11e;" horiz-adv-x="657" 
d="M188.5 34q-71.5 44 -109 125.5t-37.5 191.5q0 109 38 190t109.5 125t169.5 44q68 0 122 -21.5t91 -61.5l-42 -72q-33 36 -72.5 53t-98.5 17q-101 0 -157 -73t-56 -201q0 -129 56.5 -202.5t158.5 -73.5q43 0 71 7t54 24v189h-161v85h204q15 16 32 16q18 0 33.5 -17
t19.5 -35q2 -7 0 -11t-8 -10q-8 -7 -13 -16.5t-5 -28.5v-219q-61 -38 -112 -53.5t-117 -15.5q-99 0 -170.5 44zM250 803.5q-41 37.5 -41 107.5v9h87v-10q0 -37 15.5 -56t44.5 -19t44.5 19t15.5 56v10h87v-9q0 -70 -41 -107.5t-106 -37.5t-106 37.5z" />
    <glyph glyph-name="gbreve" unicode="&#x11f;" horiz-adv-x="575" 
d="M172 -208q-41 10 -75 27l30 75q58 -29 130 -29q83 0 117.5 41t34.5 124v42q-25 -34 -63 -53t-85 -19q-104 0 -161.5 67.5t-57.5 183.5q0 112 57.5 178.5t156.5 66.5q101 0 163 -82q3 51 32 82l83 -33q-13 -22 -19 -45t-6 -62v-324q0 -123 -66 -186.5t-186 -63.5
q-44 0 -85 10zM348.5 104q30.5 22 46.5 57t16 75v25q0 65 -37 109t-102 44t-97.5 -44t-32.5 -119q0 -80 32.5 -124.5t100.5 -44.5q43 0 73.5 22zM187 588.5q-41 37.5 -41 107.5v9h87v-10q0 -37 15.5 -56t44.5 -19t44.5 19t15.5 56v10h87v-9q0 -70 -41 -107.5t-106 -37.5
t-106 37.5z" />
    <glyph glyph-name="Gdotaccent" unicode="&#x120;" horiz-adv-x="657" 
d="M188.5 34q-71.5 44 -109 125.5t-37.5 191.5q0 109 38 190t109.5 125t169.5 44q68 0 122 -21.5t91 -61.5l-42 -72q-33 36 -72.5 53t-98.5 17q-101 0 -157 -73t-56 -201q0 -129 56.5 -202.5t158.5 -73.5q43 0 71 7t54 24v189h-161v85h204q15 16 32 16q18 0 33.5 -17
t19.5 -35q2 -7 0 -11t-8 -10q-8 -7 -13 -16.5t-5 -28.5v-219q-61 -38 -112 -53.5t-117 -15.5q-99 0 -170.5 44zM311.5 809q-17.5 18 -17.5 44q0 27 17.5 44.5t45.5 17.5q27 0 44 -18t17 -44t-17 -44t-44 -18q-28 0 -45.5 18z" />
    <glyph glyph-name="gdotaccent" unicode="&#x121;" horiz-adv-x="575" 
d="M172 -208q-41 10 -75 27l30 75q58 -29 130 -29q83 0 117.5 41t34.5 124v42q-25 -34 -63 -53t-85 -19q-104 0 -161.5 67.5t-57.5 183.5q0 112 57.5 178.5t156.5 66.5q101 0 163 -82q3 51 32 82l83 -33q-13 -22 -19 -45t-6 -62v-324q0 -123 -66 -186.5t-186 -63.5
q-44 0 -85 10zM348.5 104q30.5 22 46.5 57t16 75v25q0 65 -37 109t-102 44t-97.5 -44t-32.5 -119q0 -80 32.5 -124.5t100.5 -44.5q43 0 73.5 22zM248.5 594q-17.5 18 -17.5 44q0 27 17.5 44.5t45.5 17.5q27 0 44 -18t17 -44t-17 -44t-44 -18q-28 0 -45.5 18z" />
    <glyph glyph-name="uni0122" unicode="&#x122;" horiz-adv-x="657" 
d="M188.5 34q-71.5 44 -109 125.5t-37.5 191.5q0 109 38 190t109.5 125t169.5 44q68 0 122 -21.5t91 -61.5l-42 -72q-33 36 -72.5 53t-98.5 17q-101 0 -157 -73t-56 -201q0 -129 56.5 -202.5t158.5 -73.5q43 0 71 7t54 24v189h-161v85h204q15 16 32 16q18 0 33.5 -17
t19.5 -35q2 -7 0 -11t-8 -10q-8 -7 -13 -16.5t-5 -28.5v-219q-61 -38 -112 -53.5t-117 -15.5q-99 0 -170.5 44zM292 -232q24 11 40.5 26.5t23.5 33.5q-3 -1 -10 -1q-23 0 -38.5 16t-15.5 40q0 29 18 47t48 18q33 0 51 -20.5t18 -56.5q0 -45 -30 -82.5t-78 -58.5z" />
    <glyph glyph-name="uni0123" unicode="&#x123;" horiz-adv-x="575" 
d="M172 -208q-41 10 -75 27l30 75q58 -29 130 -29q83 0 117.5 41t34.5 124v42q-25 -34 -63 -53t-85 -19q-104 0 -161.5 67.5t-57.5 183.5q0 112 57.5 178.5t156.5 66.5q101 0 163 -82q3 51 32 82l83 -33q-13 -22 -19 -45t-6 -62v-324q0 -123 -66 -186.5t-186 -63.5
q-44 0 -85 10zM348.5 104q30.5 22 46.5 57t16 75v25q0 65 -37 109t-102 44t-97.5 -44t-32.5 -119q0 -80 32.5 -124.5t100.5 -44.5q43 0 73.5 22zM246 564.5q-19 20.5 -19 56.5q0 47 34.5 88t86.5 65l28 -47q-23 -11 -40.5 -27t-23.5 -32q22 0 39 -16.5t17 -39.5
q0 -31 -19 -49.5t-50 -18.5q-34 0 -53 20.5z" />
    <glyph glyph-name="Hcircumflex" unicode="&#x124;" horiz-adv-x="619" 
d="M55 700h102v-288h305v288h102v-700h-102v324h-305v-324h-102v700zM268 929q13 16 23 22t25 6q26 0 38 -13t7 -26l-3 -6l127 -136h-106l-70 92l-67 -92h-103z" />
    <glyph glyph-name="hcircumflex" unicode="&#x125;" horiz-adv-x="544" 
d="M380 115v180q0 60 -24.5 88.5t-75.5 28.5q-56 0 -91.5 -44.5t-35.5 -108.5v-259h-100v734h100v-313q27 35 66 54.5t86 19.5q89 0 132 -51.5t43 -149.5v-178q0 -52 22 -91l-90 -35q-32 57 -32 125zM180 963q13 16 23 22t25 6q26 0 38 -13t7 -26l-3 -6l127 -136h-106
l-70 92l-67 -92h-103z" />
    <glyph glyph-name="Hbar" unicode="&#x126;" horiz-adv-x="696" 
d="M661 514h-58v-514h-102v324h-305v-324h-102v514h-59v76h59v110h102v-110h305v110h102v-110h58v-76zM501 514h-305v-102h305v102z" />
    <glyph glyph-name="hbar" unicode="&#x127;" horiz-adv-x="589" 
d="M547 25l-90 -35q-32 54 -32 125v180q0 60 -25 88.5t-75 28.5q-56 0 -91.5 -44.5t-35.5 -108.5v-259h-100v570h-56v70h56v94h100v-94h120v-70h-120v-149q26 35 65.5 54.5t86.5 19.5q89 0 132 -51.5t43 -149.5v-178q0 -52 22 -91z" />
    <glyph glyph-name="Itilde" unicode="&#x128;" horiz-adv-x="292" 
d="M95 700h102v-700h-102v700zM-19 813q7 39 34 65t61 26q25 0 45 -8.5t43 -23.5q11 -7 22.5 -13t20.5 -6q19 0 29.5 11.5t14.5 37.5l55 -26q-1 -43 -25 -68.5t-62 -25.5q-21 0 -38 7t-43 22q-20 11 -30 16t-21 5q-39 0 -47 -50z" />
    <glyph glyph-name="itilde" unicode="&#x129;" horiz-adv-x="256" 
d="M78 485h100v-485h-100v485zM-37 598q7 39 34 65t61 26q25 0 45 -8.5t43 -23.5q11 -7 22.5 -13t20.5 -6q19 0 29.5 11.5t14.5 37.5l55 -26q-1 -43 -25 -68.5t-62 -25.5q-21 0 -38 7t-43 22q-20 11 -30 16t-21 5q-39 0 -47 -50z" />
    <glyph glyph-name="Imacron" unicode="&#x12a;" horiz-adv-x="292" 
d="M95 700h102v-700h-102v700zM-14 864h320v-78h-320v78z" />
    <glyph glyph-name="imacron" unicode="&#x12b;" horiz-adv-x="256" 
d="M78 485h100v-485h-100v485zM-32 649h320v-78h-320v78z" />
    <glyph glyph-name="Ibreve" unicode="&#x12c;" horiz-adv-x="292" 
d="M95 700h102v-700h-102v700zM40 803.5q-41 37.5 -41 107.5v9h87v-10q0 -37 15.5 -56t44.5 -19t44.5 19t15.5 56v10h87v-9q0 -70 -41 -107.5t-106 -37.5t-106 37.5z" />
    <glyph glyph-name="ibreve" unicode="&#x12d;" horiz-adv-x="256" 
d="M78 485h100v-485h-100v485zM22 588.5q-41 37.5 -41 107.5v9h87v-10q0 -37 15.5 -56t44.5 -19t44.5 19t15.5 56v10h87v-9q0 -70 -41 -107.5t-106 -37.5t-106 37.5z" />
    <glyph glyph-name="Iogonek" unicode="&#x12e;" horiz-adv-x="292" 
d="M214 -190q-40 -29 -90 -29q-49 0 -78.5 27t-29.5 74q0 37 21.5 67.5t57.5 50.5v700h102v-700h-17q-42 -27 -62 -52.5t-20 -54.5q0 -40 46 -40q23 0 50 16z" />
    <glyph glyph-name="iogonek" unicode="&#x12f;" horiz-adv-x="256" 
d="M77 593q-20 20 -20 49t20 48.5t51 19.5q30 0 50.5 -19.5t20.5 -48.5t-20.5 -49t-50.5 -20q-31 0 -51 20zM77 485h100v-485h-100v485zM33.5 -198q-29.5 27 -29.5 74q0 40 25 72.5t66 51.5h82q-46 -29 -68.5 -56t-22.5 -57q0 -40 46 -40q23 0 50 16l20 -59q-40 -29 -90 -29
q-49 0 -78.5 27z" />
    <glyph glyph-name="Idotaccent" unicode="&#x130;" horiz-adv-x="292" 
d="M95 700h102v-700h-102v700zM101.5 809q-17.5 18 -17.5 44q0 27 17.5 44.5t45.5 17.5q27 0 44 -18t17 -44t-17 -44t-44 -18q-28 0 -45.5 18z" />
    <glyph glyph-name="dotlessi" unicode="&#x131;" horiz-adv-x="256" 
d="M78 485h100v-485h-100v485z" />
    <glyph glyph-name="IJ" unicode="&#x132;" horiz-adv-x="730" 
d="M95 700h102v-700h-102v700zM395.5 2.5q-41.5 12.5 -71.5 34.5l41 73q55 -34 112 -34q97 0 97 103v521h102v-518q0 -89 -53 -140.5t-145 -51.5q-41 0 -82.5 12.5z" />
    <glyph glyph-name="ij" unicode="&#x133;" horiz-adv-x="598" 
d="M77 603q-20 20 -20 49t20 48.5t51 19.5q30 0 50.5 -19.5t20.5 -48.5t-20.5 -49t-50.5 -20q-31 0 -51 20zM419 603q-20 20 -20 49t20 48.5t51 19.5q30 0 50.5 -19.5t20.5 -48.5t-20.5 -49t-50.5 -20q-31 0 -51 20zM77 485h100v-485h-100v485zM265 -205.5
q-40 13.5 -65 34.5l38 68q48 -34 101 -34q43 0 61.5 24t18.5 81v517h100v-513q0 -191 -174 -191q-40 0 -80 13.5z" />
    <glyph glyph-name="Jcircumflex" unicode="&#x134;" horiz-adv-x="438" 
d="M103.5 2.5q-41.5 12.5 -71.5 34.5l41 73q55 -34 112 -34q97 0 97 103v521h102v-518q0 -89 -53 -140.5t-145 -51.5q-41 0 -82.5 12.5zM292 929q13 16 23 22t25 6q26 0 38 -13t7 -26l-3 -6l127 -136h-106l-70 92l-67 -92h-103z" />
    <glyph glyph-name="jcircumflex" unicode="&#x135;" horiz-adv-x="430" 
d="M96.5 -205.5q-40.5 13.5 -64.5 34.5l38 68q46 -34 101 -34q43 0 61.5 24t18.5 81v517h100v-513q0 -191 -174 -191q-40 0 -80.5 13.5zM260 714q13 16 23 22t25 6q26 0 38 -13t7 -26l-3 -6l127 -136h-106l-70 92l-67 -92h-103z" />
    <glyph glyph-name="uni0136" unicode="&#x136;" horiz-adv-x="602" 
d="M55 700h102v-276l247 276h126l-303 -334l333 -366h-126l-277 307v-307h-102v700zM225 -232q24 11 40.5 26.5t23.5 33.5q-3 -1 -10 -1q-23 0 -38.5 16t-15.5 40q0 29 18 47t48 18q33 0 51 -20.5t18 -56.5q0 -45 -30 -82.5t-78 -58.5z" />
    <glyph glyph-name="uni0137" unicode="&#x137;" horiz-adv-x="494" 
d="M55 734h100v-409l166 160h126l-238 -225l267 -260h-130l-191 190v-190h-100v734zM171 -232q24 11 40.5 26.5t23.5 33.5q-3 -1 -10 -1q-23 0 -38.5 16t-15.5 40q0 29 18 47t48 18q33 0 51 -20.5t18 -56.5q0 -45 -30 -82.5t-78 -58.5z" />
    <glyph glyph-name="kgreenlandic" unicode="&#x138;" horiz-adv-x="517" 
d="M55 490h100v-184l166 183h126l-238 -243l267 -246h-130l-191 180v-180h-100v490z" />
    <glyph glyph-name="Lacute" unicode="&#x139;" horiz-adv-x="507" 
d="M60.5 4q-14.5 14 -18.5 32q-2 7 0 11.5t8 10.5q9 10 13.5 19t4.5 26v597h102v-612h302v-88h-346q-11 -10 -33 -10q-18 0 -32.5 14zM165 954h112l-115 -182h-83z" />
    <glyph glyph-name="lacute" unicode="&#x13a;" horiz-adv-x="210" 
d="M55 734h100v-734h-100v734zM147 988h112l-115 -182h-83z" />
    <glyph glyph-name="uni013B" unicode="&#x13b;" horiz-adv-x="507" 
d="M60.5 4q-14.5 14 -18.5 32q-2 7 0 11.5t8 10.5q9 10 13.5 19t4.5 26v597h102v-612h302v-88h-346q-11 -10 -33 -10q-18 0 -32.5 14zM192 -232q24 11 40.5 26.5t23.5 33.5q-3 -1 -10 -1q-23 0 -38.5 16t-15.5 40q0 29 18 47t48 18q33 0 51 -20.5t18 -56.5q0 -45 -30 -82.5
t-78 -58.5z" />
    <glyph glyph-name="uni013C" unicode="&#x13c;" horiz-adv-x="210" 
d="M55 734h100v-734h-100v734zM41 -232q24 11 40.5 26.5t23.5 33.5q-3 -1 -10 -1q-23 0 -38.5 16t-15.5 40q0 29 18 47t48 18q33 0 51 -20.5t18 -56.5q0 -45 -30 -82.5t-78 -58.5z" />
    <glyph glyph-name="Lcaron" unicode="&#x13d;" horiz-adv-x="507" 
d="M60.5 4q-14.5 14 -18.5 32q-2 7 0 11.5t8 10.5q9 10 13.5 19t4.5 26v597h102v-612h302v-88h-346q-11 -10 -33 -10q-18 0 -32.5 14zM323 551q23 11 40.5 27t22.5 32q-22 0 -39 16.5t-17 39.5q0 31 19 49.5t51 18.5q34 0 53 -21t19 -56q0 -47 -35 -88t-87 -65z" />
    <glyph glyph-name="lcaron" unicode="&#x13e;" horiz-adv-x="212" 
d="M55 734h100v-734h-100v734zM231 551q23 11 40.5 27t22.5 32q-22 0 -39 16.5t-17 39.5q0 31 19 49.5t51 18.5q34 0 53 -21t19 -56q0 -47 -35 -88t-87 -65z" />
    <glyph glyph-name="Ldot" unicode="&#x13f;" horiz-adv-x="507" 
d="M60.5 4q-14.5 14 -18.5 32q-2 7 0 11.5t8 10.5q9 10 13.5 19t4.5 26v597h102v-612h302v-88h-346q-11 -10 -33 -10q-18 0 -32.5 14zM300.5 296q-18.5 18 -18.5 44t18.5 44t45.5 18t45 -18t18 -44t-18 -44t-45 -18t-45.5 18z" />
    <glyph glyph-name="ldot" unicode="&#x140;" horiz-adv-x="341" 
d="M55 734h100v-734h-100v734zM220.5 322q-18.5 18 -18.5 44t18.5 44t45.5 18t45 -18t18 -44t-18 -44t-45 -18t-45.5 18z" />
    <glyph glyph-name="Lslash" unicode="&#x141;" horiz-adv-x="551" 
d="M516 88v-88h-346q-11 -10 -33 -10q-18 0 -32.5 14t-18.5 32q-2 7 0 11.5t8 10.5q9 10 13.5 19t4.5 26v175l-74 -34v86l74 34v336h102v-288l160 74v-86l-160 -74v-238h302z" />
    <glyph glyph-name="lslash" unicode="&#x142;" horiz-adv-x="263" 
d="M251 350l-72 -34v-316h-100v269l-66 -31v86l66 31v379h100v-332l72 34v-86z" />
    <glyph glyph-name="Nacute" unicode="&#x143;" horiz-adv-x="618" 
d="M64 612q0 11 -3.5 18t-9.5 14q-9 11 -9 20q0 5 1 9q6 20 22 32.5t36 12.5q28 0 45 -25l315 -508v515h102v-700h-87l-310 498v-498h-102v612zM361 954h112l-115 -182h-83z" />
    <glyph glyph-name="nacute" unicode="&#x144;" horiz-adv-x="554" 
d="M391 115v180q0 60 -24.5 88.5t-75.5 28.5q-57 0 -92 -44.5t-35 -108.5v-259h-100v358q0 32 -5 56t-17 47l89 34q8 -16 15.5 -38.5t9.5 -44.5q27 38 70 60.5t92 22.5q173 0 173 -201v-178q0 -52 22 -91l-90 -35q-32 54 -32 125zM322 739h112l-115 -182h-83z" />
    <glyph glyph-name="uni0145" unicode="&#x145;" horiz-adv-x="618" 
d="M64 612q0 11 -3.5 18t-9.5 14q-9 11 -9 20q0 5 1 9q6 20 22 32.5t36 12.5q28 0 45 -25l315 -508v515h102v-700h-87l-310 498v-498h-102v612zM255 -232q24 11 40.5 26.5t23.5 33.5q-3 -1 -10 -1q-23 0 -38.5 16t-15.5 40q0 29 18 47t48 18q33 0 51 -20.5t18 -56.5
q0 -45 -30 -82.5t-78 -58.5z" />
    <glyph glyph-name="uni0146" unicode="&#x146;" horiz-adv-x="554" 
d="M391 115v180q0 60 -24.5 88.5t-75.5 28.5q-57 0 -92 -44.5t-35 -108.5v-259h-100v358q0 32 -5 56t-17 47l89 34q8 -16 15.5 -38.5t9.5 -44.5q27 38 70 60.5t92 22.5q173 0 173 -201v-178q0 -52 22 -91l-90 -35q-32 54 -32 125zM216 -232q24 11 40.5 26.5t23.5 33.5
q-3 -1 -10 -1q-23 0 -38.5 16t-15.5 40q0 29 18 47t48 18q33 0 51 -20.5t18 -56.5q0 -45 -30 -82.5t-78 -58.5z" />
    <glyph glyph-name="Ncaron" unicode="&#x147;" horiz-adv-x="618" 
d="M64 612q0 11 -3.5 18t-9.5 14q-9 11 -9 20q0 5 1 9q6 20 22 32.5t36 12.5q28 0 45 -25l315 -508v515h102v-700h-87l-310 498v-498h-102v612zM280 785.5q-12 9.5 -12 21.5q0 2 2 8l2 5l-126 137h105l71 -93l66 93h103l-128 -155q-13 -15 -23 -20.5t-26 -5.5q-22 0 -34 9.5
z" />
    <glyph glyph-name="ncaron" unicode="&#x148;" horiz-adv-x="554" 
d="M391 115v180q0 60 -24.5 88.5t-75.5 28.5q-57 0 -92 -44.5t-35 -108.5v-259h-100v358q0 32 -5 56t-17 47l89 34q8 -16 15.5 -38.5t9.5 -44.5q27 38 70 60.5t92 22.5q173 0 173 -201v-178q0 -52 22 -91l-90 -35q-32 54 -32 125zM241 570.5q-12 9.5 -12 21.5q0 2 2 8l2 5
l-126 137h105l71 -93l66 93h103l-128 -155q-13 -15 -23 -20.5t-26 -5.5q-22 0 -34 9.5z" />
    <glyph glyph-name="napostrophe" unicode="&#x149;" horiz-adv-x="554" 
d="M391 115v180q0 60 -24.5 88.5t-75.5 28.5q-57 0 -92 -44.5t-35 -108.5v-259h-100v358q0 32 -5 56t-17 47l89 34q8 -16 15.5 -38.5t9.5 -44.5q27 38 70 60.5t92 22.5q173 0 173 -201v-178q0 -52 22 -91l-90 -35q-32 54 -32 125zM-88 493q23 11 40.5 27t22.5 32
q-22 0 -39 16.5t-17 39.5q0 31 19 49.5t51 18.5q34 0 53 -21t19 -56q0 -47 -35 -88t-87 -65z" />
    <glyph glyph-name="Eng" unicode="&#x14a;" horiz-adv-x="619" 
d="M286 -253q-40 13 -70 35l41 72q51 -34 109 -34q49 0 72.5 25.5t23.5 77.5v101l-295 474v-498h-102v612q0 11 -3.5 18t-9.5 14q-4 4 -7 9t-3 11t1 9q6 20 22 32.5t37 12.5q13 0 25 -7t19 -18l316 -508v515h102v-774q0 -88 -52.5 -140t-144.5 -52q-41 0 -81 13z" />
    <glyph glyph-name="eng" unicode="&#x14b;" horiz-adv-x="570" 
d="M236 -205.5q-40 13.5 -65 34.5l38 68q48 -34 102 -34q43 0 61.5 24t18.5 81v327q0 60 -24.5 88.5t-75.5 28.5q-57 0 -92 -44.5t-35 -108.5v-259h-100v358q0 32 -5 56t-17 47l89 34q8 -16 15.5 -38.5t9.5 -44.5q27 38 70 60.5t92 22.5q173 0 173 -201v-322
q0 -191 -174 -191q-41 0 -81 13.5z" />
    <glyph glyph-name="Omacron" unicode="&#x14c;" horiz-adv-x="673" 
d="M118.5 86.5q-76.5 96.5 -76.5 263.5t76.5 263.5t218.5 96.5q94 0 160.5 -44t100.5 -125.5t34 -190.5t-34 -190.5t-100.5 -125.5t-160.5 -44q-142 0 -218.5 96.5zM480.5 149q47.5 74 47.5 201t-47.5 201t-143.5 74t-143.5 -73.5t-47.5 -201.5t47.5 -201.5t143.5 -73.5
t143.5 74zM177 864h320v-78h-320v78z" />
    <glyph glyph-name="omacron" unicode="&#x14d;" horiz-adv-x="555" 
d="M150 22.5q-53 32.5 -80.5 90t-27.5 130.5t27.5 130t80.5 89.5t127 32.5t127.5 -32.5t81 -89.5t27.5 -130t-27.5 -130.5t-81 -90t-127.5 -32.5t-127 32.5zM377 118.5q34 45.5 34 124.5q0 78 -34 123.5t-100 45.5q-65 0 -99 -46t-34 -123q0 -79 34 -124.5t99 -45.5
q66 0 100 45.5zM117 649h320v-78h-320v78z" />
    <glyph glyph-name="Obreve" unicode="&#x14e;" horiz-adv-x="673" 
d="M118.5 86.5q-76.5 96.5 -76.5 263.5t76.5 263.5t218.5 96.5q94 0 160.5 -44t100.5 -125.5t34 -190.5t-34 -190.5t-100.5 -125.5t-160.5 -44q-142 0 -218.5 96.5zM480.5 149q47.5 74 47.5 201t-47.5 201t-143.5 74t-143.5 -73.5t-47.5 -201.5t47.5 -201.5t143.5 -73.5
t143.5 74zM231 803.5q-41 37.5 -41 107.5v9h87v-10q0 -37 15.5 -56t44.5 -19t44.5 19t15.5 56v10h87v-9q0 -70 -41 -107.5t-106 -37.5t-106 37.5z" />
    <glyph glyph-name="obreve" unicode="&#x14f;" horiz-adv-x="555" 
d="M150 22.5q-53 32.5 -80.5 90t-27.5 130.5t27.5 130t80.5 89.5t127 32.5t127.5 -32.5t81 -89.5t27.5 -130t-27.5 -130.5t-81 -90t-127.5 -32.5t-127 32.5zM377 118.5q34 45.5 34 124.5q0 78 -34 123.5t-100 45.5q-65 0 -99 -46t-34 -123q0 -79 34 -124.5t99 -45.5
q66 0 100 45.5zM171 588.5q-41 37.5 -41 107.5v9h87v-10q0 -37 15.5 -56t44.5 -19t44.5 19t15.5 56v10h87v-9q0 -70 -41 -107.5t-106 -37.5t-106 37.5z" />
    <glyph glyph-name="Ohungarumlaut" unicode="&#x150;" horiz-adv-x="673" 
d="M118.5 86.5q-76.5 96.5 -76.5 263.5t76.5 263.5t218.5 96.5q94 0 160.5 -44t100.5 -125.5t34 -190.5t-34 -190.5t-100.5 -125.5t-160.5 -44q-142 0 -218.5 96.5zM480.5 149q47.5 74 47.5 201t-47.5 201t-143.5 74t-143.5 -73.5t-47.5 -201.5t47.5 -201.5t143.5 -73.5
t143.5 74zM299 954h104l-124 -182h-79zM476 954h106l-148 -182h-81z" />
    <glyph glyph-name="ohungarumlaut" unicode="&#x151;" horiz-adv-x="555" 
d="M150 22.5q-53 32.5 -80.5 90t-27.5 130.5t27.5 130t80.5 89.5t127 32.5t127.5 -32.5t81 -89.5t27.5 -130t-27.5 -130.5t-81 -90t-127.5 -32.5t-127 32.5zM377 118.5q34 45.5 34 124.5q0 78 -34 123.5t-100 45.5q-65 0 -99 -46t-34 -123q0 -79 34 -124.5t99 -45.5
q66 0 100 45.5zM239 739h104l-124 -182h-79zM416 739h106l-148 -182h-81z" />
    <glyph glyph-name="OE" unicode="&#x152;" horiz-adv-x="974" 
d="M118 86.5q-76 96.5 -76 263.5t76 263.5t217 96.5q124 0 191 -94v84h397v-88h-298v-203h214v-84h-213l-1 -237h307v-88h-406v84q-67 -94 -191 -94q-141 0 -217 96.5zM479.5 149q48.5 74 48.5 201t-48.5 201t-144.5 74q-95 0 -142 -73.5t-47 -201.5t47 -201.5t142 -73.5
q96 0 144.5 74z" />
    <glyph glyph-name="oe" unicode="&#x153;" horiz-adv-x="908" 
d="M150 22.5q-53 32.5 -80.5 90t-27.5 130.5t27.5 130t80.5 89.5t127 32.5q114 0 179 -88q61 88 177 88q78 0 130.5 -35t77.5 -90t25 -114q0 -56 -65 -56h-299q0 -59 38 -93t104 -34q87 0 140 51l51 -56q-33 -37 -82 -57.5t-109 -20.5q-63 0 -110.5 23t-77.5 67
q-29 -42 -75 -66t-104 -24q-74 0 -127 32.5zM766 280q0 59 -35 96t-98 37q-62 0 -96.5 -38t-34.5 -95h264zM377 118.5q34 45.5 34 124.5q0 78 -34 123.5t-100 45.5q-65 0 -99 -46t-34 -123q0 -79 34 -124.5t99 -45.5q66 0 100 45.5z" />
    <glyph glyph-name="Racute" unicode="&#x154;" horiz-adv-x="592" 
d="M68 608q0 13 -4 20.5t-11 14.5q-6 6 -8.5 10t-2.5 11q0 19 16.5 36.5t38.5 17.5q20 0 40 -18h139q133 0 204 -53t71 -162q0 -92 -53 -144t-145 -61l183 -280h-117l-177 272h-72v-272h-102v608zM279 359q86 0 127 29.5t41 96.5q0 66 -41.5 96.5t-127.5 30.5h-108v-253h109
zM313 954h112l-115 -182h-83z" />
    <glyph glyph-name="racute" unicode="&#x155;" horiz-adv-x="403" 
d="M64 358q0 32 -5 56t-17 47l89 34q8 -16 15.5 -38.5t9.5 -44.5q25 41 56 62t74 21q25 0 45 -6.5t43 -21.5l-38 -71q-28 16 -59 16q-55 0 -84 -40t-29 -108v-264h-100v358zM228 739h112l-115 -182h-83z" />
    <glyph glyph-name="uni0156" unicode="&#x156;" horiz-adv-x="592" 
d="M68 608q0 13 -4 20.5t-11 14.5q-6 6 -8.5 10t-2.5 11q0 19 16.5 36.5t38.5 17.5q20 0 40 -18h139q133 0 204 -53t71 -162q0 -92 -53 -144t-145 -61l183 -280h-117l-177 272h-72v-272h-102v608zM279 359q86 0 127 29.5t41 96.5q0 66 -41.5 96.5t-127.5 30.5h-108v-253h109
zM227 -232q24 11 40.5 26.5t23.5 33.5q-3 -1 -10 -1q-23 0 -38.5 16t-15.5 40q0 29 18 47t48 18q33 0 51 -20.5t18 -56.5q0 -45 -30 -82.5t-78 -58.5z" />
    <glyph glyph-name="uni0157" unicode="&#x157;" horiz-adv-x="403" 
d="M64 358q0 32 -5 56t-17 47l89 34q8 -16 15.5 -38.5t9.5 -44.5q25 41 56 62t74 21q25 0 45 -6.5t43 -21.5l-38 -71q-28 16 -59 16q-55 0 -84 -40t-29 -108v-264h-100v358zM51 -232q24 11 40.5 26.5t23.5 33.5q-3 -1 -10 -1q-23 0 -38.5 16t-15.5 40q0 29 18 47t48 18
q33 0 51 -20.5t18 -56.5q0 -45 -30 -82.5t-78 -58.5z" />
    <glyph glyph-name="Rcaron" unicode="&#x158;" horiz-adv-x="592" 
d="M68 608q0 13 -4 20.5t-11 14.5q-6 6 -8.5 10t-2.5 11q0 19 16.5 36.5t38.5 17.5q20 0 40 -18h139q133 0 204 -53t71 -162q0 -92 -53 -144t-145 -61l183 -280h-117l-177 272h-72v-272h-102v608zM279 359q86 0 127 29.5t41 96.5q0 66 -41.5 96.5t-127.5 30.5h-108v-253h109
zM232 785.5q-12 9.5 -12 21.5q0 2 2 8l2 5l-126 137h105l71 -93l66 93h103l-128 -155q-13 -15 -23 -20.5t-26 -5.5q-22 0 -34 9.5z" />
    <glyph glyph-name="rcaron" unicode="&#x159;" horiz-adv-x="403" 
d="M64 358q0 32 -5 56t-17 47l89 34q8 -16 15.5 -38.5t9.5 -44.5q25 41 56 62t74 21q25 0 45 -6.5t43 -21.5l-38 -71q-28 16 -59 16q-55 0 -84 -40t-29 -108v-264h-100v358zM147 570.5q-12 9.5 -12 21.5q0 2 2 8l2 5l-126 137h105l71 -93l66 93h103l-128 -155
q-13 -15 -23 -20.5t-26 -5.5q-22 0 -34 9.5z" />
    <glyph glyph-name="Sacute" unicode="&#x15a;" horiz-adv-x="588" 
d="M157 19.5q-69 29.5 -115 79.5l61 64q44 -46 95 -67.5t113 -21.5q64 0 97.5 25t33.5 69q0 33 -13 54t-48 40t-107 45q-113 41 -163.5 91t-50.5 127q0 87 63 136t171 49q67 0 126 -21t103 -57l-53 -70q-41 33 -81 48t-95 15q-130 0 -130 -99q0 -33 16.5 -55.5t51 -41
t100.5 -42.5q80 -30 126 -59t67 -67t21 -93q0 -83 -63 -130.5t-174 -47.5q-83 0 -152 29.5zM337 954h112l-115 -182h-83z" />
    <glyph glyph-name="sacute" unicode="&#x15b;" horiz-adv-x="493" 
d="M139.5 12.5q-56.5 22.5 -97.5 63.5l58 63q30 -33 73.5 -50.5t91.5 -17.5q42 0 64 13.5t22 38.5q0 18 -8 29.5t-32 23.5t-75 29q-95 31 -135 65.5t-40 92.5q0 61 49 96.5t137 35.5q99 0 175 -55l-36 -68q-37 22 -69.5 32t-70.5 10q-42 0 -63.5 -14t-21.5 -37
q0 -19 11.5 -31.5t34 -22.5t70.5 -26q66 -23 103 -43.5t54 -48.5t17 -70q0 -61 -49 -96t-137 -35q-69 0 -125.5 22.5zM291 739h112l-115 -182h-83z" />
    <glyph glyph-name="Scircumflex" unicode="&#x15c;" horiz-adv-x="588" 
d="M157 19.5q-69 29.5 -115 79.5l61 64q44 -46 95 -67.5t113 -21.5q64 0 97.5 25t33.5 69q0 33 -13 54t-48 40t-107 45q-113 41 -163.5 91t-50.5 127q0 87 63 136t171 49q67 0 126 -21t103 -57l-53 -70q-41 33 -81 48t-95 15q-130 0 -130 -99q0 -33 16.5 -55.5t51 -41
t100.5 -42.5q80 -30 126 -59t67 -67t21 -93q0 -83 -63 -130.5t-174 -47.5q-83 0 -152 29.5zM253 929q13 16 23 22t25 6q26 0 38 -13t7 -26l-3 -6l127 -136h-106l-70 92l-67 -92h-103z" />
    <glyph glyph-name="scircumflex" unicode="&#x15d;" horiz-adv-x="493" 
d="M139.5 12.5q-56.5 22.5 -97.5 63.5l58 63q30 -33 73.5 -50.5t91.5 -17.5q42 0 64 13.5t22 38.5q0 18 -8 29.5t-32 23.5t-75 29q-95 31 -135 65.5t-40 92.5q0 61 49 96.5t137 35.5q99 0 175 -55l-36 -68q-37 22 -69.5 32t-70.5 10q-42 0 -63.5 -14t-21.5 -37
q0 -19 11.5 -31.5t34 -22.5t70.5 -26q66 -23 103 -43.5t54 -48.5t17 -70q0 -61 -49 -96t-137 -35q-69 0 -125.5 22.5zM207 714q13 16 23 22t25 6q26 0 38 -13t7 -26l-3 -6l127 -136h-106l-70 92l-67 -92h-103z" />
    <glyph glyph-name="Scedilla" unicode="&#x15e;" horiz-adv-x="588" 
d="M493.5 46.5q-52.5 -46.5 -145.5 -54.5l-26 -41q77 -12 77 -81q0 -40 -29 -65t-82 -25q-56 0 -106 35l27 52q35 -24 70 -24q38 0 38 33q0 16 -11 25t-31 9q-6 0 -20 -2l-21 24l37 60q-71 6 -130 34.5t-99 72.5l61 64q44 -46 95 -67.5t113 -21.5q64 0 97.5 25t33.5 69
q0 33 -13 54t-48 40t-107 45q-113 41 -163.5 91t-50.5 127q0 87 63 136t171 49q67 0 126 -21t103 -57l-53 -70q-41 33 -81 48t-95 15q-130 0 -130 -99q0 -33 16.5 -55.5t51 -41t100.5 -42.5q80 -30 126 -59t67 -67t21 -93q0 -75 -52.5 -121.5z" />
    <glyph glyph-name="scedilla" unicode="&#x15f;" horiz-adv-x="493" 
d="M408.5 29.5q-42.5 -34.5 -120.5 -38.5l-25 -40q77 -12 77 -81q0 -40 -29 -65t-82 -25q-56 0 -106 35l27 52q34 -24 70 -24q38 0 38 33q0 16 -11 25t-31 9q-6 0 -20 -2l-21 24l38 62q-102 13 -171 82l58 63q30 -33 73.5 -50.5t91.5 -17.5q42 0 64 13.5t22 38.5
q0 18 -8 29.5t-32 23.5t-75 29q-95 31 -135 65.5t-40 92.5q0 61 49 96.5t137 35.5q99 0 175 -55l-36 -68q-37 22 -69.5 32t-70.5 10q-42 0 -63.5 -14t-21.5 -37q0 -19 11.5 -31.5t34 -22.5t70.5 -26q66 -23 103 -43.5t54 -48.5t17 -70q0 -57 -42.5 -91.5z" />
    <glyph glyph-name="Scaron" unicode="&#x160;" horiz-adv-x="588" 
d="M157 19.5q-69 29.5 -115 79.5l61 64q44 -46 95 -67.5t113 -21.5q64 0 97.5 25t33.5 69q0 33 -13 54t-48 40t-107 45q-113 41 -163.5 91t-50.5 127q0 87 63 136t171 49q67 0 126 -21t103 -57l-53 -70q-41 33 -81 48t-95 15q-130 0 -130 -99q0 -33 16.5 -55.5t51 -41
t100.5 -42.5q80 -30 126 -59t67 -67t21 -93q0 -83 -63 -130.5t-174 -47.5q-83 0 -152 29.5zM256 785.5q-12 9.5 -12 21.5q0 2 2 8l2 5l-126 137h105l71 -93l66 93h103l-128 -155q-13 -15 -23 -20.5t-26 -5.5q-22 0 -34 9.5z" />
    <glyph glyph-name="scaron" unicode="&#x161;" horiz-adv-x="493" 
d="M139.5 12.5q-56.5 22.5 -97.5 63.5l58 63q30 -33 73.5 -50.5t91.5 -17.5q42 0 64 13.5t22 38.5q0 18 -8 29.5t-32 23.5t-75 29q-95 31 -135 65.5t-40 92.5q0 61 49 96.5t137 35.5q99 0 175 -55l-36 -68q-37 22 -69.5 32t-70.5 10q-42 0 -63.5 -14t-21.5 -37
q0 -19 11.5 -31.5t34 -22.5t70.5 -26q66 -23 103 -43.5t54 -48.5t17 -70q0 -61 -49 -96t-137 -35q-69 0 -125.5 22.5zM210 570.5q-12 9.5 -12 21.5q0 2 2 8l2 5l-126 137h105l71 -93l66 93h103l-128 -155q-13 -15 -23 -20.5t-26 -5.5q-22 0 -34 9.5z" />
    <glyph glyph-name="uni0162" unicode="&#x162;" horiz-adv-x="572" 
d="M325 0l-30 -49q76 -12 76 -81q0 -40 -29 -65t-81 -25q-27 0 -55 9t-52 26l27 52q35 -24 70 -24q18 0 28.5 8.5t10.5 24.5t-11 25t-31 9q-6 0 -20 -2l-22 24l42 68h-13v612h-200v88h502v-88h-200v-612h-12z" />
    <glyph glyph-name="uni0163" unicode="&#x163;" horiz-adv-x="379" 
d="M326 -130q0 -40 -29 -65t-81 -25q-55 0 -107 35l28 52q33 -24 70 -24q38 0 38 33q0 16 -11 25t-31 9q-6 0 -20 -2l-21 24l39 64q-41 12 -62 46t-21 87v274h-86l21 82h66v116l97 44v-160h127l-20 -82h-105v-275q0 -31 11 -44t38 -13q28 0 52 12l25 -74q-27 -12 -68 -17
l-26 -41q76 -12 76 -81z" />
    <glyph glyph-name="Tcaron" unicode="&#x164;" horiz-adv-x="572" 
d="M235 612h-200v88h502v-88h-200v-612h-102v612zM247 785.5q-12 9.5 -12 21.5q0 2 2 8l2 5l-126 137h105l71 -93l66 93h103l-128 -155q-13 -15 -23 -20.5t-26 -5.5q-22 0 -34 9.5z" />
    <glyph glyph-name="tcaron" unicode="&#x165;" horiz-adv-x="453" 
d="M151 26q-33 36 -33 103v274h-86l21 82h66v116l97 44v-160h127l-20 -82h-105v-275q0 -31 11 -44t38 -13q28 0 52 12l25 -74q-16 -7 -43.5 -13t-51.5 -6q-65 0 -98 36zM356 576q23 11 40.5 27t22.5 32q-22 0 -39 16.5t-17 39.5q0 31 19 49.5t51 18.5q34 0 53 -21t19 -56
q0 -47 -35 -88t-87 -65z" />
    <glyph glyph-name="Tbar" unicode="&#x166;" horiz-adv-x="572" 
d="M337 612v-201h106v-88h-106v-323h-102v323h-106v88h106v201h-200v88h502v-88h-200z" />
    <glyph glyph-name="tbar" unicode="&#x167;" horiz-adv-x="379" 
d="M344 9q-16 -7 -43.5 -13t-51.5 -6q-65 0 -98 36t-33 103v92h-80v73h80v109h-86l21 82h66v116l97 44v-160h127l-20 -82h-105v-109h105v-73h-105v-93q0 -31 11 -44t38 -13q28 0 52 12z" />
    <glyph glyph-name="Utilde" unicode="&#x168;" horiz-adv-x="636" 
d="M121 58.5q-71 68.5 -71 191.5v450h102v-456q0 -83 44 -126t122 -43t122 43t44 126v456h102v-450q0 -123 -71 -191.5t-197 -68.5t-197 68.5zM153 813q7 39 34 65t61 26q25 0 45 -8.5t43 -23.5q11 -7 22.5 -13t20.5 -6q19 0 29.5 11.5t14.5 37.5l55 -26q-1 -43 -25 -68.5
t-62 -25.5q-21 0 -38 7t-43 22q-20 11 -30 16t-21 5q-39 0 -47 -50z" />
    <glyph glyph-name="utilde" unicode="&#x169;" horiz-adv-x="540" 
d="M99.5 43q-49.5 53 -49.5 146l1 296h100v-295q0 -60 26 -88.5t81 -28.5q57 0 87.5 41t30.5 102v269h100v-358q0 -32 5 -56t17 -47l-89 -34q-8 16 -15.5 38.5t-9.5 44.5q-51 -83 -150 -83q-85 0 -134.5 53zM106 598q7 39 34 65t61 26q25 0 45 -8.5t43 -23.5q11 -7 22.5 -13
t20.5 -6q19 0 29.5 11.5t14.5 37.5l55 -26q-1 -43 -25 -68.5t-62 -25.5q-21 0 -38 7t-43 22q-20 11 -30 16t-21 5q-39 0 -47 -50z" />
    <glyph glyph-name="Umacron" unicode="&#x16a;" horiz-adv-x="636" 
d="M121 58.5q-71 68.5 -71 191.5v450h102v-456q0 -83 44 -126t122 -43t122 43t44 126v456h102v-450q0 -123 -71 -191.5t-197 -68.5t-197 68.5zM158 864h320v-78h-320v78z" />
    <glyph glyph-name="umacron" unicode="&#x16b;" horiz-adv-x="540" 
d="M99.5 43q-49.5 53 -49.5 146l1 296h100v-295q0 -60 26 -88.5t81 -28.5q57 0 87.5 41t30.5 102v269h100v-358q0 -32 5 -56t17 -47l-89 -34q-8 16 -15.5 38.5t-9.5 44.5q-51 -83 -150 -83q-85 0 -134.5 53zM111 649h320v-78h-320v78z" />
    <glyph glyph-name="Ubreve" unicode="&#x16c;" horiz-adv-x="636" 
d="M121 58.5q-71 68.5 -71 191.5v450h102v-456q0 -83 44 -126t122 -43t122 43t44 126v456h102v-450q0 -123 -71 -191.5t-197 -68.5t-197 68.5zM212 803.5q-41 37.5 -41 107.5v9h87v-10q0 -37 15.5 -56t44.5 -19t44.5 19t15.5 56v10h87v-9q0 -70 -41 -107.5t-106 -37.5
t-106 37.5z" />
    <glyph glyph-name="ubreve" unicode="&#x16d;" horiz-adv-x="540" 
d="M99.5 43q-49.5 53 -49.5 146l1 296h100v-295q0 -60 26 -88.5t81 -28.5q57 0 87.5 41t30.5 102v269h100v-358q0 -32 5 -56t17 -47l-89 -34q-8 16 -15.5 38.5t-9.5 44.5q-51 -83 -150 -83q-85 0 -134.5 53zM165 588.5q-41 37.5 -41 107.5v9h87v-10q0 -37 15.5 -56t44.5 -19
t44.5 19t15.5 56v10h87v-9q0 -70 -41 -107.5t-106 -37.5t-106 37.5z" />
    <glyph glyph-name="Uring" unicode="&#x16e;" horiz-adv-x="636" 
d="M121 58.5q-71 68.5 -71 191.5v450h102v-456q0 -83 44 -126t122 -43t122 43t44 126v456h102v-450q0 -123 -71 -191.5t-197 -68.5t-197 68.5zM238.5 776q-33.5 27 -33.5 76q0 48 33.5 75t79.5 27t79.5 -27t33.5 -75q0 -49 -33.5 -76t-79.5 -27t-79.5 27zM352 818
q14 12 14 34t-13.5 34t-34.5 12t-34.5 -12t-13.5 -34t14 -34t34 -12t34 12z" />
    <glyph glyph-name="uring" unicode="&#x16f;" horiz-adv-x="540" 
d="M99.5 43q-49.5 53 -49.5 146l1 296h100v-295q0 -60 26 -88.5t81 -28.5q57 0 87.5 41t30.5 102v269h100v-358q0 -32 5 -56t17 -47l-89 -34q-8 16 -15.5 38.5t-9.5 44.5q-51 -83 -150 -83q-85 0 -134.5 53zM191.5 561q-33.5 27 -33.5 76q0 48 33.5 75t79.5 27t79.5 -27
t33.5 -75q0 -49 -33.5 -76t-79.5 -27t-79.5 27zM305 603q14 12 14 34t-13.5 34t-34.5 12t-34.5 -12t-13.5 -34t14 -34t34 -12t34 12z" />
    <glyph glyph-name="Uhungarumlaut" unicode="&#x170;" horiz-adv-x="636" 
d="M121 58.5q-71 68.5 -71 191.5v450h102v-456q0 -83 44 -126t122 -43t122 43t44 126v456h102v-450q0 -123 -71 -191.5t-197 -68.5t-197 68.5zM280 954h104l-124 -182h-79zM457 954h106l-148 -182h-81z" />
    <glyph glyph-name="uhungarumlaut" unicode="&#x171;" horiz-adv-x="540" 
d="M99.5 43q-49.5 53 -49.5 146l1 296h100v-295q0 -60 26 -88.5t81 -28.5q57 0 87.5 41t30.5 102v269h100v-358q0 -32 5 -56t17 -47l-89 -34q-8 16 -15.5 38.5t-9.5 44.5q-51 -83 -150 -83q-85 0 -134.5 53zM233 739h104l-124 -182h-79zM410 739h106l-148 -182h-81z" />
    <glyph glyph-name="Uogonek" unicode="&#x172;" horiz-adv-x="636" 
d="M586 700v-450q0 -110 -58 -177t-162 -80q-36 -25 -53.5 -49t-17.5 -51q0 -40 46 -40q23 0 50 16l20 -59q-40 -29 -90 -29q-49 0 -78.5 27t-29.5 74q0 33 17.5 61.5t47.5 48.5q-108 11 -168 78t-60 180v450h102v-456q0 -83 44 -126t122 -43t122 43t44 126v456h102z" />
    <glyph glyph-name="uogonek" unicode="&#x173;" horiz-adv-x="540" 
d="M523 -172q-40 -29 -90 -29q-48 0 -78 27.5t-30 74.5q0 35 20 65t53 49q-11 32 -14 58q-51 -83 -150 -83q-85 0 -134.5 53t-49.5 146l1 296h100v-295q0 -60 26 -88.5t81 -28.5q57 0 87.5 41t30.5 102v269h100v-358q0 -32 5 -56t17 -47q-46 -28 -68.5 -55t-22.5 -58
q0 -19 11.5 -29.5t34.5 -10.5t50 16z" />
    <glyph glyph-name="Wcircumflex" unicode="&#x174;" horiz-adv-x="836" 
d="M150 34q0 8 3 17l5 10l-116 639h102l84 -512l144 492q9 30 45 30q30 0 46 -10.5t16 -26.5q0 -3 -2 -11l-3 -10l134 -463l83 511h103l-118 -639l4 -10q3 -9 3 -17q0 -29 -36 -39q-18 -5 -28 -5q-21 0 -34 13t-21 41l-146 502l-149 -502q-8 -28 -21 -41t-33 -13
q-11 0 -29 5q-36 10 -36 39zM379 929q13 16 23 22t25 6q26 0 38 -13t7 -26l-3 -6l127 -136h-106l-70 92l-67 -92h-103z" />
    <glyph glyph-name="wcircumflex" unicode="&#x175;" horiz-adv-x="715" 
d="M175.5 0q-12.5 10 -12.5 28q0 7 1 11l1 9l-123 437h104l78 -338l96 324q6 24 45 24q51 0 51 -36q0 -8 -1 -12l-4 -22l80 -278l79 338h104l-124 -437l2 -9q1 -3 1 -10q0 -18 -13 -28.5t-36 -10.5q-25 0 -37.5 8.5t-17.5 26.5l-91 315l-91 -315q-5 -18 -18 -26.5t-38 -8.5
q-23 0 -35.5 10zM314 714q13 16 23 22t25 6q26 0 38 -13t7 -26l-3 -6l127 -136h-106l-70 92l-67 -92h-103z" />
    <glyph glyph-name="Ycircumflex" unicode="&#x176;" horiz-adv-x="642" 
d="M272 270l-230 430h110l169 -337l169 337h110l-230 -430v-270h-98v270zM279 929q13 16 23 22t25 6q26 0 38 -13t7 -26l-3 -6l127 -136h-106l-70 92l-67 -92h-103z" />
    <glyph glyph-name="ycircumflex" unicode="&#x177;" horiz-adv-x="575" 
d="M79 -148q66 23 106.5 66.5t55.5 113.5l-199 453h115l136 -347l126 347h114l-198 -494q-35 -88 -87 -139t-140 -82zM247 714q13 16 23 22t25 6q26 0 38 -13t7 -26l-3 -6l127 -136h-106l-70 92l-67 -92h-103z" />
    <glyph glyph-name="Ydieresis" unicode="&#x178;" horiz-adv-x="642" 
d="M272 270l-230 430h110l169 -337l169 337h110l-230 -430v-270h-98v270zM171 797q-18 18 -18 44t18 44t46 18q27 0 45 -18t18 -44t-18 -44t-45 -18q-28 0 -46 18zM382 797q-19 18 -19 44t19 44t47 18q26 0 44 -18t18 -44t-18 -44t-44 -18q-28 0 -47 18z" />
    <glyph glyph-name="Zacute" unicode="&#x179;" horiz-adv-x="625" 
d="M94 -11q-18 0 -45 31q-7 8 -7 16q0 9 15 29l379 547h-369v88h427l9 8q7 10 25 10t32 -11q22 -16 22 -35q0 -16 -15 -37l-380 -547h396v-88h-464l-12 -7q-8 -4 -13 -4zM357 954h112l-115 -182h-83z" />
    <glyph glyph-name="zacute" unicode="&#x17a;" horiz-adv-x="534" 
d="M95 -10q-12 0 -25 9.5t-24 29.5q-4 8 -4 16q0 15 18 28q10 5 17 15l274 315h-284v82h331q21 0 28 6q6 4 14 4q22 0 40 -22q12 -13 12 -28q0 -13 -13 -27l-293 -336h303v-82h-351q-19 0 -30 -7q-6 -3 -13 -3zM314 739h112l-115 -182h-83z" />
    <glyph glyph-name="Zdotaccent" unicode="&#x17b;" horiz-adv-x="625" 
d="M94 -11q-18 0 -45 31q-7 8 -7 16q0 9 15 29l379 547h-369v88h427l9 8q7 10 25 10t32 -11q22 -16 22 -35q0 -16 -15 -37l-380 -547h396v-88h-464l-12 -7q-8 -4 -13 -4zM270.5 809q-17.5 18 -17.5 44q0 27 17.5 44.5t45.5 17.5q27 0 44 -18t17 -44t-17 -44t-44 -18
q-28 0 -45.5 18z" />
    <glyph glyph-name="zdotaccent" unicode="&#x17c;" horiz-adv-x="534" 
d="M95 -10q-12 0 -25 9.5t-24 29.5q-4 8 -4 16q0 15 18 28q10 5 17 15l274 315h-284v82h331q21 0 28 6q6 4 14 4q22 0 40 -22q12 -13 12 -28q0 -13 -13 -27l-293 -336h303v-82h-351q-19 0 -30 -7q-6 -3 -13 -3zM227.5 594q-17.5 18 -17.5 44q0 27 17.5 44.5t45.5 17.5
q27 0 44 -18t17 -44t-17 -44t-44 -18q-28 0 -45.5 18z" />
    <glyph glyph-name="Zcaron" unicode="&#x17d;" horiz-adv-x="625" 
d="M94 -11q-18 0 -45 31q-7 8 -7 16q0 9 15 29l379 547h-369v88h427l9 8q7 10 25 10t32 -11q22 -16 22 -35q0 -16 -15 -37l-380 -547h396v-88h-464l-12 -7q-8 -4 -13 -4zM276 785.5q-12 9.5 -12 21.5q0 2 2 8l2 5l-126 137h105l71 -93l66 93h103l-128 -155
q-13 -15 -23 -20.5t-26 -5.5q-22 0 -34 9.5z" />
    <glyph glyph-name="zcaron" unicode="&#x17e;" horiz-adv-x="534" 
d="M95 -10q-12 0 -25 9.5t-24 29.5q-4 8 -4 16q0 15 18 28q10 5 17 15l274 315h-284v82h331q21 0 28 6q6 4 14 4q22 0 40 -22q12 -13 12 -28q0 -13 -13 -27l-293 -336h303v-82h-351q-19 0 -30 -7q-6 -3 -13 -3zM233 570.5q-12 9.5 -12 21.5q0 2 2 8l2 5l-126 137h105l71 -93
l66 93h103l-128 -155q-13 -15 -23 -20.5t-26 -5.5q-22 0 -34 9.5z" />
    <glyph glyph-name="uni018F" unicode="&#x18f;" horiz-adv-x="680" 
d="M180.5 32q-66.5 42 -102.5 119t-36 178q0 56 65 56h428q0 119 -50 180.5t-151 61.5q-102 0 -207 -70l-53 66q55 41 124 64t136 23q149 0 227 -96.5t78 -267.5q0 -106 -37.5 -186.5t-106 -125t-158.5 -44.5t-156.5 42zM484 134q52 61 52 169h-394q0 -108 51 -169t144 -61
q95 0 147 61z" />
    <glyph glyph-name="florin" unicode="&#x192;" horiz-adv-x="612" 
d="M90.5 -126q-27.5 7 -48.5 17l30 75q38 -16 68 -16q29 0 44 15t22 56l57 322h-106l36 82h84l28 163q25 148 169 148q21 0 47.5 -5.5t48.5 -15.5l-33 -77q-33 15 -61 15q-32 0 -49 -15.5t-23 -55.5l-26 -157h147l-35 -82h-127l-58 -328q-14 -76 -53.5 -112t-107.5 -36
q-26 0 -53.5 7z" />
    <glyph glyph-name="Ohorn" unicode="&#x1a0;" horiz-adv-x="673" 
d="M677 789v-21q0 -66 -30.5 -106t-85.5 -56q71 -95 71 -256q0 -109 -34 -190.5t-100.5 -125.5t-160.5 -44q-142 0 -218.5 96.5t-76.5 263.5t76.5 263.5t218.5 96.5q88 0 154 -40q48 1 70.5 24.5t22.5 69.5v25h93zM480.5 149q47.5 74 47.5 201t-47.5 201t-143.5 74
t-143.5 -73.5t-47.5 -201.5t47.5 -201.5t143.5 -73.5t143.5 74z" />
    <glyph glyph-name="ohorn" unicode="&#x1a1;" horiz-adv-x="555" 
d="M596 575v-21q0 -67 -31.5 -107.5t-88.5 -55.5q37 -63 37 -148q0 -73 -27.5 -130.5t-81 -90t-127.5 -32.5t-127 32.5t-80.5 90t-27.5 130.5t27.5 130t80.5 89.5t127 32.5q81 0 137 -39q46 3 67.5 26t21.5 68v25h93zM377 118.5q34 45.5 34 124.5q0 78 -34 123.5t-100 45.5
q-65 0 -99 -46t-34 -123q0 -79 34 -124.5t99 -45.5q66 0 100 45.5z" />
    <glyph glyph-name="Uhorn" unicode="&#x1af;" horiz-adv-x="699" 
d="M756 763v-21q0 -80 -45 -123t-125 -48v-321q0 -123 -71 -191.5t-197 -68.5t-197 68.5t-71 191.5v450h102v-456q0 -83 44 -126t122 -43t122 43t44 126v456h102v-55q40 5 58.5 28t18.5 65v25h93z" />
    <glyph glyph-name="uhorn" unicode="&#x1b0;" horiz-adv-x="540" 
d="M646 574v-21q0 -80 -45 -123t-125 -48v-255q0 -32 5 -56t17 -47l-89 -34q-8 16 -15.5 38.5t-9.5 44.5q-51 -83 -150 -83q-85 0 -134.5 53t-49.5 146l1 296h100v-295q0 -60 26 -88.5t81 -28.5q57 0 87.5 41t30.5 102v269h100v-29q40 5 58.5 28t18.5 65v25h93z" />
    <glyph glyph-name="uni01CD" unicode="&#x1cd;" horiz-adv-x="679" 
d="M282 668q9 26 24.5 38t38.5 12q29 0 45.5 -12.5t16.5 -31.5q0 -4 -5 -17l239 -657h-107l-66 189h-257l-66 -189h-107zM445 271l-104 306l-104 -306h208zM306 785.5q-12 9.5 -12 21.5q0 2 2 8l2 5l-126 137h105l71 -93l66 93h103l-128 -155q-13 -15 -23 -20.5t-26 -5.5
q-22 0 -34 9.5z" />
    <glyph glyph-name="uni01CE" unicode="&#x1ce;" horiz-adv-x="573" 
d="M142.5 21.5q-48.5 31.5 -74.5 87.5t-26 128q0 76 26.5 134.5t76.5 91t118 32.5q94 0 147 -74v64h97v-356q0 -37 6 -62t18 -44l-82 -33q-26 31 -30 81l-2 1q-29 -40 -70 -61t-92 -21q-64 0 -112.5 31.5zM373 115q36 43 36 110v34q0 39 -15 74.5t-45.5 57.5t-74.5 22
q-64 0 -98 -47.5t-34 -128.5q0 -77 33 -121t96 -44q66 0 102 43zM239 570.5q-12 9.5 -12 21.5q0 2 2 8l2 5l-126 137h105l71 -93l66 93h103l-128 -155q-13 -15 -23 -20.5t-26 -5.5q-22 0 -34 9.5z" />
    <glyph glyph-name="uni01CF" unicode="&#x1cf;" horiz-adv-x="292" 
d="M95 700h102v-700h-102v700zM107 785.5q-12 9.5 -12 21.5q0 2 2 8l2 5l-126 137h105l71 -93l66 93h103l-128 -155q-13 -15 -23 -20.5t-26 -5.5q-22 0 -34 9.5z" />
    <glyph glyph-name="uni01D0" unicode="&#x1d0;" horiz-adv-x="256" 
d="M78 485h100v-485h-100v485zM89 570.5q-12 9.5 -12 21.5q0 2 2 8l2 5l-126 137h105l71 -93l66 93h103l-128 -155q-13 -15 -23 -20.5t-26 -5.5q-22 0 -34 9.5z" />
    <glyph glyph-name="uni01D1" unicode="&#x1d1;" horiz-adv-x="673" 
d="M118.5 86.5q-76.5 96.5 -76.5 263.5t76.5 263.5t218.5 96.5q94 0 160.5 -44t100.5 -125.5t34 -190.5t-34 -190.5t-100.5 -125.5t-160.5 -44q-142 0 -218.5 96.5zM480.5 149q47.5 74 47.5 201t-47.5 201t-143.5 74t-143.5 -73.5t-47.5 -201.5t47.5 -201.5t143.5 -73.5
t143.5 74zM298 785.5q-12 9.5 -12 21.5q0 2 2 8l2 5l-126 137h105l71 -93l66 93h103l-128 -155q-13 -15 -23 -20.5t-26 -5.5q-22 0 -34 9.5z" />
    <glyph glyph-name="uni01D2" unicode="&#x1d2;" horiz-adv-x="555" 
d="M150 22.5q-53 32.5 -80.5 90t-27.5 130.5t27.5 130t80.5 89.5t127 32.5t127.5 -32.5t81 -89.5t27.5 -130t-27.5 -130.5t-81 -90t-127.5 -32.5t-127 32.5zM377 118.5q34 45.5 34 124.5q0 78 -34 123.5t-100 45.5q-65 0 -99 -46t-34 -123q0 -79 34 -124.5t99 -45.5
q66 0 100 45.5zM238 570.5q-12 9.5 -12 21.5q0 2 2 8l2 5l-126 137h105l71 -93l66 93h103l-128 -155q-13 -15 -23 -20.5t-26 -5.5q-22 0 -34 9.5z" />
    <glyph glyph-name="uni01D3" unicode="&#x1d3;" horiz-adv-x="636" 
d="M121 58.5q-71 68.5 -71 191.5v450h102v-456q0 -83 44 -126t122 -43t122 43t44 126v456h102v-450q0 -123 -71 -191.5t-197 -68.5t-197 68.5zM279 785.5q-12 9.5 -12 21.5q0 2 2 8l2 5l-126 137h105l71 -93l66 93h103l-128 -155q-13 -15 -23 -20.5t-26 -5.5q-22 0 -34 9.5z
" />
    <glyph glyph-name="uni01D4" unicode="&#x1d4;" horiz-adv-x="540" 
d="M99.5 43q-49.5 53 -49.5 146l1 296h100v-295q0 -60 26 -88.5t81 -28.5q57 0 87.5 41t30.5 102v269h100v-358q0 -32 5 -56t17 -47l-89 -34q-8 16 -15.5 38.5t-9.5 44.5q-51 -83 -150 -83q-85 0 -134.5 53zM232 570.5q-12 9.5 -12 21.5q0 2 2 8l2 5l-126 137h105l71 -93
l66 93h103l-128 -155q-13 -15 -23 -20.5t-26 -5.5q-22 0 -34 9.5z" />
    <glyph glyph-name="uni01D5" unicode="&#x1d5;" horiz-adv-x="636" 
d="M121 58.5q-71 68.5 -71 191.5v450h102v-456q0 -83 44 -126t122 -43t122 43t44 126v456h102v-450q0 -123 -71 -191.5t-197 -68.5t-197 68.5zM168 797q-18 18 -18 44t18 44t46 18q27 0 45 -18t18 -44t-18 -44t-45 -18q-28 0 -46 18zM379 797q-19 18 -19 44t19 44t47 18
q26 0 44 -18t18 -44t-18 -44t-44 -18q-28 0 -47 18zM158 1048h320v-78h-320v78z" />
    <glyph glyph-name="uni01D6" unicode="&#x1d6;" horiz-adv-x="540" 
d="M99.5 43q-49.5 53 -49.5 146l1 296h100v-295q0 -60 26 -88.5t81 -28.5q57 0 87.5 41t30.5 102v269h100v-358q0 -32 5 -56t17 -47l-89 -34q-8 16 -15.5 38.5t-9.5 44.5q-51 -83 -150 -83q-85 0 -134.5 53zM121 582q-18 18 -18 44t18 44t46 18q27 0 45 -18t18 -44t-18 -44
t-45 -18q-28 0 -46 18zM332 582q-19 18 -19 44t19 44t47 18q26 0 44 -18t18 -44t-18 -44t-44 -18q-28 0 -47 18zM111 833h320v-78h-320v78z" />
    <glyph glyph-name="uni01D7" unicode="&#x1d7;" horiz-adv-x="636" 
d="M121 58.5q-71 68.5 -71 191.5v450h102v-456q0 -83 44 -126t122 -43t122 43t44 126v456h102v-450q0 -123 -71 -191.5t-197 -68.5t-197 68.5zM351 1061h100l-100 -150h-73zM177 796.5q-17 16.5 -17 41.5t17 41.5t43 16.5q25 0 41.5 -17t16.5 -41t-16.5 -41t-41.5 -17
q-26 0 -43 16.5zM375 796.5q-17 16.5 -17 41.5t17 41.5t43 16.5q25 0 41.5 -17t16.5 -41t-16.5 -41t-41.5 -17q-26 0 -43 16.5z" />
    <glyph glyph-name="uni01D8" unicode="&#x1d8;" horiz-adv-x="540" 
d="M99.5 43q-49.5 53 -49.5 146l1 296h100v-295q0 -60 26 -88.5t81 -28.5q57 0 87.5 41t30.5 102v269h100v-358q0 -32 5 -56t17 -47l-89 -34q-8 16 -15.5 38.5t-9.5 44.5q-51 -83 -150 -83q-85 0 -134.5 53zM304 846h100l-100 -150h-73zM130 581.5q-17 16.5 -17 41.5
t17 41.5t43 16.5q25 0 41.5 -17t16.5 -41t-16.5 -41t-41.5 -17q-26 0 -43 16.5zM328 581.5q-17 16.5 -17 41.5t17 41.5t43 16.5q25 0 41.5 -17t16.5 -41t-16.5 -41t-41.5 -17q-26 0 -43 16.5z" />
    <glyph glyph-name="uni01D9" unicode="&#x1d9;" horiz-adv-x="636" 
d="M121 58.5q-71 68.5 -71 191.5v450h102v-456q0 -83 44 -126t122 -43t122 43t44 126v456h102v-450q0 -123 -71 -191.5t-197 -68.5t-197 68.5zM274.5 913q-11.5 12 -6.5 24l2 5l-116 122h97l66 -81l62 81h95l-119 -138q-11 -14 -20.5 -19.5t-24.5 -5.5q-24 0 -35.5 12z
M177 796.5q-17 16.5 -17 41.5t17 41.5t43 16.5q25 0 41.5 -17t16.5 -41t-16.5 -41t-41.5 -17q-26 0 -43 16.5zM375 796.5q-17 16.5 -17 41.5t17 41.5t43 16.5q25 0 41.5 -17t16.5 -41t-16.5 -41t-41.5 -17q-26 0 -43 16.5z" />
    <glyph glyph-name="uni01DA" unicode="&#x1da;" horiz-adv-x="540" 
d="M99.5 43q-49.5 53 -49.5 146l1 296h100v-295q0 -60 26 -88.5t81 -28.5q57 0 87.5 41t30.5 102v269h100v-358q0 -32 5 -56t17 -47l-89 -34q-8 16 -15.5 38.5t-9.5 44.5q-51 -83 -150 -83q-85 0 -134.5 53zM227.5 698q-11.5 12 -6.5 24l2 5l-116 122h97l66 -81l62 81h95
l-119 -138q-11 -14 -20.5 -19.5t-24.5 -5.5q-24 0 -35.5 12zM130 581.5q-17 16.5 -17 41.5t17 41.5t43 16.5q25 0 41.5 -17t16.5 -41t-16.5 -41t-41.5 -17q-26 0 -43 16.5zM328 581.5q-17 16.5 -17 41.5t17 41.5t43 16.5q25 0 41.5 -17t16.5 -41t-16.5 -41t-41.5 -17
q-26 0 -43 16.5z" />
    <glyph glyph-name="uni01DB" unicode="&#x1db;" horiz-adv-x="636" 
d="M121 58.5q-71 68.5 -71 191.5v450h102v-456q0 -83 44 -126t122 -43t122 43t44 126v456h102v-450q0 -123 -71 -191.5t-197 -68.5t-197 68.5zM181 1061h101l74 -150h-74zM176.5 797q-16.5 17 -16.5 41t16.5 41t42.5 17q25 0 42 -16.5t17 -41.5t-17 -41.5t-42 -16.5
q-26 0 -42.5 17zM375 797q-17 17 -17 41t17 41t43 17q24 0 41 -16.5t17 -41.5t-17 -41.5t-41 -16.5q-26 0 -43 17z" />
    <glyph glyph-name="uni01DC" unicode="&#x1dc;" horiz-adv-x="540" 
d="M99.5 43q-49.5 53 -49.5 146l1 296h100v-295q0 -60 26 -88.5t81 -28.5q57 0 87.5 41t30.5 102v269h100v-358q0 -32 5 -56t17 -47l-89 -34q-8 16 -15.5 38.5t-9.5 44.5q-51 -83 -150 -83q-85 0 -134.5 53zM134 846h101l74 -150h-74zM129.5 582q-16.5 17 -16.5 41t16.5 41
t42.5 17q25 0 42 -16.5t17 -41.5t-17 -41.5t-42 -16.5q-26 0 -42.5 17zM328 582q-17 17 -17 41t17 41t43 17q24 0 41 -16.5t17 -41.5t-17 -41.5t-41 -16.5q-26 0 -43 17z" />
    <glyph glyph-name="Gcaron" unicode="&#x1e6;" horiz-adv-x="657" 
d="M188.5 34q-71.5 44 -109 125.5t-37.5 191.5q0 109 38 190t109.5 125t169.5 44q68 0 122 -21.5t91 -61.5l-42 -72q-33 36 -72.5 53t-98.5 17q-101 0 -157 -73t-56 -201q0 -129 56.5 -202.5t158.5 -73.5q43 0 71 7t54 24v189h-161v85h204q15 16 32 16q18 0 33.5 -17
t19.5 -35q2 -7 0 -11t-8 -10q-8 -7 -13 -16.5t-5 -28.5v-219q-61 -38 -112 -53.5t-117 -15.5q-99 0 -170.5 44zM317 785.5q-12 9.5 -12 21.5q0 2 2 8l2 5l-126 137h105l71 -93l66 93h103l-128 -155q-13 -15 -23 -20.5t-26 -5.5q-22 0 -34 9.5z" />
    <glyph glyph-name="gcaron" unicode="&#x1e7;" horiz-adv-x="575" 
d="M172 -208q-41 10 -75 27l30 75q58 -29 130 -29q83 0 117.5 41t34.5 124v42q-25 -34 -63 -53t-85 -19q-104 0 -161.5 67.5t-57.5 183.5q0 112 57.5 178.5t156.5 66.5q101 0 163 -82q3 51 32 82l83 -33q-13 -22 -19 -45t-6 -62v-324q0 -123 -66 -186.5t-186 -63.5
q-44 0 -85 10zM348.5 104q30.5 22 46.5 57t16 75v25q0 65 -37 109t-102 44t-97.5 -44t-32.5 -119q0 -80 32.5 -124.5t100.5 -44.5q43 0 73.5 22zM254 570.5q-12 9.5 -12 21.5q0 2 2 8l2 5l-126 137h105l71 -93l66 93h103l-128 -155q-13 -15 -23 -20.5t-26 -5.5
q-22 0 -34 9.5z" />
    <glyph glyph-name="Aringacute" unicode="&#x1fa;" horiz-adv-x="679" 
d="M282 668q9 26 24.5 38t38.5 12q29 0 45.5 -12.5t16.5 -31.5q0 -4 -5 -17l239 -657h-107l-66 189h-257l-66 -189h-107zM445 271l-104 306l-104 -306h208zM265.5 776q-33.5 27 -33.5 76q0 48 33.5 75t79.5 27t79.5 -27t33.5 -75q0 -49 -33.5 -76t-79.5 -27t-79.5 27z
M379 818q14 12 14 34t-13.5 34t-34.5 12t-34.5 -12t-13.5 -34t14 -34t34 -12t34 12zM387 1172h112l-115 -182h-83z" />
    <glyph glyph-name="aringacute" unicode="&#x1fb;" horiz-adv-x="573" 
d="M142.5 21.5q-48.5 31.5 -74.5 87.5t-26 128q0 76 26.5 134.5t76.5 91t118 32.5q94 0 147 -74v64h97v-356q0 -37 6 -62t18 -44l-82 -33q-26 31 -30 81l-2 1q-29 -40 -70 -61t-92 -21q-64 0 -112.5 31.5zM373 115q36 43 36 110v34q0 39 -15 74.5t-45.5 57.5t-74.5 22
q-64 0 -98 -47.5t-34 -128.5q0 -77 33 -121t96 -44q66 0 102 43zM198.5 561q-33.5 27 -33.5 76q0 48 33.5 75t79.5 27t79.5 -27t33.5 -75q0 -49 -33.5 -76t-79.5 -27t-79.5 27zM312 603q14 12 14 34t-13.5 34t-34.5 12t-34.5 -12t-13.5 -34t14 -34t34 -12t34 12zM320 957
h112l-115 -182h-83z" />
    <glyph glyph-name="AEacute" unicode="&#x1fc;" horiz-adv-x="819" 
d="M325 700h443v-88h-290v-203h206v-84h-206v-237h299v-88h-400v189h-154l-75 -189h-106zM377 271v323l-127 -323h127zM519 954h112l-115 -182h-83z" />
    <glyph glyph-name="aeacute" unicode="&#x1fd;" horiz-adv-x="894" 
d="M92 32q-50 42 -50 115q0 72 52.5 112.5t143.5 40.5h144v11q0 42 -33.5 72t-86.5 30q-45 0 -80.5 -13.5t-68.5 -40.5l-51 58q36 36 90 57t112 21q59 0 102.5 -24.5t68.5 -67.5h1q27 41 75 66.5t110 25.5q117 0 174 -67t57 -171q0 -27 -16 -39.5t-49 -12.5h-303v-12
q-1 -52 38 -86t106 -34q87 0 145 55l51 -60q-37 -37 -87 -57.5t-109 -20.5q-70 0 -122.5 30.5t-73.5 76.5h-1q-29 -46 -84 -76.5t-120 -30.5q-85 0 -135 42zM751 284q0 59 -33.5 94t-98.5 35q-41 0 -71.5 -16.5t-47 -43t-17.5 -55.5v-14h268zM315.5 89.5q32.5 16.5 50 43.5
t17.5 57v31h-149q-47 0 -69.5 -19.5t-22.5 -53.5q0 -75 96 -75q45 0 77.5 16.5zM473 739h112l-115 -182h-83z" />
    <glyph glyph-name="Oslashacute" unicode="&#x1fe;" horiz-adv-x="673" 
d="M604 525q28 -76 28 -175q0 -109 -34 -190.5t-100.5 -125.5t-160.5 -44q-92 0 -156 41l-57 -102l-45 25l61 110q-48 46 -73 119t-25 167q0 167 76.5 263.5t218.5 96.5q80 0 143 -34l52 95l45 -25l-55 -99q54 -46 82 -122zM190 154l246 443q-42 28 -99 28
q-96 0 -143.5 -73.5t-47.5 -201.5q0 -126 44 -196zM480.5 149q47.5 74 47.5 201q0 138 -54 210l-248 -448q43 -37 111 -37q96 0 143.5 74zM368 954h112l-115 -182h-83z" />
    <glyph glyph-name="oslashacute" unicode="&#x1ff;" horiz-adv-x="555" 
d="M489 365q24 -54 24 -122q0 -73 -27.5 -130.5t-81 -90t-127.5 -32.5q-57 0 -102 20l-45 -81l-45 25l46 82q-43 33 -66 87t-23 120q0 73 27.5 130t80.5 89.5t127 32.5q56 0 98 -18l44 79l45 -25l-44 -79q45 -33 69 -87zM177 120l156 281q-25 11 -56 11q-65 0 -99 -46
t-34 -123q0 -78 33 -123zM377 118.5q34 45.5 34 124.5q0 82 -37 126l-157 -283q28 -13 60 -13q66 0 100 45.5zM319 739h112l-115 -182h-83z" />
    <glyph glyph-name="uni0218" unicode="&#x218;" horiz-adv-x="588" 
d="M157 19.5q-69 29.5 -115 79.5l61 64q44 -46 95 -67.5t113 -21.5q64 0 97.5 25t33.5 69q0 33 -13 54t-48 40t-107 45q-113 41 -163.5 91t-50.5 127q0 87 63 136t171 49q67 0 126 -21t103 -57l-53 -70q-41 33 -81 48t-95 15q-130 0 -130 -99q0 -33 16.5 -55.5t51 -41
t100.5 -42.5q80 -30 126 -59t67 -67t21 -93q0 -83 -63 -130.5t-174 -47.5q-83 0 -152 29.5zM244 -232q24 11 40.5 26.5t23.5 33.5q-3 -1 -10 -1q-23 0 -38.5 16t-15.5 40q0 29 18 47t48 18q33 0 51 -20.5t18 -56.5q0 -45 -30 -82.5t-78 -58.5z" />
    <glyph glyph-name="uni0219" unicode="&#x219;" horiz-adv-x="493" 
d="M139.5 12.5q-56.5 22.5 -97.5 63.5l58 63q30 -33 73.5 -50.5t91.5 -17.5q42 0 64 13.5t22 38.5q0 18 -8 29.5t-32 23.5t-75 29q-95 31 -135 65.5t-40 92.5q0 61 49 96.5t137 35.5q99 0 175 -55l-36 -68q-37 22 -69.5 32t-70.5 10q-42 0 -63.5 -14t-21.5 -37
q0 -19 11.5 -31.5t34 -22.5t70.5 -26q66 -23 103 -43.5t54 -48.5t17 -70q0 -61 -49 -96t-137 -35q-69 0 -125.5 22.5zM185 -232q24 11 40.5 26.5t23.5 33.5q-3 -1 -10 -1q-23 0 -38.5 16t-15.5 40q0 29 18 47t48 18q33 0 51 -20.5t18 -56.5q0 -45 -30 -82.5t-78 -58.5z" />
    <glyph glyph-name="uni021A" unicode="&#x21a;" horiz-adv-x="572" 
d="M235 612h-200v88h502v-88h-200v-612h-102v612zM217 -232q24 11 40.5 26.5t23.5 33.5q-3 -1 -10 -1q-23 0 -38.5 16t-15.5 40q0 29 18 47t48 18q33 0 51 -20.5t18 -56.5q0 -45 -30 -82.5t-78 -58.5z" />
    <glyph glyph-name="uni021B" unicode="&#x21b;" horiz-adv-x="379" 
d="M151 26q-33 36 -33 103v274h-86l21 82h66v116l97 44v-160h127l-20 -82h-105v-275q0 -31 11 -44t38 -13q28 0 52 12l25 -74q-16 -7 -43.5 -13t-51.5 -6q-65 0 -98 36zM172 -232q24 11 40.5 26.5t23.5 33.5q-3 -1 -10 -1q-23 0 -38.5 16t-15.5 40q0 29 18 47t48 18
q33 0 51 -20.5t18 -56.5q0 -45 -30 -82.5t-78 -58.5z" />
    <glyph glyph-name="uni0237" unicode="&#x237;" horiz-adv-x="430" 
d="M96.5 -205.5q-40.5 13.5 -64.5 34.5l38 68q46 -34 101 -34q43 0 61.5 24t18.5 81v517h100v-513q0 -191 -174 -191q-40 0 -80.5 13.5z" />
    <glyph glyph-name="uni0251" unicode="&#x251;" horiz-adv-x="573" 
d="M142.5 21.5q-48.5 31.5 -74.5 87.5t-26 128q0 76 28 134.5t82 91t129 32.5q116 0 171.5 -62.5t55.5 -159.5v-144q0 -37 6 -62t18 -44l-82 -33q-26 31 -30 81l-3 1q-28 -40 -69 -61t-92 -21q-65 0 -113.5 31.5zM374 115q36 43 36 110v34q0 69 -33 111.5t-102 42.5
q-63 0 -98 -48t-35 -128q0 -76 33.5 -120.5t96.5 -44.5q66 0 102 43z" />
    <glyph glyph-name="uni0259" unicode="&#x259;" horiz-adv-x="549" 
d="M144.5 25q-52.5 35 -77.5 90t-25 114q0 56 65 56h299q0 57 -38.5 92t-103.5 35q-86 0 -140 -49l-53 56q32 36 82 56t111 20q75 0 129.5 -31t84 -87t29.5 -131q0 -112 -58.5 -184t-173.5 -72q-78 0 -130.5 35zM371 111.5q35 39.5 35 93.5h-264q0 -58 35.5 -95.5
t97.5 -37.5q61 0 96 39.5z" />
    <glyph glyph-name="uni02BB" unicode="&#x2bb;" horiz-adv-x="235" 
d="M62 549.5q-19 20.5 -19 56.5q0 47 34.5 88t86.5 65l28 -47q-23 -11 -40.5 -27t-23.5 -32q22 0 39 -16.5t17 -39.5q0 -31 -19 -49.5t-50 -18.5q-34 0 -53 20.5z" />
    <glyph glyph-name="uni02BC" unicode="&#x2bc;" horiz-adv-x="240" 
d="M46 576q23 11 40.5 27t22.5 32q-22 0 -39 16.5t-17 39.5q0 31 19 49.5t51 18.5q34 0 53 -21t19 -56q0 -47 -35 -88t-87 -65z" />
    <glyph glyph-name="uni02BE" unicode="&#x2be;" 
d="M-72 584h11q22 0 34 11.5t12 29.5q0 19 -12 30.5t-34 11.5h-11v66h12q54 0 87.5 -29.5t33.5 -78.5q0 -48 -33.5 -77t-87.5 -29h-12v65z" />
    <glyph glyph-name="uni02BF" unicode="&#x2bf;" 
d="M-45.5 548q-33.5 29 -33.5 77q0 49 33.5 78.5t87.5 29.5h12v-66h-11q-22 0 -34 -11.5t-12 -30.5q0 -18 12 -29.5t34 -11.5h11v-65h-12q-54 0 -87.5 29z" />
    <glyph glyph-name="circumflex" unicode="&#x2c6;" horiz-adv-x="425" 
d="M168 699q13 16 23 22t26 6q26 0 38.5 -13t6.5 -26l-2 -6l125 -136h-104l-72 92l-66 -92h-103z" />
    <glyph glyph-name="caron" unicode="&#x2c7;" horiz-adv-x="425" 
d="M174 555.5q-12 9.5 -12 21.5q0 2 2 8l2 5l-126 137h105l71 -93l66 93h103l-128 -155q-13 -15 -23 -20.5t-26 -5.5q-22 0 -34 9.5z" />
    <glyph glyph-name="uni02C8" unicode="&#x2c8;" 
d="M-46 748h92v-188h-92v188z" />
    <glyph glyph-name="uni02C9" unicode="&#x2c9;" horiz-adv-x="436" 
d="M43 643h350v-79h-350v79z" />
    <glyph glyph-name="uni02CA" unicode="&#x2ca;" 
d="M-98 589l149 150l65 -65l-158 -141z" />
    <glyph glyph-name="uni02CB" unicode="&#x2cb;" 
d="M-100 674l66 65l148 -150l-56 -56z" />
    <glyph glyph-name="uni02CC" unicode="&#x2cc;" 
d="M-46 -20h92v-188h-92v188z" />
    <glyph glyph-name="breve" unicode="&#x2d8;" horiz-adv-x="379" 
d="M84 573.5q-41 37.5 -41 107.5v9h86v-10q0 -37 15.5 -56t45.5 -19t45.5 19t15.5 56v10h85v-9q0 -70 -41 -107.5t-105 -37.5q-65 0 -106 37.5z" />
    <glyph glyph-name="dotaccent" unicode="&#x2d9;" horiz-adv-x="211" 
d="M61 579q-18 18 -18 44q0 27 18 44.5t45 17.5t44.5 -18t17.5 -44t-17.5 -44t-44.5 -18t-45 18z" />
    <glyph glyph-name="ring" unicode="&#x2da;" horiz-adv-x="311" 
d="M75.5 546q-33.5 27 -33.5 76q0 48 33.5 75t79.5 27t80 -27t34 -75q0 -49 -34 -76t-80 -27t-79.5 27zM189 588q14 12 14 34t-13.5 34t-34.5 12t-34 -12t-13 -34t13.5 -34t33.5 -12t34 12z" />
    <glyph glyph-name="ogonek" unicode="&#x2db;" horiz-adv-x="284" 
d="M73 -192q-30 27 -30 74q0 40 25.5 72.5t66.5 51.5h82q-46 -29 -68.5 -56t-22.5 -57q0 -40 45 -40q24 0 51 16l19 -59q-38 -29 -90 -29q-48 0 -78 27z" />
    <glyph glyph-name="tilde" unicode="&#x2dc;" horiz-adv-x="410" 
d="M43 583q7 40 34 65.5t62 25.5q25 0 43.5 -8t42.5 -24q16 -10 25.5 -14.5t18.5 -4.5q19 0 29.5 11.5t15.5 37.5l53 -26q-1 -43 -24.5 -68.5t-61.5 -25.5q-21 0 -39.5 7.5t-41.5 21.5q-19 11 -30 16t-22 5q-37 0 -47 -50z" />
    <glyph glyph-name="hungarumlaut" unicode="&#x2dd;" horiz-adv-x="469" 
d="M143 724h103l-123 -182h-80zM319 724h107l-149 -182h-80z" />
    <glyph glyph-name="gravecomb" unicode="&#x300;" 
d="M-89 724h113l84 -182h-82z" />
    <glyph glyph-name="acutecomb" unicode="&#x301;" 
d="M11 724h112l-115 -182h-83z" />
    <glyph glyph-name="uni0302" unicode="&#x302;" 
d="M-43 699q13 16 23 22t25 6q26 0 38 -13t7 -26l-3 -6l127 -136h-106l-70 92l-67 -92h-103z" />
    <glyph glyph-name="tildecomb" unicode="&#x303;" 
d="M-165 583q7 39 34 65t61 26q25 0 45 -8.5t43 -23.5q11 -7 22.5 -13t20.5 -6q19 0 29.5 11.5t14.5 37.5l55 -26q-1 -43 -25 -68.5t-62 -25.5q-21 0 -38 7t-43 22q-20 11 -30 16t-21 5q-39 0 -47 -50z" />
    <glyph glyph-name="uni0304" unicode="&#x304;" 
d="M-160 634h320v-78h-320v78z" />
    <glyph glyph-name="uni0306" unicode="&#x306;" 
d="M-106 573.5q-41 37.5 -41 107.5v9h87v-10q0 -37 15.5 -56t44.5 -19t44.5 19t15.5 56v10h87v-9q0 -70 -41 -107.5t-106 -37.5t-106 37.5z" />
    <glyph glyph-name="uni0307" unicode="&#x307;" 
d="M-45.5 579q-17.5 18 -17.5 44q0 27 17.5 44.5t45.5 17.5q27 0 44 -18t17 -44t-17 -44t-44 -18q-28 0 -45.5 18z" />
    <glyph glyph-name="uni0308" unicode="&#x308;" 
d="M-150 567q-18 18 -18 44t18 44t46 18q27 0 45 -18t18 -44t-18 -44t-45 -18q-28 0 -46 18zM61 567q-19 18 -19 44t19 44t47 18q26 0 44 -18t18 -44t-18 -44t-44 -18q-28 0 -47 18z" />
    <glyph glyph-name="hookabovecomb" unicode="&#x309;" 
d="M-235 582.5q10 16.5 27 33.5q14 15 21 25.5t7 23.5q0 12 -8.5 19.5t-23.5 7.5q-32 0 -56 -33l-53 40q47 66 125 66q49 0 77.5 -24t28.5 -64q0 -22 -8 -36t-25 -33q-16 -17 -24 -30.5t-8 -33.5h-90q0 22 10 38.5z" />
    <glyph glyph-name="uni030A" unicode="&#x30a;" 
d="M-79.5 546q-33.5 27 -33.5 76q0 48 33.5 75t79.5 27t79.5 -27t33.5 -75q0 -49 -33.5 -76t-79.5 -27t-79.5 27zM34 588q14 12 14 34t-13.5 34t-34.5 12t-34.5 -12t-13.5 -34t14 -34t34 -12t34 12z" />
    <glyph glyph-name="uni030B" unicode="&#x30b;" 
d="M-38 724h104l-124 -182h-79zM139 724h106l-148 -182h-81z" />
    <glyph glyph-name="uni030C" unicode="&#x30c;" 
d="M-40 555.5q-12 9.5 -12 21.5q0 2 2 8l2 5l-126 137h105l71 -93l66 93h103l-128 -155q-13 -15 -23 -20.5t-26 -5.5q-22 0 -34 9.5z" />
    <glyph glyph-name="uni031B" unicode="&#x31b;" 
d="M-97 421q53 0 77 23t24 71v25h93v-21q0 -87 -52 -129.5t-142 -42.5v74z" />
    <glyph glyph-name="dotbelowcomb" unicode="&#x323;" 
d="M-45.5 -136.5q-17.5 17.5 -17.5 44.5q0 26 18 44t45 18t44 -18t17 -44q0 -27 -17 -44.5t-44 -17.5q-28 0 -45.5 17.5z" />
    <glyph glyph-name="uni0324" unicode="&#x324;" 
d="M-146 -139q-18 18 -18 44t18 44t46 18q27 0 44.5 -18t17.5 -44t-17.5 -44t-44.5 -18q-28 0 -46 18zM57 -139q-18 18 -18 44t18 44t46 18q27 0 44.5 -18t17.5 -44t-17.5 -44t-44.5 -18q-28 0 -46 18z" />
    <glyph glyph-name="uni0326" unicode="&#x326;" 
d="M-178 -232q24 11 40.5 26.5t23.5 33.5q-3 -1 -10 -1q-23 0 -38.5 16t-15.5 40q0 29 18 47t48 18q33 0 51 -20.5t18 -56.5q0 -45 -30 -82.5t-78 -58.5z" />
    <glyph glyph-name="uni0327" unicode="&#x327;" 
d="M-120 -185l28 52q33 -24 70 -24q38 0 38 33q0 16 -11 25t-31 9q-6 0 -20 -2l-21 24l45 74h78l-35 -55q76 -12 76 -81q0 -40 -29 -65t-81 -25q-55 0 -107 35z" />
    <glyph glyph-name="uni0328" unicode="&#x328;" 
d="M-86.5 -192q-29.5 27 -29.5 74q0 40 25 72.5t66 51.5h82q-46 -29 -68.5 -56t-22.5 -57q0 -40 46 -40q23 0 50 16l20 -59q-40 -29 -90 -29q-49 0 -78.5 27z" />
    <glyph glyph-name="uni032E" unicode="&#x32e;" 
d="M-106 -159q-41 37 -41 106v10h87v-11q0 -72 60 -72t60 72v11h87v-10q0 -69 -41 -106t-106 -37t-106 37z" />
    <glyph glyph-name="uni0331" unicode="&#x331;" 
d="M-160 -58h320v-78h-320v78z" />
    <glyph glyph-name="uni0394" unicode="&#x394;" horiz-adv-x="685" 
d="M285 668q9 26 24.5 38t39.5 12q31 0 46.5 -12t15.5 -32q0 -9 -6 -18l238 -656h-601zM508 90l-164 464l-164 -464h328z" />
    <glyph glyph-name="uni03A9" unicode="&#x3a9;" horiz-adv-x="715" 
d="M83 88h149v72q-91 23 -140.5 89.5t-49.5 173.5q0 87 39.5 152t111 100t165.5 35q93 0 164.5 -35t111.5 -100t40 -152q0 -107 -50 -173.5t-140 -89.5v-72h149v-88h-251v223q98 10 143 59t45 141q0 94 -58 148t-154 54q-97 0 -154.5 -54t-57.5 -148q0 -92 45 -141t143 -59
v-223h-251v88z" />
    <glyph glyph-name="uni03BC" unicode="&#x3bc;" horiz-adv-x="548" 
d="M58 485h100v-295q0 -59 26.5 -88t81.5 -29q57 0 88 41t31 102v269h100v-358q0 -33 5 -57t17 -46l-89 -34q-9 16 -16.5 38.5t-8.5 44.5q-50 -83 -143 -83q-28 0 -53 8.5t-39 23.5v-272h-100v735z" />
    <glyph glyph-name="pi" unicode="&#x3c0;" horiz-adv-x="642" 
d="M393 130v258h-159v-388h-102v388h-100v82h572v-82h-111v-260q0 -31 10 -43.5t33 -12.5q30 0 50 10l24 -74q-16 -7 -42 -12t-50 -5q-125 0 -125 139z" />
    <glyph glyph-name="uni0E01" unicode="&#xe01;" horiz-adv-x="646" 
d="M122 259q0 46 20 72l-104 67q11 54 50.5 101t100 75.5t130.5 28.5q78 0 128.5 -24.5t89.5 -74.5q8 8 17 8q11 0 24 -12q20 -19 20 -40q0 -9 -3 -14t-9 -12q-16 -14 -16 -35v-399h-100v401q0 30 6 43q-25 38 -63 58t-93 20q-68 0 -113.5 -26.5t-68.5 -71.5l46 -30
q11 15 29.5 27t39.5 19l34 -62q-34 -16 -49.5 -41t-15.5 -64v-273h-100v259z" />
    <glyph glyph-name="uni0E02" unicode="&#xe02;" horiz-adv-x="593" 
d="M169 -10q-24 0 -41 29q-9 14 -9 24q0 14 21 29q10 7 13.5 18.5t3.5 31.5v48q0 37 16 64.5t48 64.5q34 40 51 70.5t17 71.5q0 46 -21.5 70t-59.5 24q-27 0 -49 -10v-4q42 -2 65.5 -26t23.5 -60q0 -42 -29 -70t-75 -28q-47 0 -76.5 30t-29.5 80q0 44 22 79.5t62 56t91 20.5
q76 0 121.5 -43.5t45.5 -116.5q0 -48 -18.5 -84t-53.5 -81q-26 -34 -39 -57.5t-13 -48.5v-53q0 -24 -13 -41h192v515h100v-522q0 -32 -19.5 -51.5t-52.5 -19.5h-245q-18 0 -32 -6q-7 -4 -17 -4zM175 405q13 12 13 30t-13 30.5t-31 12.5q-19 0 -31.5 -12.5t-12.5 -30.5
q0 -19 12.5 -30.5t31.5 -11.5q18 0 31 12z" />
    <glyph glyph-name="uni0E03" unicode="&#xe03;" horiz-adv-x="633" 
d="M210 -10q-25 0 -41 29q-9 14 -9 24q0 14 21 29q10 7 13.5 18.5t3.5 31.5v51q0 50 23.5 92.5t66.5 97.5q31 41 45 64.5t14 45.5q0 20 -5.5 32t-16.5 21l-26 -19q7 -14 7 -24q0 -15 -16 -22q-8 -4 -17 -4q-13 0 -19 14q-15 33 -32.5 48.5t-43.5 15.5t-41 -17t-21 -45h2
q9 7 22 11.5t25 4.5q37 0 60.5 -26t23.5 -62q0 -42 -28 -69.5t-73 -27.5q-51 0 -80.5 35.5t-29.5 95.5q0 73 38 120.5t102 47.5q33 0 54 -10t42 -32l32 27q9 6 17.5 10.5t17.5 4.5q16 0 31 -11q30 -24 44 -51.5t14 -67.5q0 -33 -15.5 -63.5t-47.5 -76.5q-35 -51 -52.5 -87
t-17.5 -77v-50q0 -24 -13 -41h192v515h99v-522q0 -32 -19.5 -51.5t-52.5 -19.5h-244q-18 0 -32 -6q-7 -4 -17 -4zM178 371.5q12 12.5 12 30.5q0 17 -12.5 29t-29.5 12q-19 0 -31.5 -12t-12.5 -29q0 -19 12.5 -31t31.5 -12q18 0 30 12.5z" />
    <glyph glyph-name="uni0E04" unicode="&#xe04;" horiz-adv-x="637" 
d="M462 401q0 29 7 44q-26 38 -64 58t-93 20q-80 0 -124.5 -41t-44.5 -122q0 -40 4 -70.5t5 -36.5q1 -5 5 -32t4 -59h3q13 33 19 60.5t11 61.5q5 42 15 70q26 67 101 67q50 0 79 -28t29 -75q0 -44 -29.5 -70.5t-77.5 -26.5q-31 0 -54 17q-14 -66 -33.5 -115.5t-60.5 -106.5
q-17 -23 -38 -23q-14 0 -32 12q-23 16 -23 30q0 8 12 27q7 11 7 31q0 17 -6 43t-13 54q-13 52 -20.5 91.5t-7.5 78.5q0 74 33.5 129t94.5 84.5t142 29.5q74 0 126.5 -26t90.5 -73q8 8 16 8q11 0 24 -12q19 -18 19 -40q0 -9 -3 -14t-9 -12q-16 -14 -16 -35v-399h-98v401z
M340.5 288q12.5 12 12.5 30t-12.5 30.5t-30.5 12.5t-30 -12.5t-12 -30.5q0 -19 12 -30.5t30 -11.5t30.5 12z" />
    <glyph glyph-name="uni0E05" unicode="&#xe05;" horiz-adv-x="637" 
d="M462 421q0 29 7 44q-7 29 -22 43.5t-41 14.5q-31 0 -57 -24q4 -8 -1.5 -17t-19.5 -15q-13 -6 -23 -6q-16 0 -28 19q-13 22 -26 32.5t-33 10.5q-39 0 -57 -38t-18 -125q0 -40 4 -70.5t5 -36.5q1 -5 5 -32t4 -59h3q13 33 19 60.5t11 61.5q5 42 15 70q26 67 101 67
q50 0 79 -28t29 -75q0 -44 -29.5 -70.5t-77.5 -26.5q-31 0 -54 17q-14 -66 -33.5 -115.5t-60.5 -106.5q-17 -23 -38 -23q-14 0 -32 12q-23 16 -23 30q0 8 12 27q7 11 7 31q0 17 -6 43t-13 54q-13 52 -20.5 91.5t-7.5 78.5q0 117 42 180t126 63q64 0 104 -54q18 24 45 39
t59 15q82 0 111 -79q8 8 16 8q11 0 24 -12q19 -18 19 -40q0 -9 -3 -14t-9 -12q-16 -14 -16 -35v-419h-98v421zM340.5 288q12.5 12 12.5 30t-12.5 30.5t-30.5 12.5t-30 -12.5t-12 -30.5q0 -19 12 -30.5t30 -11.5t30.5 12z" />
    <glyph glyph-name="uni0E06" unicode="&#xe06;" horiz-adv-x="674" 
d="M121 20q-31 30 -31 83q0 64 38 103.5t100 47.5v10q0 23 15.5 47.5t45.5 60.5q31 37 45.5 59.5t14.5 45.5q0 19 -5.5 29t-16.5 20l-26 -19q7 -14 7 -24q0 -15 -16 -22q-8 -4 -17 -4q-13 0 -19 14q-15 33 -32.5 48.5t-43.5 15.5q-27 0 -43 -16t-22 -42h2q8 7 21 11t26 4
q37 0 60.5 -26t23.5 -62q0 -41 -28.5 -68.5t-73.5 -27.5q-50 0 -79 35.5t-29 94.5q0 73 38.5 119t103.5 46q33 0 54 -10t42 -32l32 27q9 6 17.5 10.5t17.5 4.5q16 0 31 -11q31 -25 44.5 -50t13.5 -65q0 -31 -15.5 -56.5t-45.5 -59.5q-27 -31 -40 -52t-13 -45v-10
q54 -5 107.5 -28t91.5 -59v426h98v-593h-98v62q-65 95 -205 118v-84q0 -49 -28.5 -77.5t-79.5 -28.5q-52 0 -83 30zM176.5 375q12.5 12 12.5 30t-12.5 30.5t-30.5 12.5t-30.5 -12.5t-12.5 -30.5t12.5 -30t30.5 -12t30.5 12zM227.5 61.5q8.5 9.5 8.5 28.5v100
q-38 -6 -56 -27.5t-18 -60.5q0 -24 11 -37t31 -13q15 0 23.5 9.5z" />
    <glyph glyph-name="uni0E07" unicode="&#xe07;" horiz-adv-x="514" 
d="M368 -10q-18 0 -38 15q-18 15 -18 27q0 7 6 14l-293 283l62 62l265 -255q4 16 4 27v244q-16 -6 -30 -6q-41 0 -69 27.5t-28 70.5q0 45 31 74.5t82 29.5q52 0 83 -29t31 -77v-363q0 -39 -12 -69t-43 -61q-14 -14 -33 -14zM373 469q13 12 13 30t-13 30.5t-31 12.5
q-19 0 -31 -12.5t-12 -30.5q0 -19 12 -30.5t31 -11.5q18 0 31 12z" />
    <glyph glyph-name="uni0E08" unicode="&#xe08;" horiz-adv-x="620" 
d="M397 -9q-23 0 -36 16q-12 15 -12 26q0 15 19 32l-39 166q-9 -9 -25.5 -14t-34.5 -5q-42 0 -72 27.5t-30 70.5t30.5 72.5t79.5 29.5q45 0 72.5 -24.5t36.5 -68.5l37 -177l39 279q3 20 12 30q-29 35 -70.5 53t-101.5 18q-130 0 -176 -118l-84 27q26 76 93.5 124t166.5 48
q74 0 126 -25.5t94 -70.5q5 4 13 4q14 0 29 -18q14 -17 14 -28q0 -13 -17 -27q-15 -13 -19 -35l-54 -327q-6 -35 -57 -74q-16 -11 -34 -11zM307.5 280q12.5 12 12.5 30q0 17 -12.5 29.5t-30.5 12.5t-30.5 -12.5t-12.5 -29.5q0 -18 12.5 -30t30.5 -12t30.5 12z" />
    <glyph glyph-name="uni0E09" unicode="&#xe09;" horiz-adv-x="647" 
d="M404 20q-32 30 -32 70q0 58 47 86v3q-49 0 -91 -42.5t-84 -125.5q-9 -20 -33 -20q-17 0 -33 11q-24 17 -24 35q0 9 6 18q19 27 19 56v61q-10 -5 -28 -5q-41 0 -69 27.5t-28 70.5q0 44 30.5 73.5t82.5 29.5q50 0 81.5 -28t31.5 -72q0 -20 -6 -32v-66q67 78 164 78
q10 0 28 -2v156q0 34 10 46q-27 37 -67 55.5t-97 18.5q-66 0 -114 -28t-72 -82l-84 27q26 72 97 118t173 46q148 0 220 -96q9 7 16 7q14 0 32 -19q15 -19 15 -32q0 -8 -4 -12q-4 -6 -10.5 -15t-10.5 -18.5t-4 -22.5v-208q19 -15 29.5 -37.5t10.5 -49.5q0 -44 -32.5 -77
t-85.5 -33q-52 0 -84 30zM197.5 234q12.5 12 12.5 31q0 18 -12.5 30t-30.5 12q-19 0 -31.5 -12t-12.5 -30q0 -19 12.5 -31t31.5 -12q18 0 30.5 12zM521.5 65.5q13.5 12.5 13.5 32.5t-13 33.5t-34 13.5q-20 0 -33.5 -13t-13.5 -34q0 -19 13.5 -32t33.5 -13t33.5 12.5z" />
    <glyph glyph-name="uni0E0A" unicode="&#xe0a;" horiz-adv-x="661" 
d="M190 -10q-24 0 -41 29q-9 14 -9 24q0 14 21 29q10 7 13.5 18.5t3.5 31.5v52q0 37 13 64.5t40 63.5q28 39 42.5 68.5t14.5 70.5q0 46 -21.5 70t-58.5 24q-27 0 -49 -10v-4q42 -2 65.5 -26t23.5 -60q0 -42 -29 -70t-75 -28q-47 0 -76.5 30t-29.5 80q0 44 22 79.5t62 56
t91 20.5q76 0 121 -43.5t45 -116.5q0 -44 -14.5 -78t-41.5 -76q-23 -35 -34.5 -59.5t-11.5 -53.5v-57q0 -24 -13 -41h194v284q0 30 -6.5 42t-25.5 17q-12 4 -18 12.5t-6 19.5t7 23q61 109 163 170l57 -69q-41 -23 -77 -55.5t-56 -63.5q35 -11 47.5 -33t12.5 -66v-288
q0 -32 -19.5 -51.5t-52.5 -19.5h-244q-19 0 -33 -6q-7 -4 -17 -4zM175 405q13 12 13 30t-13 30.5t-31 12.5q-19 0 -31.5 -12.5t-12.5 -30.5q0 -19 12.5 -30.5t31.5 -11.5q18 0 31 12z" />
    <glyph glyph-name="uni0E0B" unicode="&#xe0b;" horiz-adv-x="694" 
d="M224 -10q-24 0 -41 29q-8 14 -8 23q0 15 20 30q10 7 14 18.5t4 31.5v51q0 51 20 93t56 93q26 37 38.5 61.5t12.5 48.5q0 22 -5 34.5t-15 22.5l-25 -20q7 -13 7 -24q0 -14 -16 -21q-12 -5 -17 -5q-13 0 -19 15q-14 33 -31.5 48.5t-43.5 15.5q-45 0 -59 -62h2q9 7 22 11
t25 4q37 0 60.5 -26t23.5 -62q0 -41 -28.5 -69t-72.5 -28q-51 0 -80.5 35.5t-29.5 95.5q0 74 36.5 121t100.5 47q33 0 54 -10t41 -31l31 26q21 15 35 15q18 0 31 -10q29 -25 42.5 -53.5t13.5 -69.5q0 -33 -13 -63t-40 -75q-29 -49 -44 -85t-15 -77v-50q0 -25 -13 -41h194
v284q0 31 -5.5 43t-20.5 16q-12 4 -18 12.5t-6 20.5t6 22q66 115 158 170l57 -69q-39 -22 -72.5 -54t-54.5 -65q31 -11 42.5 -33.5t11.5 -65.5v-288q0 -32 -19.5 -51.5t-52.5 -19.5h-244q-19 0 -33 -6q-7 -4 -17 -4zM178 370.5q12 12.5 12 30.5q0 17 -12.5 29t-29.5 12
q-19 0 -31.5 -12t-12.5 -29q0 -19 12.5 -31t31.5 -12q18 0 30 12.5z" />
    <glyph glyph-name="uni0E0C" unicode="&#xe0c;" horiz-adv-x="919" 
d="M156 20q-31 30 -31 78v161q0 46 20 72l-103 67q11 55 49.5 102t97 75t128.5 28q75 0 124 -24.5t88 -74.5q8 8 16 8q11 0 24 -12q20 -17 20 -40q0 -9 -3 -14t-9 -12q-16 -14 -16 -35v-144q125 -14 202 -88v426h98v-593h-98v63q-67 97 -181 115q16 -34 16 -73
q0 -53 -28.5 -84t-78.5 -31t-78 31.5t-28 87.5q0 46 21.5 81.5t56.5 55.5v155q0 30 7 43q-26 38 -62 58t-90 20q-126 0 -177 -98l47 -30q12 15 30 27t38 19l34 -62q-34 -16 -49.5 -41t-15.5 -64v-93q18 7 33 7q39 0 63.5 -26t24.5 -70t-30 -72.5t-80 -28.5q-49 0 -80 30z
M520 63q10 15 10 42t-6 47.5t-20 38.5q-51 -21 -51 -86q0 -26 10 -41.5t28 -15.5q19 0 29 15zM267 60.5q12 12.5 12 30.5q0 19 -12 30.5t-31 11.5q-18 0 -30.5 -12t-12.5 -30t12.5 -30.5t30.5 -12.5q19 0 31 12.5z" />
    <glyph glyph-name="uni0E0D" unicode="&#xe0d;" horiz-adv-x="909" 
d="M498 -128.5q-44 30.5 -44 81.5q0 45 31 73.5t78 28.5q48 0 77.5 -26t29.5 -64q0 -29 -19 -45v-1q52 7 81.5 52t29.5 119h-241q-21 0 -33 -7q-10 -4 -17 -4q-24 0 -41 29q-8 14 -8 24q0 15 20 30q10 7 14 18t4 32v189q0 30 6 43q-25 38 -61 58t-90 20q-126 0 -177 -98
l46 -30q11 15 29.5 27t39.5 19l34 -62q-34 -16 -49.5 -41t-15.5 -64v-93q18 7 32 7q40 0 64 -26t24 -70t-30 -72.5t-80 -28.5q-48 0 -79 30t-31 78v161q0 46 20 72l-104 67q11 55 49.5 102t97.5 75t129 28q76 0 124 -24.5t87 -74.5q10 8 18 8q11 0 24 -12q19 -18 19 -40
q0 -9 -3 -14t-9 -12q-16 -14 -16 -35v-195q0 -24 -11 -35h210v424h100v-496q0 -73 -30 -131.5t-86 -91.5t-130 -33q-69 0 -113 30.5zM263.5 60.5q12.5 12.5 12.5 30.5q0 19 -12.5 30.5t-31.5 11.5q-18 0 -30 -12t-12 -30t12.5 -30.5t29.5 -12.5q19 0 31.5 12.5zM594.5 -77
q12.5 12 12.5 29q0 18 -12 29.5t-30 11.5t-29.5 -12t-11.5 -29t12 -29t29 -12t29.5 12z" />
    <glyph glyph-name="uni0E0E" unicode="&#xe0e;" horiz-adv-x="650" 
d="M92 -329q-33 30 -33 80q0 58 46.5 89t116.5 26v48h84v-54q45 -13 80 -41t53 -67q35 25 35 89v560q0 28 7 43q-52 78 -152 78q-65 0 -112 -26.5t-69 -70.5l53 -33q12 15 30.5 28t37.5 18l34 -62q-34 -15 -48.5 -41t-14.5 -65v-131q11 -20 11 -48q0 -44 -30 -72.5
t-79 -28.5q-50 0 -80 29t-30 72q0 41 25.5 69.5t63.5 28.5q8 0 20 -4v70q0 52 17 74l-111 69q12 54 52 101t100 75.5t129 28.5q73 0 124 -25t89 -74q10 8 17 8q11 0 24 -12q20 -17 20 -40q0 -9 -3 -14t-9 -12q-16 -14 -16 -35v-559q0 -64 -32 -110.5t-96 -78.5
q-20 -10 -35 -10q-22 0 -36 20q-8 11 -8 22q0 16 17 28q-25 60 -79 77v-13q0 -58 -33 -96t-94 -38q-53 0 -86 30zM171.5 60.5q12.5 12.5 12.5 30.5t-12 30t-30 12q-19 0 -31.5 -11.5t-12.5 -30.5q0 -18 12.5 -30.5t31.5 -12.5q17 0 29.5 12.5zM226 -225v25q-7 1 -20 1
q-33 0 -49.5 -13.5t-16.5 -37.5q0 -17 10.5 -28t28.5 -11q47 0 47 64z" />
    <glyph glyph-name="uni0E0F" unicode="&#xe0f;" horiz-adv-x="660" 
d="M58.5 -331.5q-26.5 27.5 -26.5 71.5q0 52 38 82.5t98 26.5v46h77v-53q34 -9 57 -29t34 -49q13 17 24 25.5t25 8.5q25 0 41 -24l20 -25q10 -15 21 -15q8 0 12.5 6t4.5 17v644q0 28 7 43q-52 78 -152 78q-65 0 -112 -26.5t-69 -70.5l53 -33q12 15 30.5 28t37.5 18l34 -62
q-34 -15 -48.5 -41t-14.5 -65v-131q11 -20 11 -48q0 -44 -30 -72.5t-79 -28.5q-50 0 -80 29t-30 72q0 41 25.5 69.5t63.5 28.5q8 0 20 -4v70q0 52 17 74l-111 69q12 54 52 101t100 75.5t129 28.5q73 0 124 -25t90 -74q9 7 18 7q11 0 22 -11q20 -17 20 -40q0 -9 -3 -14
t-9 -12q-16 -14 -16 -35v-655q0 -49 -21 -76t-65 -27q-42 0 -67 31l-25 29q-6 7 -11.5 11.5t-11.5 4.5q-9 0 -18 -15l-29 -45q-10 -16 -26 -16q-12 0 -24 9q-16 9 -16 23q0 9 6 21l10 19q-3 24 -13 38t-28 22v-9q0 -55 -28 -89t-85 -34q-47 0 -73.5 27.5zM181.5 60.5
q12.5 12.5 12.5 30.5t-12 30t-30 12q-19 0 -31.5 -11.5t-12.5 -30.5q0 -18 12.5 -30.5t31.5 -12.5q17 0 29.5 12.5zM164.5 -287q9.5 12 9.5 43v30q-6 1 -17 1q-58 0 -58 -48q0 -18 9.5 -28t24.5 -10q22 0 31.5 12z" />
    <glyph glyph-name="uni0E10" unicode="&#xe10;" horiz-adv-x="626" 
d="M386 -9q-22 0 -37 16q-11 14 -11 26q0 14 18 32l-36 127q-9 -9 -25.5 -14t-34.5 -5q-42 0 -71.5 27.5t-29.5 70.5t29.5 71t78.5 28q86 0 107 -91l34 -149l27 193q3 27 12 40q-30 19 -85 30t-114 11t-103 -12l-6 -16q-2 -6 -9.5 -9.5t-17.5 -3.5q-14 0 -25 5
q-26 10 -26 31q0 6 4 20q30 88 93 136t159 48q34 0 66.5 -5.5t76.5 -15.5q7 -1 46.5 -9t77.5 -11l-23 -78q-33 3 -65 10.5t-38 8.5q-45 11 -77 16t-70 5q-51 0 -83 -15t-47 -50q35 6 75 6q64 0 125.5 -13t96.5 -36q7 7 16 7q14 0 28 -15q18 -18 18 -31q0 -11 -12 -23
q-7 -7 -10 -16.5t-6 -26.5l-36 -235q-6 -36 -56 -74q-14 -11 -34 -11zM298.5 240q12.5 12 12.5 31q0 17 -12.5 29t-30.5 12t-30.5 -12t-12.5 -29q0 -19 12.5 -31t30.5 -12t30.5 12zM64.5 -332q-26.5 27 -26.5 70q0 48 34.5 77.5t85.5 29.5q11 0 16 -1v58h76v-68
q39 -12 64 -37t36 -61q28 21 65 21q30 0 60 -16v54q-6 -4 -16.5 -6t-18.5 -2q-37 0 -61 23.5t-24 61.5q0 41 26.5 67.5t72.5 26.5q47 0 73 -26.5t26 -71.5v-144q8 -8 8 -18q0 -15 -18 -33q-16 -16 -32 -16q-17 0 -43 20q-22 16 -49 16q-21 0 -39.5 -9.5t-30.5 -26.5
q-9 -14 -25 -14q-11 0 -24 7q-20 11 -20 26q0 8 5 18l9 19q-6 23 -15.5 35t-28.5 20q1 -58 -28.5 -92.5t-82.5 -34.5q-48 0 -74.5 27zM487 -157.5q12 11.5 12 29.5q-1 17 -12.5 28.5t-29.5 11.5t-29.5 -11.5t-11.5 -28.5q0 -18 11.5 -29.5t30.5 -11.5q17 0 29 11.5z
M180 -246v29q-8 2 -22 2q-24 0 -39 -12.5t-15 -34.5q0 -18 10.5 -27.5t26.5 -9.5q39 0 39 53z" />
    <glyph glyph-name="uni0E11" unicode="&#xe11;" horiz-adv-x="762" 
d="M250 15.5q-9 10.5 -9 21.5q0 10 5 16q12 19 12 40v179q0 44 14 77t39 72q15 24 21.5 37.5t6.5 26.5q0 27 -22 43l-28 -21q6 -10 6 -18q0 -12 -16 -22q-9 -5 -18 -5q-13 0 -19 15q-15 30 -31.5 44t-39.5 14q-49 0 -55 -69h1q9 7 22.5 11.5t25.5 4.5q37 0 60.5 -26
t23.5 -62q0 -42 -28 -69t-73 -27q-51 0 -80.5 35.5t-29.5 95.5q0 75 34 124.5t97 49.5q33 0 54 -9.5t40 -30.5l31 23q11 9 19.5 13t18.5 4q18 0 33 -12q26 -22 40 -45.5t14 -55.5q0 -16 -6.5 -29.5t-22.5 -40.5q-21 -34 -33 -62.5t-12 -65.5v-92l166 398q46 0 77 -11.5
t59 -36.5q12 10 21 10q12 0 24 -11q22 -18 22 -37q0 -9 -3 -14t-9 -14q-8 -10 -12 -18.5t-4 -21.5v-444h-98v444q0 30 9 49q-8 9 -20 15.5t-24 6.5l-207 -494q-12 -30 -40 -30q-13 0 -32 8q-15 6 -24 16.5zM178 364.5q12 12.5 12 30.5t-12.5 30t-29.5 12q-19 0 -31.5 -12
t-12.5 -30q0 -19 12.5 -31t31.5 -12q18 0 30 12.5z" />
    <glyph glyph-name="uni0E12" unicode="&#xe12;" horiz-adv-x="919" 
d="M414 21.5q-28 31.5 -28 87.5q0 46 21 81.5t56 55.5v172q0 28 8 43q-7 31 -22 46.5t-44 15.5q-30 0 -56 -24q4 -8 -1 -17t-20 -15q-13 -6 -24 -6q-16 0 -28 19q-13 22 -26.5 32.5t-32.5 10.5q-39 0 -56.5 -33.5t-17.5 -110.5q0 -40 4 -69t12 -77q11 -51 12 -83h3
q23 35 42 57t44 37q-27 9 -44 31.5t-17 53.5q0 45 30.5 74t78.5 29q49 0 79 -29t30 -74q0 -58 -67 -101q-53 -35 -94 -84.5t-87 -127.5q-13 -24 -36 -24q-14 0 -35 13q-23 16 -23 31q0 11 11 25q8 13 8 30q0 27 -5.5 54t-17.5 68q-14 50 -21.5 86.5t-7.5 79.5
q0 108 41.5 166t124.5 58q65 0 105 -54q18 24 45 39t58 15q44 0 72 -22t42 -59q8 6 16 6q12 0 24 -11q20 -19 20 -39q0 -9 -3 -14t-10 -13q-8 -8 -12 -15t-4 -20v-161q124 -14 201 -88v426h98v-593h-98l1 63q-67 97 -181 115q17 -32 17 -73q0 -53 -28.5 -84t-78.5 -31
t-78 31.5zM338.5 298q12.5 12 12.5 30t-12.5 30t-30.5 12t-30.5 -12t-12.5 -30t12.5 -30t30.5 -12t30.5 12zM520.5 63.5q10.5 15.5 10.5 41.5q0 27 -6 47.5t-20 38.5q-51 -21 -51 -86q0 -26 10 -41.5t27 -15.5q19 0 29.5 15.5z" />
    <glyph glyph-name="uni0E13" unicode="&#xe13;" horiz-adv-x="943" 
d="M153 20q-31 30 -31 78v161q0 46 20 72l-104 67q11 55 49.5 102t97.5 75t129 28q76 0 124 -24.5t87 -74.5q10 8 17 8q11 0 24 -12q20 -19 20 -40q0 -9 -3 -14t-9 -12q-16 -14 -16 -35v-230q78 80 190 80l21 -1v345h100v-420q32 -27 32 -77q0 -44 -32 -75t-85 -31t-85 30
t-32 70q0 57 48 85v2q-56 -3 -101 -45t-87 -121q-10 -20 -34 -20q-17 0 -33 11q-24 17 -24 36q0 9 6 16q8 9 13 24t5 32v291q0 30 6 43q-25 38 -61 58t-90 20q-126 0 -177 -98l46 -30q11 15 29.5 27t39.5 19l34 -62q-34 -16 -49.5 -41t-15.5 -64v-93q18 7 32 7q40 0 64 -26
t24 -70t-30 -72.5t-80 -28.5q-48 0 -79 30zM817 65.5q13 12.5 13 32.5q0 21 -12.5 34t-33.5 13q-20 0 -33.5 -13t-13.5 -34q0 -19 13.5 -32t33.5 -13t33 12.5zM263.5 60.5q12.5 12.5 12.5 30.5q0 19 -12.5 30.5t-31.5 11.5q-18 0 -30 -12t-12 -30t12.5 -30.5t29.5 -12.5
q19 0 31.5 12.5z" />
    <glyph glyph-name="uni0E14" unicode="&#xe14;" horiz-adv-x="646" 
d="M470 401q0 26 8 44q-49 78 -164 78q-82 0 -126.5 -42.5t-44.5 -124.5q0 -38 4.5 -64.5t12.5 -59.5q5 -19 8.5 -39.5t4.5 -41.5h2q22 33 42.5 55t45.5 38q-27 9 -44 31.5t-17 53.5q0 45 31 74t79 29q49 0 79 -29t30 -74q0 -29 -16.5 -53.5t-51.5 -47.5q-54 -36 -96.5 -86
t-87.5 -126q-13 -24 -36 -24q-14 0 -35 13q-22 15 -22 29q0 11 11 28q8 11 8 30q0 20 -5.5 43.5t-16.5 58.5q-16 54 -23.5 88.5t-7.5 73.5q0 73 33 129t94.5 87t144.5 31q75 0 131.5 -26.5t92.5 -72.5q9 7 17 7q11 0 23 -11q19 -18 19 -40q0 -9 -3 -14t-9 -12
q-16 -14 -16 -35v-399h-99v401zM342.5 298q12.5 12 12.5 30t-12.5 30t-30.5 12t-31 -12t-13 -30t13 -30t31 -12t30.5 12z" />
    <glyph glyph-name="uni0E15" unicode="&#xe15;" horiz-adv-x="646" 
d="M470 423q0 30 8 43q-10 29 -25 43t-43 14q-30 0 -56 -24q4 -8 -1.5 -17t-19.5 -15q-13 -6 -23 -6q-17 0 -29 19q-13 21 -27 32t-34 11q-38 0 -57.5 -34.5t-19.5 -109.5q0 -40 4 -69t12 -77q11 -51 12 -83h3q23 33 44 56t45 38q-27 9 -44 31.5t-17 53.5q0 45 31 74t79 29
q49 0 79 -29t30 -74q0 -29 -16.5 -53.5t-51.5 -47.5q-54 -36 -96.5 -86t-87.5 -126q-13 -24 -36 -24q-14 0 -35 13q-23 16 -23 31q0 11 11 25q8 13 8 30q0 27 -5.5 54t-17.5 68q-14 50 -21.5 86.5t-7.5 79.5q0 107 43.5 165.5t126.5 58.5q65 0 105 -54q19 24 46.5 39
t58.5 15q44 0 73.5 -21.5t44.5 -58.5q7 5 14 5q11 0 23 -11q20 -17 20 -39q0 -9 -3 -14t-10 -13q-8 -9 -11.5 -15.5t-3.5 -19.5v-416h-99v423zM342.5 298q12.5 12 12.5 30t-12.5 30t-30.5 12t-31 -12t-13 -30t13 -30t31 -12t30.5 12z" />
    <glyph glyph-name="uni0E16" unicode="&#xe16;" horiz-adv-x="646" 
d="M153 20q-31 30 -31 78v161q0 46 20 72l-104 67q11 54 50.5 101t100 75.5t130.5 28.5q78 0 128.5 -24.5t89.5 -74.5q8 8 17 8q11 0 24 -12q20 -19 20 -40q0 -9 -3 -14t-9 -12q-16 -14 -16 -35v-399h-100v401q0 30 6 43q-25 38 -62.5 58t-93.5 20q-68 0 -113.5 -26.5
t-68.5 -71.5l46 -30q11 15 29.5 27t39.5 19l34 -62q-34 -16 -49.5 -41t-15.5 -64v-93q18 7 32 7q40 0 64 -26t24 -70t-30 -72.5t-80 -28.5q-48 0 -79 30zM263.5 60.5q12.5 12.5 12.5 30.5q0 19 -12.5 30.5t-31.5 11.5q-18 0 -30 -12t-12 -30t12.5 -30.5t29.5 -12.5
q19 0 31.5 12.5z" />
    <glyph glyph-name="uni0E17" unicode="&#xe17;" horiz-adv-x="662" 
d="M139 35q0 10 7 18q12 17 12 43v311q-18 -6 -31 -6q-40 0 -67.5 27.5t-27.5 70.5q0 45 30.5 74.5t82.5 29.5q51 0 80 -29t29 -77v-259l146 365q88 0 145 -47q11 9 22 9t24 -10q23 -20 23 -39q0 -8 -3.5 -14.5t-8.5 -12.5q-8 -9 -12 -17.5t-4 -21.5v-450h-99v447q0 30 9 49
q-7 10 -20 16.5t-26 6.5l-206 -498q-12 -31 -40 -31q-12 0 -31 8q-34 15 -34 37zM175 469q12 12 12 30t-12.5 30.5t-29.5 12.5q-19 0 -31.5 -12.5t-12.5 -30.5q0 -19 12.5 -30.5t31.5 -11.5q18 0 30 12z" />
    <glyph glyph-name="uni0E18" unicode="&#xe18;" horiz-adv-x="625" 
d="M210.5 499.5q-35.5 -22.5 -50.5 -62.5q25 3 61 3q76 0 154.5 -12.5t114.5 -33.5q7 7 16 7q13 0 28 -15q18 -18 18 -32q0 -12 -12 -24q-8 -7 -11.5 -17t-3.5 -25v-217q0 -32 -19.5 -51.5t-52.5 -19.5h-242q-18 0 -32 -6q-7 -4 -17 -4q-24 0 -41 29q-9 14 -9 24q0 14 21 29
q21 16 21 50v247q-20 -2 -29 -4l-7 -11q-7 -15 -27 -15q-9 0 -24 5q-25 11 -25 31q0 6 4 22q28 95 92.5 150.5t166.5 55.5q33 0 64 -5t79 -15q86 -18 135 -21l-23 -79q-44 5 -111 19q-43 10 -76.5 15t-70.5 5q-56 0 -91.5 -22.5zM437 338q-24 15 -76 23.5t-112 10.5v-257
q0 -23 -12 -36h191v220q0 26 9 39z" />
    <glyph glyph-name="uni0E19" unicode="&#xe19;" horiz-adv-x="658" 
d="M413.5 20q-31.5 30 -31.5 72q0 55 47 84v3q-54 0 -107.5 -44.5t-96.5 -123.5q-11 -20 -34 -20q-16 0 -33 11q-23 17 -23 35q0 9 6 18q17 25 17 55v297q-18 -6 -31 -6q-40 0 -67.5 27.5t-27.5 70.5q0 45 30.5 74.5t82.5 29.5q51 0 82 -29t31 -77v-328q39 37 93 58.5
t112 21.5l21 -1v345h100v-417q32 -27 32 -78q0 -45 -32 -76.5t-86 -31.5q-53 0 -84.5 30zM175 469q12 12 12 30t-12.5 30.5t-29.5 12.5q-19 0 -31.5 -12.5t-12.5 -30.5q0 -19 12.5 -30.5t31.5 -11.5q18 0 30 12zM531.5 65.5q13.5 12.5 13.5 32.5t-13 33.5t-34 13.5
q-20 0 -33 -13t-13 -34q0 -20 13 -32.5t33 -12.5t33.5 12.5z" />
    <glyph glyph-name="uni0E1A" unicode="&#xe1a;" horiz-adv-x="672" 
d="M170 -10q-25 0 -41 29q-9 14 -9 24q0 14 21 29q10 7 13.5 18.5t3.5 31.5v285q-18 -6 -31 -6q-40 0 -67.5 27.5t-27.5 70.5q0 45 30.5 74.5t82.5 29.5q51 0 82 -29t31 -77v-381q0 -24 -12 -37h267v514h100v-522q0 -32 -19.5 -51.5t-52.5 -19.5h-322q-18 0 -32 -6
q-7 -4 -17 -4zM175 469q12 12 12 30t-12.5 30.5t-29.5 12.5q-19 0 -31.5 -12.5t-12.5 -30.5q0 -19 12.5 -30.5t31.5 -11.5q18 0 30 12z" />
    <glyph glyph-name="uni0E1B" unicode="&#xe1b;" horiz-adv-x="674" 
d="M170 -10q-25 0 -41 29q-9 14 -9 24q0 14 21 29q10 7 13.5 18.5t3.5 31.5v285q-18 -6 -31 -6q-40 0 -67.5 27.5t-27.5 70.5q0 45 30.5 74.5t82.5 29.5q51 0 82 -29t31 -77v-381q0 -24 -12 -37h269v735h100v-743q0 -32 -19.5 -51.5t-52.5 -19.5h-324q-18 0 -32 -6
q-7 -4 -17 -4zM175 469q12 12 12 30t-12.5 30.5t-29.5 12.5q-19 0 -31.5 -12.5t-12.5 -30.5q0 -19 12.5 -30.5t31.5 -11.5q18 0 30 12z" />
    <glyph glyph-name="uni0E1C" unicode="&#xe1c;" horiz-adv-x="623" 
d="M512 -9q-22 0 -38 25l-151 259l-178 -262q-16 -24 -40 -24q-17 0 -35 15q-21 17 -21 33q0 11 8 19q14 17 14 45v396q0 48 31 77t83 29t82.5 -29.5t30.5 -74.5q0 -44 -27.5 -71t-68.5 -27q-13 0 -31 6v-233l105 158q19 27 47 27q16 0 26 -6.5t19 -20.5l96 -155v416h100
v-551q0 -22 -6 -32t-26 -16q-12 -3 -20 -3zM216 468.5q12 11.5 12 30.5q0 18 -12 30.5t-31 12.5q-18 0 -30.5 -12.5t-12.5 -30.5t12.5 -30t30.5 -12q19 0 31 11.5z" />
    <glyph glyph-name="uni0E1D" unicode="&#xe1d;" horiz-adv-x="625" 
d="M514 -9q-22 0 -38 25l-152 259l-179 -262q-16 -24 -40 -24q-17 0 -35 15q-21 17 -21 33q0 11 8 19q14 17 14 45v396q0 48 31 77t83 29t82.5 -29.5t30.5 -74.5q0 -44 -27.5 -71t-68.5 -27q-13 0 -31 6v-233l106 158q19 27 47 27q16 0 26 -6.5t19 -20.5l97 -155v637h100
v-772q0 -22 -6 -32t-26 -16q-12 -3 -20 -3zM216 468.5q12 11.5 12 30.5q0 18 -12 30.5t-31 12.5q-18 0 -30.5 -12.5t-12.5 -30.5t12.5 -30t30.5 -12q19 0 31 11.5z" />
    <glyph glyph-name="uni0E1E" unicode="&#xe1e;" horiz-adv-x="711" 
d="M567 -2q-11 8 -18 28l-138 426l-153 -420q-15 -41 -52 -41q-14 0 -27 5q-16 6 -25.5 16.5t-9.5 23.5t7 24q7 14 7 38v309q-18 -6 -31 -6q-40 0 -67.5 27.5t-27.5 70.5q0 45 30.5 74.5t82.5 29.5q51 0 80.5 -29t29.5 -77v-260l113 316q11 31 44 31q32 0 42 -31l101 -306
v346h97v-551q0 -25 -12.5 -38.5t-37.5 -13.5q-24 0 -35 8zM175 469q12 12 12 30t-12.5 30.5t-29.5 12.5q-19 0 -31.5 -12.5t-12.5 -30.5q0 -19 12.5 -30.5t31.5 -11.5q18 0 30 12z" />
    <glyph glyph-name="uni0E1F" unicode="&#xe1f;" horiz-adv-x="713" 
d="M569 -2q-11 8 -18 28l-139 426l-154 -420q-15 -41 -52 -41q-14 0 -27 5q-16 6 -25.5 16.5t-9.5 23.5t7 24q7 14 7 38v309q-18 -6 -31 -6q-40 0 -67.5 27.5t-27.5 70.5q0 45 30.5 74.5t82.5 29.5q51 0 80.5 -29t29.5 -77v-260l114 316q11 31 44 31q32 0 42 -31l102 -306
v567h97v-772q0 -25 -12.5 -38.5t-37.5 -13.5q-24 0 -35 8zM175 469q12 12 12 30t-12.5 30.5t-29.5 12.5q-19 0 -31.5 -12.5t-12.5 -30.5q0 -19 12.5 -30.5t31.5 -11.5q18 0 30 12z" />
    <glyph glyph-name="uni0E20" unicode="&#xe20;" horiz-adv-x="648" 
d="M62 19q-30 29 -30 72q0 41 25.5 69.5t63.5 28.5q8 0 20 -4v70q0 52 17 74l-111 69q12 54 52 101t100 75.5t129 28.5q72 0 122.5 -25t88.5 -74q10 8 17 8q11 0 24 -12q20 -17 20 -40q0 -9 -3 -14t-9 -12q-16 -14 -16 -35v-399h-100v401q0 28 7 43q-52 78 -150 78
q-65 0 -112 -26.5t-69 -70.5l53 -33q12 15 30.5 28t37.5 18l34 -62q-34 -15 -48.5 -41t-14.5 -65v-131q11 -20 11 -48q0 -44 -30 -72.5t-79 -28.5q-50 0 -80 29zM171.5 60.5q12.5 12.5 12.5 30.5t-12 30t-30 12q-19 0 -31.5 -11.5t-12.5 -30.5q0 -18 12.5 -30.5t31.5 -12.5
q17 0 29.5 12.5z" />
    <glyph glyph-name="uni0E21" unicode="&#xe21;" horiz-adv-x="630" 
d="M76.5 20q-30.5 30 -30.5 83q0 63 35 104t87 53v147q-18 -6 -31 -6q-40 0 -67.5 27.5t-27.5 70.5q0 45 30.5 74.5t82.5 29.5q51 0 82 -29t31 -77v-237q58 -8 112.5 -32t92.5 -61v426h98v-593h-98v62q-36 52 -89 82t-116 40v-88q0 -49 -28.5 -77.5t-80.5 -28.5t-82.5 30z
M185 469q12 12 12 30t-12.5 30.5t-29.5 12.5q-19 0 -31.5 -12.5t-12.5 -30.5q0 -19 12.5 -30.5t31.5 -11.5q18 0 30 12zM192 90v104q-37 -6 -55.5 -29.5t-18.5 -62.5q0 -24 10.5 -37t30.5 -13q33 0 33 38z" />
    <glyph glyph-name="uni0E22" unicode="&#xe22;" horiz-adv-x="609" 
d="M119 -10q-24 0 -39 28q-9 15 -9 25q0 8 5.5 14.5t16.5 14.5q10 6 14 17.5t4 29.5v132q-69 53 -69 150q0 55 23.5 101.5t65.5 73.5t95 27t84.5 -29t31.5 -75q0 -45 -29.5 -71.5t-77.5 -26.5q-29 0 -53.5 15t-35.5 40h-2q-5 -9 -9 -25t-4 -32q0 -52 31.5 -79.5t88.5 -27.5
q52 0 108 25l24 -67q-28 -14 -64.5 -23.5t-62.5 -9.5q-12 0 -47 5v-109q0 -22 -11 -34h252v514h100v-522q0 -32 -19.5 -51.5t-52.5 -19.5h-307q-17 0 -33 -6q-12 -4 -19 -4zM260.5 469q12.5 12 12.5 30t-12.5 30.5t-30.5 12.5q-19 0 -31.5 -12.5t-12.5 -30.5
q0 -19 12.5 -30.5t31.5 -11.5q18 0 30.5 12z" />
    <glyph glyph-name="uni0E23" unicode="&#xe23;" horiz-adv-x="570" 
d="M246 17.5q-30 27.5 -30 70.5q0 42 26 70.5t64 28.5q16 0 30 -7v132q0 11 3 21.5t7 16.5q-29 17 -67.5 26t-80.5 9q-39 0 -73 -7l-6 -11q-7 -15 -28 -15q-13 0 -24 5q-25 10 -25 31q0 11 4 22q27 89 84 141t145 52q29 0 54 -4t46 -9t28 -6q69 -19 125 -22l-23 -79
q-51 6 -111 21q-42 10 -66 14t-56 4q-45 0 -70.5 -18.5t-41.5 -55.5q25 4 58 4q52 0 99.5 -12t83.5 -35q8 8 18 8q13 0 27 -14q16 -19 16 -33q0 -12 -11 -23q-15 -14 -15 -42v-203q0 -48 -30.5 -78t-79.5 -30q-50 0 -80 27.5zM356.5 60.5q12.5 12.5 12.5 30.5t-12.5 30
t-30.5 12q-19 0 -31.5 -11.5t-12.5 -30.5q0 -18 12.5 -30.5t31.5 -12.5q18 0 30.5 12.5z" />
    <glyph glyph-name="uni0E24" unicode="&#xe24;" horiz-adv-x="648" 
d="M472 401q0 30 6 43q-25 38 -63 58t-94 20q-68 0 -114 -26.5t-69 -71.5l46 -30q11 15 29.5 27t39.5 19l34 -62q-34 -16 -49.5 -41t-15.5 -64v-93q18 7 32 7q40 0 64 -26t24 -70t-30 -72.5t-80 -28.5q-48 0 -79 30t-31 78v161q0 46 20 72l-104 67q11 54 51 101t100.5 75.5
t130.5 28.5q78 0 129 -25t90 -74q8 8 17 8q11 0 24 -12q20 -19 20 -40q0 -9 -3 -14t-9 -12q-16 -14 -16 -35v-758h-100v760zM263.5 60.5q12.5 12.5 12.5 30.5q0 19 -12.5 30.5t-31.5 11.5q-18 0 -30 -12t-12 -30t12.5 -30.5t29.5 -12.5q19 0 31.5 12.5z" />
    <glyph glyph-name="uni0E25" unicode="&#xe25;" horiz-adv-x="629" 
d="M116 22q-31 32 -31 83q0 86 39 149t104 105q-5 7 -5 13q0 16 18 32q17 14 29 14q11 0 24 -8q49 -34 92 -77t68 -88v167q0 27 10 40q-57 70 -160 70q-67 0 -111 -29.5t-67 -88.5l-84 27q26 77 93 124.5t169 47.5q138 0 216 -94q7 5 13 5q15 0 32 -20q15 -19 15 -34
q0 -10 -9 -18q-19 -17 -19 -45v-397h-98v28q0 51 -22.5 107t-59.5 103.5t-79 73.5q-40 -19 -70.5 -55t-41.5 -80q14 10 36 10q39 0 64.5 -26t25.5 -70t-29.5 -72.5t-80.5 -28.5q-50 0 -81 32zM228 60.5q12 12.5 12 30.5q0 19 -12 30.5t-31 11.5q-18 0 -30.5 -12t-12.5 -30
t12.5 -30.5t30.5 -12.5q19 0 31 12.5z" />
    <glyph glyph-name="uni0E26" unicode="&#xe26;" horiz-adv-x="650" 
d="M474 401q0 30 6 43q-52 78 -151 78q-65 0 -112 -26.5t-69 -70.5l53 -33q12 15 30.5 28t37.5 18l34 -62q-34 -15 -48.5 -41t-14.5 -65v-131q11 -20 11 -48q0 -44 -30 -72.5t-79 -28.5q-50 0 -80 29t-30 72q0 41 25.5 69.5t63.5 28.5q8 0 20 -4v70q0 52 17 74l-111 69
q12 54 52 101t100 75.5t129 28.5q73 0 123.5 -25t89.5 -74q8 8 17 8q11 0 24 -12q20 -19 20 -40q0 -9 -3 -14t-9 -12q-16 -14 -16 -35v-758h-100v760zM171.5 60.5q12.5 12.5 12.5 30.5t-12 30t-30 12q-19 0 -31.5 -11.5t-12.5 -30.5q0 -18 12.5 -30.5t31.5 -12.5
q17 0 29.5 12.5z" />
    <glyph glyph-name="uni0E27" unicode="&#xe27;" horiz-adv-x="566" 
d="M299.5 17.5q-30.5 27.5 -30.5 70.5q0 42 26 70.5t64 28.5q15 0 31 -7v230q0 34 9 46q-26 34 -55.5 50t-74.5 16q-105 0 -152 -114l-85 27q26 75 88 121.5t149 46.5q66 0 109 -21t80 -67q6 6 14 6q12 0 29 -18q16 -19 16 -32q0 -8 -4 -12q-3 -5 -9.5 -14t-10 -19t-3.5 -24
v-304q0 -48 -31 -78t-80 -30t-79.5 27.5zM409.5 60.5q12.5 12.5 12.5 30.5t-12.5 30t-30.5 12q-19 0 -31 -11.5t-12 -30.5q0 -18 12 -30.5t31 -12.5q18 0 30.5 12.5z" />
    <glyph glyph-name="uni0E28" unicode="&#xe28;" horiz-adv-x="638" 
d="M590 460q0 -9 -3 -14t-10 -12q-8 -7 -12.5 -14.5t-4.5 -20.5v-399h-98v401q0 29 7 44q-26 38 -64 58t-93 20q-78 0 -123.5 -42t-45.5 -121q0 -40 4 -70.5t5 -36.5q1 -5 5 -32t4 -59h3q13 33 19 60.5t11 61.5q5 42 15 70q26 67 101 67q50 0 79 -28t29 -75
q0 -44 -29.5 -70.5t-77.5 -26.5q-31 0 -54 17q-14 -66 -33.5 -115.5t-60.5 -106.5q-17 -23 -38 -23q-14 0 -32 12q-23 16 -23 30q0 8 12 27q7 11 7 31q0 17 -6 43t-13 54q-13 52 -20.5 91.5t-7.5 78.5q0 73 34.5 128t96 85t139.5 30q84 0 147 -37q46 59 102 89l45 -63
q-52 -29 -90 -73l13 -15q8 8 17 8q11 0 24 -12q20 -19 20 -40zM280 348.5q-12 -12.5 -12 -30.5q0 -19 12 -30.5t30 -11.5t30.5 12t12.5 30t-12.5 30.5t-30.5 12.5t-30 -12.5z" />
    <glyph glyph-name="uni0E29" unicode="&#xe29;" horiz-adv-x="672" 
d="M170 -10q-25 0 -41 29q-9 14 -9 24q0 14 21 29q10 7 13.5 18.5t3.5 31.5v285q-18 -6 -31 -6q-40 0 -67.5 27.5t-27.5 70.5q0 45 30.5 74.5t82.5 29.5q51 0 81 -29t30 -77v-381q0 -24 -12 -37h272v147q-15 -19 -40.5 -30t-54.5 -11q-56 0 -91.5 31t-35.5 84
q0 51 32.5 83.5t81.5 32.5q45 0 44 -36q-3 -35 -35 -35q-18 1 -29.5 -11t-11.5 -31q0 -22 14.5 -32.5t40.5 -10.5q41 0 63 26t22 72v235h98v-522q0 -32 -19.5 -51.5t-52.5 -19.5h-323q-18 0 -32 -6q-7 -4 -17 -4zM175 469q12 12 12 30t-12.5 30.5t-29.5 12.5
q-19 0 -31.5 -12.5t-12.5 -30.5q0 -19 12.5 -30.5t31.5 -11.5q18 0 30 12z" />
    <glyph glyph-name="uni0E2A" unicode="&#xe2a;" horiz-adv-x="633" 
d="M533 514q14 0 31 -20q16 -20 16 -33q0 -11 -10 -19q-18 -16 -18 -45v-397h-98v28q0 51 -22.5 107t-59.5 103.5t-79 73.5q-40 -19 -70.5 -55t-41.5 -80q14 10 36 10q39 0 64.5 -26t25.5 -70t-29.5 -72.5t-80.5 -28.5q-50 0 -81 32t-31 83q0 86 39 149t104 105q-5 7 -5 13
q0 16 18 32q17 14 29 14q11 0 24 -8q49 -34 92 -77t68 -88v167q0 27 10 40q-57 70 -160 70q-67 0 -111 -29.5t-67 -88.5l-84 27q26 77 93 124.5t169 47.5q89 0 151 -38q46 58 111 89l42 -63q-58 -29 -97 -71l9 -11q7 5 13 5zM166.5 121q-12.5 -12 -12.5 -30t12.5 -30.5
t30.5 -12.5q19 0 31 12.5t12 30.5q0 19 -12 30.5t-31 11.5q-18 0 -30.5 -12z" />
    <glyph glyph-name="uni0E2B" unicode="&#xe2b;" horiz-adv-x="648" 
d="M131 35q0 12 8 23q19 23 19 63v286q-18 -6 -31 -6q-40 0 -67.5 27.5t-27.5 70.5q0 45 30.5 74.5t82.5 29.5q51 0 82 -29t31 -77v-310l155 231q-42 30 -42 82q0 45 32 74t81 29q51 0 81.5 -28.5t30.5 -76.5q0 -26 -13 -48t-37 -34q20 -11 27.5 -30t7.5 -50v-336h-99v335
q0 28 -22 28l-241 -355q-13 -19 -36 -19q-14 0 -28 9q-24 17 -24 37zM175 469q12 12 12 30t-12.5 30.5t-29.5 12.5q-19 0 -31.5 -12.5t-12.5 -30.5q0 -19 12.5 -30.5t31.5 -11.5q18 0 30 12zM514.5 469q12.5 12 12.5 30t-13 30.5t-30 12.5q-19 0 -31.5 -12.5t-12.5 -30.5
q0 -19 12.5 -30.5t31.5 -11.5q18 0 30.5 12z" />
    <glyph glyph-name="uni0E2C" unicode="&#xe2c;" horiz-adv-x="783" 
d="M570.5 -2.5q-10.5 7.5 -19.5 28.5l-139 367l-154 -361q-17 -41 -52 -41q-14 0 -27 5q-16 6 -25.5 16.5t-9.5 23.5t7 24q7 14 7 38v309q-18 -6 -31 -6q-40 0 -67.5 27.5t-27.5 70.5q0 45 30.5 74.5t82.5 29.5q51 0 80.5 -29t29.5 -77v-277l114 268q7 15 17.5 23t26.5 8
q17 0 26 -8t16 -23l102 -257v388q-18 -9 -37 -9q-45 0 -74.5 26.5t-29.5 73.5t31.5 75.5t80.5 28.5q34 0 59.5 -15t36.5 -41l56 62l71 -53l-97 -105v-620q0 -25 -12.5 -38.5t-37.5 -13.5q-23 0 -33.5 7.5zM559.5 680q12.5 12 12.5 30q0 20 -11.5 31.5t-31.5 11.5
q-19 0 -31 -11.5t-12 -31.5q0 -19 12 -30.5t31 -11.5q18 0 30.5 12zM175 469q12 12 12 30t-12.5 30.5t-29.5 12.5q-19 0 -31.5 -12.5t-12.5 -30.5q0 -19 12.5 -30.5t31.5 -11.5q18 0 30 12z" />
    <glyph glyph-name="uni0E2D" unicode="&#xe2d;" horiz-adv-x="620" 
d="M123 -10q-24 0 -41 29q-8 14 -8 23q0 15 20 30q10 7 14 18.5t4 31.5v145q0 48 31 77.5t82 29.5q53 0 83 -29.5t30 -74.5q0 -43 -28 -70.5t-69 -27.5q-13 0 -31 6v-64q0 -25 -11 -36h247v324q0 33 9 46q-26 38 -61.5 56t-91.5 18q-63 0 -106.5 -28t-69.5 -85l-84 26
q28 75 95.5 121.5t164.5 46.5q74 0 124 -24t86 -72q7 7 14 7q11 0 29 -19q16 -19 16 -32q0 -8 -4 -12q-3 -5 -9.5 -14t-10 -19t-3.5 -23v-324q0 -32 -19.5 -51.5t-52.5 -19.5h-299q-19 0 -33 -6q-7 -4 -17 -4zM256.5 239.5q12.5 11.5 12.5 30.5q0 18 -12.5 30.5t-31.5 12.5
q-18 0 -30.5 -12.5t-12.5 -30.5t12.5 -30t30.5 -12q19 0 31.5 11.5z" />
    <glyph glyph-name="uni0E2E" unicode="&#xe2e;" horiz-adv-x="597" 
d="M91 -10q-24 0 -40 29q-9 14 -9 24q0 14 21 29q10 7 13.5 18.5t3.5 31.5v145q0 48 31 77.5t82 29.5q53 0 83 -29.5t30 -74.5q0 -43 -28 -70.5t-69 -27.5q-14 0 -30 6v-64q0 -24 -12 -36h247v308q0 34 11 52l-25 20q-39 -28 -81.5 -40t-102.5 -12q-79 0 -126 27t-47 77
q0 54 47 82.5t131 28.5q53 0 101.5 -17.5t84.5 -44.5q47 61 119 102l43 -63q-66 -34 -110 -91l16 -11q9 7 19 7q15 0 30 -15q15 -19 15 -32q0 -8 -4 -12q-3 -6 -9.5 -15t-10 -18.5t-3.5 -23.5v-316q0 -32 -19.5 -51.5t-52.5 -19.5h-299q-17 0 -33 -6q-7 -4 -17 -4zM340 513
q-50 36 -119 36q-88 0 -88 -37q0 -35 84 -35q76 0 123 36zM224.5 239.5q12.5 11.5 12.5 30.5q0 18 -12.5 30.5t-31.5 12.5q-17 0 -30 -12.5t-13 -30.5t12.5 -30t30.5 -12q19 0 31.5 11.5z" />
    <glyph glyph-name="uni0E2F" unicode="&#xe2f;" horiz-adv-x="539" 
d="M395 -10q-27 0 -41 20q-9 12 -9 23q0 15 19 30q14 11 19.5 20t5.5 24v275q-52 -63 -147 -63q-53 0 -99 22.5t-73.5 61.5t-27.5 86q0 49 32.5 81.5t84.5 32.5q55 0 87 -29t32 -79q0 -37 -23.5 -62.5t-65.5 -32.5q22 -15 56 -15q60 0 102.5 45.5t65.5 143.5q6 29 35 29
q4 0 16 -2q34 -7 34 -34q0 -5 -2 -13l-7 -23v-432q0 -68 -64 -102q-13 -7 -30 -7zM192.5 457q13.5 13 13.5 32q0 23 -12 35t-35 12q-22 0 -34 -12t-12 -35q0 -19 13.5 -32t32.5 -13q20 0 33.5 13z" />
    <glyph glyph-name="uni0E30" unicode="&#xe30;" horiz-adv-x="535" 
d="M91 355q-49 34 -49 91q0 46 32.5 75.5t81.5 29.5t81 -28.5t32 -74.5q0 -33 -25 -52v-2q58 7 99.5 45.5t64.5 103.5l85 -39q-30 -86 -104.5 -134.5t-172.5 -48.5q-76 0 -125 34zM187.5 415.5q11.5 11.5 11.5 30.5t-11.5 30.5t-30.5 11.5q-20 0 -32 -11.5t-12 -30.5
t12 -30.5t32 -11.5q19 0 30.5 11.5zM91 38q-49 35 -49 92q0 45 32.5 74.5t81.5 29.5t81 -29t32 -75q0 -15 -6.5 -28.5t-18.5 -21.5v-4q118 16 164 150l85 -39q-31 -86 -105 -135t-172 -49q-76 0 -125 35zM187.5 98q11.5 12 11.5 31q0 18 -11.5 30t-30.5 12t-31.5 -12
t-12.5 -30q0 -19 12.5 -31t31.5 -12t30.5 12z" />
    <glyph glyph-name="uni0E31" unicode="&#xe31;" 
d="M-350 688.5q-51 34.5 -51 89.5q0 45 30.5 73.5t78.5 28.5t77.5 -27t29.5 -71q0 -19 -8.5 -38t-22.5 -29v-2q79 0 138.5 43t92.5 125l75 -40q-40 -93 -114.5 -140t-191.5 -47q-83 0 -134 34.5zM-260 746.5q13 12.5 13 31.5t-13 32t-33 13q-19 0 -32 -13t-13 -32t13 -31.5
t32 -12.5q20 0 33 12.5z" />
    <glyph glyph-name="uni0E32" unicode="&#xe32;" horiz-adv-x="533" 
d="M356 412q0 28 8 43q-22 34 -50 50.5t-70 16.5q-94 0 -143 -85l-73 41q33 60 90.5 92.5t124.5 32.5q61 0 105 -22.5t77 -64.5q9 7 17 7q11 0 23 -12q20 -16 20 -39q0 -9 -3 -14t-10 -12q-16 -14 -16 -35v-411h-100v412z" />
    <glyph glyph-name="uni0E33" unicode="&#xe33;" horiz-adv-x="534" 
d="M-190 674q-35 31 -35 78t35 77.5t86 30.5t86 -30.5t35 -77.5t-35 -78t-86 -31t-86 31zM-73 721q12 12 12 31q0 18 -12 30.5t-31 12.5t-31 -12.5t-12 -30.5q0 -19 12 -31t31 -12t31 12zM356 412q0 28 8 43q-22 34 -50 50.5t-69 16.5q-48 0 -83 -20.5t-60 -64.5l-73 41
q32 60 89.5 92.5t125.5 32.5q113 0 181 -87q9 7 17 7q12 0 24 -12q20 -17 20 -39q0 -9 -3 -14t-10 -12q-8 -7 -12.5 -14.5t-4.5 -20.5v-411h-100v412z" />
    <glyph glyph-name="uni0E34" unicode="&#xe34;" 
d="M-372 696q-112 0 -159 -17q-7 -3 -16 -3q-23 0 -37 26q-5 9 -5 19q0 19 28 31q38 65 98.5 101.5t134.5 36.5q97 0 167 -45t108 -129q6 -12 6 -24q0 -21 -21 -36q-10 -7 -23 -7q-9 0 -26 5q-112 42 -255 42zM-328 819q-44 0 -80 -16.5t-60 -46.5q35 7 91 7
q69 0 124.5 -7.5t110.5 -25.5q-64 89 -186 89z" />
    <glyph glyph-name="uni0E35" unicode="&#xe35;" 
d="M-47 693q0 -21 -22 -37q-11 -8 -24 -8q-12 0 -25 6q-108 42 -256 42q-108 0 -159 -17q-8 -3 -16 -3q-24 0 -36 26q-5 9 -5 19q0 19 28 31q38 65 98.5 101.5t134.5 36.5q100 0 178 -62v85h93v-192q2 -2 3 -4l2 -4q6 -10 6 -20zM-253.5 755.5q55.5 -7.5 109.5 -25.5
q-30 43 -76.5 66t-108.5 23q-45 0 -81 -16.5t-60 -46.5q35 7 91 7q70 0 125.5 -7.5z" />
    <glyph glyph-name="uni0E36" unicode="&#xe36;" 
d="M-373 696q-108 0 -159 -17q-7 -3 -16 -3q-23 0 -37 26q-5 9 -5 18q0 20 28 32q38 65 98.5 101.5t135.5 36.5q30 0 60 -7.5t53 -20.5q7 26 31.5 43t58.5 17q43 0 68.5 -24.5t25.5 -64.5q0 -25 -13.5 -45t-34.5 -29q15 -19 25 -43q6 -12 6 -24q0 -21 -21 -36q-11 -8 -23 -8
t-25 6q-108 42 -256 42zM-98 806.5q11 11.5 11 27.5t-11 27t-26 11q-16 0 -27.5 -11t-11.5 -27t11.5 -27.5t27.5 -11.5q15 0 26 11.5zM-219.5 796q-46.5 23 -108.5 23q-45 0 -81 -16.5t-60 -46.5q35 7 91 7q70 0 125 -7.5t110 -25.5q-30 43 -76.5 66z" />
    <glyph glyph-name="uni0E37" unicode="&#xe37;" 
d="M-46 693q0 -20 -23 -37q-11 -8 -24 -8q-12 0 -25 6q-108 42 -256 42q-108 0 -159 -17q-8 -3 -16 -3q-24 0 -36 26q-5 9 -5 19q0 19 28 31q38 64 98.5 100.5t134.5 37.5q42 0 82 -14v37h78v-76q16 -11 34 -27v103h77v-192l5 -8q7 -12 7 -20zM-253.5 755.5
q55.5 -7.5 109.5 -25.5q-30 43 -76.5 66t-108.5 23q-45 0 -81 -16.5t-60 -46.5q35 7 91 7q70 0 125.5 -7.5z" />
    <glyph glyph-name="uni0E38" unicode="&#xe38;" 
d="M-150 -230q-14 -6 -29 -6q-44 0 -71 26.5t-27 70.5t31.5 71t79.5 27q47 0 77.5 -26t30.5 -67v-178h-92v82zM-136 -169.5q12 11.5 12 29.5t-12.5 30t-29.5 12q-19 0 -32 -12t-13 -30t12.5 -29.5t32.5 -11.5q18 0 30 11.5z" />
    <glyph glyph-name="uni0E39" unicode="&#xe39;" 
d="M-265 -331q-18 0 -32 21q-8 13 -8 19t5.5 12t14.5 13q9 6 9 24v14q-12 -6 -28 -6q-43 0 -69.5 26t-26.5 70q0 42 31 69.5t77 27.5q47 0 74.5 -26t27.5 -68v-93q0 -20 -7 -29h56v208h83v-202q0 -31 -18.5 -47t-51.5 -16h-97l-11 -7q-15 -10 -29 -10zM-262 -168.5
q12 11.5 12 29.5t-12.5 30t-29.5 12q-19 0 -31.5 -12t-12.5 -30t12.5 -29.5t31.5 -11.5q18 0 30 11.5z" />
    <glyph glyph-name="uni0E3A" unicode="&#xe3a;" 
d="M-154 -146.5q-18 17.5 -18 43.5q0 27 17.5 44.5t45.5 17.5t45.5 -17.5t17.5 -44.5q0 -26 -18 -43.5t-45 -17.5t-45 17.5z" />
    <glyph glyph-name="uni0E3F" unicode="&#xe3f;" horiz-adv-x="601" 
d="M525.5 303q34.5 -40 34.5 -99q0 -96 -60.5 -150t-166.5 -54h-25v-98h-50v98h-188v598q0 19 -5 28t-14 18q-6 5 -8.5 10t-0.5 12q4 19 19.5 35.5t33.5 16.5q19 0 34 -18h129v99h50v-99h22q97 0 153.5 -51t56.5 -134q0 -61 -28 -95.5t-80 -52.5v-3q59 -21 93.5 -61z
M170 405h88v214h-88v-214zM308 619v-214h1q59 0 93 27.5t34 82.5q0 47 -29 75.5t-84 28.5h-15zM258 81v242h-88v-242h88zM423.5 112q32.5 31 32.5 92q0 57 -36.5 88t-102.5 31h-9v-242h20q63 0 95.5 31z" />
    <glyph glyph-name="uni0E40" unicode="&#xe40;" horiz-adv-x="311" 
d="M89 20q-31 30 -31 78v495h100v-413q18 7 33 7q40 0 64 -26t24 -70t-30 -72.5t-80 -28.5q-49 0 -80 30zM200 60.5q12 12.5 12 30.5q0 19 -12 30.5t-31 11.5q-18 0 -30.5 -12t-12.5 -30t12.5 -30.5t30.5 -12.5q19 0 31 12.5z" />
    <glyph glyph-name="uni0E41" unicode="&#xe41;" horiz-adv-x="567" 
d="M89 20q-31 30 -31 78v495h100v-413q18 7 33 7q40 0 64 -26t24 -70t-30 -72.5t-80 -28.5q-49 0 -80 30zM346 20q-31 30 -31 78v495h100v-413q18 7 32 7q40 0 64 -26t24 -70t-30 -72.5t-80 -28.5q-48 0 -79 30zM200 60.5q12 12.5 12 30.5q0 19 -12 30.5t-31 11.5
q-18 0 -30.5 -12t-12.5 -30t12.5 -30.5t30.5 -12.5q19 0 31 12.5zM456.5 60.5q12.5 12.5 12.5 30.5q0 19 -12.5 30.5t-31.5 11.5q-18 0 -30 -12t-12 -30t12.5 -30.5t29.5 -12.5q19 0 31.5 12.5z" />
    <glyph glyph-name="uni0E42" unicode="&#xe42;" horiz-adv-x="424" 
d="M183 20q-31 30 -31 78v600q0 71 -32.5 104t-108.5 35l-10 -9q-10 -10 -23 -10t-30 11q-18 12 -18 28q0 15 15 40q44 75 111.5 117.5t151.5 42.5q91 0 156 -37t98 -104l-71 -38q-32 53 -74.5 75.5t-108.5 22.5q-47 0 -87.5 -19t-64.5 -51q103 -15 149.5 -67.5t46.5 -140.5
v-518q18 7 33 7q40 0 64 -26t24 -70t-30 -72.5t-80 -28.5q-49 0 -80 30zM294 60.5q12 12.5 12 30.5q0 19 -12 30.5t-31 11.5q-18 0 -30.5 -12t-12.5 -30t13 -30.5t30 -12.5q19 0 31 12.5z" />
    <glyph glyph-name="uni0E43" unicode="&#xe43;" horiz-adv-x="353" 
d="M135.5 19.5q-30.5 29.5 -30.5 78.5v442q0 113 40.5 189.5t125.5 123.5q-2 61 -36 92.5t-97 31.5q-93 0 -140 -57v-2q9 5 22.5 8t24.5 3q40 0 65 -27t25 -67q0 -45 -30 -72.5t-82 -27.5t-86.5 35t-34.5 90q0 54 31.5 99t85.5 71.5t119 26.5q66 0 117 -26t79 -73t28 -107
q0 -27 -9.5 -40.5t-37.5 -27.5q-58 -28 -84 -84.5t-26 -158.5v-360q18 7 33 7q39 0 63.5 -26t24.5 -70t-30.5 -72.5t-79.5 -28.5q-50 0 -80.5 29.5zM57 804.5q12 11.5 12 30.5t-12 31t-32 12q-18 0 -30.5 -12t-12.5 -31q0 -18 12.5 -30t30.5 -12q20 0 32 11.5zM247 60.5
q12 12.5 12 30.5q0 19 -12 30.5t-31 11.5q-18 0 -31 -12t-13 -30t13 -30.5t31 -12.5q19 0 31 12.5z" />
    <glyph glyph-name="uni0E44" unicode="&#xe44;" horiz-adv-x="442" 
d="M198.5 19.5q-30.5 29.5 -30.5 78.5v489q0 105 55 181.5t154 120.5q-9 22 -25 44t-33 36q-95 -35 -158 -137q-8 -12 -15.5 -18t-16.5 -6q-7 0 -20 5q-23 12 -23 28q0 3 4 15q-41 94 -165 130l44 69q62 -20 103.5 -54t69.5 -83q29 38 70.5 68.5t84.5 47.5q15 6 29 6
q16 0 27 -8q36 -30 66.5 -74.5t44.5 -83.5q7 -17 7 -29q0 -16 -18 -27q-13 -7 -23 -7q-12 0 -21 11q-73 -33 -107 -86.5t-34 -148.5v-407q18 7 33 7q39 0 63.5 -26t24.5 -70t-30.5 -72.5t-79.5 -28.5q-50 0 -80.5 29.5zM310 60.5q12 12.5 12 30.5q0 19 -12 30.5t-31 11.5
q-18 0 -31 -12t-13 -30t13 -30.5t31 -12.5q19 0 31 12.5z" />
    <glyph glyph-name="uni0E45" unicode="&#xe45;" horiz-adv-x="533" 
d="M356 412q0 28 8 43q-23 34 -50.5 50.5t-69.5 16.5q-94 0 -143 -85l-73 41q33 60 90.5 92.5t124.5 32.5q112 0 182 -87q9 7 17 7q11 0 23 -12q20 -16 20 -39q0 -9 -3 -14t-10 -12q-16 -14 -16 -35v-770h-100v771z" />
    <glyph glyph-name="uni0E46" unicode="&#xe46;" horiz-adv-x="612" 
d="M394 -363q-23 0 -45 36q-4 7 -4 14q0 17 24 31q17 13 17 34v552q0 104 66 171l-36 40l-35 -35q3 -7 3 -15q0 -19 -26 -31q-13 -7 -23 -7q-21 0 -35 27q-17 37 -35.5 52.5t-52.5 15.5q-36 0 -57 -27.5t-21 -67.5q12 10 29 16t35 6q39 0 68 -27t29 -73q0 -48 -33.5 -79
t-83.5 -31q-62 0 -99 43.5t-37 110.5q0 96 48 153t128 57q42 0 75 -15.5t53 -45.5l47 48q13 13 34 13q18 0 29 -12l61 -69q4 2 11 2q18 0 29 -16q13 -17 13 -33q0 -18 -20 -32q-35 -27 -49.5 -57t-14.5 -82v-555q0 -35 -14 -58t-51 -45q-14 -9 -27 -9zM210 311.5
q13 13.5 13 33.5q0 19 -13 32.5t-32 13.5q-20 0 -34 -13.5t-14 -32.5q0 -20 14 -33.5t34 -13.5q19 0 32 13.5z" />
    <glyph glyph-name="uni0E47" unicode="&#xe47;" 
d="M-277 676.5q-36 20.5 -50 57.5q-30 -13 -40 -53q-5 -11 -14 -17.5t-21 -6.5q-15 0 -28 10q-71 51 -71 134q0 65 42 102t114 37h101q59 0 86.5 16t40.5 59l72 -22q-13 -64 -64.5 -94.5t-133.5 -30.5h-103q-38 0 -58.5 -18t-20.5 -49q0 -37 20 -65q23 46 63 58q0 31 34 31
q32 0 32 -25q0 -36 14 -57.5t37 -27.5l1 1q-13 16 -13 38q0 34 24 55t60 21t59 -22.5t23 -58.5q0 -41 -32 -67t-85 -26t-89 20.5zM-129 724.5q10 9.5 10 24.5t-10 24.5t-24 9.5q-15 0 -25.5 -9.5t-10.5 -24.5t10.5 -24.5t25.5 -9.5q14 0 24 9.5z" />
    <glyph glyph-name="uni0E48" unicode="&#xe48;" 
d="M-158 882h100v-224h-100v224z" />
    <glyph glyph-name="uni0E49" unicode="&#xe49;" 
d="M-389 715q56 7 86 43l-1 2q-42 -3 -69.5 21.5t-27.5 66.5q0 44 30 71.5t78 27.5t78 -28.5t30 -72.5q0 -34 -16 -66t-49 -54q77 6 125 64.5t58 138.5l81 -17q-11 -111 -82.5 -177t-201.5 -72l-119 -7v59zM-261 818.5q12 11.5 12 29.5t-12.5 30t-29.5 12q-20 0 -32.5 -12
t-12.5 -30q0 -19 12.5 -30t32.5 -11q18 0 30 11.5z" />
    <glyph glyph-name="uni0E4A" unicode="&#xe4a;" 
d="M-462 692q-31 36 -31 92q0 69 31 109.5t87 40.5q53 0 83 -43q32 43 87 43q43 0 70 -26t27 -73q0 -51 -27 -90q46 27 66.5 70t27.5 128l79 -11q-8 -119 -62 -183.5t-165 -85.5q-4 -1 -12 -1q-21 0 -34 21q-4 8 -4 15q0 14 17 31q38 37 38 94q0 20 -9.5 31t-27.5 11
q-16 0 -25.5 -7.5t-9.5 -19.5q0 -6 1 -9l3 -15h-66q-7 26 -19.5 38.5t-33.5 12.5q-51 0 -51 -77h1q21 21 58 21q31 0 50.5 -20.5t19.5 -53.5q0 -36 -23.5 -57.5t-65.5 -21.5q-49 0 -80 36zM-353.5 710.5q9.5 9.5 9.5 24.5q0 14 -9.5 23.5t-24.5 9.5t-25 -9.5t-10 -23.5
q0 -15 10 -24.5t25 -9.5t24.5 9.5z" />
    <glyph glyph-name="uni0E4B" unicode="&#xe4b;" 
d="M-154 749h-106v79h106v92h96v-92h106v-79h-106v-91h-96v91z" />
    <glyph glyph-name="uni0E4C" unicode="&#xe4c;" 
d="M-307 680q-32 30 -32 74q0 53 38.5 86t101.5 33q104 0 159 78l57 -53q-35 -43 -73 -62t-91 -19v-2q14 -11 22 -28t8 -35q0 -43 -31 -72.5t-79 -29.5t-80 30zM-196 724q13 12 13 30t-13 30.5t-31 12.5q-20 0 -33 -12t-13 -31t13 -30.5t33 -11.5q18 0 31 12z" />
    <glyph glyph-name="uni0E4D" unicode="&#xe4d;" 
d="M-206.5 674.5q-32.5 30.5 -32.5 78.5q0 49 32.5 79t83.5 30t83.5 -30t32.5 -79q0 -48 -32.5 -78.5t-83.5 -30.5t-83.5 30.5zM-90.5 721.5q12.5 12.5 12.5 31.5q0 20 -12.5 32.5t-32.5 12.5t-33 -12.5t-13 -31.5q0 -20 13 -32.5t33 -12.5t32.5 12.5z" />
    <glyph glyph-name="uni0E4E" unicode="&#xe4e;" 
d="M-276.5 680.5q-32.5 24.5 -32.5 68.5q0 39 29.5 68t78.5 37q-30 23 -30 57q0 43 34.5 69.5t87.5 26.5q37 0 77 -15l-19 -64q-26 9 -44 9q-21 0 -32.5 -9.5t-11.5 -25.5q0 -19 16.5 -31t51.5 -13l-22 -52q-66 1 -93 -10.5t-27 -36.5q0 -33 46 -33q13 0 27 3t21 7l13 -64
q-16 -7 -38.5 -11.5t-41.5 -4.5q-58 0 -90.5 24.5z" />
    <glyph glyph-name="uni0E4F" unicode="&#xe4f;" horiz-adv-x="598" 
d="M172.5 28q-59.5 33 -95 90t-35.5 127t35.5 127t95 90t126.5 33t126.5 -33t95 -90t35.5 -127t-35.5 -127t-95 -90t-126.5 -33t-126.5 33zM386 93.5q40 22.5 63.5 62.5t23.5 89t-23.5 89t-63.5 62.5t-87 22.5t-87 -22.5t-63.5 -62.5t-23.5 -89t23.5 -89t63.5 -62.5
t87 -22.5t87 22.5zM205 151q-39 37 -39 94q0 59 38.5 95t94.5 36q55 0 94 -37t39 -94t-39 -94t-94 -37t-94 37zM348 194.5q19 18.5 19 50.5t-19 50.5t-49 18.5t-49 -18.5t-19 -50.5t19 -50.5t49 -18.5t49 18.5z" />
    <glyph glyph-name="uni0E50" unicode="&#xe50;" horiz-adv-x="639" 
d="M172.5 22q-62.5 32 -96.5 89.5t-34 130.5q0 74 34 131.5t96.5 89.5t146.5 32t147 -32t97 -89.5t34 -131.5q0 -73 -34 -130.5t-97 -89.5t-147 -32t-146.5 32zM448.5 117.5q47.5 45.5 47.5 124.5q0 80 -47 126t-130 46q-82 0 -129 -46t-47 -126q0 -79 47 -124.5t129 -45.5
t129.5 45.5z" />
    <glyph glyph-name="uni0E51" unicode="&#xe51;" horiz-adv-x="673" 
d="M365 -38q167 83 167 268q0 84 -50.5 134t-141.5 50q-93 0 -146 -50.5t-53 -140.5q0 -72 32 -116.5t92 -48.5v2q-29 13 -43.5 34.5t-14.5 54.5q0 41 30 68.5t80 27.5t79.5 -28t29.5 -74q0 -43 -21.5 -78t-60 -55t-88.5 -20q-61 0 -109.5 28.5t-76.5 81.5t-28 123
q0 78 35.5 140t103 97t159.5 35q93 0 158.5 -34t99.5 -94.5t34 -136.5q0 -109 -56.5 -196t-164.5 -143zM348 114q12 12 12 31t-12 30.5t-31 11.5q-20 0 -32 -11.5t-12 -30.5t12 -31t32 -12q19 0 31 12z" />
    <glyph glyph-name="uni0E52" unicode="&#xe52;" horiz-adv-x="801" 
d="M134 8q-7 8 -7 29q0 20 7 27.5t21 7.5q0 119 -10.5 201t-35 155.5t-71.5 168.5l82 46q51 -107 77 -185t37.5 -165t12.5 -215l369 1q14 0 20.5 7.5t6.5 20.5v253q0 20 7 30q-17 26 -51 26q-20 0 -33 -10.5t-18 -27.5q8 -24 8 -55h-68q-5 48 -22 70.5t-52 22.5
q-32 0 -48.5 -26.5t-15.5 -69.5q8 8 20 13t24 5q42 0 65 -25t23 -67q0 -41 -28 -65.5t-73 -24.5q-54 0 -84.5 38t-30.5 107q0 93 37.5 143.5t103.5 50.5q65 0 100 -52q15 23 41 37.5t56 14.5q68 0 105 -54q5 4 13 4q14 0 24 -14q13 -17 13 -30q0 -11 -11 -22q-8 -7 -8 -32
v-241q0 -48 -30 -77t-81 -29h-472q-16 0 -23 8zM412.5 217q12.5 12 12.5 30t-12.5 30t-30.5 12q-19 0 -31.5 -11.5t-12.5 -30.5t12.5 -30.5t31.5 -11.5q18 0 30.5 12z" />
    <glyph glyph-name="uni0E53" unicode="&#xe53;" horiz-adv-x="685" 
d="M83.5 66.5q-41.5 75.5 -41.5 200.5q0 107 51 167.5t136 60.5q42 0 70.5 -17.5t51.5 -57.5q41 75 128 75q71 0 115 -54q6 3 12 3q12 0 23 -16q14 -23 14 -32q0 -8 -7 -16q-9 -10 -9 -32v-348h-100v360q0 16 5 31q-21 23 -57 23q-35 0 -56 -23t-21 -71v-83q0 -17 -13 -28
t-34 -11q-22 0 -35.5 11t-13.5 28v83q0 94 -73 94q-45 0 -67.5 -37.5t-22.5 -109.5q0 -75 12 -119q9 19 27 30t41 11q40 0 67.5 -26.5t27.5 -70.5t-30 -72.5t-82 -28.5q-77 0 -118.5 75.5zM235.5 61q12.5 12 12.5 31t-12 31t-32 12q-18 0 -31 -12t-13 -31q0 -18 13 -30.5
t31 -12.5q19 0 31.5 12z" />
    <glyph glyph-name="uni0E54" unicode="&#xe54;" horiz-adv-x="807" 
d="M109.5 62.5q-67.5 62.5 -67.5 177.5q0 123 86 189t253 66q84 0 138 12t97 43.5t88 92.5l65 -56q-49 -67 -102 -104.5t-121 -53t-165 -15.5q-238 0 -238 -174q0 -77 41 -119t113 -42h75q-45 30 -72 71.5t-27 85.5q0 45 30 73.5t80 28.5q51 0 80.5 -26.5t29.5 -74.5
q0 -40 -25 -64.5t-71 -27.5q23 -30 63.5 -48t88.5 -18h101q43 0 43 -38q0 -21 -10.5 -31t-31.5 -10h-354q-120 0 -187.5 62.5zM414.5 206.5q12.5 11.5 12.5 30.5t-12.5 31t-31.5 12q-18 0 -30.5 -12t-12.5 -31q0 -18 12.5 -30t30.5 -12q19 0 31.5 11.5z" />
    <glyph glyph-name="uni0E55" unicode="&#xe55;" horiz-adv-x="807" 
d="M109.5 62.5q-67.5 62.5 -67.5 177.5q0 95 53 157t151 82q-17 22 -17 48q0 45 31.5 72.5t84.5 27.5q51 0 83 -26t32 -70q0 -22 -10 -35q84 3 141 36.5t113 110.5l65 -56q-49 -67 -102 -104.5t-121 -53t-165 -15.5q-238 0 -238 -174q0 -77 41 -119t113 -42h75
q-45 30 -72 71.5t-27 85.5q0 45 30 73.5t80 28.5q51 0 80.5 -26.5t29.5 -74.5q0 -40 -25 -64.5t-71 -27.5q23 -30 63.5 -48t88.5 -18h101q43 0 43 -38q0 -21 -10.5 -31t-31.5 -10h-354q-120 0 -187.5 62.5zM375 495.5q12 11.5 12 29.5t-11.5 29.5t-30.5 11.5t-31 -11.5
t-12 -29.5t12.5 -29.5t30.5 -11.5t30 11.5zM414.5 206.5q12.5 11.5 12.5 30.5t-12.5 31t-31.5 12q-18 0 -30.5 -12t-12.5 -31q0 -18 12.5 -30t30.5 -12q19 0 31.5 11.5z" />
    <glyph glyph-name="uni0E56" unicode="&#xe56;" horiz-adv-x="799" 
d="M293.5 25q-55.5 34 -55.5 91q0 47 31 74t79 27q51 0 80.5 -26.5t29.5 -73.5q0 -14 -5 -27.5t-13 -22.5q217 0 217 185q0 77 -43 119.5t-125 42.5q-113 0 -196 -85q-20 -17 -38 -17t-34 16q-15 14 -15 27q0 9 6 19q-59 52 -98.5 106.5t-75.5 130.5l85 42q26 -62 66 -120.5
t92 -107.5q45 35 95 52.5t113 17.5q127 0 198 -64t71 -179q0 -124 -79 -192.5t-223 -68.5q-107 0 -162.5 34zM379 85q12 12 12 31q0 20 -11.5 31.5t-31.5 11.5q-19 0 -31 -12t-12 -31t12 -31t31 -12t31 12z" />
    <glyph glyph-name="uni0E57" unicode="&#xe57;" horiz-adv-x="907" 
d="M83.5 66.5q-41.5 75.5 -41.5 200.5q0 108 49.5 168t134.5 60q43 0 72.5 -17.5t52.5 -57.5q20 37 55 56t78 19q75 0 114 -47t39 -133q0 -58 -14 -118h4q59 113 91 209.5t56 237.5l94 -25q-20 -113 -51 -205t-83 -188.5t-136 -212.5q-18 -23 -44 -23q-11 0 -22 6
q-21 12 -21 35q0 11 5 26q45 130 45 225q0 62 -21 97t-65 35q-35 0 -56 -23t-21 -71v-83q0 -17 -13 -28t-34 -11q-22 0 -35.5 11t-13.5 28v83q0 94 -73 94q-45 0 -67.5 -37.5t-22.5 -109.5q0 -75 12 -119q9 19 27 30t41 11q40 0 67.5 -26.5t27.5 -70.5t-30 -72.5t-82 -28.5
q-77 0 -118.5 75.5zM235.5 61q12.5 12 12.5 31t-12 31t-32 12q-18 0 -31 -12t-13 -31q0 -18 13 -30.5t31 -12.5q19 0 31.5 12z" />
    <glyph glyph-name="uni0E58" unicode="&#xe58;" horiz-adv-x="825" 
d="M416 19q-53 28 -83 73l-34 -60q-20 -32 -49 -32h-122q-19 0 -27 9t-8 28q0 13 5.5 21.5t13.5 8.5q-35 43 -52.5 86t-17.5 92q0 121 88.5 185.5t269.5 64.5q90 0 145.5 13.5t92 46.5t63.5 93l85 -37q-33 -74 -82.5 -117t-122.5 -61.5t-181 -18.5q-134 0 -195.5 -43
t-61.5 -126q0 -92 60 -166h23l105 197q11 22 33 22q11 0 23 -6q26 -12 26 -34q0 -8 -5 -20l-31 -65q10 -42 43.5 -69.5t70.5 -35.5q-19 22 -19 52q0 41 30.5 68t79.5 27q50 0 80 -28.5t30 -74.5q0 -52 -39.5 -86.5t-112.5 -34.5q-71 0 -124 28zM613 83q12 12 12 31
q0 20 -11.5 31.5t-31.5 11.5q-19 0 -31 -12t-12 -31t12 -31t31 -12t31 12z" />
    <glyph glyph-name="uni0E59" unicode="&#xe59;" horiz-adv-x="865" 
d="M142.5 24.5q-47.5 33.5 -74 89.5t-26.5 121q0 133 119 193l111 56q22 11 41 11q22 0 31.5 -9.5t23.5 -36.5l26 -56q15 47 51 74.5t84 27.5q99 0 127 -89q57 98 79 266l92 -20q-14 -103 -47.5 -185t-95.5 -162q-14 -19 -38 -19q-21 0 -36 14t-11 31q-2 39 -20 61t-53 22
q-38 0 -61 -32t-21 -77l134 -264l-78 -41l-204 401l-85 -42q-39 -19 -55.5 -49.5t-16.5 -74.5q0 -62 36 -110q7 33 32 53t60 20q48 0 77 -28t29 -74q0 -45 -32.5 -75t-89.5 -30q-61 0 -108.5 33.5zM294.5 65.5q12.5 12.5 12.5 30.5q0 19 -12.5 31t-31.5 12t-31.5 -12
t-12.5 -31q0 -18 12.5 -30.5t31.5 -12.5t31.5 12.5z" />
    <glyph glyph-name="uni0E5A" unicode="&#xe5a;" horiz-adv-x="760" 
d="M718 567q0 -3 -2 -13l-7 -23v-432q0 -68 -64 -102q-13 -7 -30 -7q-27 0 -41 20q-9 12 -9 24q0 16 19 29q14 11 19.5 20t5.5 24v275q-21 -28 -52 -44t-68 -18v-221q0 -68 -64 -102q-13 -7 -30 -7q-27 0 -41 20q-9 12 -9 23q0 15 19 30q14 11 19.5 20t5.5 24v275
q-52 -63 -147 -63q-53 0 -99 22.5t-73.5 61.5t-27.5 86q0 49 32.5 81.5t84.5 32.5q55 0 87 -29t32 -79q0 -37 -23.5 -62.5t-65.5 -32.5q22 -15 56 -15q60 0 102.5 45.5t65.5 143.5q6 29 35 29q4 0 16 -2q34 -7 34 -34q0 -5 -2 -13l-7 -23v-143q56 5 91 48.5t53 137.5
q2 14 11.5 21.5t24.5 7.5q4 0 16 -2q33 -7 33 -34zM126.5 457q13.5 -13 32.5 -13q20 0 33.5 13t13.5 32q0 23 -12 35t-35 12q-22 0 -34 -12t-12 -35q0 -19 13.5 -32z" />
    <glyph glyph-name="uni0E5B" unicode="&#xe5b;" horiz-adv-x="1183" 
d="M171 69q-61 32 -95 91t-34 139q0 81 31 142.5t84.5 95t118.5 33.5q95 0 143.5 -52.5t48.5 -144.5q0 -82 -35.5 -128t-95.5 -46q-51 0 -82 29t-31 78q0 47 30 76t75 29q30 0 53 -18q1 4 1 11q0 33 -27 59t-74 26q-38 0 -69.5 -22t-50.5 -65t-19 -102q0 -86 46.5 -134
t122.5 -48q96 0 150 57.5t54 154.5q0 56 -13 112h92q19 -36 31.5 -68.5t26.5 -78.5q11 29 18 59t12 74h67q18 -36 47 -128q8 24 13 57t5 58h66q34 -54 53 -119q6 16 9 39.5t2 42.5h62q16 -42 35.5 -58.5t50.5 -16.5h49v-72h-61q-25 0 -49 11.5t-40 31.5q-5 -30 -12.5 -52
t-19.5 -45h-61q-4 36 -13 67.5t-19 48.5q-12 -79 -38 -132h-60q-11 81 -30 129q-19 -87 -47 -146h-62q-9 49 -17 80.5t-19 59.5q-12 -114 -88 -180.5t-194 -66.5q-80 0 -141 32zM370 274.5q12 12.5 13 31.5q0 21 -13 33.5t-33 12.5q-19 0 -32 -13t-13 -33t13.5 -32t33.5 -12
q19 0 31 12.5z" />
    <glyph glyph-name="uni1E0C" unicode="&#x1e0c;" horiz-adv-x="642" 
d="M70 598q0 18 -5 28t-14 19t-9 16q0 9 8 23t20.5 24t25.5 10q17 0 33 -18h138q103 0 178 -42t115.5 -120t40.5 -186q0 -169 -85 -260.5t-244 -91.5h-202v598zM272 88q225 0 225 264q0 128 -60 194t-173 66h-92v-524h100zM266.5 -154.5q-17.5 17.5 -17.5 44.5q0 26 18 44
t45 18t44 -18t17 -44q0 -27 -17 -44.5t-44 -17.5q-28 0 -45.5 17.5z" />
    <glyph glyph-name="uni1E0D" unicode="&#x1e0d;" horiz-adv-x="577" 
d="M430.5 24.5q-8.5 21.5 -9.5 47.5q-58 -82 -161 -82q-66 0 -115.5 30t-76 85.5t-26.5 129.5q0 118 59 189t165 71q89 0 145 -72v311h100v-605q0 -39 6 -62.5t18 -44.5l-83 -32q-13 13 -21.5 34.5zM375.5 115.5q36.5 43.5 36.5 109.5v34q0 40 -15.5 75t-46 57t-73.5 22
q-69 0 -102 -48.5t-33 -129.5q0 -74 33 -118.5t98 -44.5q66 0 102.5 43.5zM238.5 -154.5q-17.5 17.5 -17.5 44.5q0 26 18 44t45 18t44 -18t17 -44q0 -27 -17 -44.5t-44 -17.5q-28 0 -45.5 17.5z" />
    <glyph glyph-name="uni1E0E" unicode="&#x1e0e;" horiz-adv-x="642" 
d="M70 598q0 18 -5 28t-14 19t-9 16q0 9 8 23t20.5 24t25.5 10q17 0 33 -18h138q103 0 178 -42t115.5 -120t40.5 -186q0 -169 -85 -260.5t-244 -91.5h-202v598zM272 88q225 0 225 264q0 128 -60 194t-173 66h-92v-524h100zM151 -58h320v-78h-320v78z" />
    <glyph glyph-name="uni1E0F" unicode="&#x1e0f;" horiz-adv-x="577" 
d="M430.5 24.5q-8.5 21.5 -9.5 47.5q-58 -82 -161 -82q-66 0 -115.5 30t-76 85.5t-26.5 129.5q0 118 59 189t165 71q89 0 145 -72v311h100v-605q0 -39 6 -62.5t18 -44.5l-83 -32q-13 13 -21.5 34.5zM375.5 115.5q36.5 43.5 36.5 109.5v34q0 40 -15.5 75t-46 57t-73.5 22
q-69 0 -102 -48.5t-33 -129.5q0 -74 33 -118.5t98 -44.5q66 0 102.5 43.5zM123 -58h320v-78h-320v78z" />
    <glyph glyph-name="uni1E20" unicode="&#x1e20;" horiz-adv-x="657" 
d="M188.5 34q-71.5 44 -109 125.5t-37.5 191.5q0 109 38 190t109.5 125t169.5 44q68 0 122 -21.5t91 -61.5l-42 -72q-33 36 -72.5 53t-98.5 17q-101 0 -157 -73t-56 -201q0 -129 56.5 -202.5t158.5 -73.5q43 0 71 7t54 24v189h-161v85h204q15 16 32 16q18 0 33.5 -17
t19.5 -35q2 -7 0 -11t-8 -10q-8 -7 -13 -16.5t-5 -28.5v-219q-61 -38 -112 -53.5t-117 -15.5q-99 0 -170.5 44zM196 864h320v-78h-320v78z" />
    <glyph glyph-name="uni1E21" unicode="&#x1e21;" horiz-adv-x="575" 
d="M172 -208q-41 10 -75 27l30 75q58 -29 130 -29q83 0 117.5 41t34.5 124v42q-25 -34 -63 -53t-85 -19q-104 0 -161.5 67.5t-57.5 183.5q0 112 57.5 178.5t156.5 66.5q101 0 163 -82q3 51 32 82l83 -33q-13 -22 -19 -45t-6 -62v-324q0 -123 -66 -186.5t-186 -63.5
q-44 0 -85 10zM348.5 104q30.5 22 46.5 57t16 75v25q0 65 -37 109t-102 44t-97.5 -44t-32.5 -119q0 -80 32.5 -124.5t100.5 -44.5q43 0 73.5 22zM133 649h320v-78h-320v78z" />
    <glyph glyph-name="uni1E24" unicode="&#x1e24;" horiz-adv-x="619" 
d="M55 700h102v-288h305v288h102v-700h-102v324h-305v-324h-102v700zM265.5 -154.5q-17.5 17.5 -17.5 44.5q0 26 18 44t45 18t44 -18t17 -44q0 -27 -17 -44.5t-44 -17.5q-28 0 -45.5 17.5z" />
    <glyph glyph-name="uni1E25" unicode="&#x1e25;" horiz-adv-x="544" 
d="M380 115v180q0 60 -24.5 88.5t-75.5 28.5q-56 0 -91.5 -44.5t-35.5 -108.5v-259h-100v734h100v-313q27 35 66 54.5t86 19.5q89 0 132 -51.5t43 -149.5v-178q0 -52 22 -91l-90 -35q-32 57 -32 125zM219.5 -154.5q-17.5 17.5 -17.5 44.5q0 26 18 44t45 18t44 -18t17 -44
q0 -27 -17 -44.5t-44 -17.5q-28 0 -45.5 17.5z" />
    <glyph glyph-name="uni1E2A" unicode="&#x1e2a;" horiz-adv-x="619" 
d="M55 700h102v-288h305v288h102v-700h-102v324h-305v-324h-102v700zM205 -159q-41 37 -41 106v10h87v-11q0 -72 60 -72t60 72v11h87v-10q0 -69 -41 -106t-106 -37t-106 37z" />
    <glyph glyph-name="uni1E2B" unicode="&#x1e2b;" horiz-adv-x="544" 
d="M380 115v180q0 60 -24.5 88.5t-75.5 28.5q-56 0 -91.5 -44.5t-35.5 -108.5v-259h-100v734h100v-313q27 35 66 54.5t86 19.5q89 0 132 -51.5t43 -149.5v-178q0 -52 22 -91l-90 -35q-32 57 -32 125zM159 -159q-41 37 -41 106v10h87v-11q0 -72 60 -72t60 72v11h87v-10
q0 -69 -41 -106t-106 -37t-106 37z" />
    <glyph glyph-name="uni1E36" unicode="&#x1e36;" horiz-adv-x="507" 
d="M60.5 4q-14.5 14 -18.5 32q-2 7 0 11.5t8 10.5q9 10 13.5 19t4.5 26v597h102v-612h302v-88h-346q-11 -10 -33 -10q-18 0 -32.5 14zM211.5 -154.5q-17.5 17.5 -17.5 44.5q0 26 18 44t45 18t44 -18t17 -44q0 -27 -17 -44.5t-44 -17.5q-28 0 -45.5 17.5z" />
    <glyph glyph-name="uni1E37" unicode="&#x1e37;" horiz-adv-x="210" 
d="M55 734h100v-734h-100v734zM60.5 -154.5q-17.5 17.5 -17.5 44.5q0 26 18 44t45 18t44 -18t17 -44q0 -27 -17 -44.5t-44 -17.5q-28 0 -45.5 17.5z" />
    <glyph glyph-name="uni1E38" unicode="&#x1e38;" horiz-adv-x="507" 
d="M60.5 4q-14.5 14 -18.5 32q-2 7 0 11.5t8 10.5q9 10 13.5 19t4.5 26v597h102v-612h302v-88h-346q-11 -10 -33 -10q-18 0 -32.5 14zM211.5 -154.5q-17.5 17.5 -17.5 44.5q0 26 18 44t45 18t44 -18t17 -44q0 -27 -17 -44.5t-44 -17.5q-28 0 -45.5 17.5zM-37 864h320v-78
h-320v78z" />
    <glyph glyph-name="uni1E39" unicode="&#x1e39;" horiz-adv-x="210" 
d="M55 734h100v-734h-100v734zM60.5 -154.5q-17.5 17.5 -17.5 44.5q0 26 18 44t45 18t44 -18t17 -44q0 -27 -17 -44.5t-44 -17.5q-28 0 -45.5 17.5zM-55 898h320v-78h-320v78z" />
    <glyph glyph-name="uni1E3A" unicode="&#x1e3a;" horiz-adv-x="507" 
d="M60.5 4q-14.5 14 -18.5 32q-2 7 0 11.5t8 10.5q9 10 13.5 19t4.5 26v597h102v-612h302v-88h-346q-11 -10 -33 -10q-18 0 -32.5 14zM96 -58h320v-78h-320v78z" />
    <glyph glyph-name="uni1E3B" unicode="&#x1e3b;" horiz-adv-x="210" 
d="M55 734h100v-734h-100v734zM-55 -58h320v-78h-320v78z" />
    <glyph glyph-name="uni1E42" unicode="&#x1e42;" horiz-adv-x="782" 
d="M364 -2.5q-12 7.5 -17 21.5l-156 480l-46 -500h-103l68 646l-6 9q-4 8 -4 19q0 18 13.5 31.5t39.5 13.5q32 0 47.5 -13t24.5 -41l165 -511l167 511q10 28 25 41t46 13q27 0 40.5 -13.5t13.5 -32.5q0 -11 -4 -18l-6 -9l68 -646h-103l-46 500l-145 -445l3 -10q2 -5 2 -14
q0 -18 -16.5 -29t-41.5 -11q-17 0 -29 7.5zM345.5 -154.5q-17.5 17.5 -17.5 44.5q0 26 18 44t45 18t44 -18t17 -44q0 -27 -17 -44.5t-44 -17.5q-28 0 -45.5 17.5z" />
    <glyph glyph-name="uni1E43" unicode="&#x1e43;" horiz-adv-x="796" 
d="M632 115v182q0 60 -19 87.5t-64 27.5q-49 0 -74.5 -33t-25.5 -87v-292h-98v297q0 57 -20 86t-63 29q-51 0 -77.5 -38.5t-26.5 -104.5v-269h-100v358q0 33 -5 56.5t-17 46.5l86 34q23 -38 25 -81q21 39 56.5 60t77.5 21q87 0 124 -85q53 85 155 85q82 0 124 -48t42 -129
v-202q0 -52 22 -91l-90 -35q-32 54 -32 125zM354.5 -154.5q-17.5 17.5 -17.5 44.5q0 26 18 44t45 18t44 -18t17 -44q0 -27 -17 -44.5t-44 -17.5q-28 0 -45.5 17.5z" />
    <glyph glyph-name="uni1E44" unicode="&#x1e44;" horiz-adv-x="618" 
d="M64 612q0 11 -3.5 18t-9.5 14q-9 11 -9 20q0 5 1 9q6 20 22 32.5t36 12.5q28 0 45 -25l315 -508v515h102v-700h-87l-310 498v-498h-102v612zM274.5 809q-17.5 18 -17.5 44q0 27 17.5 44.5t45.5 17.5q27 0 44 -18t17 -44t-17 -44t-44 -18q-28 0 -45.5 18z" />
    <glyph glyph-name="uni1E45" unicode="&#x1e45;" horiz-adv-x="554" 
d="M391 115v180q0 60 -24.5 88.5t-75.5 28.5q-57 0 -92 -44.5t-35 -108.5v-259h-100v358q0 32 -5 56t-17 47l89 34q8 -16 15.5 -38.5t9.5 -44.5q27 38 70 60.5t92 22.5q173 0 173 -201v-178q0 -52 22 -91l-90 -35q-32 54 -32 125zM235.5 594q-17.5 18 -17.5 44
q0 27 17.5 44.5t45.5 17.5q27 0 44 -18t17 -44t-17 -44t-44 -18q-28 0 -45.5 18z" />
    <glyph glyph-name="uni1E46" unicode="&#x1e46;" horiz-adv-x="618" 
d="M64 612q0 11 -3.5 18t-9.5 14q-9 11 -9 20q0 5 1 9q6 20 22 32.5t36 12.5q28 0 45 -25l315 -508v515h102v-700h-87l-310 498v-498h-102v612zM274.5 -154.5q-17.5 17.5 -17.5 44.5q0 26 18 44t45 18t44 -18t17 -44q0 -27 -17 -44.5t-44 -17.5q-28 0 -45.5 17.5z" />
    <glyph glyph-name="uni1E47" unicode="&#x1e47;" horiz-adv-x="554" 
d="M391 115v180q0 60 -24.5 88.5t-75.5 28.5q-57 0 -92 -44.5t-35 -108.5v-259h-100v358q0 32 -5 56t-17 47l89 34q8 -16 15.5 -38.5t9.5 -44.5q27 38 70 60.5t92 22.5q173 0 173 -201v-178q0 -52 22 -91l-90 -35q-32 54 -32 125zM235.5 -154.5q-17.5 17.5 -17.5 44.5
q0 26 18 44t45 18t44 -18t17 -44q0 -27 -17 -44.5t-44 -17.5q-28 0 -45.5 17.5z" />
    <glyph glyph-name="uni1E48" unicode="&#x1e48;" horiz-adv-x="618" 
d="M64 612q0 11 -3.5 18t-9.5 14q-9 11 -9 20q0 5 1 9q6 20 22 32.5t36 12.5q28 0 45 -25l315 -508v515h102v-700h-87l-310 498v-498h-102v612zM159 -58h320v-78h-320v78z" />
    <glyph glyph-name="uni1E49" unicode="&#x1e49;" horiz-adv-x="554" 
d="M391 115v180q0 60 -24.5 88.5t-75.5 28.5q-57 0 -92 -44.5t-35 -108.5v-259h-100v358q0 32 -5 56t-17 47l89 34q8 -16 15.5 -38.5t9.5 -44.5q27 38 70 60.5t92 22.5q173 0 173 -201v-178q0 -52 22 -91l-90 -35q-32 54 -32 125zM120 -58h320v-78h-320v78z" />
    <glyph glyph-name="uni1E5A" unicode="&#x1e5a;" horiz-adv-x="592" 
d="M68 608q0 13 -4 20.5t-11 14.5q-6 6 -8.5 10t-2.5 11q0 19 16.5 36.5t38.5 17.5q20 0 40 -18h139q133 0 204 -53t71 -162q0 -92 -53 -144t-145 -61l183 -280h-117l-177 272h-72v-272h-102v608zM279 359q86 0 127 29.5t41 96.5q0 66 -41.5 96.5t-127.5 30.5h-108v-253h109
zM246.5 -154.5q-17.5 17.5 -17.5 44.5q0 26 18 44t45 18t44 -18t17 -44q0 -27 -17 -44.5t-44 -17.5q-28 0 -45.5 17.5z" />
    <glyph glyph-name="uni1E5B" unicode="&#x1e5b;" horiz-adv-x="403" 
d="M64 358q0 32 -5 56t-17 47l89 34q8 -16 15.5 -38.5t9.5 -44.5q25 41 56 62t74 21q25 0 45 -6.5t43 -21.5l-38 -71q-28 16 -59 16q-55 0 -84 -40t-29 -108v-264h-100v358zM70.5 -154.5q-17.5 17.5 -17.5 44.5q0 26 18 44t45 18t44 -18t17 -44q0 -27 -17 -44.5t-44 -17.5
q-28 0 -45.5 17.5z" />
    <glyph glyph-name="uni1E5C" unicode="&#x1e5c;" horiz-adv-x="592" 
d="M68 608q0 13 -4 20.5t-11 14.5q-6 6 -8.5 10t-2.5 11q0 19 16.5 36.5t38.5 17.5q20 0 40 -18h139q133 0 204 -53t71 -162q0 -92 -53 -144t-145 -61l183 -280h-117l-177 272h-72v-272h-102v608zM279 359q86 0 127 29.5t41 96.5q0 66 -41.5 96.5t-127.5 30.5h-108v-253h109
zM246.5 -154.5q-17.5 17.5 -17.5 44.5q0 26 18 44t45 18t44 -18t17 -44q0 -27 -17 -44.5t-44 -17.5q-28 0 -45.5 17.5zM111 864h320v-78h-320v78z" />
    <glyph glyph-name="uni1E5D" unicode="&#x1e5d;" horiz-adv-x="403" 
d="M64 358q0 32 -5 56t-17 47l89 34q8 -16 15.5 -38.5t9.5 -44.5q25 41 56 62t74 21q25 0 45 -6.5t43 -21.5l-38 -71q-28 16 -59 16q-55 0 -84 -40t-29 -108v-264h-100v358zM70.5 -154.5q-17.5 17.5 -17.5 44.5q0 26 18 44t45 18t44 -18t17 -44q0 -27 -17 -44.5t-44 -17.5
q-28 0 -45.5 17.5zM26 649h320v-78h-320v78z" />
    <glyph glyph-name="uni1E5E" unicode="&#x1e5e;" horiz-adv-x="592" 
d="M68 608q0 13 -4 20.5t-11 14.5q-6 6 -8.5 10t-2.5 11q0 19 16.5 36.5t38.5 17.5q20 0 40 -18h139q133 0 204 -53t71 -162q0 -92 -53 -144t-145 -61l183 -280h-117l-177 272h-72v-272h-102v608zM279 359q86 0 127 29.5t41 96.5q0 66 -41.5 96.5t-127.5 30.5h-108v-253h109
zM131 -58h320v-78h-320v78z" />
    <glyph glyph-name="uni1E5F" unicode="&#x1e5f;" horiz-adv-x="403" 
d="M64 358q0 32 -5 56t-17 47l89 34q8 -16 15.5 -38.5t9.5 -44.5q25 41 56 62t74 21q25 0 45 -6.5t43 -21.5l-38 -71q-28 16 -59 16q-55 0 -84 -40t-29 -108v-264h-100v358zM-45 -58h320v-78h-320v78z" />
    <glyph glyph-name="uni1E60" unicode="&#x1e60;" horiz-adv-x="588" 
d="M157 19.5q-69 29.5 -115 79.5l61 64q44 -46 95 -67.5t113 -21.5q64 0 97.5 25t33.5 69q0 33 -13 54t-48 40t-107 45q-113 41 -163.5 91t-50.5 127q0 87 63 136t171 49q67 0 126 -21t103 -57l-53 -70q-41 33 -81 48t-95 15q-130 0 -130 -99q0 -33 16.5 -55.5t51 -41
t100.5 -42.5q80 -30 126 -59t67 -67t21 -93q0 -83 -63 -130.5t-174 -47.5q-83 0 -152 29.5zM250.5 809q-17.5 18 -17.5 44q0 27 17.5 44.5t45.5 17.5q27 0 44 -18t17 -44t-17 -44t-44 -18q-28 0 -45.5 18z" />
    <glyph glyph-name="uni1E61" unicode="&#x1e61;" horiz-adv-x="493" 
d="M139.5 12.5q-56.5 22.5 -97.5 63.5l58 63q30 -33 73.5 -50.5t91.5 -17.5q42 0 64 13.5t22 38.5q0 18 -8 29.5t-32 23.5t-75 29q-95 31 -135 65.5t-40 92.5q0 61 49 96.5t137 35.5q99 0 175 -55l-36 -68q-37 22 -69.5 32t-70.5 10q-42 0 -63.5 -14t-21.5 -37
q0 -19 11.5 -31.5t34 -22.5t70.5 -26q66 -23 103 -43.5t54 -48.5t17 -70q0 -61 -49 -96t-137 -35q-69 0 -125.5 22.5zM204.5 594q-17.5 18 -17.5 44q0 27 17.5 44.5t45.5 17.5q27 0 44 -18t17 -44t-17 -44t-44 -18q-28 0 -45.5 18z" />
    <glyph glyph-name="uni1E62" unicode="&#x1e62;" horiz-adv-x="588" 
d="M157 19.5q-69 29.5 -115 79.5l61 64q44 -46 95 -67.5t113 -21.5q64 0 97.5 25t33.5 69q0 33 -13 54t-48 40t-107 45q-113 41 -163.5 91t-50.5 127q0 87 63 136t171 49q67 0 126 -21t103 -57l-53 -70q-41 33 -81 48t-95 15q-130 0 -130 -99q0 -33 16.5 -55.5t51 -41
t100.5 -42.5q80 -30 126 -59t67 -67t21 -93q0 -83 -63 -130.5t-174 -47.5q-83 0 -152 29.5zM263.5 -154.5q-17.5 17.5 -17.5 44.5q0 26 18 44t45 18t44 -18t17 -44q0 -27 -17 -44.5t-44 -17.5q-28 0 -45.5 17.5z" />
    <glyph glyph-name="uni1E63" unicode="&#x1e63;" horiz-adv-x="493" 
d="M139.5 12.5q-56.5 22.5 -97.5 63.5l58 63q30 -33 73.5 -50.5t91.5 -17.5q42 0 64 13.5t22 38.5q0 18 -8 29.5t-32 23.5t-75 29q-95 31 -135 65.5t-40 92.5q0 61 49 96.5t137 35.5q99 0 175 -55l-36 -68q-37 22 -69.5 32t-70.5 10q-42 0 -63.5 -14t-21.5 -37
q0 -19 11.5 -31.5t34 -22.5t70.5 -26q66 -23 103 -43.5t54 -48.5t17 -70q0 -61 -49 -96t-137 -35q-69 0 -125.5 22.5zM204.5 -154.5q-17.5 17.5 -17.5 44.5q0 26 18 44t45 18t44 -18t17 -44q0 -27 -17 -44.5t-44 -17.5q-28 0 -45.5 17.5z" />
    <glyph glyph-name="uni1E6C" unicode="&#x1e6c;" horiz-adv-x="572" 
d="M235 612h-200v88h502v-88h-200v-612h-102v612zM236.5 -154.5q-17.5 17.5 -17.5 44.5q0 26 18 44t45 18t44 -18t17 -44q0 -27 -17 -44.5t-44 -17.5q-28 0 -45.5 17.5z" />
    <glyph glyph-name="uni1E6D" unicode="&#x1e6d;" horiz-adv-x="379" 
d="M151 26q-33 36 -33 103v274h-86l21 82h66v116l97 44v-160h127l-20 -82h-105v-275q0 -31 11 -44t38 -13q28 0 52 12l25 -74q-16 -7 -43.5 -13t-51.5 -6q-65 0 -98 36zM191.5 -154.5q-17.5 17.5 -17.5 44.5q0 26 18 44t45 18t44 -18t17 -44q0 -27 -17 -44.5t-44 -17.5
q-28 0 -45.5 17.5z" />
    <glyph glyph-name="uni1E6E" unicode="&#x1e6e;" horiz-adv-x="572" 
d="M235 612h-200v88h502v-88h-200v-612h-102v612zM121 -58h320v-78h-320v78z" />
    <glyph glyph-name="uni1E6F" unicode="&#x1e6f;" horiz-adv-x="379" 
d="M151 26q-33 36 -33 103v274h-86l21 82h66v116l97 44v-160h127l-20 -82h-105v-275q0 -31 11 -44t38 -13q28 0 52 12l25 -74q-16 -7 -43.5 -13t-51.5 -6q-65 0 -98 36zM76 -58h320v-78h-320v78z" />
    <glyph glyph-name="Wgrave" unicode="&#x1e80;" horiz-adv-x="836" 
d="M150 34q0 8 3 17l5 10l-116 639h102l84 -512l144 492q9 30 45 30q30 0 46 -10.5t16 -26.5q0 -3 -2 -11l-3 -10l134 -463l83 511h103l-118 -639l4 -10q3 -9 3 -17q0 -29 -36 -39q-18 -5 -28 -5q-21 0 -34 13t-21 41l-146 502l-149 -502q-8 -28 -21 -41t-33 -13
q-11 0 -29 5q-36 10 -36 39zM266 954h113l84 -182h-82z" />
    <glyph glyph-name="wgrave" unicode="&#x1e81;" horiz-adv-x="715" 
d="M175.5 0q-12.5 10 -12.5 28q0 7 1 11l1 9l-123 437h104l78 -338l96 324q6 24 45 24q51 0 51 -36q0 -8 -1 -12l-4 -22l80 -278l79 338h104l-124 -437l2 -9q1 -3 1 -10q0 -18 -13 -28.5t-36 -10.5q-25 0 -37.5 8.5t-17.5 26.5l-91 315l-91 -315q-5 -18 -18 -26.5t-38 -8.5
q-23 0 -35.5 10zM201 739h113l84 -182h-82z" />
    <glyph glyph-name="Wacute" unicode="&#x1e82;" horiz-adv-x="836" 
d="M150 34q0 8 3 17l5 10l-116 639h102l84 -512l144 492q9 30 45 30q30 0 46 -10.5t16 -26.5q0 -3 -2 -11l-3 -10l134 -463l83 511h103l-118 -639l4 -10q3 -9 3 -17q0 -29 -36 -39q-18 -5 -28 -5q-21 0 -34 13t-21 41l-146 502l-149 -502q-8 -28 -21 -41t-33 -13
q-11 0 -29 5q-36 10 -36 39zM463 954h112l-115 -182h-83z" />
    <glyph glyph-name="wacute" unicode="&#x1e83;" horiz-adv-x="715" 
d="M175.5 0q-12.5 10 -12.5 28q0 7 1 11l1 9l-123 437h104l78 -338l96 324q6 24 45 24q51 0 51 -36q0 -8 -1 -12l-4 -22l80 -278l79 338h104l-124 -437l2 -9q1 -3 1 -10q0 -18 -13 -28.5t-36 -10.5q-25 0 -37.5 8.5t-17.5 26.5l-91 315l-91 -315q-5 -18 -18 -26.5t-38 -8.5
q-23 0 -35.5 10zM398 739h112l-115 -182h-83z" />
    <glyph glyph-name="Wdieresis" unicode="&#x1e84;" horiz-adv-x="836" 
d="M150 34q0 8 3 17l5 10l-116 639h102l84 -512l144 492q9 30 45 30q30 0 46 -10.5t16 -26.5q0 -3 -2 -11l-3 -10l134 -463l83 511h103l-118 -639l4 -10q3 -9 3 -17q0 -29 -36 -39q-18 -5 -28 -5q-21 0 -34 13t-21 41l-146 502l-149 -502q-8 -28 -21 -41t-33 -13
q-11 0 -29 5q-36 10 -36 39zM271 797q-18 18 -18 44t18 44t46 18q27 0 45 -18t18 -44t-18 -44t-45 -18q-28 0 -46 18zM482 797q-19 18 -19 44t19 44t47 18q26 0 44 -18t18 -44t-18 -44t-44 -18q-28 0 -47 18z" />
    <glyph glyph-name="wdieresis" unicode="&#x1e85;" horiz-adv-x="715" 
d="M175.5 0q-12.5 10 -12.5 28q0 7 1 11l1 9l-123 437h104l78 -338l96 324q6 24 45 24q51 0 51 -36q0 -8 -1 -12l-4 -22l80 -278l79 338h104l-124 -437l2 -9q1 -3 1 -10q0 -18 -13 -28.5t-36 -10.5q-25 0 -37.5 8.5t-17.5 26.5l-91 315l-91 -315q-5 -18 -18 -26.5t-38 -8.5
q-23 0 -35.5 10zM206 582q-18 18 -18 44t18 44t46 18q27 0 45 -18t18 -44t-18 -44t-45 -18q-28 0 -46 18zM417 582q-19 18 -19 44t19 44t47 18q26 0 44 -18t18 -44t-18 -44t-44 -18q-28 0 -47 18z" />
    <glyph glyph-name="uni1E8E" unicode="&#x1e8e;" horiz-adv-x="642" 
d="M272 270l-230 430h110l169 -337l169 337h110l-230 -430v-270h-98v270zM276.5 809q-17.5 18 -17.5 44q0 27 17.5 44.5t45.5 17.5q27 0 44 -18t17 -44t-17 -44t-44 -18q-28 0 -45.5 18z" />
    <glyph glyph-name="uni1E8F" unicode="&#x1e8f;" horiz-adv-x="575" 
d="M79 -148q66 23 106.5 66.5t55.5 113.5l-199 453h115l136 -347l126 347h114l-198 -494q-35 -88 -87 -139t-140 -82zM244.5 594q-17.5 18 -17.5 44q0 27 17.5 44.5t45.5 17.5q27 0 44 -18t17 -44t-17 -44t-44 -18q-28 0 -45.5 18z" />
    <glyph glyph-name="uni1E92" unicode="&#x1e92;" horiz-adv-x="625" 
d="M94 -11q-18 0 -45 31q-7 8 -7 16q0 9 15 29l379 547h-369v88h427l9 8q7 10 25 10t32 -11q22 -16 22 -35q0 -16 -15 -37l-380 -547h396v-88h-464l-12 -7q-8 -4 -13 -4zM270.5 -154.5q-17.5 17.5 -17.5 44.5q0 26 18 44t45 18t44 -18t17 -44q0 -27 -17 -44.5t-44 -17.5
q-28 0 -45.5 17.5z" />
    <glyph glyph-name="uni1E93" unicode="&#x1e93;" horiz-adv-x="534" 
d="M95 -10q-12 0 -25 9.5t-24 29.5q-4 8 -4 16q0 15 18 28q10 5 17 15l274 315h-284v82h331q21 0 28 6q6 4 14 4q22 0 40 -22q12 -13 12 -28q0 -13 -13 -27l-293 -336h303v-82h-351q-19 0 -30 -7q-6 -3 -13 -3zM227.5 -154.5q-17.5 17.5 -17.5 44.5q0 26 18 44t45 18t44 -18
t17 -44q0 -27 -17 -44.5t-44 -17.5q-28 0 -45.5 17.5z" />
    <glyph glyph-name="uni1E97" unicode="&#x1e97;" horiz-adv-x="379" 
d="M151 26q-33 36 -33 103v274h-86l21 82h66v116l97 44v-160h127l-20 -82h-105v-275q0 -31 11 -44t38 -13q28 0 52 12l25 -74q-16 -7 -43.5 -13t-51.5 -6q-65 0 -98 36zM42 742q-18 18 -18 44t18 44t46 18q27 0 45 -18t18 -44t-18 -44t-45 -18q-28 0 -46 18zM253 742
q-19 18 -19 44t19 44t47 18q26 0 44 -18t18 -44t-18 -44t-44 -18q-28 0 -47 18z" />
    <glyph glyph-name="uni1E9E" unicode="&#x1e9e;" horiz-adv-x="602" 
d="M209 14l26 79q50 -21 102 -21q59 0 89.5 32.5t30.5 90.5q0 62 -42.5 93.5t-122.5 31.5h-47v63l174 146q0 42 -35.5 70t-95.5 28q-67 0 -102 -33t-35 -95v-499h-101v497q0 62 30.5 110.5t84.5 75.5t123 27q68 0 121 -26.5t83 -72t30 -102.5l-160 -128q100 -12 149.5 -63.5
t49.5 -122.5q0 -95 -57 -150t-161 -55q-72 0 -134 24z" />
    <glyph glyph-name="uni1EA0" unicode="&#x1ea0;" horiz-adv-x="679" 
d="M282 668q9 26 24.5 38t38.5 12q29 0 45.5 -12.5t16.5 -31.5q0 -4 -5 -17l239 -657h-107l-66 189h-257l-66 -189h-107zM445 271l-104 306l-104 -306h208zM295.5 -154.5q-17.5 17.5 -17.5 44.5q0 26 18 44t45 18t44 -18t17 -44q0 -27 -17 -44.5t-44 -17.5q-28 0 -45.5 17.5
z" />
    <glyph glyph-name="uni1EA1" unicode="&#x1ea1;" horiz-adv-x="573" 
d="M142.5 21.5q-48.5 31.5 -74.5 87.5t-26 128q0 76 26.5 134.5t76.5 91t118 32.5q94 0 147 -74v64h97v-356q0 -37 6 -62t18 -44l-82 -33q-26 31 -30 81l-2 1q-29 -40 -70 -61t-92 -21q-64 0 -112.5 31.5zM373 115q36 43 36 110v34q0 39 -15 74.5t-45.5 57.5t-74.5 22
q-64 0 -98 -47.5t-34 -128.5q0 -77 33 -121t96 -44q66 0 102 43zM233.5 -154.5q-17.5 17.5 -17.5 44.5q0 26 18 44t45 18t44 -18t17 -44q0 -27 -17 -44.5t-44 -17.5q-28 0 -45.5 17.5z" />
    <glyph glyph-name="uni1EA2" unicode="&#x1ea2;" horiz-adv-x="679" 
d="M282 668q9 26 24.5 38t38.5 12q29 0 45.5 -12.5t16.5 -31.5q0 -4 -5 -17l239 -657h-107l-66 189h-257l-66 -189h-107zM445 271l-104 306l-104 -306h208zM311 812.5q10 16.5 27 33.5q14 15 21 25.5t7 23.5q0 12 -8.5 19.5t-23.5 7.5q-32 0 -56 -33l-53 40q47 66 125 66
q49 0 77.5 -24t28.5 -64q0 -22 -8 -36t-25 -33q-16 -17 -24 -30.5t-8 -33.5h-90q0 22 10 38.5z" />
    <glyph glyph-name="uni1EA3" unicode="&#x1ea3;" horiz-adv-x="573" 
d="M142.5 21.5q-48.5 31.5 -74.5 87.5t-26 128q0 76 26.5 134.5t76.5 91t118 32.5q94 0 147 -74v64h97v-356q0 -37 6 -62t18 -44l-82 -33q-26 31 -30 81l-2 1q-29 -40 -70 -61t-92 -21q-64 0 -112.5 31.5zM373 115q36 43 36 110v34q0 39 -15 74.5t-45.5 57.5t-74.5 22
q-64 0 -98 -47.5t-34 -128.5q0 -77 33 -121t96 -44q66 0 102 43zM244 597.5q10 16.5 27 33.5q14 15 21 25.5t7 23.5q0 12 -8.5 19.5t-23.5 7.5q-32 0 -56 -33l-53 40q47 66 125 66q49 0 77.5 -24t28.5 -64q0 -22 -8 -36t-25 -33q-16 -17 -24 -30.5t-8 -33.5h-90
q0 22 10 38.5z" />
    <glyph glyph-name="uni1EA4" unicode="&#x1ea4;" horiz-adv-x="679" 
d="M282 668q9 26 24.5 38t38.5 12q29 0 45.5 -12.5t16.5 -31.5q0 -4 -5 -17l239 -657h-107l-66 189h-257l-66 -189h-107zM445 271l-104 306l-104 -306h208zM510 1036h100l-100 -152h-74zM306 899q11 14 20.5 19.5t24.5 5.5q24 0 35.5 -12t6.5 -24l-2 -5l116 -122h-97l-66 81
l-62 -81h-95z" />
    <glyph glyph-name="uni1EA5" unicode="&#x1ea5;" horiz-adv-x="573" 
d="M142.5 21.5q-48.5 31.5 -74.5 87.5t-26 128q0 76 26.5 134.5t76.5 91t118 32.5q94 0 147 -74v64h97v-356q0 -37 6 -62t18 -44l-82 -33q-26 31 -30 81l-2 1q-29 -40 -70 -61t-92 -21q-64 0 -112.5 31.5zM373 115q36 43 36 110v34q0 39 -15 74.5t-45.5 57.5t-74.5 22
q-64 0 -98 -47.5t-34 -128.5q0 -77 33 -121t96 -44q66 0 102 43zM443 821h100l-100 -152h-74zM239 684q11 14 20.5 19.5t24.5 5.5q24 0 35.5 -12t6.5 -24l-2 -5l116 -122h-97l-66 81l-62 -81h-95z" />
    <glyph glyph-name="uni1EA6" unicode="&#x1ea6;" horiz-adv-x="679" 
d="M282 668q9 26 24.5 38t38.5 12q29 0 45.5 -12.5t16.5 -31.5q0 -4 -5 -17l239 -657h-107l-66 189h-257l-66 -189h-107zM445 271l-104 306l-104 -306h208zM360 1036h100l74 -152h-74zM306 899q11 14 20.5 19.5t24.5 5.5q24 0 35.5 -12t6.5 -24l-2 -5l116 -122h-97l-66 81
l-62 -81h-95z" />
    <glyph glyph-name="uni1EA7" unicode="&#x1ea7;" horiz-adv-x="573" 
d="M142.5 21.5q-48.5 31.5 -74.5 87.5t-26 128q0 76 26.5 134.5t76.5 91t118 32.5q94 0 147 -74v64h97v-356q0 -37 6 -62t18 -44l-82 -33q-26 31 -30 81l-2 1q-29 -40 -70 -61t-92 -21q-64 0 -112.5 31.5zM373 115q36 43 36 110v34q0 39 -15 74.5t-45.5 57.5t-74.5 22
q-64 0 -98 -47.5t-34 -128.5q0 -77 33 -121t96 -44q66 0 102 43zM293 821h100l74 -152h-74zM239 684q11 14 20.5 19.5t24.5 5.5q24 0 35.5 -12t6.5 -24l-2 -5l116 -122h-97l-66 81l-62 -81h-95z" />
    </font>
</defs>
</svg>
