<?xml version="1.0" standalone="no"?>
<!DOCTYPE svg PUBLIC "-//W3C//DTD SVG 1.1//EN" "http://www.w3.org/Graphics/SVG/1.1/DTD/svg11.dtd" >
<svg xmlns="http://www.w3.org/2000/svg" xmlns:xlink="http://www.w3.org/1999/xlink" version="1.1">
<metadata>
Created by FontForge 20170731 at Fri Sep  7 16:54:18 2018
 By Aleksey,,,
Copyright (c) 2018, Cadson Demak (info@cadsondemak.com)
</metadata>
<defs>
<font id="Niramit-Italic" horiz-adv-x="0" >
  <font-face 
    font-family="Niramit"
    font-weight="400"
    font-style="italic"
    font-stretch="normal"
    units-per-em="1000"
    panose-1="0 0 5 0 0 0 0 0 0 0"
    ascent="800"
    descent="-200"
    x-height="485"
    cap-height="700"
    bbox="-573 -476 1139 1205"
    underline-thickness="50"
    underline-position="-150"
    slope="-10"
    unicode-range="U+000D-FB02"
  />
<missing-glyph horiz-adv-x="620" 
d="M179 747h440l-132 -747h-440zM446 52l114 643h-340l-114 -643h340z" />
    <glyph glyph-name="fi" unicode="fi" horiz-adv-x="537" 
d="M414 0h-84l73 415h-168l-73 -415h-84l73 415h-84l30 70h66l16 91q13 74 65 117t140 43q34 0 67 -7t56 -17l-26 -67q-16 8 -43 14t-60 6q-57 0 -82 -23t-33 -66l-16 -91h252z" />
    <glyph glyph-name="fl" unicode="fl" horiz-adv-x="515" 
d="M543 734l-129 -734h-84l73 415h-168l-73 -415h-84l73 415h-84l30 70h66l16 91q13 74 65 117t140 43q37 0 73 -11l2 9h84zM415 485l30 171q-32 9 -67 9q-57 0 -82 -23t-33 -66l-16 -91h168z" />
    <glyph glyph-name="uni0E240E45" unicode="&#xe24;&#xe45;" horiz-adv-x="1004" 
d="M508 407q5 29 15 43q-20 40 -56 62t-95 22q-70 0 -124 -29.5t-84 -75.5l45 -32q14 14 34 26.5t41 18.5l20 -54q-39 -17 -58.5 -41.5t-26.5 -63.5l-20 -111q22 9 39 9q34 0 54 -19.5t20 -52.5q0 -50 -36 -84.5t-88 -34.5q-40 0 -64.5 23t-24.5 60q0 6 2 20l32 181
q7 42 30 66l-88 65q19 52 65.5 97.5t110 73t132.5 27.5q70 0 114 -22.5t75 -65.5q43 43 93.5 65.5t104.5 22.5q121 0 173 -86q9 7 16 7q12 0 22 -12q12 -13 12 -27q0 -10 -4.5 -16.5t-13.5 -12.5q-11 -10 -16.5 -17.5t-8.5 -21.5l-137 -776h-84l137 777q2 12 7 24.5t10 19.5
q-18 36 -48 54t-76 18q-44 0 -80 -18.5t-59 -49t-29 -65.5l-134 -760h-84zM235 58.5q16 15.5 16 37.5q0 16 -10.5 25.5t-27.5 9.5q-21 0 -37 -15.5t-16 -36.5q0 -16 10.5 -26t26.5 -10q22 0 38 15.5z" />
    <glyph glyph-name="uni0E260E45" unicode="&#xe26;&#xe45;" horiz-adv-x="1010" 
d="M513 407q1 3 4 16.5t12 26.5q-44 84 -148 84q-67 0 -122.5 -29.5t-83.5 -74.5l55 -36q15 14 36 27.5t38 17.5l20 -54q-38 -16 -57 -41.5t-26 -65.5l-26 -146q4 -9 4 -27q0 -47 -36 -81t-87 -34q-41 0 -65 22.5t-24 57.5q0 29 15.5 55t40.5 41.5t53 15.5q12 0 24 -5l16 91
q9 51 27 70l-98 67q21 53 67.5 98.5t110 72.5t130.5 27q71 0 113.5 -22t73.5 -67q89 89 196 89q62 0 102 -22.5t69 -65.5q10 8 19 8q11 0 21 -11q11 -12 11 -27q0 -10 -4 -16t-13 -14q-10 -8 -15.5 -16t-8.5 -22l-137 -776h-84l137 777q8 33 16 44q-18 36 -48.5 54t-76.5 18
q-43 0 -79 -18.5t-59.5 -49t-29.5 -65.5l-134 -760h-84zM142 59q16 16 16 36q0 16 -10.5 26t-26.5 10q-22 0 -37.5 -15.5t-15.5 -36.5q0 -16 10.5 -26t27.5 -10q20 0 36 16z" />
    <glyph glyph-name=".notdef" horiz-adv-x="620" 
d="M179 747h440l-132 -747h-440zM446 52l114 643h-340l-114 -643h340z" />
    <glyph glyph-name=".null" horiz-adv-x="497" 
 />
    <glyph glyph-name="nonmarkingreturn" unicode="&#xd;" horiz-adv-x="258" 
 />
    <glyph glyph-name="space" unicode=" " horiz-adv-x="258" 
 />
    <glyph glyph-name="exclam" unicode="!" horiz-adv-x="242" 
d="M159 700h86l-97 -503h-69zM42.5 13.5q-14.5 13.5 -14.5 34.5q0 29 21.5 50t51.5 21q22 0 36.5 -13.5t14.5 -34.5q0 -29 -21.5 -50t-50.5 -21q-23 0 -37.5 13.5z" />
    <glyph glyph-name="quotedbl" unicode="&#x22;" horiz-adv-x="305" 
d="M127 693h85l-41 -190h-69zM256 693h85l-41 -190h-70z" />
    <glyph glyph-name="numbersign" unicode="#" horiz-adv-x="687" 
d="M568 429l-51 -171h103l-12 -70h-111l-56 -188h-83l56 188h-180l-56 -188h-83l56 188h-114l12 70h122l51 171h-118l13 70h126l56 191h83l-56 -191h180l56 191h83l-56 -191h100l-13 -70h-108zM485 429h-180l-51 -171h180z" />
    <glyph glyph-name="dollar" unicode="$" horiz-adv-x="579" 
d="M482.5 302q41.5 -42 41.5 -104q0 -94 -66 -149t-179 -59l-16 -88h-50l16 89q-70 6 -123.5 33.5t-85.5 69.5l63 55q58 -74 158 -85l44 248l-0.5 0.5l-0.5 0.5q-88 34 -130.5 79t-42.5 106q0 93 67 150t177 62l16 89h50l-16 -90q107 -10 174 -72l-57 -61q-27 26 -58 40.5
t-72 18.5l-45 -254l2 -1q92 -36 133.5 -78zM223.5 447q23.5 -23 77.5 -47l41 237q-68 -5 -105 -39.5t-37 -92.5q0 -35 23.5 -58zM397 100q38 34 38 92q0 33 -22.5 54.5t-80.5 46.5l-41 -231q68 4 106 38z" />
    <glyph glyph-name="percent" unicode="%" horiz-adv-x="750" 
d="M132 400.5q-35 34.5 -35 98.5q0 98 49 154.5t131 56.5q62 0 96 -36t34 -96q0 -99 -49 -155.5t-132 -56.5q-59 0 -94 34.5zM587 710h86l-471 -720h-86zM300 471.5q25 37.5 25 99.5q0 32 -15 51t-40 19q-41 0 -66 -38t-25 -100q0 -31 15 -50t40 -19q41 0 66 37.5zM419 24.5
q-35 34.5 -35 98.5q0 98 49 154.5t131 56.5q62 0 96 -36t34 -96q0 -99 -49 -155.5t-132 -56.5q-59 0 -94 34.5zM587 95.5q25 37.5 25 99.5q0 32 -15 51t-40 19q-41 0 -66 -38t-25 -100q0 -31 15 -50t40 -19q41 0 66 37.5z" />
    <glyph glyph-name="ampersand" unicode="&#x26;" horiz-adv-x="709" 
d="M87.5 35q-53.5 45 -53.5 119q0 75 51 142.5t148 119.5q-26 33 -39 62t-13 64q0 75 49.5 121.5t130.5 46.5q62 0 97 -30.5t35 -82.5q0 -47 -22 -84t-51 -61t-69 -49l130 -188q28 50 39 118h86q-15 -104 -79 -190l96 -143h-102l-54 84q-96 -94 -232 -94q-94 0 -147.5 45z
M377 508.5q29 31.5 29 75.5q0 25 -14.5 40t-41.5 15q-36 0 -59 -26t-23 -66q0 -24 10 -44.5t32 -45.5q38 20 67 51.5zM348 83.5q46 20.5 79 58.5l-151 217q-153 -79 -153 -193q0 -48 33.5 -75.5t93.5 -27.5q52 0 98 20.5z" />
    <glyph glyph-name="quotesingle" unicode="'" horiz-adv-x="177" 
d="M126 693h87l-41 -190h-71z" />
    <glyph glyph-name="parenleft" unicode="(" horiz-adv-x="313" 
d="M45 171q0 189 72.5 328t151.5 231h84q-79 -94 -150 -235t-71 -329q0 -151 74 -284h-86q-75 137 -75 289z" />
    <glyph glyph-name="parenright" unicode=")" horiz-adv-x="313" 
d="M134.5 113.5q69.5 139.5 69.5 326.5q0 151 -69 290h83q73 -143 73 -297q0 -176 -68 -316t-155 -235h-85q82 92 151.5 231.5z" />
    <glyph glyph-name="asterisk" unicode="*" horiz-adv-x="425" 
d="M204 361.5q-10 8.5 -10 22.5q0 7 3 14l31 90l-82 -56q-14 -9 -28 -9t-23.5 9t-9.5 26q0 13 9 24.5t24 16.5l101 38l-87 38q-21 10 -21 29q0 12 9 25q15 22 38 22q15 0 25 -9l62 -56l1 90q0 19 15 32t35 13q16 0 26 -9t10 -23q0 -3 -2 -13l-27 -90l82 56q13 9 28 9
q13 0 22.5 -9t9.5 -26q0 -13 -9 -24.5t-24 -16.5l-101 -38l88 -38q22 -8 22 -28q0 -13 -10 -26q-7 -11 -17.5 -17t-21.5 -6q-12 0 -24 10l-62 56l-5 -90q-1 -19 -15.5 -32t-34.5 -13q-17 0 -27 8.5z" />
    <glyph glyph-name="plus" unicode="+" horiz-adv-x="524" 
d="M501 250h-195l-33 -191h-86l33 191h-195l13 70h195l33 191h86l-33 -191h195z" />
    <glyph glyph-name="comma" unicode="," horiz-adv-x="225" 
d="M-8 -67q28 12 50 31t30 39q-3 -1 -9 -1q-19 0 -31.5 12.5t-12.5 30.5q0 29 22 50t53 21q26 0 40 -14t14 -39q0 -49 -38.5 -96.5t-101.5 -74.5z" />
    <glyph glyph-name="hyphen" unicode="-" horiz-adv-x="494" 
d="M60 320h404l-12 -70h-404z" />
    <glyph glyph-name="period" unicode="." horiz-adv-x="204" 
d="M26.5 13q-13.5 13 -13.5 33q0 26 21 46t48 20q21 0 33.5 -13t12.5 -33q0 -26 -20 -46t-46 -20q-22 0 -35.5 13z" />
    <glyph glyph-name="slash" unicode="/" horiz-adv-x="448" 
d="M402 710h85l-399 -716h-85z" />
    <glyph glyph-name="zero" unicode="0" horiz-adv-x="626" 
d="M159.5 21.5q-47.5 31.5 -73.5 89t-26 132.5q0 141 39 246.5t115 163t184 57.5q64 0 111 -31.5t72 -88.5t25 -131q0 -139 -37 -244.5t-112 -165t-186 -59.5q-64 0 -111.5 31.5zM407.5 111.5q52.5 48.5 81 136.5t28.5 204q0 185 -132 185q-72 0 -125 -45.5t-82 -132.5
t-29 -209q0 -97 33.5 -142t101.5 -45q71 0 123.5 48.5z" />
    <glyph glyph-name="one" unicode="1" horiz-adv-x="341" 
d="M248 563l-119 -87l-41 58l221 161q21 15 37 15q17 0 27 -15t10 -24q0 -15 -19 -28l-18 -13l-111 -631h-86z" />
    <glyph glyph-name="two" unicode="2" horiz-adv-x="607" 
d="M15.5 4q-8.5 4 -8.5 15q0 3 4 19q7 23 16.5 29t30.5 6q33 48 81 85.5t127 89.5q78 51 123 86.5t76 84.5t31 111q0 52 -29.5 79.5t-88.5 27.5q-80 0 -127 -43.5t-71 -132.5l-81 8q27 115 105.5 178t185.5 63q93 0 144 -45.5t51 -125.5q0 -76 -34 -134.5t-83.5 -99
t-130.5 -92.5q-67 -43 -106 -73t-67 -66h267l37 58l71 -26l-68 -106h-425q-22 0 -30.5 4z" />
    <glyph glyph-name="three" unicode="3" horiz-adv-x="637" 
d="M113 40q-62 50 -76 149l84 27q15 -153 174 -153q96 0 153 54t57 146q0 50 -27 76t-76 26q-35 0 -63 -10l-21 -22q-13 -15 -28 -15q-13 0 -29 13q-10 9 -10 19q0 12 16 31l203 249h-215l-47 -90l-62 43l61 117h392q18 0 26.5 -4t8.5 -13t-7 -23q-10 -19 -19.5 -24.5
t-27.5 -5.5h-21l-168 -205q22 8 51 8q69 0 110.5 -41t41.5 -117q0 -84 -39.5 -148.5t-110.5 -100.5t-162 -36q-107 0 -169 50z" />
    <glyph glyph-name="four" unicode="4" horiz-adv-x="607" 
d="M378 153h-318q-16 0 -25 7.5t-9 19.5q0 17 16 33l464 479q15 17 35 17q14 0 25 -10q13 -12 13 -24q0 -13 -12 -25l-18 -20l-72 -407h93l-13 -70h-93l-27 -153h-86zM394 223l55 313l-304 -313h249z" />
    <glyph glyph-name="five" unicode="5" horiz-adv-x="609" 
d="M21 98l64 55q36 -48 79.5 -69t105.5 -21q61 0 109.5 30t76 83t27.5 119q0 65 -37 98.5t-99 33.5q-60 0 -108 -27t-91 -84l-65 24l94 294q-13 3 -13 16q0 6 5 21q8 20 15.5 24.5t25.5 4.5h391l-13 -72h-337l-60 -191q78 63 176 63q96 0 150.5 -49t54.5 -140t-40.5 -164
t-112.5 -115t-161 -42q-160 0 -237 108z" />
    <glyph glyph-name="six" unicode="6" horiz-adv-x="613" 
d="M114 50.5q-59 60.5 -59 176.5q0 135 45.5 245t126.5 174t183 64q89 0 135.5 -43.5t50.5 -125.5l-76 -24q-7 62 -33.5 91t-91.5 29q-97 0 -162 -82t-88 -213h3q41 57 99.5 88.5t127.5 31.5q90 0 142 -51.5t52 -135.5q0 -85 -34.5 -149.5t-100 -100t-155.5 -35.5
q-106 0 -165 60.5zM389.5 88.5q42.5 25.5 66.5 72t24 108.5q0 57 -33 88.5t-94 31.5q-56 0 -101.5 -27t-72 -73.5t-26.5 -102.5q0 -57 37 -90t101 -33q56 0 98.5 25.5z" />
    <glyph glyph-name="seven" unicode="7" horiz-adv-x="590" 
d="M217.5 206q41.5 93 104.5 175.5t159 178.5q13 13 18.5 28t10.5 40h-318v-61l-82 -32l-1 116q0 22 15 35.5t38 13.5h446q14 0 19.5 -3t5.5 -13q0 -7 -3 -22q-4 -19 -13 -25.5t-25 -6.5q-7 -34 -16.5 -55t-36.5 -48q-98 -100 -153.5 -174t-89 -156t-53.5 -197h-86
q19 113 60.5 206z" />
    <glyph glyph-name="eight" unicode="8" horiz-adv-x="612" 
d="M93 32q-59 42 -59 120q0 75 46.5 132.5t125.5 80.5q-39 17 -61.5 50t-22.5 75q0 62 35 112.5t96 79t136 28.5q94 0 147.5 -41t53.5 -114q0 -68 -39.5 -117.5t-99.5 -72.5q53 -18 82 -54t29 -86q0 -69 -38 -122.5t-106 -83t-156 -29.5q-110 0 -169 42zM419.5 414
q38.5 19 60 52.5t21.5 75.5q0 47 -33.5 71t-91.5 24q-74 0 -120 -39.5t-46 -103.5q0 -47 33.5 -73t89.5 -26q48 0 86.5 19zM419.5 105.5q53.5 42.5 53.5 113.5q0 52 -39 80.5t-112 28.5q-90 0 -144.5 -44t-54.5 -116q0 -50 39 -77.5t113 -27.5q91 0 144.5 42.5z" />
    <glyph glyph-name="nine" unicode="9" horiz-adv-x="613" 
d="M126 33q-52 43 -60 118l76 24q8 -55 40.5 -83.5t96.5 -28.5q94 0 149.5 79t78.5 216h-3q-85 -120 -216 -120q-92 0 -148 51t-56 135q0 85 37 149.5t104.5 100.5t154.5 36q104 0 160.5 -64t56.5 -171q0 -138 -40.5 -248.5t-115.5 -173.5t-175 -63q-88 0 -140 43z
M404.5 338q44.5 27 69.5 73.5t25 103.5q0 56 -34.5 89t-97.5 33q-56 0 -100 -25.5t-69 -72t-25 -106.5q0 -59 32.5 -90.5t99.5 -31.5q55 0 99.5 27z" />
    <glyph glyph-name="colon" unicode=":" horiz-adv-x="214" 
d="M95.5 396.5q-14.5 14.5 -14.5 35.5q0 28 22.5 50t51.5 22q22 0 36 -14.5t14 -35.5q0 -28 -22 -50t-50 -22q-23 0 -37.5 14.5zM29.5 17.5q-14.5 14.5 -14.5 35.5q0 28 22.5 50t50.5 22q22 0 37 -15t15 -36q0 -28 -22.5 -49.5t-51.5 -21.5q-22 0 -36.5 14.5z" />
    <glyph glyph-name="semicolon" unicode=";" horiz-adv-x="223" 
d="M104 392.5q-14 14.5 -14 36.5q0 28 22 50t50 22q23 0 37.5 -15t14.5 -36q0 -27 -22.5 -49.5t-50.5 -22.5q-23 0 -37 14.5zM-8 -68q28 13 50 31.5t30 37.5q-22 -3 -37.5 10t-15.5 33q0 29 22.5 50t52.5 21q26 0 39 -13.5t13 -37.5q0 -51 -38 -98.5t-100 -74.5z" />
    <glyph glyph-name="less" unicode="&#x3c;" horiz-adv-x="607" 
d="M71 223q-11 6 -16.5 12t-5.5 17q0 22 12.5 36.5t30.5 14.5q5 0 8 -1l9 -2l501 210l-15 -83l-419 -171l359 -171l-15 -83z" />
    <glyph glyph-name="equal" unicode="=" horiz-adv-x="524" 
d="M83 396h412l-12 -70h-412zM56 244h412l-12 -70h-412z" />
    <glyph glyph-name="greater" unicode="&#x3e;" horiz-adv-x="607" 
d="M19 85l420 171l-360 171l15 83l427 -210l9 2q4 1 10 1q13 0 20.5 -8t7.5 -22q0 -22 -10 -32t-27 -18l-527 -221z" />
    <glyph glyph-name="question" unicode="?" horiz-adv-x="510" 
d="M210 240q9 53 38 88t82 78q35 28 55 47.5t33.5 45.5t13.5 59q0 38 -24 58.5t-72 20.5q-107 0 -168 -115l-66 35q38 72 104.5 112.5t145.5 40.5q80 0 124.5 -37.5t44.5 -102.5q0 -46 -16.5 -80.5t-40 -57.5t-62.5 -53q-49 -39 -74 -67.5t-32 -71.5l-7 -43h-86zM175 13.5
q-14 13.5 -14 34.5q0 29 21.5 50t51.5 21q23 0 37 -13.5t14 -34.5q0 -29 -21.5 -50t-50.5 -21q-24 0 -38 13.5z" />
    <glyph glyph-name="at" unicode="@" horiz-adv-x="851" 
d="M201.5 13q-70.5 35 -107.5 97.5t-37 144.5q0 133 55.5 239.5t157.5 167t237 60.5q155 0 243 -69t88 -195q0 -90 -30.5 -166.5t-85.5 -121.5t-125 -45q-36 0 -62 21.5t-31 59.5h-1q-27 -38 -65.5 -60t-81.5 -22q-57 0 -93.5 42t-36.5 107q0 84 34.5 154.5t93 112
t127.5 41.5q38 0 63 -17.5t35 -46.5l18 50h67l-101 -288q-7 -23 -7 -35q0 -23 13 -36.5t34 -13.5q39 0 72.5 35.5t54 95t20.5 126.5q0 100 -61.5 149t-189.5 49q-102 0 -182 -48t-125.5 -135.5t-45.5 -202.5q0 -103 61 -157.5t174 -54.5q101 0 190 38l-12 -71
q-83 -40 -191 -40q-96 0 -166.5 35zM513 337q20 57 20 101q0 37 -15.5 56.5t-45.5 19.5q-40 0 -77 -33t-60 -88t-23 -116q0 -43 17 -62.5t51 -19.5q83 0 133 142z" />
    <glyph glyph-name="A" unicode="A" horiz-adv-x="662" 
d="M358 672q24 46 64 46q22 0 34.5 -9.5t12.5 -23.5q0 -8 -8 -22l120 -663h-88l-32 191h-269l-100 -191h-93zM453 261l-53 338l-173 -338h226z" />
    <glyph glyph-name="B" unicode="B" horiz-adv-x="591" 
d="M138 609q1 5 1 14q0 10 -3 16t-9 12.5t-6 12.5q0 15 19 34.5t38 19.5q15 0 28 -18h200q84 0 129 -40t45 -106q0 -71 -39 -120.5t-109 -68.5l-1 -2q52 -16 82 -50t30 -83q0 -65 -33.5 -117.5t-92.5 -82.5t-131 -30h-255zM325 399q76 0 121 39t45 106q0 41 -24 64t-80 23
h-161l-41 -232h140zM294 69q73 0 117 43t44 115q0 49 -34.5 75.5t-97.5 26.5h-150l-46 -260h167z" />
    <glyph glyph-name="C" unicode="C" horiz-adv-x="621" 
d="M183.5 23q-59.5 33 -92 94.5t-32.5 143.5q0 127 47.5 229t134 161t199.5 59q60 0 109 -20.5t78 -57.5l-47 -63q-27 34 -63 51t-90 17q-79 0 -142.5 -47t-100 -130.5t-36.5 -190.5q0 -98 48.5 -152t139.5 -54q98 0 167 65l45 -50q-47 -42 -106.5 -65t-120.5 -23
q-78 0 -137.5 33z" />
    <glyph glyph-name="D" unicode="D" horiz-adv-x="632" 
d="M137 609q1 5 1 13q0 16 -8.5 27t-8.5 16q0 6 9 19t22 23.5t26 10.5t27 -18h137q125 0 198 -68.5t73 -191.5q0 -130 -46.5 -229.5t-133 -155t-203.5 -55.5h-200zM237 74q86 0 151.5 44.5t101 125.5t35.5 188q0 99 -45.5 146.5t-147.5 47.5h-106l-97 -552h108z" />
    <glyph glyph-name="E" unicode="E" horiz-adv-x="523" 
d="M138 609q1 5 1 13q0 16 -9 27.5t-9 16.5t2 8q7 14 23 29t32 15q7 0 14.5 -5t12.5 -13h346l-13 -74h-311l-39 -223h227l-13 -72h-227l-45 -257h320l-13 -74h-406z" />
    <glyph glyph-name="F" unicode="F" horiz-adv-x="514" 
d="M138 609q1 5 1 13q0 16 -9 27.5t-9 16.5t2 8q7 14 23 29t32 15q7 0 14.5 -5t12.5 -13h346l-13 -74h-311l-41 -234h227l-13 -72h-227l-56 -320h-86z" />
    <glyph glyph-name="G" unicode="G" horiz-adv-x="647" 
d="M180 23q-58 33 -89.5 94.5t-31.5 143.5q0 127 47.5 229t134 161t199.5 59q60 0 109 -20.5t78 -57.5l-47 -63q-27 34 -63 51t-90 17q-79 0 -142.5 -47t-100 -130.5t-36.5 -190.5q0 -99 46 -152.5t137 -53.5q44 0 74.5 8t61.5 26l36 205h-165l13 72h200q9 8 15.5 11.5
t15.5 3.5q16 0 27.5 -15t11.5 -30q0 -7 -2.5 -11t-9.5 -10q-9 -7 -14.5 -15t-8.5 -25l-40 -227q-66 -37 -116.5 -51.5t-113.5 -14.5q-78 0 -136 33z" />
    <glyph glyph-name="H" unicode="H" horiz-adv-x="613" 
d="M142 700h86l-52 -295h321l52 295h86l-123 -700h-86l58 331h-321l-58 -331h-86z" />
    <glyph glyph-name="I" unicode="I" horiz-adv-x="287" 
d="M181 700h86l-123 -700h-86z" />
    <glyph glyph-name="J" unicode="J" horiz-adv-x="431" 
d="M61 2q-38 12 -62 31l46 64q21 -15 49 -24t55 -9q52 0 83.5 27.5t41.5 81.5l93 527h86l-93 -524q-15 -86 -75.5 -136t-149.5 -50q-36 0 -74 12z" />
    <glyph glyph-name="K" unicode="K" horiz-adv-x="590" 
d="M142 700h86l-51 -292l313 292h107l-361 -334l268 -366h-108l-234 323l-57 -323h-86z" />
    <glyph glyph-name="L" unicode="L" horiz-adv-x="494" 
d="M20.5 0.5q-11.5 13.5 -11.5 29.5q0 12 13 23q9 8 14.5 16.5t8.5 23.5l107 607h86l-110 -626h303l-13 -74h-340q-15 -13 -30 -13q-16 0 -27.5 13.5z" />
    <glyph glyph-name="M" unicode="M" horiz-adv-x="773" 
d="M323.5 -4.5q-9.5 6.5 -10.5 18.5l-78 516l-143 -531h-89l183 653l-4 10q-2 6 -2 10q0 17 14.5 31.5t39.5 14.5q27 0 38.5 -12t15.5 -38l80 -533l269 533q13 25 29 37.5t43 12.5q20 0 30 -9.5t10 -23.5q0 -15 -7 -23l-8 -10l-48 -653h-85l45 531l-244 -483l1 -10
q2 -21 -14.5 -34.5t-41.5 -13.5q-14 0 -23.5 6.5z" />
    <glyph glyph-name="N" unicode="N" horiz-adv-x="613" 
d="M135 619q1 4 1 10q0 12 -7 22.5t-7 15.5t3 12q7 16 23.5 27.5t33.5 11.5q24 0 34 -22l238 -538l95 542h86l-123 -700h-74l-233 525l-93 -525h-86z" />
    <glyph glyph-name="O" unicode="O" horiz-adv-x="664" 
d="M116.5 59.5q-58.5 69.5 -58.5 190.5q0 132 44.5 237t125.5 164t185 59q113 0 173 -70t60 -190q0 -132 -45.5 -237t-127.5 -164t-187 -59q-111 0 -169.5 69.5zM431.5 113q58.5 50 92 137.5t33.5 197.5q0 189 -157 189q-73 0 -131 -50t-90.5 -138t-32.5 -197q0 -91 36 -140
t117 -49q74 0 132.5 50z" />
    <glyph glyph-name="P" unicode="P" horiz-adv-x="584" 
d="M136 615q1 4 1 11q0 13 -8 25t-8 18q0 13 18.5 31t38.5 18q17 0 31 -18h141q72 0 125 -23t81 -65t28 -97q0 -79 -37.5 -139t-107 -93t-162.5 -33h-119l-44 -250h-86zM287 323q97 0 152 50t55 137q0 57 -38.5 86.5t-116.5 29.5h-115l-53 -303h116z" />
    <glyph glyph-name="Q" unicode="Q" horiz-adv-x="664" 
d="M612 243q-34 -94 -95.5 -156.5t-143.5 -85.5l100 -164h-106l-88 153q-108 2 -164.5 71.5t-56.5 188.5q0 132 44.5 237t125.5 164t185 59q113 0 173 -70t60 -190q0 -113 -34 -207zM431.5 113q58.5 50 92 137.5t33.5 197.5q0 189 -157 189q-73 0 -131 -50t-90.5 -138
t-32.5 -197q0 -91 36 -140t117 -49q74 0 132.5 50z" />
    <glyph glyph-name="R" unicode="R" horiz-adv-x="582" 
d="M137 615q1 4 1 11q0 12 -8 23.5t-8 18.5q0 8 8.5 20t21.5 21t27 9q17 0 31 -18h141q110 0 171.5 -46.5t61.5 -127.5q0 -67 -29.5 -119t-83.5 -84t-126 -37l136 -286h-99l-133 280h-85l-49 -280h-86zM293 353q100 0 150.5 42.5t50.5 125.5q0 53 -37.5 79t-116.5 26h-115
l-48 -273h116z" />
    <glyph glyph-name="S" unicode="S" horiz-adv-x="579" 
d="M118.5 18.5q-61.5 28.5 -98.5 75.5l63 55q69 -87 192 -87q76 0 118 34.5t42 95.5q0 26 -14 44.5t-45.5 36t-91.5 40.5q-88 34 -130.5 79t-42.5 106q0 64 32.5 112t91.5 74t137 26q65 0 117.5 -19.5t89.5 -53.5l-57 -61q-32 30 -70.5 45.5t-92.5 15.5q-75 0 -117 -35
t-42 -97q0 -41 34 -67t115 -58q92 -36 133.5 -78t41.5 -104q0 -97 -71 -152.5t-191 -55.5q-82 0 -143.5 28.5z" />
    <glyph glyph-name="T" unicode="T" horiz-adv-x="556" 
d="M304 626h-200l13 74h486l-13 -74h-200l-110 -626h-86z" />
    <glyph glyph-name="U" unicode="U" horiz-adv-x="632" 
d="M111.5 45.5q-59.5 55.5 -59.5 146.5q0 22 5 52l80 456h86l-81 -462q-5 -28 -5 -48q0 -63 38 -95t111 -32q82 0 136.5 44.5t69.5 130.5l81 462h86l-80 -456q-22 -126 -99.5 -190t-204.5 -64q-104 0 -163.5 55.5z" />
    <glyph glyph-name="V" unicode="V" horiz-adv-x="666" 
d="M241 23q0 12 10 26l-124 651h85l101 -566l299 566h91l-365 -672q-10 -18 -25 -28t-30 -10q-12 0 -23 6q-19 10 -19 27z" />
    <glyph glyph-name="W" unicode="W" horiz-adv-x="832" 
d="M120 23q0 10 6 20l7 12l-6 645h86l-4 -539l248 523q12 26 42 26q24 0 36 -7.5t12 -19.5q0 -5 -4 -15l-5 -10l59 -497l185 539h87l-230 -645l3 -12q1 -3 1 -9q0 -28 -39 -40q-18 -4 -24 -4q-18 0 -27.5 12t-12.5 38l-63 525l-250 -525q-12 -26 -26 -38t-32 -12q-7 0 -23 4
q-26 7 -26 29z" />
    <glyph glyph-name="X" unicode="X" horiz-adv-x="667" 
d="M310 375l-161 325h93l125 -259l216 259h99l-275 -325l174 -375h-93l-138 311l-247 -311h-99z" />
    <glyph glyph-name="Y" unicode="Y" horiz-adv-x="631" 
d="M281 271l-154 429h90l116 -350l239 350h96l-305 -429l-47 -271h-82z" />
    <glyph glyph-name="Z" unicode="Z" horiz-adv-x="621" 
d="M46 -11q-15 0 -34 27q-4 8 -4 10q0 6 6 14t14 17l494 569h-382l13 74h428l10 9q10 10 25 10q14 0 25 -11q13 -14 13 -26q0 -15 -20 -38l-496 -570h410l-13 -74h-465l-11 -7q-5 -4 -13 -4z" />
    <glyph glyph-name="bracketleft" unicode="[" horiz-adv-x="266" 
d="M150 746h171l-12 -70h-85l-131 -740h85l-12 -70h-171z" />
    <glyph glyph-name="backslash" unicode="\" horiz-adv-x="450" 
d="M129 710h85l148 -721h-86z" />
    <glyph glyph-name="bracketright" unicode="]" horiz-adv-x="266" 
d="M-18 -64h85l131 740h-85l12 70h171l-155 -880h-171z" />
    <glyph glyph-name="asciicircum" unicode="^" horiz-adv-x="444" 
d="M269 700q9 13 18 17.5t24 4.5q17 0 27.5 -7.5t10.5 -18.5q0 -7 -6 -15l-4 -5l96 -239h-84l-60 185l-120 -185h-90z" />
    <glyph glyph-name="underscore" unicode="_" horiz-adv-x="564" 
d="M-6 -52h474l-12 -70h-474z" />
    <glyph glyph-name="grave" unicode="`" horiz-adv-x="274" 
d="M131 722h94l54 -179h-69z" />
    <glyph glyph-name="a" unicode="a" horiz-adv-x="566" 
d="M88 43q-47 53 -47 136q0 88 35 160.5t96.5 114t136.5 41.5q98 0 139 -80l12 70h82l-63 -360q-6 -33 -6 -56q0 -28 10 -51l-74 -28q-15 24 -15 60q0 6 2 24l-3 1q-36 -41 -82 -63t-97 -22q-79 0 -126 53zM355 105.5q47 45.5 59 115.5l7 42q3 17 3 32q0 55 -30.5 92.5
t-89.5 37.5q-49 0 -89.5 -31.5t-64 -86.5t-23.5 -121q0 -59 27.5 -92.5t82.5 -33.5q71 0 118 45.5z" />
    <glyph glyph-name="b" unicode="b" horiz-adv-x="570" 
d="M7 17q17 22 26.5 46.5t16.5 62.5l107 608h84l-56 -318q33 35 78.5 57t94.5 22q87 0 130 -50.5t43 -136.5q0 -89 -34 -162t-94 -114.5t-135 -41.5q-51 0 -90.5 23t-59.5 63q-5 -28 -18 -51.5t-27 -35.5zM359.5 91.5q39.5 31.5 62.5 86.5t23 123q0 124 -112 124
q-45 0 -82.5 -23t-62 -60.5t-31.5 -78.5l-7 -42q-3 -16 -3 -32q0 -56 32 -92.5t92 -36.5q49 0 88.5 31.5z" />
    <glyph glyph-name="c" unicode="c" horiz-adv-x="515" 
d="M98.5 43.5q-56.5 53.5 -56.5 143.5q0 88 37 158.5t104 110t152 39.5q48 0 90.5 -16t66.5 -43l-43 -60q-18 21 -51 34.5t-72 13.5q-58 0 -103 -29t-69.5 -81.5t-24.5 -118.5q0 -65 35.5 -99.5t104.5 -34.5q34 0 69.5 12t61.5 35l39 -50q-35 -31 -86 -49.5t-101 -18.5
q-97 0 -153.5 53.5z" />
    <glyph glyph-name="d" unicode="d" horiz-adv-x="570" 
d="M399.5 14.5q-4.5 16.5 -4.5 36.5q0 7 2 25q-74 -86 -179 -86q-85 0 -130.5 51.5t-45.5 136.5q0 94 35 166t96.5 111.5t138.5 39.5q50 0 84 -21.5t54 -57.5l56 318h84l-107 -608q-5 -29 -5 -57q0 -31 9 -52l-76 -28q-7 9 -11.5 25.5zM357 107q48 47 59 114l7 42q3 17 3 32
q0 56 -30 93t-88 37q-51 0 -92 -31.5t-64.5 -86t-23.5 -122.5q0 -58 27 -91.5t85 -33.5q69 0 117 47z" />
    <glyph glyph-name="e" unicode="e" horiz-adv-x="543" 
d="M98 42.5q-55 52.5 -55 138.5q0 94 33.5 165t95 110t142.5 39q64 0 107.5 -27.5t64 -71t20.5 -91.5q0 -61 -19 -80t-51 -19h-308q-3 -16 -3 -33q0 -52 33.5 -82t95.5 -30q84 0 149 50l35 -49q-38 -34 -87.5 -53t-106.5 -19q-91 0 -146 52.5zM421 275q3 17 3 32
q0 52 -30.5 85t-88.5 33q-46 0 -81 -22t-56.5 -56.5t-27.5 -71.5h281z" />
    <glyph glyph-name="f" unicode="f" horiz-adv-x="395" 
d="M151 415h-84l30 70h66l19 104q13 71 59.5 109t118.5 38q21 0 44.5 -5t40.5 -14l-27 -65q-29 13 -63 13q-76 0 -90 -77l-18 -103h141l-30 -70h-123l-73 -415h-84z" />
    <glyph glyph-name="g" unicode="g" horiz-adv-x="568" 
d="M95 -208.5q-38 9.5 -67 24.5l37 65q24 -13 55.5 -20.5t66.5 -7.5q92 0 134 46t57 130l9 50q-32 -37 -75 -58t-93 -21q-82 0 -129.5 51.5t-47.5 136.5q0 89 33 159t92.5 109.5t136.5 39.5q102 0 149 -86q6 28 18.5 51.5t26.5 35.5l66 -28q-17 -23 -26.5 -48t-16.5 -62
l-59 -333q-22 -121 -94 -182.5t-194 -61.5q-41 0 -79 9.5zM323 93.5q37 23.5 61 61t31 77.5l6 33q3 17 3 34q0 55 -32 91t-90 36q-50 0 -90 -30t-62.5 -83t-22.5 -120q0 -57 27.5 -90t86.5 -33q45 0 82 23.5z" />
    <glyph glyph-name="h" unicode="h" horiz-adv-x="539" 
d="M360 67q0 22 4 42l34 190q4 20 4 41q0 43 -22 63.5t-67 20.5q-40 0 -74.5 -22t-57.5 -59t-31 -79l-47 -264h-84l129 734h84l-56 -318q32 37 76.5 58t92.5 21q70 0 106 -37t36 -105q0 -30 -5 -55l-34 -189q-3 -16 -3 -32q0 -33 11 -57l-81 -30q-15 40 -15 77z" />
    <glyph glyph-name="i" unicode="i" horiz-adv-x="244" 
d="M146.5 604.5q-14.5 14.5 -14.5 35.5q0 28 22 49t51 21q23 0 38 -14t15 -36q0 -27 -22.5 -48.5t-51.5 -21.5q-23 0 -37.5 14.5zM123 485h84l-86 -485h-84z" />
    <glyph glyph-name="j" unicode="j" horiz-adv-x="418" 
d="M320.5 604.5q-14.5 14.5 -14.5 35.5q0 28 22 49t51 21q23 0 38 -14t15 -35q0 -28 -22.5 -49.5t-51.5 -21.5q-23 0 -37.5 14.5zM19.5 -207q-34.5 12 -56.5 31l43 59q40 -32 94 -32q46 0 70 25.5t35 88.5l92 520h84l-92 -517q-18 -97 -64 -142t-134 -45q-37 0 -71.5 12z
" />
    <glyph glyph-name="k" unicode="k" horiz-adv-x="487" 
d="M148 734h84l-73 -419l212 170h107l-281 -228l227 -257h-109l-176 207l-36 -207h-84z" />
    <glyph glyph-name="l" unicode="l" horiz-adv-x="204" 
d="M148 734h84l-129 -734h-84z" />
    <glyph glyph-name="m" unicode="m" horiz-adv-x="793" 
d="M614 67q0 22 4 42l34 192q6 38 6 52q0 35 -17 53t-57 18q-53 0 -88 -36.5t-45 -93.5l-52 -294h-82l53 301q4 20 4 41q0 82 -74 82q-55 0 -92.5 -43t-49.5 -110l-48 -271h-84l64 363q5 33 5 52q0 30 -9 52l80 29q1 -2 6.5 -20t5.5 -45q0 -12 -1 -19q26 39 67 61t82 22
q93 0 112 -91q31 43 74.5 67t95.5 24q67 0 101 -34.5t34 -96.5q0 -24 -4 -47l-37 -208q-3 -16 -3 -32q0 -33 11 -57l-81 -30q-15 40 -15 77z" />
    <glyph glyph-name="n" unicode="n" horiz-adv-x="546" 
d="M367 67q0 22 4 42l34 190q4 21 4 43q0 42 -21 62t-67 20q-40 0 -75 -22t-58 -59t-31 -79l-47 -264h-84l64 363q5 30 5 50q0 28 -9 53l80 29q11 -29 11 -67q0 -13 -1 -19q34 41 81.5 63.5t96.5 22.5q68 0 104 -37t36 -105q0 -22 -5 -55l-34 -189q-3 -16 -3 -32
q0 -33 11 -57l-81 -30q-15 40 -15 77z" />
    <glyph glyph-name="o" unicode="o" horiz-adv-x="548" 
d="M94.5 43q-51.5 53 -51.5 139q0 94 33.5 164.5t96 109.5t147.5 39t136.5 -53t51.5 -139q0 -94 -33 -164.5t-95.5 -109.5t-148.5 -39q-85 0 -136.5 53zM336.5 90.5q40.5 29.5 62.5 82.5t22 123q0 61 -31 94.5t-83 33.5q-53 0 -93 -29t-62 -82.5t-22 -122.5q0 -65 30 -97
t83 -32t93.5 29.5z" />
    <glyph glyph-name="p" unicode="p" horiz-adv-x="570" 
d="M91 359q6 35 6 57q0 29 -11 53l77 28q7 -10 12 -26.5t5 -35.5q0 -7 -2 -25q36 40 81.5 63t98.5 23q79 0 126 -51.5t47 -135.5q0 -91 -33 -163.5t-94 -113.5t-141 -41q-49 0 -84 21t-55 58l-51 -289h-84zM358.5 91q40.5 30 63.5 84t23 122q0 129 -110 129q-46 0 -84 -22.5
t-62.5 -59t-31.5 -79.5l-7 -42q-3 -16 -3 -32q0 -55 30.5 -92.5t88.5 -37.5q52 0 92.5 30z" />
    <glyph glyph-name="q" unicode="q" horiz-adv-x="570" 
d="M352 -159q0 19 5 46l33 183q-34 -37 -77 -58t-91 -21q-84 0 -132 51.5t-48 136.5q0 89 33.5 161.5t93.5 114t136 41.5q52 0 90.5 -23t59.5 -63q7 28 18.5 51.5t25.5 35.5l67 -28q-16 -21 -25 -44.5t-16 -65.5l-84 -472q-4 -26 -4 -37q0 -27 11 -52l-80 -30q-16 33 -16 73
zM326 84q37 23 60.5 60.5t30.5 78.5l7 42q3 17 3 32q0 56 -32 92.5t-91 36.5q-50 0 -90 -31t-63 -85t-23 -121q0 -58 28 -93t88 -35q45 0 82 23z" />
    <glyph glyph-name="r" unicode="r" horiz-adv-x="396" 
d="M90 363q5 30 5 50q0 28 -9 53l80 29q11 -29 11 -67q0 -13 -1 -19q33 43 68 64.5t79 21.5q24 0 41.5 -5.5t37.5 -19.5l-44 -61q-23 15 -54 15q-57 0 -96 -43.5t-51 -113.5l-47 -267h-84z" />
    <glyph glyph-name="s" unicode="s" horiz-adv-x="485" 
d="M98.5 11q-51.5 21 -82.5 59l61 55q23 -31 64 -48.5t87 -17.5q53 0 80.5 19.5t27.5 55.5q0 22 -21.5 37.5t-84.5 38.5q-76 28 -111 59.5t-35 77.5q0 70 54.5 109t148.5 39q49 0 90 -14.5t69 -37.5l-43 -60q-31 23 -61 33t-66 10q-49 0 -78 -19.5t-29 -53.5q0 -25 22 -38.5
t86 -38.5q78 -31 111 -60t33 -74q0 -72 -54 -112t-149 -40q-68 0 -119.5 21z" />
    <glyph glyph-name="t" unicode="t" horiz-adv-x="369" 
d="M125 17q-27 26 -27 73q0 16 3 34l51 291h-85l30 70h68l22 123l88 37l-29 -160h125l-29 -70h-106l-51 -292q-3 -15 -3 -26q0 -20 10.5 -28.5t33.5 -8.5q32 0 59 12l9 -63q-16 -7 -42.5 -12.5t-50.5 -5.5q-49 0 -76 26z" />
    <glyph glyph-name="u" unicode="u" horiz-adv-x="532" 
d="M83 32q-41 42 -41 111q0 22 4 42l54 300h84l-53 -299q-4 -20 -4 -41q0 -41 23 -62.5t73 -21.5q60 0 101.5 45t52.5 109l48 270h84l-64 -363q-5 -30 -5 -51q0 -28 9 -52l-80 -29q-13 37 -10 86q-68 -86 -166 -86q-69 0 -110 42z" />
    <glyph glyph-name="v" unicode="v" horiz-adv-x="541" 
d="M191.5 -2q-10.5 8 -10.5 20q0 7 5 15l4 7l-101 445h85l73 -370l202 370h91l-270 -469q-8 -14 -19 -20t-31 -6q-18 0 -28.5 8z" />
    <glyph glyph-name="w" unicode="w" horiz-adv-x="712" 
d="M141.5 -2.5q-9.5 7.5 -9.5 20.5q0 7 3 14l4 10l-50 443h88l23 -364l167 354q5 9 13.5 14.5t28.5 5.5q39 0 39 -25q0 -6 -4 -18l-8 -21l36 -310l151 364h88l-200 -443v-10q0 -18 -13.5 -30t-34.5 -12q-22 0 -31.5 7.5t-11.5 23.5l-39 340l-159 -340q-8 -16 -20 -23.5
t-33 -7.5q-18 0 -27.5 7.5z" />
    <glyph glyph-name="x" unicode="x" horiz-adv-x="512" 
d="M206 251l-116 234h92l83 -182l148 182h98l-199 -234l113 -251h-94l-78 196l-149 -196h-100z" />
    <glyph glyph-name="y" unicode="y" horiz-adv-x="568" 
d="M14 -160q140 48 195 186l-120 459h94l82 -371l203 371h99l-287 -498q-49 -86 -107.5 -136.5t-145.5 -80.5z" />
    <glyph glyph-name="z" unicode="z" horiz-adv-x="528" 
d="M47 -10q-22 0 -35 35q-2 8 -2 10q0 8 5.5 14.5t17.5 14.5q11 6 21 16l342 335h-293l12 70h329q20 0 28 6q6 4 13 4q18 0 31 -20q6 -9 6 -17q0 -14 -16 -30l-367 -358h312l-12 -70h-348q-19 0 -32 -7q-6 -3 -12 -3z" />
    <glyph glyph-name="braceleft" unicode="{" horiz-adv-x="339" 
d="M88 -114q-21 20 -21 53q0 6 2 20l45 258q2 14 2 18q0 36 -34 36h-30l12 70h30q42 0 52 54l45 258q7 41 37.5 67t75.5 26h80l-13 -70h-61q-29 0 -35 -35l-41 -235q-7 -38 -21 -61t-47 -39q37 -22 37 -65q0 -11 -4 -35l-42 -235q-1 -4 -1 -11q0 -24 24 -24h61l-12 -70h-80
q-40 0 -61 20z" />
    <glyph glyph-name="bar" unicode="|" horiz-adv-x="206" 
d="M160 800h86l-166 -940h-86z" />
    <glyph glyph-name="braceright" unicode="}" horiz-adv-x="339" 
d="M-8 -64h62q30 0 36 35l41 235q7 38 21 61t47 39q-37 22 -37 65q0 11 4 35l42 235q1 4 1 11q0 24 -24 24h-62l12 70h81q39 0 60.5 -20t21.5 -53q0 -6 -2 -20l-46 -258q-2 -12 -2 -17q0 -18 9.5 -27.5t25.5 -9.5h30l-13 -70h-30q-41 0 -51 -54l-46 -258q-8 -42 -37.5 -67.5
t-74.5 -25.5h-81z" />
    <glyph glyph-name="asciitilde" unicode="~" horiz-adv-x="589" 
d="M45 233q31 45 71.5 69t86.5 24q25 0 48 -8t56 -24q31 -15 52.5 -23t44.5 -8q35 0 60.5 16.5t46.5 49.5l41 -49q-29 -46 -69 -70t-86 -24q-25 0 -48 8t-60 25q-35 16 -55 23t-41 7q-62 0 -105 -68z" />
    <glyph glyph-name="uni00A0" unicode="&#xa0;" horiz-adv-x="258" 
 />
    <glyph glyph-name="exclamdown" unicode="&#xa1;" horiz-adv-x="242" 
d="M103.5 358.5q-14.5 13.5 -14.5 34.5q0 29 21.5 50t50.5 21q23 0 37.5 -13.5t14.5 -34.5q0 -29 -21.5 -50t-51.5 -21q-22 0 -36.5 13.5zM92 267h69l-81 -503h-86z" />
    <glyph glyph-name="cent" unicode="&#xa2;" horiz-adv-x="515" 
d="M435.5 475q35.5 -15 56.5 -39l-43 -60q-15 18 -42.5 31t-60.5 16l-64 -362q32 2 63.5 14t54.5 33l39 -50q-32 -28 -77.5 -46t-91.5 -21l-16 -89h-52l16 90q-82 9 -129 61t-47 134q0 83 33 150.5t93 108.5t138 48l17 94h52l-17 -94q42 -4 77.5 -19zM155 106.5
q26 -33.5 76 -42.5l63 358q-75 -12 -120 -74t-45 -153q0 -55 26 -88.5z" />
    <glyph glyph-name="sterling" unicode="&#xa3;" horiz-adv-x="562" 
d="M17 63q51 16 94 57t67.5 93.5t24.5 102.5h-144l29 70h104q-10 20 -15 46t-5 51q0 65 30 116.5t86.5 81t132.5 29.5q55 0 99 -19.5t68 -54.5l-43 -59q-45 60 -137 60q-71 0 -110 -41t-39 -115q0 -50 23 -95h168l-30 -70h-131q-4 -67 -40 -134t-97 -112h335l-12 -70h-469z
" />
    <glyph glyph-name="currency" unicode="&#xa4;" horiz-adv-x="618" 
d="M29 115l100 87q-31 39 -31 97q0 45 18.5 89.5t50.5 74.5l-67 86l62 52l71 -90q61 32 129 32q69 0 118 -32l103 90l45 -52l-100 -86q26 -36 26 -87q0 -48 -21.5 -95.5t-57.5 -78.5l70 -87l-63 -52l-74 94q-60 -27 -118 -27q-61 0 -110 27l-107 -94zM425 247q48 47 48 121
q0 50 -32.5 77.5t-90.5 27.5q-76 0 -124 -46.5t-48 -120.5q0 -51 32.5 -78.5t91.5 -27.5q75 0 123 47z" />
    <glyph glyph-name="yen" unicode="&#xa5;" horiz-adv-x="631" 
d="M363 271h169l-8 -46h-169l-12 -68h169l-8 -46h-169l-19 -111h-82l19 111h-163l8 46h163l12 68h-163l8 46h163l-154 429h90l116 -350l239 350h96z" />
    <glyph glyph-name="brokenbar" unicode="&#xa6;" horiz-adv-x="206" 
d="M160 800h86l-70 -394h-86zM63 254h86l-69 -394h-86z" />
    <glyph glyph-name="section" unicode="&#xa7;" horiz-adv-x="494" 
d="M85 -40.5q-48 18.5 -75 50.5l54 55q21 -24 57.5 -39t82.5 -15q55 0 88.5 26.5t33.5 70.5q0 29 -25.5 48.5t-92.5 45.5q-77 30 -110 59.5t-33 74.5q0 42 23.5 81t65.5 65q-15 12 -22.5 32.5t-7.5 43.5q0 75 56 119.5t152 44.5q51 0 92 -13.5t69 -37.5l-43 -58
q-55 40 -131 40q-50 0 -80 -23.5t-30 -63.5q0 -28 24.5 -44.5t91.5 -40.5q74 -27 107.5 -56.5t33.5 -75.5q0 -47 -23 -85.5t-61 -66.5q13 -12 21 -34.5t8 -47.5q0 -79 -58 -126.5t-161 -47.5q-59 0 -107 18.5zM367.5 279q14.5 27 14.5 51t-19 42.5t-62 35.5q-62 24 -92 40
q-29 -17 -45.5 -42.5t-16.5 -53.5q0 -21 17.5 -38t60.5 -36q85 -37 104 -47q24 21 38.5 48z" />
    <glyph glyph-name="dieresis" unicode="&#xa8;" horiz-adv-x="387" 
d="M117.5 580q-13.5 13 -13.5 33q0 26 20.5 46t47.5 20q21 0 34 -13t13 -33q0 -26 -20.5 -46t-46.5 -20q-21 0 -34.5 13zM315.5 580q-13.5 13 -13.5 33q0 26 21 46t48 20q21 0 33.5 -13t12.5 -32q0 -27 -20 -47t-46 -20q-22 0 -35.5 13z" />
    <glyph glyph-name="copyright" unicode="&#xa9;" horiz-adv-x="847" 
d="M211 26q-72 37 -111 103.5t-39 153.5q0 122 58.5 219.5t160 152.5t227.5 55q97 0 169.5 -37t111.5 -104t39 -154q0 -121 -58 -218.5t-160 -152.5t-229 -55q-97 0 -169 37zM572.5 107.5q79.5 45.5 125 125.5t45.5 179q0 109 -64.5 167t-184.5 58q-99 0 -178.5 -46
t-125 -126t-45.5 -179q0 -108 65 -166t183 -58q100 0 179.5 45.5zM314 145q-44 23 -68 64t-24 94q0 78 34 140t95 97t139 35q45 0 87 -15.5t67 -44.5l-45 -56q-17 21 -50 34t-69 13q-50 0 -89.5 -25.5t-62 -70.5t-22.5 -101q0 -118 129 -118q31 0 65 11t59 34l39 -48
q-38 -32 -87 -49t-96 -17q-57 0 -101 23z" />
    <glyph glyph-name="ordfeminine" unicode="&#xaa;" horiz-adv-x="423" 
d="M130 417.5q-33 33.5 -33 91.5t23.5 105.5t66 75.5t96.5 28q31 0 54 -12.5t35 -34.5l8 41h68l-43 -244q-4 -30 -4 -38q0 -17 6 -29l-64 -17q-8 14 -8 38l1 15h-1q-22 -25 -53 -39t-64 -14q-55 0 -88 33.5zM311 465.5q31 25.5 39 70.5l5 29q2 14 2 21q0 33 -19.5 54.5
t-56.5 21.5q-48 0 -80 -41.5t-32 -104.5q0 -37 18.5 -56.5t52.5 -19.5q40 0 71 25.5z" />
    <glyph glyph-name="guillemotleft" unicode="&#xab;" horiz-adv-x="456" 
d="M52 241q-3 6 -3 12q0 14 10 26l164 197h85l-177 -216l100 -217h-85zM197 241q-3 6 -3 12q0 14 10 26l164 197h85l-177 -216l100 -217h-85z" />
    <glyph glyph-name="logicalnot" unicode="&#xac;" horiz-adv-x="466" 
d="M337 250h-289l12 70h375l-35 -203h-86z" />
    <glyph glyph-name="uni00AD" unicode="&#xad;" horiz-adv-x="494" 
d="M60 320h404l-12 -70h-404z" />
    <glyph glyph-name="registered" unicode="&#xae;" horiz-adv-x="847" 
d="M211 26q-72 37 -111 103.5t-39 153.5q0 122 58.5 219.5t160 152.5t227.5 55q97 0 169.5 -37t111.5 -104t39 -154q0 -121 -58 -218.5t-160 -152.5t-229 -55q-97 0 -169 37zM572.5 107.5q79.5 45.5 125 125.5t45.5 179q0 109 -64.5 167t-184.5 58q-99 0 -178.5 -46
t-125 -126t-45.5 -179q0 -108 65 -166t183 -58q100 0 179.5 45.5zM325 508q2 11 -5.5 20.5t-7.5 15.5q0 4 3 10q16 32 46 32q15 0 23 -14h110q67 0 107.5 -30.5t40.5 -80.5q0 -66 -38.5 -109t-114.5 -54l85 -167h-84l-76 160h-53l-28 -160h-75zM445 349q59 0 89.5 26
t30.5 77q0 33 -22 47t-65 14h-78l-29 -164h74z" />
    <glyph glyph-name="macron" unicode="&#xaf;" horiz-adv-x="398" 
d="M116 631h304l-12 -66h-304z" />
    <glyph glyph-name="degree" unicode="&#xb0;" horiz-adv-x="350" 
d="M138.5 511.5q-30.5 26.5 -30.5 70.5q0 64 42 103t111 39q50 0 80.5 -26.5t30.5 -70.5q0 -64 -42 -103t-111 -39q-50 0 -80.5 26.5zM282.5 563.5q20.5 20.5 20.5 54.5q0 22 -14.5 35.5t-37.5 13.5q-33 0 -53.5 -21t-20.5 -55q0 -22 14.5 -35t37.5 -13q33 0 53.5 20.5z" />
    <glyph glyph-name="plusminus" unicode="&#xb1;" horiz-adv-x="524" 
d="M483 332l-12 -70h-163l-27 -151h-86l27 151h-163l12 70h163l27 151h86l-27 -151h163zM25 70h412l-12 -70h-412z" />
    <glyph glyph-name="uni00B2" unicode="&#xb2;" horiz-adv-x="474" 
d="M88 416q-8 3 -8 14q0 7 3 18q6 20 13.5 26t23.5 7q25 35 59.5 61t90.5 60q51 31 80.5 53t49.5 52t20 69q0 33 -19 50.5t-55 17.5q-52 0 -83 -27.5t-48 -90.5l-75 7q19 82 77.5 129.5t138.5 47.5q70 0 107.5 -33.5t37.5 -91.5q0 -53 -23 -91.5t-56.5 -65t-88.5 -59.5
q-43 -26 -69 -45t-45 -42h165l28 43l64 -24l-54 -88h-308q-18 0 -26 3z" />
    <glyph glyph-name="uni00B3" unicode="&#xb3;" horiz-adv-x="494" 
d="M157 439.5q-47 36.5 -57 107.5l77 24q10 -102 117 -102q63 0 99.5 33t36.5 91q0 32 -17.5 48.5t-49.5 16.5q-21 0 -36 -5l-13 -14q-12 -14 -25 -14q-12 0 -28 13q-9 8 -9 16q0 11 14 27l127 155h-129l-32 -61l-55 39l44 86h286q31 0 31 -15q0 -9 -7 -22q-8 -16 -17 -21.5
t-25 -5.5h-14l-102 -122q13 5 36 5q46 0 74 -29t28 -83q0 -60 -29 -106.5t-80.5 -72t-118.5 -25.5q-79 0 -126 36.5z" />
    <glyph glyph-name="acute" unicode="&#xb4;" horiz-adv-x="274" 
d="M218 722h94l-143 -179h-69z" />
    <glyph glyph-name="paragraph" unicode="&#xb6;" horiz-adv-x="640" 
d="M300 310q-106 0 -158.5 38.5t-52.5 113.5q0 69 33.5 123t93.5 84.5t136 30.5h325l-13 -70h-52l-143 -810h-86l143 810h-84l-143 -810h-86z" />
    <glyph glyph-name="periodcentered" unicode="&#xb7;" horiz-adv-x="204" 
d="M76.5 297q-13.5 13 -13.5 33q0 26 21 46t48 20q21 0 33.5 -13t12.5 -33q0 -26 -20 -46t-46 -20q-22 0 -35.5 13z" />
    <glyph glyph-name="cedilla" unicode="&#xb8;" horiz-adv-x="317" 
d="M-30 -185l30 45q31 -23 66 -23q22 0 34.5 12.5t12.5 32.5q0 28 -40 28q-11 0 -17 -1l-16 22l59 75h66l-48 -59q64 -9 64 -61q0 -46 -34 -74.5t-88 -28.5q-49 0 -89 32z" />
    <glyph glyph-name="uni00B9" unicode="&#xb9;" horiz-adv-x="299" 
d="M252 781l-74 -55l-37 53l161 117q22 16 36 16q15 0 22 -15q7 -13 7 -20q0 -10 -11 -19l-12 -10l-77 -436h-80z" />
    <glyph glyph-name="ordmasculine" unicode="&#xba;" horiz-adv-x="417" 
d="M136 420.5q-38 36.5 -38 95.5q0 91 54 146.5t142 55.5q61 0 99 -36.5t38 -95.5q0 -91 -54 -146.5t-142 -55.5q-61 0 -99 36.5zM326 479.5q31 39.5 31 104.5q0 35 -20 56.5t-53 21.5q-51 0 -82 -39.5t-31 -104.5q0 -35 20.5 -56.5t53.5 -21.5q50 0 81 39.5z" />
    <glyph glyph-name="guillemotright" unicode="&#xbb;" horiz-adv-x="456" 
d="M188 260l-101 216h85l95 -197q3 -6 3 -14q0 -11 -4.5 -17t-5.5 -7l-164 -198h-85zM334 260l-101 216h85l95 -197q3 -6 3 -14q0 -11 -4.5 -17t-5.5 -7l-164 -198h-85z" />
    <glyph glyph-name="onequarter" unicode="&#xbc;" horiz-adv-x="821" 
d="M221 601l-75 -55l-37 52l161 117q22 16 36 16t23 -15q6 -10 6 -19q0 -12 -11 -20l-12 -9l-77 -436h-80zM596 710h86l-471 -720h-86zM609 102h-214q-15 0 -23 7t-8 18q0 15 14 29l324 325q15 15 32 15q13 0 21 -8q13 -12 13 -24q0 -11 -10 -21l-11 -12l-47 -265h64
l-11 -64h-64l-18 -102h-80zM624 166l32 185l-182 -185h150z" />
    <glyph glyph-name="onehalf" unicode="&#xbd;" horiz-adv-x="898" 
d="M221 601l-75 -55l-37 52l161 117q22 16 36 16t23 -15q6 -10 6 -19q0 -12 -11 -20l-12 -9l-77 -436h-80zM596 710h86l-471 -720h-86zM439 3.5q-8 3.5 -8 14.5q0 6 3 18q6 20 13.5 25.5t23.5 5.5q25 35 59 60.5t90 60.5q51 31 80 53t49 52.5t20 69.5q0 68 -73 68
q-51 0 -82 -28t-47 -90l-75 7q19 83 76.5 130t138.5 47q69 0 106.5 -33t37.5 -91q0 -53 -23 -92t-55.5 -64.5t-87.5 -59.5q-41 -25 -68 -45t-46 -44h164l26 44l66 -24l-54 -88h-308q-18 0 -26 3.5z" />
    <glyph glyph-name="threequarters" unicode="&#xbe;" horiz-adv-x="975" 
d="M750 710h86l-471 -720h-86zM123 247.5q-47 36.5 -57 107.5l77 24q10 -102 117 -102q63 0 99.5 33t36.5 91q0 32 -17.5 48.5t-49.5 16.5q-21 0 -36 -5l-13 -14q-12 -14 -25 -14q-12 0 -28 13q-9 8 -9 16q0 11 14 27l127 155h-129l-32 -61l-55 39l44 86h286q15 0 22.5 -3.5
t7.5 -11.5t-6 -22q-8 -16 -17 -21.5t-25 -5.5h-14l-102 -122q13 5 36 5q46 0 74 -29t28 -83q0 -60 -29 -106.5t-80.5 -72t-118.5 -25.5q-79 0 -126 36.5zM762 102h-214q-14 0 -22.5 7t-8.5 17q0 15 15 30l323 325q15 15 32 15q12 0 21 -8q14 -13 14 -24q0 -8 -11 -21
l-11 -12l-46 -265h64l-12 -64h-64l-18 -102h-80zM778 166l32 185l-182 -185h150z" />
    <glyph glyph-name="questiondown" unicode="&#xbf;" horiz-adv-x="510" 
d="M238 354.5q-14 13.5 -14 34.5q0 29 21.5 50t50.5 21q24 0 38 -13.5t14 -34.5q0 -29 -21.5 -50t-51.5 -21q-23 0 -37 13.5zM32.5 -212.5q-44.5 37.5 -44.5 102.5q0 46 16.5 80.5t40 57.5t62.5 54q47 37 72.5 66t33.5 72l8 43h86l-8 -43q-10 -53 -39.5 -88t-81.5 -76
q-35 -29 -54.5 -48.5t-33 -45.5t-13.5 -60q0 -38 24 -58.5t72 -20.5q106 0 167 115l66 -35q-38 -72 -104 -112.5t-145 -40.5q-80 0 -124.5 37.5z" />
    <glyph glyph-name="Agrave" unicode="&#xc0;" horiz-adv-x="662" 
d="M358 672q24 46 64 46q22 0 34.5 -9.5t12.5 -23.5q0 -8 -8 -22l120 -663h-88l-32 191h-269l-100 -191h-93zM453 261l-53 338l-173 -338h226zM318 952h95l53 -179h-69z" />
    <glyph glyph-name="Aacute" unicode="&#xc1;" horiz-adv-x="662" 
d="M358 672q24 46 64 46q22 0 34.5 -9.5t12.5 -23.5q0 -8 -8 -22l120 -663h-88l-32 191h-269l-100 -191h-93zM453 261l-53 338l-173 -338h226zM512 952h94l-143 -179h-69z" />
    <glyph glyph-name="Acircumflex" unicode="&#xc2;" horiz-adv-x="662" 
d="M358 672q24 46 64 46q22 0 34.5 -9.5t12.5 -23.5q0 -8 -8 -22l120 -663h-88l-32 191h-269l-100 -191h-93zM453 261l-53 338l-173 -338h226zM424 930q14 14 22.5 19t21.5 5q17 0 27 -7.5t10 -16.5q0 -4 -4 -10l-4 -5l100 -136h-90l-59 98l-90 -98h-88z" />
    <glyph glyph-name="Atilde" unicode="&#xc3;" horiz-adv-x="662" 
d="M358 672q24 46 64 46q22 0 34.5 -9.5t12.5 -23.5q0 -8 -8 -22l120 -663h-88l-32 191h-269l-100 -191h-93zM453 261l-53 338l-173 -338h226zM281 813q12 37 41.5 61.5t62.5 24.5q24 0 40.5 -8t39.5 -24q13 -10 22 -15t18 -5q19 0 32 12t22 39l44 -24q-9 -39 -37 -63
t-63 -24q-21 0 -37 7.5t-36 21.5q-14 11 -25 16.5t-23 5.5q-36 0 -56 -51z" />
    <glyph glyph-name="Adieresis" unicode="&#xc4;" horiz-adv-x="662" 
d="M358 672q24 46 64 46q22 0 34.5 -9.5t12.5 -23.5q0 -8 -8 -22l120 -663h-88l-32 191h-269l-100 -191h-93zM453 261l-53 338l-173 -338h226zM296.5 792q-13.5 13 -13.5 33q0 26 21 46t48 20q21 0 34 -13t13 -33q0 -26 -20.5 -46t-46.5 -20q-22 0 -35.5 13zM500 792.5
q-14 13.5 -14 33.5q0 25 21.5 45t48.5 20q20 0 33.5 -13t13.5 -33q0 -26 -20.5 -46t-46.5 -20q-22 0 -36 13.5z" />
    <glyph glyph-name="Aring" unicode="&#xc5;" horiz-adv-x="662" 
d="M358 672q24 46 64 46q22 0 34.5 -9.5t12.5 -23.5q0 -8 -8 -22l120 -663h-88l-32 191h-269l-100 -191h-93zM453 261l-53 338l-173 -338h226zM362 773q-27 21 -27 59q0 49 37 83.5t90 34.5q39 0 66 -21t27 -59q0 -32 -17 -59t-46.5 -43t-64.5 -16q-38 0 -65 21zM479.5 819
q17.5 17 17.5 43q0 19 -12.5 29t-30.5 10q-26 0 -43.5 -17.5t-17.5 -42.5q0 -18 12 -28.5t31 -10.5q26 0 43.5 17z" />
    <glyph glyph-name="AE" unicode="&#xc6;" horiz-adv-x="810" 
d="M421 700h417l-13 -74h-290l-39 -223h206l-13 -72h-206l-45 -257h299l-13 -74h-381l34 191h-167l-113 -191h-93zM389 261l62 349l-204 -349h142z" />
    <glyph glyph-name="Ccedilla" unicode="&#xc7;" horiz-adv-x="621" 
d="M549 689.5q49 -20.5 78 -57.5l-47 -63q-27 34 -63 51t-90 17q-79 0 -142.5 -47t-100 -130.5t-36.5 -190.5q0 -98 48.5 -152t139.5 -54q98 0 167 65l45 -50q-41 -38 -93.5 -60t-107.5 -27l-36 -44q64 -9 64 -61q0 -46 -33.5 -74.5t-87.5 -28.5q-24 0 -48.5 8.5t-44.5 23.5
l32 46q30 -23 66 -23q21 0 34 12t13 31q0 15 -11 22t-31 7q-10 0 -16 -1l-17 22l49 61q-101 13 -161 85t-60 184q0 127 47.5 229t134 161t199.5 59q60 0 109 -20.5z" />
    <glyph glyph-name="Egrave" unicode="&#xc8;" horiz-adv-x="523" 
d="M138 609q1 5 1 13q0 16 -9 27.5t-9 16.5t2 8q7 14 23 29t32 15q7 0 14.5 -5t12.5 -13h346l-13 -74h-311l-39 -223h227l-13 -72h-227l-45 -257h320l-13 -74h-406zM255 952h95l53 -179h-69z" />
    <glyph glyph-name="Eacute" unicode="&#xc9;" horiz-adv-x="523" 
d="M138 609q1 5 1 13q0 16 -9 27.5t-9 16.5t2 8q7 14 23 29t32 15q7 0 14.5 -5t12.5 -13h346l-13 -74h-311l-39 -223h227l-13 -72h-227l-45 -257h320l-13 -74h-406zM449 952h94l-143 -179h-69z" />
    <glyph glyph-name="Ecircumflex" unicode="&#xca;" horiz-adv-x="523" 
d="M138 609q1 5 1 13q0 16 -9 27.5t-9 16.5t2 8q7 14 23 29t32 15q7 0 14.5 -5t12.5 -13h346l-13 -74h-311l-39 -223h227l-13 -72h-227l-45 -257h320l-13 -74h-406zM361 930q14 14 22.5 19t21.5 5q17 0 27 -7.5t10 -16.5q0 -4 -4 -10l-4 -5l100 -136h-90l-59 98l-90 -98h-88
z" />
    <glyph glyph-name="Edieresis" unicode="&#xcb;" horiz-adv-x="523" 
d="M138 609q1 5 1 13q0 16 -9 27.5t-9 16.5t2 8q7 14 23 29t32 15q7 0 14.5 -5t12.5 -13h346l-13 -74h-311l-39 -223h227l-13 -72h-227l-45 -257h320l-13 -74h-406zM233.5 792q-13.5 13 -13.5 33q0 26 21 46t48 20q21 0 34 -13t13 -33q0 -26 -20.5 -46t-46.5 -20
q-22 0 -35.5 13zM437 792.5q-14 13.5 -14 33.5q0 25 21.5 45t48.5 20q20 0 33.5 -13t13.5 -33q0 -26 -20.5 -46t-46.5 -20q-22 0 -36 13.5z" />
    <glyph glyph-name="Igrave" unicode="&#xcc;" horiz-adv-x="287" 
d="M181 700h86l-123 -700h-86zM124 952h95l53 -179h-69z" />
    <glyph glyph-name="Iacute" unicode="&#xcd;" horiz-adv-x="287" 
d="M181 700h86l-123 -700h-86zM318 952h94l-143 -179h-69z" />
    <glyph glyph-name="Icircumflex" unicode="&#xce;" horiz-adv-x="287" 
d="M181 700h86l-123 -700h-86zM230 930q14 14 22.5 19t21.5 5q17 0 27 -7.5t10 -16.5q0 -4 -4 -10l-4 -5l100 -136h-90l-59 98l-90 -98h-88z" />
    <glyph glyph-name="Idieresis" unicode="&#xcf;" horiz-adv-x="287" 
d="M181 700h86l-123 -700h-86zM102.5 792q-13.5 13 -13.5 33q0 26 21 46t48 20q21 0 34 -13t13 -33q0 -26 -20.5 -46t-46.5 -20q-22 0 -35.5 13zM306 792.5q-14 13.5 -14 33.5q0 25 21.5 45t48.5 20q20 0 33.5 -13t13.5 -33q0 -26 -20.5 -46t-46.5 -20q-22 0 -36 13.5z" />
    <glyph glyph-name="Eth" unicode="&#xd0;" horiz-adv-x="671" 
d="M579 631.5q73 -68.5 73 -191.5q0 -130 -46.5 -229.5t-133 -155t-203.5 -55.5h-200l56 316h-66l12 66h65l40 227q1 5 1 13q0 16 -8.5 27t-8.5 16q0 6 9 19t22 23.5t26 10.5t27 -18h137q125 0 198 -68.5zM427.5 118.5q65.5 44.5 101 125.5t35.5 188q0 99 -45.5 146.5
t-147.5 47.5h-106l-43 -244h162l-12 -66h-161l-43 -242h108q86 0 151.5 44.5z" />
    <glyph glyph-name="Ntilde" unicode="&#xd1;" horiz-adv-x="613" 
d="M135 619q1 4 1 10q0 12 -7 22.5t-7 15.5t3 12q7 16 23.5 27.5t33.5 11.5q24 0 34 -22l238 -538l95 542h86l-123 -700h-74l-233 525l-93 -525h-86zM259 813q12 37 41.5 61.5t62.5 24.5q24 0 40.5 -8t39.5 -24q13 -10 22 -15t18 -5q19 0 32 12t22 39l44 -24q-9 -39 -37 -63
t-63 -24q-21 0 -37 7.5t-36 21.5q-14 11 -25 16.5t-23 5.5q-36 0 -56 -51z" />
    <glyph glyph-name="Ograve" unicode="&#xd2;" horiz-adv-x="664" 
d="M116.5 59.5q-58.5 69.5 -58.5 190.5q0 132 44.5 237t125.5 164t185 59q113 0 173 -70t60 -190q0 -132 -45.5 -237t-127.5 -164t-187 -59q-111 0 -169.5 69.5zM431.5 113q58.5 50 92 137.5t33.5 197.5q0 189 -157 189q-73 0 -131 -50t-90.5 -138t-32.5 -197q0 -91 36 -140
t117 -49q74 0 132.5 50zM312 952h95l53 -179h-69z" />
    <glyph glyph-name="Oacute" unicode="&#xd3;" horiz-adv-x="664" 
d="M116.5 59.5q-58.5 69.5 -58.5 190.5q0 132 44.5 237t125.5 164t185 59q113 0 173 -70t60 -190q0 -132 -45.5 -237t-127.5 -164t-187 -59q-111 0 -169.5 69.5zM431.5 113q58.5 50 92 137.5t33.5 197.5q0 189 -157 189q-73 0 -131 -50t-90.5 -138t-32.5 -197q0 -91 36 -140
t117 -49q74 0 132.5 50zM506 952h94l-143 -179h-69z" />
    <glyph glyph-name="Ocircumflex" unicode="&#xd4;" horiz-adv-x="664" 
d="M116.5 59.5q-58.5 69.5 -58.5 190.5q0 132 44.5 237t125.5 164t185 59q113 0 173 -70t60 -190q0 -132 -45.5 -237t-127.5 -164t-187 -59q-111 0 -169.5 69.5zM431.5 113q58.5 50 92 137.5t33.5 197.5q0 189 -157 189q-73 0 -131 -50t-90.5 -138t-32.5 -197q0 -91 36 -140
t117 -49q74 0 132.5 50zM418 930q14 14 22.5 19t21.5 5q17 0 27 -7.5t10 -16.5q0 -4 -4 -10l-4 -5l100 -136h-90l-59 98l-90 -98h-88z" />
    <glyph glyph-name="Otilde" unicode="&#xd5;" horiz-adv-x="664" 
d="M116.5 59.5q-58.5 69.5 -58.5 190.5q0 132 44.5 237t125.5 164t185 59q113 0 173 -70t60 -190q0 -132 -45.5 -237t-127.5 -164t-187 -59q-111 0 -169.5 69.5zM431.5 113q58.5 50 92 137.5t33.5 197.5q0 189 -157 189q-73 0 -131 -50t-90.5 -138t-32.5 -197q0 -91 36 -140
t117 -49q74 0 132.5 50zM275 813q12 37 41.5 61.5t62.5 24.5q24 0 40.5 -8t39.5 -24q13 -10 22 -15t18 -5q19 0 32 12t22 39l44 -24q-9 -39 -37 -63t-63 -24q-21 0 -37 7.5t-36 21.5q-14 11 -25 16.5t-23 5.5q-36 0 -56 -51z" />
    <glyph glyph-name="Odieresis" unicode="&#xd6;" horiz-adv-x="664" 
d="M116.5 59.5q-58.5 69.5 -58.5 190.5q0 132 44.5 237t125.5 164t185 59q113 0 173 -70t60 -190q0 -132 -45.5 -237t-127.5 -164t-187 -59q-111 0 -169.5 69.5zM431.5 113q58.5 50 92 137.5t33.5 197.5q0 189 -157 189q-73 0 -131 -50t-90.5 -138t-32.5 -197q0 -91 36 -140
t117 -49q74 0 132.5 50zM290.5 792q-13.5 13 -13.5 33q0 26 21 46t48 20q21 0 34 -13t13 -33q0 -26 -20.5 -46t-46.5 -20q-22 0 -35.5 13zM494 792.5q-14 13.5 -14 33.5q0 25 21.5 45t48.5 20q20 0 33.5 -13t13.5 -33q0 -26 -20.5 -46t-46.5 -20q-22 0 -36 13.5z" />
    <glyph glyph-name="multiply" unicode="&#xd7;" horiz-adv-x="524" 
d="M54 147l164 138l-115 138l62 52l115 -137l161 137l44 -52l-162 -138l113 -138l-62 -52l-113 138l-163 -138z" />
    <glyph glyph-name="Oslash" unicode="&#xd8;" horiz-adv-x="664" 
d="M588 638q58 -70 58 -188q0 -132 -45.5 -237t-127.5 -164t-187 -59q-85 0 -141 42l-75 -103l-41 25l82 112q-53 68 -53 184q0 132 44.5 237t125.5 164t185 59q84 0 139 -40l74 101l41 -25zM165 141l339 463q-39 33 -104 33q-73 0 -131 -50t-90.5 -138t-32.5 -197
q0 -67 19 -111zM534 564l-340 -465q38 -36 105 -36q74 0 132.5 50t92 137.5t33.5 197.5q0 73 -23 116z" />
    <glyph glyph-name="Ugrave" unicode="&#xd9;" horiz-adv-x="632" 
d="M111.5 45.5q-59.5 55.5 -59.5 146.5q0 22 5 52l80 456h86l-81 -462q-5 -28 -5 -48q0 -63 38 -95t111 -32q82 0 136.5 44.5t69.5 130.5l81 462h86l-80 -456q-22 -126 -99.5 -190t-204.5 -64q-104 0 -163.5 55.5zM298 952h95l53 -179h-69z" />
    <glyph glyph-name="Uacute" unicode="&#xda;" horiz-adv-x="632" 
d="M111.5 45.5q-59.5 55.5 -59.5 146.5q0 22 5 52l80 456h86l-81 -462q-5 -28 -5 -48q0 -63 38 -95t111 -32q82 0 136.5 44.5t69.5 130.5l81 462h86l-80 -456q-22 -126 -99.5 -190t-204.5 -64q-104 0 -163.5 55.5zM492 952h94l-143 -179h-69z" />
    <glyph glyph-name="Ucircumflex" unicode="&#xdb;" horiz-adv-x="632" 
d="M111.5 45.5q-59.5 55.5 -59.5 146.5q0 22 5 52l80 456h86l-81 -462q-5 -28 -5 -48q0 -63 38 -95t111 -32q82 0 136.5 44.5t69.5 130.5l81 462h86l-80 -456q-22 -126 -99.5 -190t-204.5 -64q-104 0 -163.5 55.5zM404 930q14 14 22.5 19t21.5 5q17 0 27 -7.5t10 -16.5
q0 -4 -4 -10l-4 -5l100 -136h-90l-59 98l-90 -98h-88z" />
    <glyph glyph-name="Udieresis" unicode="&#xdc;" horiz-adv-x="632" 
d="M111.5 45.5q-59.5 55.5 -59.5 146.5q0 22 5 52l80 456h86l-81 -462q-5 -28 -5 -48q0 -63 38 -95t111 -32q82 0 136.5 44.5t69.5 130.5l81 462h86l-80 -456q-22 -126 -99.5 -190t-204.5 -64q-104 0 -163.5 55.5zM276.5 792q-13.5 13 -13.5 33q0 26 21 46t48 20
q21 0 34 -13t13 -33q0 -26 -20.5 -46t-46.5 -20q-22 0 -35.5 13zM480 792.5q-14 13.5 -14 33.5q0 25 21.5 45t48.5 20q20 0 33.5 -13t13.5 -33q0 -26 -20.5 -46t-46.5 -20q-22 0 -36 13.5z" />
    <glyph glyph-name="Yacute" unicode="&#xdd;" horiz-adv-x="631" 
d="M281 271l-154 429h90l116 -350l239 350h96l-305 -429l-47 -271h-82zM492 952h94l-143 -179h-69z" />
    <glyph glyph-name="Thorn" unicode="&#xde;" horiz-adv-x="580" 
d="M152 700h86l-23 -132h119q66 0 116.5 -22.5t78.5 -63t28 -94.5q0 -121 -78.5 -188.5t-221.5 -67.5h-119l-23 -132h-86zM267 206q95 0 148 47t53 130q0 111 -150 111h-116l-51 -288h116z" />
    <glyph glyph-name="germandbls" unicode="&#xdf;" horiz-adv-x="592" 
d="M106 510q17 95 83.5 149.5t173.5 54.5q60 0 105.5 -20t70.5 -55t25 -78q0 -72 -42.5 -122.5t-112.5 -64.5v-1q62 -13 96.5 -54t34.5 -100q0 -67 -29.5 -119t-85.5 -81t-131 -29q-36 0 -72.5 6t-62.5 17l34 66q40 -20 108 -20q65 0 107.5 40t42.5 107q0 65 -42 100
t-118 35h-37l12 69h37q80 0 126 38t46 105q0 42 -30.5 67t-88.5 25q-68 0 -111 -34.5t-54 -98.5l-137 -762h-85z" />
    <glyph glyph-name="agrave" unicode="&#xe0;" horiz-adv-x="566" 
d="M88 43q-47 53 -47 136q0 88 35 160.5t96.5 114t136.5 41.5q98 0 139 -80l12 70h82l-63 -360q-6 -33 -6 -56q0 -28 10 -51l-74 -28q-15 24 -15 60q0 6 2 24l-3 1q-36 -41 -82 -63t-97 -22q-79 0 -126 53zM355 105.5q47 45.5 59 115.5l7 42q3 17 3 32q0 55 -30.5 92.5
t-89.5 37.5q-49 0 -89.5 -31.5t-64 -86.5t-23.5 -121q0 -59 27.5 -92.5t82.5 -33.5q71 0 118 45.5zM221 737h95l53 -179h-69z" />
    <glyph glyph-name="aacute" unicode="&#xe1;" horiz-adv-x="566" 
d="M88 43q-47 53 -47 136q0 88 35 160.5t96.5 114t136.5 41.5q98 0 139 -80l12 70h82l-63 -360q-6 -33 -6 -56q0 -28 10 -51l-74 -28q-15 24 -15 60q0 6 2 24l-3 1q-36 -41 -82 -63t-97 -22q-79 0 -126 53zM355 105.5q47 45.5 59 115.5l7 42q3 17 3 32q0 55 -30.5 92.5
t-89.5 37.5q-49 0 -89.5 -31.5t-64 -86.5t-23.5 -121q0 -59 27.5 -92.5t82.5 -33.5q71 0 118 45.5zM415 737h94l-143 -179h-69z" />
    <glyph glyph-name="acircumflex" unicode="&#xe2;" horiz-adv-x="566" 
d="M88 43q-47 53 -47 136q0 88 35 160.5t96.5 114t136.5 41.5q98 0 139 -80l12 70h82l-63 -360q-6 -33 -6 -56q0 -28 10 -51l-74 -28q-15 24 -15 60q0 6 2 24l-3 1q-36 -41 -82 -63t-97 -22q-79 0 -126 53zM355 105.5q47 45.5 59 115.5l7 42q3 17 3 32q0 55 -30.5 92.5
t-89.5 37.5q-49 0 -89.5 -31.5t-64 -86.5t-23.5 -121q0 -59 27.5 -92.5t82.5 -33.5q71 0 118 45.5zM327 715q14 14 22.5 19t21.5 5q17 0 27 -7.5t10 -16.5q0 -4 -4 -10l-4 -5l100 -136h-90l-59 98l-90 -98h-88z" />
    <glyph glyph-name="atilde" unicode="&#xe3;" horiz-adv-x="566" 
d="M88 43q-47 53 -47 136q0 88 35 160.5t96.5 114t136.5 41.5q98 0 139 -80l12 70h82l-63 -360q-6 -33 -6 -56q0 -28 10 -51l-74 -28q-15 24 -15 60q0 6 2 24l-3 1q-36 -41 -82 -63t-97 -22q-79 0 -126 53zM355 105.5q47 45.5 59 115.5l7 42q3 17 3 32q0 55 -30.5 92.5
t-89.5 37.5q-49 0 -89.5 -31.5t-64 -86.5t-23.5 -121q0 -59 27.5 -92.5t82.5 -33.5q71 0 118 45.5zM184 598q12 37 41.5 61.5t62.5 24.5q24 0 40.5 -8t39.5 -24q13 -10 22 -15t18 -5q19 0 32 12t22 39l44 -24q-9 -39 -37 -63t-63 -24q-21 0 -37 7.5t-36 21.5
q-14 11 -25 16.5t-23 5.5q-36 0 -56 -51z" />
    <glyph glyph-name="adieresis" unicode="&#xe4;" horiz-adv-x="566" 
d="M88 43q-47 53 -47 136q0 88 35 160.5t96.5 114t136.5 41.5q98 0 139 -80l12 70h82l-63 -360q-6 -33 -6 -56q0 -28 10 -51l-74 -28q-15 24 -15 60q0 6 2 24l-3 1q-36 -41 -82 -63t-97 -22q-79 0 -126 53zM355 105.5q47 45.5 59 115.5l7 42q3 17 3 32q0 55 -30.5 92.5
t-89.5 37.5q-49 0 -89.5 -31.5t-64 -86.5t-23.5 -121q0 -59 27.5 -92.5t82.5 -33.5q71 0 118 45.5zM199.5 577q-13.5 13 -13.5 33q0 26 21 46t48 20q21 0 34 -13t13 -33q0 -26 -20.5 -46t-46.5 -20q-22 0 -35.5 13zM403 577.5q-14 13.5 -14 33.5q0 25 21.5 45t48.5 20
q20 0 33.5 -13t13.5 -33q0 -26 -20.5 -46t-46.5 -20q-22 0 -36 13.5z" />
    <glyph glyph-name="aring" unicode="&#xe5;" horiz-adv-x="566" 
d="M88 43q-47 53 -47 136q0 88 35 160.5t96.5 114t136.5 41.5q98 0 139 -80l12 70h82l-63 -360q-6 -33 -6 -56q0 -28 10 -51l-74 -28q-15 24 -15 60q0 6 2 24l-3 1q-36 -41 -82 -63t-97 -22q-79 0 -126 53zM355 105.5q47 45.5 59 115.5l7 42q3 17 3 32q0 55 -30.5 92.5
t-89.5 37.5q-49 0 -89.5 -31.5t-64 -86.5t-23.5 -121q0 -59 27.5 -92.5t82.5 -33.5q71 0 118 45.5zM265 558q-27 21 -27 59q0 49 37 83.5t90 34.5q39 0 66 -21t27 -59q0 -32 -17 -59t-46.5 -43t-64.5 -16q-38 0 -65 21zM382.5 604q17.5 17 17.5 43q0 19 -12.5 29t-30.5 10
q-26 0 -43.5 -17.5t-17.5 -42.5q0 -18 12 -28.5t31 -10.5q26 0 43.5 17z" />
    <glyph glyph-name="ae" unicode="&#xe6;" horiz-adv-x="886" 
d="M68 23.5q-41 33.5 -41 91.5q0 54 27.5 94.5t77 63t114.5 22.5h152l3 15q2 14 2 20q0 41 -29.5 68t-79.5 27q-85 0 -157 -53l-35 51q41 33 96 52.5t111 19.5q60 0 96 -25t53 -72h1q71 97 205 97q97 0 142 -49.5t45 -129.5q0 -49 -11 -72.5t-25 -29t-35 -5.5h-311l-3 -14
q-3 -15 -3 -28q0 -48 34.5 -77t96.5 -29q86 0 153 53l35 -52q-42 -34 -93 -53t-107 -19q-66 0 -112.5 31.5t-58.5 79.5h-1q-38 -50 -95.5 -80.5t-130.5 -30.5q-75 0 -116 33.5zM766 277q4 28 4 39q0 52 -30 80.5t-90 28.5q-45 0 -81.5 -19.5t-58.5 -49.5t-27 -61l-3 -18h286
zM288.5 79.5q38.5 18.5 62.5 48.5t30 64l6 35h-157q-55 0 -86.5 -27t-31.5 -75q0 -64 91 -64q47 0 85.5 18.5z" />
    <glyph glyph-name="ccedilla" unicode="&#xe7;" horiz-adv-x="515" 
d="M425.5 479q42.5 -16 66.5 -43l-43 -60q-18 21 -51 34.5t-72 13.5q-58 0 -103 -29t-69.5 -81.5t-24.5 -118.5q0 -65 35.5 -99.5t104.5 -34.5q34 0 69.5 12t61.5 35l39 -50q-31 -27 -73.5 -44.5t-86.5 -22.5l-36 -44q64 -9 64 -61q0 -46 -33.5 -74.5t-87.5 -28.5
q-24 0 -48.5 8.5t-44.5 23.5l32 46q30 -23 66 -23q21 0 34 12t13 31q0 15 -11 22t-31 7q-10 0 -16 -1l-17 22l49 62q-80 11 -125 62.5t-45 131.5q0 88 37 158.5t104 110t152 39.5q48 0 90.5 -16z" />
    <glyph glyph-name="egrave" unicode="&#xe8;" horiz-adv-x="543" 
d="M98 42.5q-55 52.5 -55 138.5q0 94 33.5 165t95 110t142.5 39q64 0 107.5 -27.5t64 -71t20.5 -91.5q0 -61 -19 -80t-51 -19h-308q-3 -16 -3 -33q0 -52 33.5 -82t95.5 -30q84 0 149 50l35 -49q-38 -34 -87.5 -53t-106.5 -19q-91 0 -146 52.5zM421 275q3 17 3 32
q0 52 -30.5 85t-88.5 33q-46 0 -81 -22t-56.5 -56.5t-27.5 -71.5h281zM220 737h95l53 -179h-69z" />
    <glyph glyph-name="eacute" unicode="&#xe9;" horiz-adv-x="543" 
d="M98 42.5q-55 52.5 -55 138.5q0 94 33.5 165t95 110t142.5 39q64 0 107.5 -27.5t64 -71t20.5 -91.5q0 -61 -19 -80t-51 -19h-308q-3 -16 -3 -33q0 -52 33.5 -82t95.5 -30q84 0 149 50l35 -49q-38 -34 -87.5 -53t-106.5 -19q-91 0 -146 52.5zM421 275q3 17 3 32
q0 52 -30.5 85t-88.5 33q-46 0 -81 -22t-56.5 -56.5t-27.5 -71.5h281zM414 737h94l-143 -179h-69z" />
    <glyph glyph-name="ecircumflex" unicode="&#xea;" horiz-adv-x="543" 
d="M98 42.5q-55 52.5 -55 138.5q0 94 33.5 165t95 110t142.5 39q64 0 107.5 -27.5t64 -71t20.5 -91.5q0 -61 -19 -80t-51 -19h-308q-3 -16 -3 -33q0 -52 33.5 -82t95.5 -30q84 0 149 50l35 -49q-38 -34 -87.5 -53t-106.5 -19q-91 0 -146 52.5zM421 275q3 17 3 32
q0 52 -30.5 85t-88.5 33q-46 0 -81 -22t-56.5 -56.5t-27.5 -71.5h281zM326 715q14 14 22.5 19t21.5 5q17 0 27 -7.5t10 -16.5q0 -4 -4 -10l-4 -5l100 -136h-90l-59 98l-90 -98h-88z" />
    <glyph glyph-name="edieresis" unicode="&#xeb;" horiz-adv-x="543" 
d="M98 42.5q-55 52.5 -55 138.5q0 94 33.5 165t95 110t142.5 39q64 0 107.5 -27.5t64 -71t20.5 -91.5q0 -61 -19 -80t-51 -19h-308q-3 -16 -3 -33q0 -52 33.5 -82t95.5 -30q84 0 149 50l35 -49q-38 -34 -87.5 -53t-106.5 -19q-91 0 -146 52.5zM421 275q3 17 3 32
q0 52 -30.5 85t-88.5 33q-46 0 -81 -22t-56.5 -56.5t-27.5 -71.5h281zM198.5 577q-13.5 13 -13.5 33q0 26 21 46t48 20q21 0 34 -13t13 -33q0 -26 -20.5 -46t-46.5 -20q-22 0 -35.5 13zM402 577.5q-14 13.5 -14 33.5q0 25 21.5 45t48.5 20q20 0 33.5 -13t13.5 -33
q0 -26 -20.5 -46t-46.5 -20q-22 0 -36 13.5z" />
    <glyph glyph-name="igrave" unicode="&#xec;" horiz-adv-x="244" 
d="M124 485h83l-86 -485h-83zM65 737h95l53 -179h-69z" />
    <glyph glyph-name="iacute" unicode="&#xed;" horiz-adv-x="244" 
d="M124 485h83l-86 -485h-83zM259 737h94l-143 -179h-69z" />
    <glyph glyph-name="icircumflex" unicode="&#xee;" horiz-adv-x="244" 
d="M124 485h83l-86 -485h-83zM171 715q14 14 22.5 19t21.5 5q17 0 27 -7.5t10 -16.5q0 -4 -4 -10l-4 -5l100 -136h-90l-59 98l-90 -98h-88z" />
    <glyph glyph-name="idieresis" unicode="&#xef;" horiz-adv-x="244" 
d="M124 485h83l-86 -485h-83zM43.5 577q-13.5 13 -13.5 33q0 26 21 46t48 20q21 0 34 -13t13 -33q0 -26 -20.5 -46t-46.5 -20q-22 0 -35.5 13zM247 577.5q-14 13.5 -14 33.5q0 25 21.5 45t48.5 20q20 0 33.5 -13t13.5 -33q0 -26 -20.5 -46t-46.5 -20q-22 0 -36 13.5z" />
    <glyph glyph-name="eth" unicode="&#xf0;" horiz-adv-x="626" 
d="M149 17q-52 27 -81 74t-29 105q0 89 39 160t111.5 111.5t169.5 40.5q76 0 124 -42l4 2q-17 45 -41 78.5t-63 64.5l-156 -66l-18 63l115 48q-40 31 -105 54l42 63q48 -18 82 -36t67 -43l158 68l19 -63l-121 -52q64 -59 98 -137t34 -166q0 -111 -44 -191t-119 -121.5
t-168 -41.5q-66 0 -118 27zM395 92.5q51 29.5 80.5 83t29.5 123.5q0 66 -42 101t-115 35q-66 0 -116 -29.5t-77 -81.5t-27 -118q0 -67 40 -105t112 -38q64 0 115 29.5z" />
    <glyph glyph-name="ntilde" unicode="&#xf1;" horiz-adv-x="546" 
d="M367 67q0 22 4 42l34 190q4 21 4 43q0 42 -21 62t-67 20q-40 0 -75 -22t-58 -59t-31 -79l-47 -264h-84l64 363q5 30 5 50q0 28 -9 53l80 29q11 -29 11 -67q0 -13 -1 -19q34 41 81.5 63.5t96.5 22.5q68 0 104 -37t36 -105q0 -22 -5 -55l-34 -189q-3 -16 -3 -32
q0 -33 11 -57l-81 -30q-15 40 -15 77zM182 598q12 37 41.5 61.5t62.5 24.5q24 0 40.5 -8t39.5 -24q13 -10 22 -15t18 -5q19 0 32 12t22 39l44 -24q-9 -39 -37 -63t-63 -24q-21 0 -37 7.5t-36 21.5q-14 11 -25 16.5t-23 5.5q-36 0 -56 -51z" />
    <glyph glyph-name="ograve" unicode="&#xf2;" horiz-adv-x="548" 
d="M94.5 43q-51.5 53 -51.5 139q0 94 33.5 164.5t96 109.5t147.5 39t136.5 -53t51.5 -139q0 -94 -33 -164.5t-95.5 -109.5t-148.5 -39q-85 0 -136.5 53zM336.5 90.5q40.5 29.5 62.5 82.5t22 123q0 61 -31 94.5t-83 33.5q-53 0 -93 -29t-62 -82.5t-22 -122.5q0 -65 30 -97
t83 -32t93.5 29.5zM219 737h95l53 -179h-69z" />
    <glyph glyph-name="oacute" unicode="&#xf3;" horiz-adv-x="548" 
d="M94.5 43q-51.5 53 -51.5 139q0 94 33.5 164.5t96 109.5t147.5 39t136.5 -53t51.5 -139q0 -94 -33 -164.5t-95.5 -109.5t-148.5 -39q-85 0 -136.5 53zM336.5 90.5q40.5 29.5 62.5 82.5t22 123q0 61 -31 94.5t-83 33.5q-53 0 -93 -29t-62 -82.5t-22 -122.5q0 -65 30 -97
t83 -32t93.5 29.5zM413 737h94l-143 -179h-69z" />
    <glyph glyph-name="ocircumflex" unicode="&#xf4;" horiz-adv-x="548" 
d="M94.5 43q-51.5 53 -51.5 139q0 94 33.5 164.5t96 109.5t147.5 39t136.5 -53t51.5 -139q0 -94 -33 -164.5t-95.5 -109.5t-148.5 -39q-85 0 -136.5 53zM336.5 90.5q40.5 29.5 62.5 82.5t22 123q0 61 -31 94.5t-83 33.5q-53 0 -93 -29t-62 -82.5t-22 -122.5q0 -65 30 -97
t83 -32t93.5 29.5zM325 715q14 14 22.5 19t21.5 5q17 0 27 -7.5t10 -16.5q0 -4 -4 -10l-4 -5l100 -136h-90l-59 98l-90 -98h-88z" />
    <glyph glyph-name="otilde" unicode="&#xf5;" horiz-adv-x="548" 
d="M94.5 43q-51.5 53 -51.5 139q0 94 33.5 164.5t96 109.5t147.5 39t136.5 -53t51.5 -139q0 -94 -33 -164.5t-95.5 -109.5t-148.5 -39q-85 0 -136.5 53zM336.5 90.5q40.5 29.5 62.5 82.5t22 123q0 61 -31 94.5t-83 33.5q-53 0 -93 -29t-62 -82.5t-22 -122.5q0 -65 30 -97
t83 -32t93.5 29.5zM182 598q12 37 41.5 61.5t62.5 24.5q24 0 40.5 -8t39.5 -24q13 -10 22 -15t18 -5q19 0 32 12t22 39l44 -24q-9 -39 -37 -63t-63 -24q-21 0 -37 7.5t-36 21.5q-14 11 -25 16.5t-23 5.5q-36 0 -56 -51z" />
    <glyph glyph-name="odieresis" unicode="&#xf6;" horiz-adv-x="548" 
d="M94.5 43q-51.5 53 -51.5 139q0 94 33.5 164.5t96 109.5t147.5 39t136.5 -53t51.5 -139q0 -94 -33 -164.5t-95.5 -109.5t-148.5 -39q-85 0 -136.5 53zM336.5 90.5q40.5 29.5 62.5 82.5t22 123q0 61 -31 94.5t-83 33.5q-53 0 -93 -29t-62 -82.5t-22 -122.5q0 -65 30 -97
t83 -32t93.5 29.5zM197.5 577q-13.5 13 -13.5 33q0 26 21 46t48 20q21 0 34 -13t13 -33q0 -26 -20.5 -46t-46.5 -20q-22 0 -35.5 13zM401 577.5q-14 13.5 -14 33.5q0 25 21.5 45t48.5 20q20 0 33.5 -13t13.5 -33q0 -26 -20.5 -46t-46.5 -20q-22 0 -36 13.5z" />
    <glyph glyph-name="divide" unicode="&#xf7;" horiz-adv-x="524" 
d="M255.5 395q-12.5 12 -12.5 31q0 25 17 41t44 16q19 0 31 -11.5t12 -29.5q0 -26 -17 -42.5t-43 -16.5q-19 0 -31.5 12zM62 320h428l-13 -70h-428zM202 88.5q-12 11.5 -12 29.5q0 26 17 42.5t43 16.5q20 0 32 -11.5t12 -30.5q0 -26 -17 -42t-44 -16q-19 0 -31 11.5z" />
    <glyph glyph-name="oslash" unicode="&#xf8;" horiz-adv-x="548" 
d="M493.5 384.5q14.5 -36.5 14.5 -81.5q0 -94 -33 -164.5t-95.5 -109.5t-148.5 -39q-55 0 -96 23l-61 -84l-41 25l64 87q-54 52 -54 141q0 94 33.5 164.5t96 109.5t147.5 39q53 0 93 -21l60 82l41 -25l-62 -85q27 -25 41.5 -61.5zM147 111l219 299q-26 14 -59 14
q-53 0 -93 -29t-62 -82.5t-22 -122.5q0 -48 17 -79zM336.5 90.5q40.5 29.5 62.5 82.5t22 123q0 49 -20 80l-220 -300q27 -15 62 -15q53 0 93.5 29.5z" />
    <glyph glyph-name="ugrave" unicode="&#xf9;" horiz-adv-x="532" 
d="M83 32q-41 42 -41 111q0 22 4 42l54 300h84l-53 -299q-4 -20 -4 -41q0 -41 23 -62.5t73 -21.5q60 0 101.5 45t52.5 109l48 270h84l-64 -363q-5 -30 -5 -51q0 -28 9 -52l-80 -29q-13 37 -10 86q-68 -86 -166 -86q-69 0 -110 42zM210 737h95l53 -179h-69z" />
    <glyph glyph-name="uacute" unicode="&#xfa;" horiz-adv-x="532" 
d="M83 32q-41 42 -41 111q0 22 4 42l54 300h84l-53 -299q-4 -20 -4 -41q0 -41 23 -62.5t73 -21.5q60 0 101.5 45t52.5 109l48 270h84l-64 -363q-5 -30 -5 -51q0 -28 9 -52l-80 -29q-13 37 -10 86q-68 -86 -166 -86q-69 0 -110 42zM404 737h94l-143 -179h-69z" />
    <glyph glyph-name="ucircumflex" unicode="&#xfb;" horiz-adv-x="532" 
d="M83 32q-41 42 -41 111q0 22 4 42l54 300h84l-53 -299q-4 -20 -4 -41q0 -41 23 -62.5t73 -21.5q60 0 101.5 45t52.5 109l48 270h84l-64 -363q-5 -30 -5 -51q0 -28 9 -52l-80 -29q-13 37 -10 86q-68 -86 -166 -86q-69 0 -110 42zM316 715q14 14 22.5 19t21.5 5
q17 0 27 -7.5t10 -16.5q0 -4 -4 -10l-4 -5l100 -136h-90l-59 98l-90 -98h-88z" />
    <glyph glyph-name="udieresis" unicode="&#xfc;" horiz-adv-x="532" 
d="M83 32q-41 42 -41 111q0 22 4 42l54 300h84l-53 -299q-4 -20 -4 -41q0 -41 23 -62.5t73 -21.5q60 0 101.5 45t52.5 109l48 270h84l-64 -363q-5 -30 -5 -51q0 -28 9 -52l-80 -29q-13 37 -10 86q-68 -86 -166 -86q-69 0 -110 42zM188.5 577q-13.5 13 -13.5 33q0 26 21 46
t48 20q21 0 34 -13t13 -33q0 -26 -20.5 -46t-46.5 -20q-22 0 -35.5 13zM392 577.5q-14 13.5 -14 33.5q0 25 21.5 45t48.5 20q20 0 33.5 -13t13.5 -33q0 -26 -20.5 -46t-46.5 -20q-22 0 -36 13.5z" />
    <glyph glyph-name="yacute" unicode="&#xfd;" horiz-adv-x="568" 
d="M14 -160q140 48 195 186l-120 459h94l82 -371l203 371h99l-287 -498q-49 -86 -107.5 -136.5t-145.5 -80.5zM423 737h94l-143 -179h-69z" />
    <glyph glyph-name="thorn" unicode="&#xfe;" horiz-adv-x="562" 
d="M143 704h84l-51 -287q32 36 76 57.5t94 21.5q83 0 130 -51.5t47 -136.5q0 -91 -33 -163t-94 -113t-142 -41q-49 0 -84 21t-55 58l-51 -289h-84zM349.5 91q40.5 30 63.5 84t23 122q0 61 -24.5 95t-85.5 34q-46 0 -84 -22.5t-62.5 -59t-31.5 -79.5l-7 -42q-3 -16 -3 -32
q0 -55 30.5 -92.5t88.5 -37.5q52 0 92.5 30z" />
    <glyph glyph-name="ydieresis" unicode="&#xff;" horiz-adv-x="568" 
d="M14 -160q140 48 195 186l-120 459h94l82 -371l203 371h99l-287 -498q-49 -86 -107.5 -136.5t-145.5 -80.5zM207.5 577q-13.5 13 -13.5 33q0 26 21 46t48 20q21 0 34 -13t13 -33q0 -26 -20.5 -46t-46.5 -20q-22 0 -35.5 13zM411 577.5q-14 13.5 -14 33.5q0 25 21.5 45
t48.5 20q20 0 33.5 -13t13.5 -33q0 -26 -20.5 -46t-46.5 -20q-22 0 -36 13.5z" />
    <glyph glyph-name="Amacron" unicode="&#x100;" horiz-adv-x="662" 
d="M358 672q24 46 64 46q22 0 34.5 -9.5t12.5 -23.5q0 -8 -8 -22l120 -663h-88l-32 191h-269l-100 -191h-93zM453 261l-53 338l-173 -338h226zM295 861h304l-12 -66h-304z" />
    <glyph glyph-name="amacron" unicode="&#x101;" horiz-adv-x="566" 
d="M88 43q-47 53 -47 136q0 88 35 160.5t96.5 114t136.5 41.5q98 0 139 -80l12 70h82l-63 -360q-6 -33 -6 -56q0 -28 10 -51l-74 -28q-15 24 -15 60q0 6 2 24l-3 1q-36 -41 -82 -63t-97 -22q-79 0 -126 53zM355 105.5q47 45.5 59 115.5l7 42q3 17 3 32q0 55 -30.5 92.5
t-89.5 37.5q-49 0 -89.5 -31.5t-64 -86.5t-23.5 -121q0 -59 27.5 -92.5t82.5 -33.5q71 0 118 45.5zM198 646h304l-12 -66h-304z" />
    <glyph glyph-name="Abreve" unicode="&#x102;" horiz-adv-x="662" 
d="M358 672q24 46 64 46q22 0 34.5 -9.5t12.5 -23.5q0 -8 -8 -22l120 -663h-88l-32 191h-269l-100 -191h-93zM453 261l-53 338l-173 -338h226zM344.5 793q-32.5 27 -32.5 77q0 18 4 35l2 9h73l-2 -9q-3 -15 -3 -27q0 -26 14.5 -39.5t39.5 -13.5q61 0 79 80l2 9h73l-2 -9
q-15 -66 -59 -102.5t-104 -36.5q-52 0 -84.5 27z" />
    <glyph glyph-name="abreve" unicode="&#x103;" horiz-adv-x="566" 
d="M88 43q-47 53 -47 136q0 88 35 160.5t96.5 114t136.5 41.5q98 0 139 -80l12 70h82l-63 -360q-6 -33 -6 -56q0 -28 10 -51l-74 -28q-15 24 -15 60q0 6 2 24l-3 1q-36 -41 -82 -63t-97 -22q-79 0 -126 53zM355 105.5q47 45.5 59 115.5l7 42q3 17 3 32q0 55 -30.5 92.5
t-89.5 37.5q-49 0 -89.5 -31.5t-64 -86.5t-23.5 -121q0 -59 27.5 -92.5t82.5 -33.5q71 0 118 45.5zM247.5 578q-32.5 27 -32.5 77q0 18 4 35l2 9h73l-2 -9q-3 -15 -3 -27q0 -26 14.5 -39.5t39.5 -13.5q61 0 79 80l2 9h73l-2 -9q-15 -66 -59 -102.5t-104 -36.5
q-52 0 -84.5 27z" />
    <glyph glyph-name="Aogonek" unicode="&#x104;" horiz-adv-x="662" 
d="M358 672q24 46 64 46q22 0 34.5 -9.5t12.5 -23.5q0 -8 -8 -22l120 -663h-88l-32 191h-269l-100 -191h-93zM453 261l-53 338l-173 -338h226zM421.5 -201.5q-24.5 20.5 -24.5 55.5q0 44 32 84.5t82 61.5h70q-49 -28 -81 -59.5t-32 -69.5q0 -16 11 -24.5t33 -8.5q23 0 55 17
l8 -50q-43 -27 -90 -27q-39 0 -63.5 20.5z" />
    <glyph glyph-name="aogonek" unicode="&#x105;" horiz-adv-x="566" 
d="M402 -41.5q-32 -31.5 -32 -69.5q0 -16 11 -24.5t33 -8.5q23 0 55 17l8 -50q-43 -27 -90 -27q-39 0 -63.5 20.5t-24.5 55.5q0 41 28 79t72 61q-4 13 -4 38q0 15 1 24l-3 1q-36 -41 -82 -63t-97 -22q-79 0 -126 53t-47 136q0 88 35 160.5t96.5 114t136.5 41.5q98 0 139 -80
l12 70h82l-63 -360q-6 -33 -6 -56q0 -28 10 -51q-49 -28 -81 -59.5zM355 105.5q47 45.5 59 115.5l7 42q3 17 3 32q0 55 -30.5 92.5t-89.5 37.5q-49 0 -89.5 -31.5t-64 -86.5t-23.5 -121q0 -59 27.5 -92.5t82.5 -33.5q71 0 118 45.5z" />
    <glyph glyph-name="Cacute" unicode="&#x106;" horiz-adv-x="621" 
d="M183.5 23q-59.5 33 -92 94.5t-32.5 143.5q0 127 47.5 229t134 161t199.5 59q60 0 109 -20.5t78 -57.5l-47 -63q-27 34 -63 51t-90 17q-79 0 -142.5 -47t-100 -130.5t-36.5 -190.5q0 -98 48.5 -152t139.5 -54q98 0 167 65l45 -50q-47 -42 -106.5 -65t-120.5 -23
q-78 0 -137.5 33zM520 952h94l-143 -179h-69z" />
    <glyph glyph-name="cacute" unicode="&#x107;" horiz-adv-x="515" 
d="M98.5 43.5q-56.5 53.5 -56.5 143.5q0 88 37 158.5t104 110t152 39.5q48 0 90.5 -16t66.5 -43l-43 -60q-18 21 -51 34.5t-72 13.5q-58 0 -103 -29t-69.5 -81.5t-24.5 -118.5q0 -65 35.5 -99.5t104.5 -34.5q34 0 69.5 12t61.5 35l39 -50q-35 -31 -86 -49.5t-101 -18.5
q-97 0 -153.5 53.5zM424 737h94l-143 -179h-69z" />
    <glyph glyph-name="Ccircumflex" unicode="&#x108;" horiz-adv-x="621" 
d="M183.5 23q-59.5 33 -92 94.5t-32.5 143.5q0 127 47.5 229t134 161t199.5 59q60 0 109 -20.5t78 -57.5l-47 -63q-27 34 -63 51t-90 17q-79 0 -142.5 -47t-100 -130.5t-36.5 -190.5q0 -98 48.5 -152t139.5 -54q98 0 167 65l45 -50q-47 -42 -106.5 -65t-120.5 -23
q-78 0 -137.5 33zM432 930q14 14 22.5 19t21.5 5q17 0 27 -7.5t10 -16.5q0 -4 -4 -10l-4 -5l100 -136h-90l-59 98l-90 -98h-88z" />
    <glyph glyph-name="ccircumflex" unicode="&#x109;" horiz-adv-x="515" 
d="M98.5 43.5q-56.5 53.5 -56.5 143.5q0 88 37 158.5t104 110t152 39.5q48 0 90.5 -16t66.5 -43l-43 -60q-18 21 -51 34.5t-72 13.5q-58 0 -103 -29t-69.5 -81.5t-24.5 -118.5q0 -65 35.5 -99.5t104.5 -34.5q34 0 69.5 12t61.5 35l39 -50q-35 -31 -86 -49.5t-101 -18.5
q-97 0 -153.5 53.5zM336 715q14 14 22.5 19t21.5 5q17 0 27 -7.5t10 -16.5q0 -4 -4 -10l-4 -5l100 -136h-90l-59 98l-90 -98h-88z" />
    <glyph glyph-name="Cdotaccent" unicode="&#x10a;" horiz-adv-x="621" 
d="M183.5 23q-59.5 33 -92 94.5t-32.5 143.5q0 127 47.5 229t134 161t199.5 59q60 0 109 -20.5t78 -57.5l-47 -63q-27 34 -63 51t-90 17q-79 0 -142.5 -47t-100 -130.5t-36.5 -190.5q0 -98 48.5 -152t139.5 -54q98 0 167 65l45 -50q-47 -42 -106.5 -65t-120.5 -23
q-78 0 -137.5 33zM409.5 810q-13.5 13 -13.5 33q0 26 20.5 46t47.5 20q21 0 33.5 -13t12.5 -32q0 -27 -20 -47t-46 -20q-21 0 -34.5 13z" />
    <glyph glyph-name="cdotaccent" unicode="&#x10b;" horiz-adv-x="515" 
d="M98.5 43.5q-56.5 53.5 -56.5 143.5q0 88 37 158.5t104 110t152 39.5q48 0 90.5 -16t66.5 -43l-43 -60q-18 21 -51 34.5t-72 13.5q-58 0 -103 -29t-69.5 -81.5t-24.5 -118.5q0 -65 35.5 -99.5t104.5 -34.5q34 0 69.5 12t61.5 35l39 -50q-35 -31 -86 -49.5t-101 -18.5
q-97 0 -153.5 53.5zM313.5 595q-13.5 13 -13.5 33q0 26 20.5 46t47.5 20q21 0 33.5 -13t12.5 -32q0 -27 -20 -47t-46 -20q-21 0 -34.5 13z" />
    <glyph glyph-name="Ccaron" unicode="&#x10c;" horiz-adv-x="621" 
d="M183.5 23q-59.5 33 -92 94.5t-32.5 143.5q0 127 47.5 229t134 161t199.5 59q60 0 109 -20.5t78 -57.5l-47 -63q-27 34 -63 51t-90 17q-79 0 -142.5 -47t-100 -130.5t-36.5 -190.5q0 -98 48.5 -152t139.5 -54q98 0 167 65l45 -50q-47 -42 -106.5 -65t-120.5 -23
q-78 0 -137.5 33zM410 786q-9 7 -9 17q0 6 3 10l3 5l-99 136h89l60 -98l89 98h88l-153 -152q-13 -13 -22 -18t-23 -5q-17 0 -26 7z" />
    <glyph glyph-name="ccaron" unicode="&#x10d;" horiz-adv-x="515" 
d="M98.5 43.5q-56.5 53.5 -56.5 143.5q0 88 37 158.5t104 110t152 39.5q48 0 90.5 -16t66.5 -43l-43 -60q-18 21 -51 34.5t-72 13.5q-58 0 -103 -29t-69.5 -81.5t-24.5 -118.5q0 -65 35.5 -99.5t104.5 -34.5q34 0 69.5 12t61.5 35l39 -50q-35 -31 -86 -49.5t-101 -18.5
q-97 0 -153.5 53.5zM314 571q-9 7 -9 17q0 6 3 10l3 5l-99 136h89l60 -98l89 98h88l-153 -152q-13 -13 -22 -18t-23 -5q-17 0 -26 7z" />
    <glyph glyph-name="Dcaron" unicode="&#x10e;" horiz-adv-x="632" 
d="M137 609q1 5 1 13q0 16 -8.5 27t-8.5 16q0 6 9 19t22 23.5t26 10.5t27 -18h137q125 0 198 -68.5t73 -191.5q0 -130 -46.5 -229.5t-133 -155t-203.5 -55.5h-200zM237 74q86 0 151.5 44.5t101 125.5t35.5 188q0 99 -45.5 146.5t-147.5 47.5h-106l-97 -552h108zM374 786
q-9 7 -9 17q0 6 3 10l3 5l-99 136h89l60 -98l89 98h88l-153 -152q-13 -13 -22 -18t-23 -5q-17 0 -26 7z" />
    <glyph glyph-name="dcaron" unicode="&#x10f;" horiz-adv-x="737" 
d="M613 557q28 13 48 30t28 35q-20 -2 -34 10.5t-14 31.5q0 29 22 50t52 21q26 0 40 -14t14 -39q0 -46 -39 -92t-100 -72zM399.5 14.5q-4.5 16.5 -4.5 36.5q0 7 2 25q-74 -86 -179 -86q-85 0 -130.5 51.5t-45.5 136.5q0 94 35 166t96.5 111.5t138.5 39.5q50 0 84 -21.5
t54 -57.5l56 318h84l-107 -608q-5 -29 -5 -57q0 -31 9 -52l-76 -28q-7 9 -11.5 25.5zM357 107q48 47 59 114l7 42q3 17 3 32q0 56 -30 93t-88 37q-51 0 -92 -31.5t-64.5 -86t-23.5 -122.5q0 -58 27 -91.5t85 -33.5q69 0 117 47z" />
    <glyph glyph-name="Dcroat" unicode="&#x110;" horiz-adv-x="671" 
d="M579 631.5q73 -68.5 73 -191.5q0 -130 -46.5 -229.5t-133 -155t-203.5 -55.5h-200l56 316h-66l12 66h65l40 227q1 5 1 13q0 16 -8.5 27t-8.5 16q0 6 9 19t22 23.5t26 10.5t27 -18h137q125 0 198 -68.5zM427.5 118.5q65.5 44.5 101 125.5t35.5 188q0 99 -45.5 146.5
t-147.5 47.5h-106l-43 -244h162l-12 -66h-161l-43 -242h108q86 0 151.5 44.5z" />
    <glyph glyph-name="dcroat" unicode="&#x111;" horiz-adv-x="608" 
d="M483 126q-5 -29 -5 -57q0 -31 9 -52l-76 -28q-7 9 -11.5 25.5t-4.5 36.5q0 7 2 25q-74 -86 -179 -86q-85 0 -130.5 51.5t-45.5 136.5q0 94 35 166t96.5 111.5t138.5 39.5q50 0 84 -21.5t54 -57.5l28 161h-108l12 66h108l16 91h84l-16 -91h61l-12 -66h-61zM426 295
q0 56 -30 93t-88 37q-51 0 -92 -31.5t-64.5 -86t-23.5 -122.5q0 -58 27 -91.5t85 -33.5q69 0 117 47t59 114l7 42q3 17 3 32z" />
    <glyph glyph-name="Emacron" unicode="&#x112;" horiz-adv-x="523" 
d="M138 609q1 5 1 13q0 16 -9 27.5t-9 16.5t2 8q7 14 23 29t32 15q7 0 14.5 -5t12.5 -13h346l-13 -74h-311l-39 -223h227l-13 -72h-227l-45 -257h320l-13 -74h-406zM232 861h304l-12 -66h-304z" />
    <glyph glyph-name="emacron" unicode="&#x113;" horiz-adv-x="543" 
d="M98 42.5q-55 52.5 -55 138.5q0 94 33.5 165t95 110t142.5 39q64 0 107.5 -27.5t64 -71t20.5 -91.5q0 -61 -19 -80t-51 -19h-308q-3 -16 -3 -33q0 -52 33.5 -82t95.5 -30q84 0 149 50l35 -49q-38 -34 -87.5 -53t-106.5 -19q-91 0 -146 52.5zM421 275q3 17 3 32
q0 52 -30.5 85t-88.5 33q-46 0 -81 -22t-56.5 -56.5t-27.5 -71.5h281zM197 646h304l-12 -66h-304z" />
    <glyph glyph-name="Ebreve" unicode="&#x114;" horiz-adv-x="523" 
d="M138 609q1 5 1 13q0 16 -9 27.5t-9 16.5t2 8q7 14 23 29t32 15q7 0 14.5 -5t12.5 -13h346l-13 -74h-311l-39 -223h227l-13 -72h-227l-45 -257h320l-13 -74h-406zM281.5 793q-32.5 27 -32.5 77q0 18 4 35l2 9h73l-2 -9q-3 -15 -3 -27q0 -26 14.5 -39.5t39.5 -13.5
q61 0 79 80l2 9h73l-2 -9q-15 -66 -59 -102.5t-104 -36.5q-52 0 -84.5 27z" />
    <glyph glyph-name="ebreve" unicode="&#x115;" horiz-adv-x="543" 
d="M98 42.5q-55 52.5 -55 138.5q0 94 33.5 165t95 110t142.5 39q64 0 107.5 -27.5t64 -71t20.5 -91.5q0 -61 -19 -80t-51 -19h-308q-3 -16 -3 -33q0 -52 33.5 -82t95.5 -30q84 0 149 50l35 -49q-38 -34 -87.5 -53t-106.5 -19q-91 0 -146 52.5zM421 275q3 17 3 32
q0 52 -30.5 85t-88.5 33q-46 0 -81 -22t-56.5 -56.5t-27.5 -71.5h281zM246.5 578q-32.5 27 -32.5 77q0 18 4 35l2 9h73l-2 -9q-3 -15 -3 -27q0 -26 14.5 -39.5t39.5 -13.5q61 0 79 80l2 9h73l-2 -9q-15 -66 -59 -102.5t-104 -36.5q-52 0 -84.5 27z" />
    <glyph glyph-name="Edotaccent" unicode="&#x116;" horiz-adv-x="523" 
d="M138 609q1 5 1 13q0 16 -9 27.5t-9 16.5t2 8q7 14 23 29t32 15q7 0 14.5 -5t12.5 -13h346l-13 -74h-311l-39 -223h227l-13 -72h-227l-45 -257h320l-13 -74h-406zM338.5 810q-13.5 13 -13.5 33q0 26 20.5 46t47.5 20q21 0 33.5 -13t12.5 -32q0 -27 -20 -47t-46 -20
q-21 0 -34.5 13z" />
    <glyph glyph-name="edotaccent" unicode="&#x117;" horiz-adv-x="543" 
d="M98 42.5q-55 52.5 -55 138.5q0 94 33.5 165t95 110t142.5 39q64 0 107.5 -27.5t64 -71t20.5 -91.5q0 -61 -19 -80t-51 -19h-308q-3 -16 -3 -33q0 -52 33.5 -82t95.5 -30q84 0 149 50l35 -49q-38 -34 -87.5 -53t-106.5 -19q-91 0 -146 52.5zM421 275q3 17 3 32
q0 52 -30.5 85t-88.5 33q-46 0 -81 -22t-56.5 -56.5t-27.5 -71.5h281zM303.5 595q-13.5 13 -13.5 33q0 26 20.5 46t47.5 20q21 0 33.5 -13t12.5 -32q0 -27 -20 -47t-46 -20q-21 0 -34.5 13z" />
    <glyph glyph-name="Eogonek" unicode="&#x118;" horiz-adv-x="523" 
d="M227 626l-39 -223h227l-13 -72h-227l-45 -257h320l-13 -74h-16q-103 -61 -103 -123q0 -16 11 -24.5t33 -8.5q23 0 55 17l8 -50q-43 -27 -90 -27q-39 0 -63.5 20.5t-24.5 55.5q0 41 28 79t73 61h-317l107 609q1 5 1 13q0 16 -9 27.5t-9 16.5t2 8q7 14 23 29t32 15
q7 0 14.5 -5t12.5 -13h346l-13 -74h-311z" />
    <glyph glyph-name="eogonek" unicode="&#x119;" horiz-adv-x="543" 
d="M128 206q-3 -16 -3 -33q0 -52 33.5 -82t95.5 -30q84 0 149 50l35 -49q-70 -62 -166 -71q-88 -57 -88 -114q0 -16 11 -24.5t33 -8.5q23 0 55 17l8 -50q-43 -27 -90 -27q-39 0 -63.5 20.5t-24.5 55.5q0 39 24.5 74.5t64.5 58.5q-73 12 -116 62.5t-43 125.5q0 94 33.5 165
t95 110t142.5 39q64 0 107.5 -27.5t64 -71t20.5 -91.5q0 -61 -19 -80t-51 -19h-308zM224 403q-35 -22 -56.5 -56.5t-27.5 -71.5h281q3 17 3 32q0 52 -30.5 85t-88.5 33q-46 0 -81 -22z" />
    <glyph glyph-name="Ecaron" unicode="&#x11a;" horiz-adv-x="523" 
d="M138 609q1 5 1 13q0 16 -9 27.5t-9 16.5t2 8q7 14 23 29t32 15q7 0 14.5 -5t12.5 -13h346l-13 -74h-311l-39 -223h227l-13 -72h-227l-45 -257h320l-13 -74h-406zM339 786q-9 7 -9 17q0 6 3 10l3 5l-99 136h89l60 -98l89 98h88l-153 -152q-13 -13 -22 -18t-23 -5
q-17 0 -26 7z" />
    <glyph glyph-name="ecaron" unicode="&#x11b;" horiz-adv-x="543" 
d="M98 42.5q-55 52.5 -55 138.5q0 94 33.5 165t95 110t142.5 39q64 0 107.5 -27.5t64 -71t20.5 -91.5q0 -61 -19 -80t-51 -19h-308q-3 -16 -3 -33q0 -52 33.5 -82t95.5 -30q84 0 149 50l35 -49q-38 -34 -87.5 -53t-106.5 -19q-91 0 -146 52.5zM421 275q3 17 3 32
q0 52 -30.5 85t-88.5 33q-46 0 -81 -22t-56.5 -56.5t-27.5 -71.5h281zM304 571q-9 7 -9 17q0 6 3 10l3 5l-99 136h89l60 -98l89 98h88l-153 -152q-13 -13 -22 -18t-23 -5q-17 0 -26 7z" />
    <glyph glyph-name="Gcircumflex" unicode="&#x11c;" horiz-adv-x="647" 
d="M180 23q-58 33 -89.5 94.5t-31.5 143.5q0 127 47.5 229t134 161t199.5 59q60 0 109 -20.5t78 -57.5l-47 -63q-27 34 -63 51t-90 17q-79 0 -142.5 -47t-100 -130.5t-36.5 -190.5q0 -99 46 -152.5t137 -53.5q44 0 74.5 8t61.5 26l36 205h-165l13 72h200q9 8 15.5 11.5
t15.5 3.5q16 0 27.5 -15t11.5 -30q0 -7 -2.5 -11t-9.5 -10q-9 -7 -14.5 -15t-8.5 -25l-40 -227q-66 -37 -116.5 -51.5t-113.5 -14.5q-78 0 -136 33zM441 930q14 14 22.5 19t21.5 5q17 0 27 -7.5t10 -16.5q0 -4 -4 -10l-4 -5l100 -136h-90l-59 98l-90 -98h-88z" />
    <glyph glyph-name="gcircumflex" unicode="&#x11d;" horiz-adv-x="568" 
d="M95 -208.5q-38 9.5 -67 24.5l37 65q24 -13 55.5 -20.5t66.5 -7.5q92 0 134 46t57 130l9 50q-32 -37 -75 -58t-93 -21q-82 0 -129.5 51.5t-47.5 136.5q0 89 33 159t92.5 109.5t136.5 39.5q102 0 149 -86q6 28 18.5 51.5t26.5 35.5l66 -28q-17 -23 -26.5 -48t-16.5 -62
l-59 -333q-22 -121 -94 -182.5t-194 -61.5q-41 0 -79 9.5zM323 93.5q37 23.5 61 61t31 77.5l6 33q3 17 3 34q0 55 -32 91t-90 36q-50 0 -90 -30t-62.5 -83t-22.5 -120q0 -57 27.5 -90t86.5 -33q45 0 82 23.5zM338 715q14 14 22.5 19t21.5 5q17 0 27 -7.5t10 -16.5
q0 -4 -4 -10l-4 -5l100 -136h-90l-59 98l-90 -98h-88z" />
    <glyph glyph-name="Gbreve" unicode="&#x11e;" horiz-adv-x="647" 
d="M180 23q-58 33 -89.5 94.5t-31.5 143.5q0 127 47.5 229t134 161t199.5 59q60 0 109 -20.5t78 -57.5l-47 -63q-27 34 -63 51t-90 17q-79 0 -142.5 -47t-100 -130.5t-36.5 -190.5q0 -99 46 -152.5t137 -53.5q44 0 74.5 8t61.5 26l36 205h-165l13 72h200q9 8 15.5 11.5
t15.5 3.5q16 0 27.5 -15t11.5 -30q0 -7 -2.5 -11t-9.5 -10q-9 -7 -14.5 -15t-8.5 -25l-40 -227q-66 -37 -116.5 -51.5t-113.5 -14.5q-78 0 -136 33zM361.5 793q-32.5 27 -32.5 77q0 18 4 35l2 9h73l-2 -9q-3 -15 -3 -27q0 -26 14.5 -39.5t39.5 -13.5q61 0 79 80l2 9h73
l-2 -9q-15 -66 -59 -102.5t-104 -36.5q-52 0 -84.5 27z" />
    <glyph glyph-name="gbreve" unicode="&#x11f;" horiz-adv-x="568" 
d="M95 -208.5q-38 9.5 -67 24.5l37 65q24 -13 55.5 -20.5t66.5 -7.5q92 0 134 46t57 130l9 50q-32 -37 -75 -58t-93 -21q-82 0 -129.5 51.5t-47.5 136.5q0 89 33 159t92.5 109.5t136.5 39.5q102 0 149 -86q6 28 18.5 51.5t26.5 35.5l66 -28q-17 -23 -26.5 -48t-16.5 -62
l-59 -333q-22 -121 -94 -182.5t-194 -61.5q-41 0 -79 9.5zM323 93.5q37 23.5 61 61t31 77.5l6 33q3 17 3 34q0 55 -32 91t-90 36q-50 0 -90 -30t-62.5 -83t-22.5 -120q0 -57 27.5 -90t86.5 -33q45 0 82 23.5zM258.5 578q-32.5 27 -32.5 77q0 18 4 35l2 9h73l-2 -9
q-3 -15 -3 -27q0 -26 14.5 -39.5t39.5 -13.5q61 0 79 80l2 9h73l-2 -9q-15 -66 -59 -102.5t-104 -36.5q-52 0 -84.5 27z" />
    <glyph glyph-name="Gdotaccent" unicode="&#x120;" horiz-adv-x="647" 
d="M180 23q-58 33 -89.5 94.5t-31.5 143.5q0 127 47.5 229t134 161t199.5 59q60 0 109 -20.5t78 -57.5l-47 -63q-27 34 -63 51t-90 17q-79 0 -142.5 -47t-100 -130.5t-36.5 -190.5q0 -99 46 -152.5t137 -53.5q44 0 74.5 8t61.5 26l36 205h-165l13 72h200q9 8 15.5 11.5
t15.5 3.5q16 0 27.5 -15t11.5 -30q0 -7 -2.5 -11t-9.5 -10q-9 -7 -14.5 -15t-8.5 -25l-40 -227q-66 -37 -116.5 -51.5t-113.5 -14.5q-78 0 -136 33zM418.5 810q-13.5 13 -13.5 33q0 26 20.5 46t47.5 20q21 0 33.5 -13t12.5 -32q0 -27 -20 -47t-46 -20q-21 0 -34.5 13z" />
    <glyph glyph-name="gdotaccent" unicode="&#x121;" horiz-adv-x="568" 
d="M95 -208.5q-38 9.5 -67 24.5l37 65q24 -13 55.5 -20.5t66.5 -7.5q92 0 134 46t57 130l9 50q-32 -37 -75 -58t-93 -21q-82 0 -129.5 51.5t-47.5 136.5q0 89 33 159t92.5 109.5t136.5 39.5q102 0 149 -86q6 28 18.5 51.5t26.5 35.5l66 -28q-17 -23 -26.5 -48t-16.5 -62
l-59 -333q-22 -121 -94 -182.5t-194 -61.5q-41 0 -79 9.5zM323 93.5q37 23.5 61 61t31 77.5l6 33q3 17 3 34q0 55 -32 91t-90 36q-50 0 -90 -30t-62.5 -83t-22.5 -120q0 -57 27.5 -90t86.5 -33q45 0 82 23.5zM315.5 595q-13.5 13 -13.5 33q0 26 20.5 46t47.5 20
q21 0 33.5 -13t12.5 -32q0 -27 -20 -47t-46 -20q-21 0 -34.5 13z" />
    <glyph glyph-name="uni0122" unicode="&#x122;" horiz-adv-x="647" 
d="M180 23q-58 33 -89.5 94.5t-31.5 143.5q0 127 47.5 229t134 161t199.5 59q60 0 109 -20.5t78 -57.5l-47 -63q-27 34 -63 51t-90 17q-79 0 -142.5 -47t-100 -130.5t-36.5 -190.5q0 -99 46 -152.5t137 -53.5q44 0 74.5 8t61.5 26l36 205h-165l13 72h200q9 8 15.5 11.5
t15.5 3.5q16 0 27.5 -15t11.5 -30q0 -7 -2.5 -11t-9.5 -10q-9 -7 -14.5 -15t-8.5 -25l-40 -227q-66 -37 -116.5 -51.5t-113.5 -14.5q-78 0 -136 33zM211 -233q54 22 76 65q-4 -1 -12 -1q-19 0 -31 11.5t-12 29.5q0 29 22 50t51 21q25 0 38.5 -14t13.5 -39q0 -46 -35.5 -89
t-93.5 -68z" />
    <glyph glyph-name="uni0123" unicode="&#x123;" horiz-adv-x="568" 
d="M95 -208.5q-38 9.5 -67 24.5l37 65q24 -13 55.5 -20.5t66.5 -7.5q92 0 134 46t57 130l9 50q-32 -37 -75 -58t-93 -21q-82 0 -129.5 51.5t-47.5 136.5q0 89 33 159t92.5 109.5t136.5 39.5q102 0 149 -86q6 28 18.5 51.5t26.5 35.5l66 -28q-17 -23 -26.5 -48t-16.5 -62
l-59 -333q-22 -121 -94 -182.5t-194 -61.5q-41 0 -79 9.5zM323 93.5q37 23.5 61 61t31 77.5l6 33q3 17 3 34q0 55 -32 91t-90 36q-50 0 -90 -30t-62.5 -83t-22.5 -120q0 -57 27.5 -90t86.5 -33q45 0 82 23.5zM305 562q-14 14 -14 39q0 46 38.5 92.5t99.5 72.5l17 -40
q-26 -12 -47 -29.5t-29 -34.5q20 2 34.5 -10t14.5 -32q0 -29 -22 -50.5t-52 -21.5q-26 0 -40 14z" />
    <glyph glyph-name="Hcircumflex" unicode="&#x124;" horiz-adv-x="613" 
d="M142 700h86l-52 -295h321l52 295h86l-123 -700h-86l58 331h-321l-58 -331h-86zM395 930q14 14 22.5 19t21.5 5q17 0 27 -7.5t10 -16.5q0 -4 -4 -10l-4 -5l100 -136h-90l-59 98l-90 -98h-88z" />
    <glyph glyph-name="hcircumflex" unicode="&#x125;" horiz-adv-x="539" 
d="M360 67q0 22 4 42l34 190q4 20 4 41q0 43 -22 63.5t-67 20.5q-40 0 -74.5 -22t-57.5 -59t-31 -79l-47 -264h-84l129 734h84l-56 -318q32 37 76.5 58t92.5 21q70 0 106 -37t36 -105q0 -30 -5 -55l-34 -189q-3 -16 -3 -32q0 -33 11 -57l-81 -30q-15 40 -15 77zM315 964
q14 14 22.5 19t21.5 5q17 0 27 -7.5t10 -16.5q0 -4 -4 -10l-4 -5l100 -136h-90l-59 98l-90 -98h-88z" />
    <glyph glyph-name="Hbar" unicode="&#x126;" horiz-adv-x="687" 
d="M700 514h-62l-90 -514h-86l58 331h-321l-58 -331h-86l90 514h-62l12 66h62l21 120h86l-21 -120h321l21 120h86l-21 -120h62zM552 514h-321l-19 -109h321z" />
    <glyph glyph-name="hbar" unicode="&#x127;" horiz-adv-x="581" 
d="M490 109q-3 -16 -3 -32q0 -33 11 -57l-81 -30q-15 40 -15 77q0 22 4 42l34 190q4 20 4 41q0 43 -22 63.5t-67 20.5q-40 0 -74.5 -22t-57.5 -59t-31 -79l-47 -264h-84l102 578h-58l11 62h57l17 94h84l-17 -94h128l-11 -62h-127l-29 -162q32 37 76.5 58t92.5 21
q70 0 106 -37t36 -105q0 -30 -5 -55z" />
    <glyph glyph-name="Itilde" unicode="&#x128;" horiz-adv-x="287" 
d="M181 700h86l-123 -700h-86zM87 813q12 37 41.5 61.5t62.5 24.5q24 0 40.5 -8t39.5 -24q13 -10 22 -15t18 -5q19 0 32 12t22 39l44 -24q-9 -39 -37 -63t-63 -24q-21 0 -37 7.5t-36 21.5q-14 11 -25 16.5t-23 5.5q-36 0 -56 -51z" />
    <glyph glyph-name="itilde" unicode="&#x129;" horiz-adv-x="244" 
d="M124 485h83l-86 -485h-83zM28 598q12 37 41.5 61.5t62.5 24.5q24 0 40.5 -8t39.5 -24q13 -10 22 -15t18 -5q19 0 32 12t22 39l44 -24q-9 -39 -37 -63t-63 -24q-21 0 -37 7.5t-36 21.5q-14 11 -25 16.5t-23 5.5q-36 0 -56 -51z" />
    <glyph glyph-name="Imacron" unicode="&#x12a;" horiz-adv-x="287" 
d="M181 700h86l-123 -700h-86zM101 861h304l-12 -66h-304z" />
    <glyph glyph-name="imacron" unicode="&#x12b;" horiz-adv-x="244" 
d="M124 485h83l-86 -485h-83zM42 646h304l-12 -66h-304z" />
    <glyph glyph-name="Ibreve" unicode="&#x12c;" horiz-adv-x="287" 
d="M181 700h86l-123 -700h-86zM150.5 793q-32.5 27 -32.5 77q0 18 4 35l2 9h73l-2 -9q-3 -15 -3 -27q0 -26 14.5 -39.5t39.5 -13.5q61 0 79 80l2 9h73l-2 -9q-15 -66 -59 -102.5t-104 -36.5q-52 0 -84.5 27z" />
    <glyph glyph-name="ibreve" unicode="&#x12d;" horiz-adv-x="244" 
d="M124 485h83l-86 -485h-83zM91.5 578q-32.5 27 -32.5 77q0 18 4 35l2 9h73l-2 -9q-3 -15 -3 -27q0 -26 14.5 -39.5t39.5 -13.5q61 0 79 80l2 9h73l-2 -9q-15 -66 -59 -102.5t-104 -36.5q-52 0 -84.5 27z" />
    <glyph glyph-name="Iogonek" unicode="&#x12e;" horiz-adv-x="287" 
d="M28 -123q0 -16 11 -24.5t33 -8.5q23 0 55 17l8 -50q-43 -27 -90 -27q-39 0 -63.5 20.5t-24.5 55.5q0 41 28 79t73 61l123 700h86l-123 -700h-13q-103 -61 -103 -123z" />
    <glyph glyph-name="iogonek" unicode="&#x12f;" horiz-adv-x="244" 
d="M146.5 604.5q-14.5 14.5 -14.5 35.5q0 28 22 49t51 21q23 0 38 -14t15 -36q0 -27 -22.5 -48.5t-51.5 -21.5q-23 0 -37.5 14.5zM123 485h84l-86 -485h-84zM-38.5 -201.5q-24.5 20.5 -24.5 55.5q0 44 32 84.5t82 61.5h70q-49 -28 -81 -59.5t-32 -69.5q0 -16 11 -24.5
t33 -8.5q23 0 55 17l8 -50q-43 -27 -90 -27q-39 0 -63.5 20.5z" />
    <glyph glyph-name="Idotaccent" unicode="&#x130;" horiz-adv-x="287" 
d="M181 700h86l-123 -700h-86zM207.5 810q-13.5 13 -13.5 33q0 26 20.5 46t47.5 20q21 0 33.5 -13t12.5 -32q0 -27 -20 -47t-46 -20q-21 0 -34.5 13z" />
    <glyph glyph-name="dotlessi" unicode="&#x131;" horiz-adv-x="244" 
d="M124 485h83l-86 -485h-83z" />
    <glyph glyph-name="IJ" unicode="&#x132;" horiz-adv-x="718" 
d="M181 700h86l-123 -700h-86zM348 2q-38 12 -62 31l46 64q21 -15 49 -24t55 -9q52 0 83.5 27.5t41.5 81.5l93 527h86l-93 -524q-15 -86 -75.5 -136t-149.5 -50q-36 0 -74 12z" />
    <glyph glyph-name="ij" unicode="&#x133;" horiz-adv-x="580" 
d="M149.5 619.5q-14.5 14.5 -14.5 35.5q0 28 22.5 49t51.5 21q23 0 37.5 -14t14.5 -36q0 -27 -22.5 -48.5t-50.5 -21.5q-24 0 -38.5 14.5zM484.5 619.5q-14.5 14.5 -14.5 35.5q0 28 22.5 49t51.5 21q23 0 37.5 -14t14.5 -36q0 -27 -22.5 -48.5t-50.5 -21.5q-24 0 -38.5 14.5
zM124 485h84l-86 -485h-84zM180.5 -207q-34.5 12 -56.5 31l43 59q40 -32 94 -32q46 0 70.5 26t35.5 88l92 520h84l-92 -517q-17 -97 -64 -142t-135 -45q-37 0 -71.5 12z" />
    <glyph glyph-name="Jcircumflex" unicode="&#x134;" horiz-adv-x="431" 
d="M61 2q-38 12 -62 31l46 64q21 -15 49 -24t55 -9q52 0 83.5 27.5t41.5 81.5l93 527h86l-93 -524q-15 -86 -75.5 -136t-149.5 -50q-36 0 -74 12zM417 930q14 14 22.5 19t21.5 5q17 0 27 -7.5t10 -16.5q0 -4 -4 -10l-4 -5l100 -136h-90l-59 98l-90 -98h-88z" />
    <glyph glyph-name="jcircumflex" unicode="&#x135;" horiz-adv-x="418" 
d="M19.5 -207q-34.5 12 -56.5 31l43 59q40 -32 94 -32q46 0 70.5 26t35.5 88l92 520h84l-92 -517q-17 -96 -65 -141.5t-134 -45.5q-37 0 -71.5 12zM347 715q14 14 22.5 19t21.5 5q17 0 27 -7.5t10 -16.5q0 -4 -4 -10l-4 -5l100 -136h-90l-59 98l-90 -98h-88z" />
    <glyph glyph-name="uni0136" unicode="&#x136;" horiz-adv-x="590" 
d="M142 700h86l-51 -292l313 292h107l-361 -334l268 -366h-108l-234 323l-57 -323h-86zM144 -233q54 22 76 65q-4 -1 -12 -1q-19 0 -31 11.5t-12 29.5q0 29 22 50t51 21q25 0 38.5 -14t13.5 -39q0 -46 -35.5 -89t-93.5 -68z" />
    <glyph glyph-name="uni0137" unicode="&#x137;" horiz-adv-x="487" 
d="M148 734h84l-73 -419l212 170h107l-281 -228l227 -257h-109l-176 207l-36 -207h-84zM96 -233q54 22 76 65q-4 -1 -12 -1q-19 0 -31 11.5t-12 29.5q0 29 22 50t51 21q25 0 38.5 -14t13.5 -39q0 -46 -35.5 -89t-93.5 -68z" />
    <glyph glyph-name="kgreenlandic" unicode="&#x138;" horiz-adv-x="510" 
d="M106 492h84l-36 -200l218 199h107l-282 -250l227 -241h-109l-177 196l-35 -196h-84z" />
    <glyph glyph-name="Lacute" unicode="&#x139;" horiz-adv-x="494" 
d="M20.5 0.5q-11.5 13.5 -11.5 29.5q0 12 13 23q9 8 14.5 16.5t8.5 23.5l107 607h86l-110 -626h303l-13 -74h-340q-15 -13 -30 -13q-16 0 -27.5 13.5zM293 952h94l-143 -179h-69z" />
    <glyph glyph-name="lacute" unicode="&#x13a;" horiz-adv-x="204" 
d="M148 734h84l-129 -734h-84zM284 986h94l-143 -179h-69z" />
    <glyph glyph-name="uni013B" unicode="&#x13b;" horiz-adv-x="494" 
d="M20.5 0.5q-11.5 13.5 -11.5 29.5q0 12 13 23q9 8 14.5 16.5t8.5 23.5l107 607h86l-110 -626h303l-13 -74h-340q-15 -13 -30 -13q-16 0 -27.5 13.5zM107 -233q54 22 76 65q-4 -1 -12 -1q-19 0 -31 11.5t-12 29.5q0 29 22 50t51 21q25 0 38.5 -14t13.5 -39q0 -46 -35.5 -89
t-93.5 -68z" />
    <glyph glyph-name="uni013C" unicode="&#x13c;" horiz-adv-x="204" 
d="M148 734h84l-129 -734h-84zM-40 -233q54 22 76 65q-4 -1 -12 -1q-19 0 -31 11.5t-12 29.5q0 29 22 50t51 21q25 0 38.5 -14t13.5 -39q0 -46 -35.5 -89t-93.5 -68z" />
    <glyph glyph-name="Lcaron" unicode="&#x13d;" horiz-adv-x="494" 
d="M20.5 0.5q-11.5 13.5 -11.5 29.5q0 12 13 23q9 8 14.5 16.5t8.5 23.5l107 607h86l-110 -626h303l-13 -74h-340q-15 -13 -30 -13q-16 0 -27.5 13.5zM384 548q28 13 47.5 30t27.5 34q-20 -2 -34.5 10.5t-14.5 31.5q0 29 22 50.5t53 21.5q26 0 40 -14.5t14 -39.5
q0 -46 -39 -92t-100 -72z" />
    <glyph glyph-name="lcaron" unicode="&#x13e;" horiz-adv-x="212" 
d="M148 734h84l-129 -734h-84zM273 557q28 13 47.5 30t27.5 34q-20 -2 -34.5 10.5t-14.5 31.5q0 29 22 50.5t53 21.5q26 0 40 -14.5t14 -39.5q0 -46 -39 -92t-100 -72z" />
    <glyph glyph-name="Ldot" unicode="&#x13f;" horiz-adv-x="494" 
d="M20.5 0.5q-11.5 13.5 -11.5 29.5q0 12 13 23q9 8 14.5 16.5t8.5 23.5l107 607h86l-110 -626h303l-13 -74h-340q-15 -13 -30 -13q-16 0 -27.5 13.5zM316.5 297q-13.5 13 -13.5 33q0 26 21 46t48 20q21 0 33.5 -13t12.5 -33q0 -26 -20 -46t-46 -20q-22 0 -35.5 13z" />
    <glyph glyph-name="ldot" unicode="&#x140;" horiz-adv-x="318" 
d="M148 734h84l-129 -734h-84zM225.5 323q-13.5 13 -13.5 33q0 26 21 46t48 20q21 0 33.5 -13t12.5 -33q0 -26 -20 -46t-46 -20q-22 0 -35.5 13z" />
    <glyph glyph-name="Lslash" unicode="&#x141;" horiz-adv-x="540" 
d="M477 74l-13 -74h-340q-15 -13 -30 -13q-16 0 -27.5 13.5t-11.5 29.5q0 12 13 23q9 8 14.5 16.5t8.5 23.5l34 192l-82 -35l13 74l82 35l60 341h86l-53 -300l181 78l-13 -74l-181 -78l-44 -252h303z" />
    <glyph glyph-name="lslash" unicode="&#x142;" horiz-adv-x="254" 
d="M260 354l-82 -36l-56 -318h-84l49 278l-72 -32l13 74l72 32l67 382h84l-60 -342l82 36z" />
    <glyph glyph-name="Nacute" unicode="&#x143;" horiz-adv-x="613" 
d="M135 619q1 4 1 10q0 12 -7 22.5t-7 15.5t3 12q7 16 23.5 27.5t33.5 11.5q24 0 34 -22l238 -538l95 542h86l-123 -700h-74l-233 525l-93 -525h-86zM490 952h94l-143 -179h-69z" />
    <glyph glyph-name="nacute" unicode="&#x144;" horiz-adv-x="546" 
d="M367 67q0 22 4 42l34 190q4 21 4 43q0 42 -21 62t-67 20q-40 0 -75 -22t-58 -59t-31 -79l-47 -264h-84l64 363q5 30 5 50q0 28 -9 53l80 29q11 -29 11 -67q0 -13 -1 -19q34 41 81.5 63.5t96.5 22.5q68 0 104 -37t36 -105q0 -22 -5 -55l-34 -189q-3 -16 -3 -32
q0 -33 11 -57l-81 -30q-15 40 -15 77zM413 737h94l-143 -179h-69z" />
    <glyph glyph-name="uni0145" unicode="&#x145;" horiz-adv-x="613" 
d="M135 619q1 4 1 10q0 12 -7 22.5t-7 15.5t3 12q7 16 23.5 27.5t33.5 11.5q24 0 34 -22l238 -538l95 542h86l-123 -700h-74l-233 525l-93 -525h-86zM172 -233q54 22 76 65q-4 -1 -12 -1q-19 0 -31 11.5t-12 29.5q0 29 22 50t51 21q25 0 38.5 -14t13.5 -39q0 -46 -35.5 -89
t-93.5 -68z" />
    <glyph glyph-name="uni0146" unicode="&#x146;" horiz-adv-x="546" 
d="M367 67q0 22 4 42l34 190q4 21 4 43q0 42 -21 62t-67 20q-40 0 -75 -22t-58 -59t-31 -79l-47 -264h-84l64 363q5 30 5 50q0 28 -9 53l80 29q11 -29 11 -67q0 -13 -1 -19q34 41 81.5 63.5t96.5 22.5q68 0 104 -37t36 -105q0 -22 -5 -55l-34 -189q-3 -16 -3 -32
q0 -33 11 -57l-81 -30q-15 40 -15 77zM132 -233q54 22 76 65q-4 -1 -12 -1q-19 0 -31 11.5t-12 29.5q0 29 22 50t51 21q25 0 38.5 -14t13.5 -39q0 -46 -35.5 -89t-93.5 -68z" />
    <glyph glyph-name="Ncaron" unicode="&#x147;" horiz-adv-x="613" 
d="M135 619q1 4 1 10q0 12 -7 22.5t-7 15.5t3 12q7 16 23.5 27.5t33.5 11.5q24 0 34 -22l238 -538l95 542h86l-123 -700h-74l-233 525l-93 -525h-86zM380 786q-9 7 -9 17q0 6 3 10l3 5l-99 136h89l60 -98l89 98h88l-153 -152q-13 -13 -22 -18t-23 -5q-17 0 -26 7z" />
    <glyph glyph-name="ncaron" unicode="&#x148;" horiz-adv-x="546" 
d="M367 67q0 22 4 42l34 190q4 21 4 43q0 42 -21 62t-67 20q-40 0 -75 -22t-58 -59t-31 -79l-47 -264h-84l64 363q5 30 5 50q0 28 -9 53l80 29q11 -29 11 -67q0 -13 -1 -19q34 41 81.5 63.5t96.5 22.5q68 0 104 -37t36 -105q0 -22 -5 -55l-34 -189q-3 -16 -3 -32
q0 -33 11 -57l-81 -30q-15 40 -15 77zM303 571q-9 7 -9 17q0 6 3 10l3 5l-99 136h89l60 -98l89 98h88l-153 -152q-13 -13 -22 -18t-23 -5q-17 0 -26 7z" />
    <glyph glyph-name="napostrophe" unicode="&#x149;" horiz-adv-x="546" 
d="M367 67q0 22 4 42l34 190q4 21 4 43q0 42 -21 62t-67 20q-40 0 -75 -22t-58 -59t-31 -79l-47 -264h-84l64 363q5 30 5 50q0 28 -9 53l80 29q11 -29 11 -67q0 -13 -1 -19q34 41 81.5 63.5t96.5 22.5q68 0 104 -37t36 -105q0 -22 -5 -55l-34 -189q-3 -16 -3 -32
q0 -33 11 -57l-81 -30q-15 40 -15 77zM-27 490q28 13 47.5 30t27.5 34q-20 -2 -34.5 10.5t-14.5 31.5q0 29 22 50.5t53 21.5q26 0 40 -14.5t14 -39.5q0 -46 -39 -92t-100 -72z" />
    <glyph glyph-name="Eng" unicode="&#x14a;" horiz-adv-x="614" 
d="M205.5 -254q-35.5 12 -59.5 32l46 63q18 -15 45 -24t54 -9q102 0 121 109l18 102l-224 506l-93 -525h-86l109 619q1 3 1 9q0 13 -7.5 23.5t-7.5 15.5t3 11q8 16 24 28t34 12q11 0 20.5 -6t13.5 -16l238 -538l95 542h86l-137 -780q-15 -88 -71 -137t-151 -49
q-36 0 -71.5 12z" />
    <glyph glyph-name="eng" unicode="&#x14b;" horiz-adv-x="559" 
d="M160 -207q-34 12 -56 31l43 59q40 -32 94 -32q47 0 71 25.5t35 88.5l59 334q5 28 5 45q0 41 -21.5 60.5t-68.5 19.5q-40 0 -75 -22t-58 -59t-31 -79l-47 -264h-84l64 363q5 30 5 50q0 28 -9 53l80 29q11 -29 11 -67q0 -13 -1 -19q34 41 81 63.5t95 22.5q69 0 106 -38
t37 -105q0 -22 -5 -54l-59 -330q-17 -97 -65 -142t-134 -45q-38 0 -72 12z" />
    <glyph glyph-name="Omacron" unicode="&#x14c;" horiz-adv-x="664" 
d="M116.5 59.5q-58.5 69.5 -58.5 190.5q0 132 44.5 237t125.5 164t185 59q113 0 173 -70t60 -190q0 -132 -45.5 -237t-127.5 -164t-187 -59q-111 0 -169.5 69.5zM431.5 113q58.5 50 92 137.5t33.5 197.5q0 189 -157 189q-73 0 -131 -50t-90.5 -138t-32.5 -197q0 -91 36 -140
t117 -49q74 0 132.5 50zM289 861h304l-12 -66h-304z" />
    <glyph glyph-name="omacron" unicode="&#x14d;" horiz-adv-x="548" 
d="M94.5 43q-51.5 53 -51.5 139q0 94 33.5 164.5t96 109.5t147.5 39t136.5 -53t51.5 -139q0 -94 -33 -164.5t-95.5 -109.5t-148.5 -39q-85 0 -136.5 53zM336.5 90.5q40.5 29.5 62.5 82.5t22 123q0 61 -31 94.5t-83 33.5q-53 0 -93 -29t-62 -82.5t-22 -122.5q0 -65 30 -97
t83 -32t93.5 29.5zM196 646h304l-12 -66h-304z" />
    <glyph glyph-name="Obreve" unicode="&#x14e;" horiz-adv-x="664" 
d="M116.5 59.5q-58.5 69.5 -58.5 190.5q0 132 44.5 237t125.5 164t185 59q113 0 173 -70t60 -190q0 -132 -45.5 -237t-127.5 -164t-187 -59q-111 0 -169.5 69.5zM431.5 113q58.5 50 92 137.5t33.5 197.5q0 189 -157 189q-73 0 -131 -50t-90.5 -138t-32.5 -197q0 -91 36 -140
t117 -49q74 0 132.5 50zM338.5 793q-32.5 27 -32.5 77q0 18 4 35l2 9h73l-2 -9q-3 -15 -3 -27q0 -26 14.5 -39.5t39.5 -13.5q61 0 79 80l2 9h73l-2 -9q-15 -66 -59 -102.5t-104 -36.5q-52 0 -84.5 27z" />
    <glyph glyph-name="obreve" unicode="&#x14f;" horiz-adv-x="548" 
d="M94.5 43q-51.5 53 -51.5 139q0 94 33.5 164.5t96 109.5t147.5 39t136.5 -53t51.5 -139q0 -94 -33 -164.5t-95.5 -109.5t-148.5 -39q-85 0 -136.5 53zM336.5 90.5q40.5 29.5 62.5 82.5t22 123q0 61 -31 94.5t-83 33.5q-53 0 -93 -29t-62 -82.5t-22 -122.5q0 -65 30 -97
t83 -32t93.5 29.5zM245.5 578q-32.5 27 -32.5 77q0 18 4 35l2 9h73l-2 -9q-3 -15 -3 -27q0 -26 14.5 -39.5t39.5 -13.5q61 0 79 80l2 9h73l-2 -9q-15 -66 -59 -102.5t-104 -36.5q-52 0 -84.5 27z" />
    <glyph glyph-name="Ohungarumlaut" unicode="&#x150;" horiz-adv-x="664" 
d="M116.5 59.5q-58.5 69.5 -58.5 190.5q0 132 44.5 237t125.5 164t185 59q113 0 173 -70t60 -190q0 -132 -45.5 -237t-127.5 -164t-187 -59q-111 0 -169.5 69.5zM431.5 113q58.5 50 92 137.5t33.5 197.5q0 189 -157 189q-73 0 -131 -50t-90.5 -138t-32.5 -197q0 -91 36 -140
t117 -49q74 0 132.5 50zM428 952h91l-153 -179h-70zM600 952h94l-178 -179h-72z" />
    <glyph glyph-name="ohungarumlaut" unicode="&#x151;" horiz-adv-x="548" 
d="M94.5 43q-51.5 53 -51.5 139q0 94 33.5 164.5t96 109.5t147.5 39t136.5 -53t51.5 -139q0 -94 -33 -164.5t-95.5 -109.5t-148.5 -39q-85 0 -136.5 53zM336.5 90.5q40.5 29.5 62.5 82.5t22 123q0 61 -31 94.5t-83 33.5q-53 0 -93 -29t-62 -82.5t-22 -122.5q0 -65 30 -97
t83 -32t93.5 29.5zM335 737h91l-153 -179h-70zM507 737h94l-178 -179h-72z" />
    <glyph glyph-name="OE" unicode="&#x152;" horiz-adv-x="967" 
d="M164 23.5q-53 33.5 -79.5 92.5t-26.5 134q0 135 44.5 239.5t124.5 162.5t182 58q66 0 114 -26.5t71 -76.5l17 93h385l-13 -74h-302l-40 -223h218l-12 -72h-217l-47 -257h311l-13 -74h-394l17 93q-42 -51 -94 -77t-118 -26q-75 0 -128 33.5zM433.5 113q59.5 50 93 137.5
t33.5 196.5q0 90 -38.5 140t-119.5 50q-74 0 -132 -49.5t-91 -137t-33 -199.5q0 -89 37 -138.5t117 -49.5q74 0 133.5 50z" />
    <glyph glyph-name="oe" unicode="&#x153;" horiz-adv-x="907" 
d="M92 43.5q-50 53.5 -50 139.5q0 88 34.5 159t98 112t145.5 41q62 0 100 -25.5t59 -72.5q69 98 202 98q99 0 144 -55.5t45 -134.5q0 -61 -18.5 -80t-51.5 -19h-310q-3 -18 -3 -33q0 -53 33 -82.5t93 -29.5q43 0 81.5 13t68.5 37l36 -49q-39 -34 -90.5 -53t-107.5 -19
q-62 0 -104 25.5t-62 74.5q-38 -46 -91 -73t-113 -27q-89 0 -139 53.5zM785 275q4 19 4 40q0 51 -29 80.5t-91 29.5q-69 0 -112.5 -43.5t-54.5 -106.5h283zM335.5 91.5q40.5 30.5 64 84.5t23.5 120q0 60 -29 94t-87 34q-50 0 -91 -30.5t-64 -84t-23 -119.5q0 -60 29 -94.5
t86 -34.5q51 0 91.5 30.5z" />
    <glyph glyph-name="Racute" unicode="&#x154;" horiz-adv-x="582" 
d="M137 615q1 4 1 11q0 12 -8 23.5t-8 18.5q0 8 8.5 20t21.5 21t27 9q17 0 31 -18h141q110 0 171.5 -46.5t61.5 -127.5q0 -67 -29.5 -119t-83.5 -84t-126 -37l136 -286h-99l-133 280h-85l-49 -280h-86zM293 353q100 0 150.5 42.5t50.5 125.5q0 53 -37.5 79t-116.5 26h-115
l-48 -273h116zM442 952h94l-143 -179h-69z" />
    <glyph glyph-name="racute" unicode="&#x155;" horiz-adv-x="396" 
d="M90 363q5 30 5 50q0 28 -9 53l80 29q11 -29 11 -67q0 -13 -1 -19q33 43 68 64.5t79 21.5q24 0 41.5 -5.5t37.5 -19.5l-44 -61q-23 15 -54 15q-57 0 -96 -43.5t-51 -113.5l-47 -267h-84zM324 737h94l-143 -179h-69z" />
    <glyph glyph-name="uni0156" unicode="&#x156;" horiz-adv-x="582" 
d="M137 615q1 4 1 11q0 12 -8 23.5t-8 18.5q0 8 8.5 20t21.5 21t27 9q17 0 31 -18h141q110 0 171.5 -46.5t61.5 -127.5q0 -67 -29.5 -119t-83.5 -84t-126 -37l136 -286h-99l-133 280h-85l-49 -280h-86zM293 353q100 0 150.5 42.5t50.5 125.5q0 53 -37.5 79t-116.5 26h-115
l-48 -273h116zM144 -233q54 22 76 65q-4 -1 -12 -1q-19 0 -31 11.5t-12 29.5q0 29 22 50t51 21q25 0 38.5 -14t13.5 -39q0 -46 -35.5 -89t-93.5 -68z" />
    <glyph glyph-name="uni0157" unicode="&#x157;" horiz-adv-x="396" 
d="M90 363q5 30 5 50q0 28 -9 53l80 29q11 -29 11 -67q0 -13 -1 -19q33 43 68 64.5t79 21.5q24 0 41.5 -5.5t37.5 -19.5l-44 -61q-23 15 -54 15q-57 0 -96 -43.5t-51 -113.5l-47 -267h-84zM-32 -233q54 22 76 65q-4 -1 -12 -1q-19 0 -31 11.5t-12 29.5q0 29 22 50t51 21
q25 0 38.5 -14t13.5 -39q0 -46 -35.5 -89t-93.5 -68z" />
    <glyph glyph-name="Rcaron" unicode="&#x158;" horiz-adv-x="582" 
d="M137 615q1 4 1 11q0 12 -8 23.5t-8 18.5q0 8 8.5 20t21.5 21t27 9q17 0 31 -18h141q110 0 171.5 -46.5t61.5 -127.5q0 -67 -29.5 -119t-83.5 -84t-126 -37l136 -286h-99l-133 280h-85l-49 -280h-86zM293 353q100 0 150.5 42.5t50.5 125.5q0 53 -37.5 79t-116.5 26h-115
l-48 -273h116zM332 786q-9 7 -9 17q0 6 3 10l3 5l-99 136h89l60 -98l89 98h88l-153 -152q-13 -13 -22 -18t-23 -5q-17 0 -26 7z" />
    <glyph glyph-name="rcaron" unicode="&#x159;" horiz-adv-x="396" 
d="M90 363q5 30 5 50q0 28 -9 53l80 29q11 -29 11 -67q0 -13 -1 -19q33 43 68 64.5t79 21.5q24 0 41.5 -5.5t37.5 -19.5l-44 -61q-23 15 -54 15q-57 0 -96 -43.5t-51 -113.5l-47 -267h-84zM214 571q-9 7 -9 17q0 6 3 10l3 5l-99 136h89l60 -98l89 98h88l-153 -152
q-13 -13 -22 -18t-23 -5q-17 0 -26 7z" />
    <glyph glyph-name="Sacute" unicode="&#x15a;" horiz-adv-x="579" 
d="M118.5 18.5q-61.5 28.5 -98.5 75.5l63 55q69 -87 192 -87q76 0 118 34.5t42 95.5q0 26 -14 44.5t-45.5 36t-91.5 40.5q-88 34 -130.5 79t-42.5 106q0 64 32.5 112t91.5 74t137 26q65 0 117.5 -19.5t89.5 -53.5l-57 -61q-32 30 -70.5 45.5t-92.5 15.5q-75 0 -117 -35
t-42 -97q0 -41 34 -67t115 -58q92 -36 133.5 -78t41.5 -104q0 -97 -71 -152.5t-191 -55.5q-82 0 -143.5 28.5zM466 952h94l-143 -179h-69z" />
    <glyph glyph-name="sacute" unicode="&#x15b;" horiz-adv-x="485" 
d="M98.5 11q-51.5 21 -82.5 59l61 55q23 -31 64 -48.5t87 -17.5q53 0 80.5 19.5t27.5 55.5q0 22 -21.5 37.5t-84.5 38.5q-76 28 -111 59.5t-35 77.5q0 70 54.5 109t148.5 39q49 0 90 -14.5t69 -37.5l-43 -60q-31 23 -61 33t-66 10q-49 0 -78 -19.5t-29 -53.5q0 -25 22 -38.5
t86 -38.5q78 -31 111 -60t33 -74q0 -72 -54 -112t-149 -40q-68 0 -119.5 21zM384 737h94l-143 -179h-69z" />
    <glyph glyph-name="Scircumflex" unicode="&#x15c;" horiz-adv-x="579" 
d="M118.5 18.5q-61.5 28.5 -98.5 75.5l63 55q69 -87 192 -87q76 0 118 34.5t42 95.5q0 26 -14 44.5t-45.5 36t-91.5 40.5q-88 34 -130.5 79t-42.5 106q0 64 32.5 112t91.5 74t137 26q65 0 117.5 -19.5t89.5 -53.5l-57 -61q-32 30 -70.5 45.5t-92.5 15.5q-75 0 -117 -35
t-42 -97q0 -41 34 -67t115 -58q92 -36 133.5 -78t41.5 -104q0 -97 -71 -152.5t-191 -55.5q-82 0 -143.5 28.5zM378 930q14 14 22.5 19t21.5 5q17 0 27 -7.5t10 -16.5q0 -4 -4 -10l-4 -5l100 -136h-90l-59 98l-90 -98h-88z" />
    <glyph glyph-name="scircumflex" unicode="&#x15d;" horiz-adv-x="485" 
d="M98.5 11q-51.5 21 -82.5 59l61 55q23 -31 64 -48.5t87 -17.5q53 0 80.5 19.5t27.5 55.5q0 22 -21.5 37.5t-84.5 38.5q-76 28 -111 59.5t-35 77.5q0 70 54.5 109t148.5 39q49 0 90 -14.5t69 -37.5l-43 -60q-31 23 -61 33t-66 10q-49 0 -78 -19.5t-29 -53.5q0 -25 22 -38.5
t86 -38.5q78 -31 111 -60t33 -74q0 -72 -54 -112t-149 -40q-68 0 -119.5 21zM296 715q14 14 22.5 19t21.5 5q17 0 27 -7.5t10 -16.5q0 -4 -4 -10l-4 -5l100 -136h-90l-59 98l-90 -98h-88z" />
    <glyph glyph-name="Scedilla" unicode="&#x15e;" horiz-adv-x="579" 
d="M482.5 302q41.5 -42 41.5 -104q0 -88 -59 -142.5t-162 -63.5l-36 -45q64 -9 64 -61q0 -46 -33.5 -74.5t-87.5 -28.5q-24 0 -48.5 8.5t-44.5 23.5l32 46q30 -23 66 -23q21 0 34 12t13 31q0 15 -11 22t-31 7q-10 0 -16 -1l-17 22l48 60q-72 4 -127 32t-88 71l63 55
q69 -87 192 -87q76 0 118 34.5t42 95.5q0 26 -14 44.5t-45.5 36t-91.5 40.5q-88 34 -130.5 79t-42.5 106q0 64 32.5 112t91.5 74t137 26q65 0 117.5 -19.5t89.5 -53.5l-57 -61q-32 30 -70.5 45.5t-92.5 15.5q-75 0 -117 -35t-42 -97q0 -41 34 -67t115 -58q92 -36 133.5 -78z
" />
    <glyph glyph-name="scedilla" unicode="&#x15f;" horiz-adv-x="485" 
d="M388 216q33 -29 33 -74q0 -68 -48 -107.5t-135 -43.5l-35 -44q64 -9 64 -61q0 -46 -33.5 -74.5t-87.5 -28.5q-24 0 -48.5 8.5t-44.5 23.5l32 46q30 -23 66 -23q21 0 34 12t13 31q0 15 -11 22t-31 7q-10 0 -16 -1l-17 22l49 62q-51 6 -91 26t-65 51l61 55q23 -31 64 -48.5
t87 -17.5q53 0 80.5 19.5t27.5 55.5q0 22 -21.5 37.5t-84.5 38.5q-76 28 -111 59.5t-35 77.5q0 70 54.5 109t148.5 39q49 0 90 -14.5t69 -37.5l-43 -60q-31 23 -61 33t-66 10q-49 0 -78 -19.5t-29 -53.5q0 -25 22 -38.5t86 -38.5q78 -31 111 -60z" />
    <glyph glyph-name="Scaron" unicode="&#x160;" horiz-adv-x="579" 
d="M118.5 18.5q-61.5 28.5 -98.5 75.5l63 55q69 -87 192 -87q76 0 118 34.5t42 95.5q0 26 -14 44.5t-45.5 36t-91.5 40.5q-88 34 -130.5 79t-42.5 106q0 64 32.5 112t91.5 74t137 26q65 0 117.5 -19.5t89.5 -53.5l-57 -61q-32 30 -70.5 45.5t-92.5 15.5q-75 0 -117 -35
t-42 -97q0 -41 34 -67t115 -58q92 -36 133.5 -78t41.5 -104q0 -97 -71 -152.5t-191 -55.5q-82 0 -143.5 28.5zM356 786q-9 7 -9 17q0 6 3 10l3 5l-99 136h89l60 -98l89 98h88l-153 -152q-13 -13 -22 -18t-23 -5q-17 0 -26 7z" />
    <glyph glyph-name="scaron" unicode="&#x161;" horiz-adv-x="485" 
d="M98.5 11q-51.5 21 -82.5 59l61 55q23 -31 64 -48.5t87 -17.5q53 0 80.5 19.5t27.5 55.5q0 22 -21.5 37.5t-84.5 38.5q-76 28 -111 59.5t-35 77.5q0 70 54.5 109t148.5 39q49 0 90 -14.5t69 -37.5l-43 -60q-31 23 -61 33t-66 10q-49 0 -78 -19.5t-29 -53.5q0 -25 22 -38.5
t86 -38.5q78 -31 111 -60t33 -74q0 -72 -54 -112t-149 -40q-68 0 -119.5 21zM274 571q-9 7 -9 17q0 6 3 10l3 5l-99 136h89l60 -98l89 98h88l-153 -152q-13 -13 -22 -18t-23 -5q-17 0 -26 7z" />
    <glyph glyph-name="uni0162" unicode="&#x162;" horiz-adv-x="556" 
d="M603 700l-13 -74h-200l-110 -626h-9l-43 -53q64 -9 64 -61q0 -46 -33.5 -74.5t-87.5 -28.5q-24 0 -48.5 8.5t-44.5 23.5l32 46q30 -23 66 -23q21 0 34 12t13 31q0 15 -11 22t-31 7q-10 0 -16 -1l-17 22l55 69h-9l110 626h-200l13 74h486z" />
    <glyph glyph-name="uni0163" unicode="&#x163;" horiz-adv-x="369" 
d="M185 123q-3 -15 -3 -26q0 -20 10.5 -28.5t33.5 -8.5q32 0 59 12l9 -63q-26 -12 -69 -17l-37 -45q64 -9 64 -61q0 -46 -33.5 -74.5t-87.5 -28.5q-24 0 -48.5 8.5t-44.5 23.5l32 46q30 -23 66 -23q21 0 34 12t13 31q0 15 -11 22t-31 7q-10 0 -16 -1l-17 22l52 66
q-30 8 -46 32t-16 61q0 16 3 34l51 291h-85l30 70h68l22 123l88 37l-29 -160h125l-29 -70h-106z" />
    <glyph glyph-name="Tcaron" unicode="&#x164;" horiz-adv-x="556" 
d="M304 626h-200l13 74h486l-13 -74h-200l-110 -626h-86zM344 786q-9 7 -9 17q0 6 3 10l3 5l-99 136h89l60 -98l89 98h88l-153 -152q-13 -13 -22 -18t-23 -5q-17 0 -26 7z" />
    <glyph glyph-name="tcaron" unicode="&#x165;" horiz-adv-x="450" 
d="M125 17q-27 26 -27 73q0 16 3 34l51 291h-85l30 70h68l22 123l88 37l-29 -160h125l-29 -70h-106l-51 -292q-3 -15 -3 -26q0 -20 10.5 -28.5t33.5 -8.5q32 0 59 12l9 -63q-16 -7 -42.5 -12.5t-50.5 -5.5q-49 0 -76 26zM417 573q28 13 47.5 30t27.5 34q-20 -2 -34.5 10.5
t-14.5 31.5q0 29 22 50.5t53 21.5q26 0 40 -14.5t14 -39.5q0 -46 -39 -92t-100 -72z" />
    <glyph glyph-name="Tbar" unicode="&#x166;" horiz-adv-x="556" 
d="M390 626l-39 -221h115l-13 -74h-115l-58 -331h-86l58 331h-113l13 74h113l39 221h-200l13 74h486l-13 -74h-200z" />
    <glyph glyph-name="tbar" unicode="&#x167;" horiz-adv-x="369" 
d="M236 415l-21 -123h106l-11 -64h-107l-18 -105q-3 -15 -3 -26q0 -20 10.5 -28.5t33.5 -8.5q32 0 59 12l9 -63q-16 -7 -42.5 -12.5t-50.5 -5.5q-49 0 -76 26t-27 73q0 16 3 34l18 104h-78l11 64h78l22 123h-85l30 70h68l22 123l88 37l-29 -160h125l-29 -70h-106z" />
    <glyph glyph-name="Utilde" unicode="&#x168;" horiz-adv-x="632" 
d="M111.5 45.5q-59.5 55.5 -59.5 146.5q0 22 5 52l80 456h86l-81 -462q-5 -28 -5 -48q0 -63 38 -95t111 -32q82 0 136.5 44.5t69.5 130.5l81 462h86l-80 -456q-22 -126 -99.5 -190t-204.5 -64q-104 0 -163.5 55.5zM261 813q12 37 41.5 61.5t62.5 24.5q24 0 40.5 -8t39.5 -24
q13 -10 22 -15t18 -5q19 0 32 12t22 39l44 -24q-9 -39 -37 -63t-63 -24q-21 0 -37 7.5t-36 21.5q-14 11 -25 16.5t-23 5.5q-36 0 -56 -51z" />
    <glyph glyph-name="utilde" unicode="&#x169;" horiz-adv-x="532" 
d="M83 32q-41 42 -41 111q0 22 4 42l54 300h84l-53 -299q-4 -20 -4 -41q0 -41 23 -62.5t73 -21.5q60 0 101.5 45t52.5 109l48 270h84l-64 -363q-5 -30 -5 -51q0 -28 9 -52l-80 -29q-13 37 -10 86q-68 -86 -166 -86q-69 0 -110 42zM173 598q12 37 41.5 61.5t62.5 24.5
q24 0 40.5 -8t39.5 -24q13 -10 22 -15t18 -5q19 0 32 12t22 39l44 -24q-9 -39 -37 -63t-63 -24q-21 0 -37 7.5t-36 21.5q-14 11 -25 16.5t-23 5.5q-36 0 -56 -51z" />
    <glyph glyph-name="Umacron" unicode="&#x16a;" horiz-adv-x="632" 
d="M111.5 45.5q-59.5 55.5 -59.5 146.5q0 22 5 52l80 456h86l-81 -462q-5 -28 -5 -48q0 -63 38 -95t111 -32q82 0 136.5 44.5t69.5 130.5l81 462h86l-80 -456q-22 -126 -99.5 -190t-204.5 -64q-104 0 -163.5 55.5zM275 861h304l-12 -66h-304z" />
    <glyph glyph-name="umacron" unicode="&#x16b;" horiz-adv-x="532" 
d="M83 32q-41 42 -41 111q0 22 4 42l54 300h84l-53 -299q-4 -20 -4 -41q0 -41 23 -62.5t73 -21.5q60 0 101.5 45t52.5 109l48 270h84l-64 -363q-5 -30 -5 -51q0 -28 9 -52l-80 -29q-13 37 -10 86q-68 -86 -166 -86q-69 0 -110 42zM187 646h304l-12 -66h-304z" />
    <glyph glyph-name="Ubreve" unicode="&#x16c;" horiz-adv-x="632" 
d="M111.5 45.5q-59.5 55.5 -59.5 146.5q0 22 5 52l80 456h86l-81 -462q-5 -28 -5 -48q0 -63 38 -95t111 -32q82 0 136.5 44.5t69.5 130.5l81 462h86l-80 -456q-22 -126 -99.5 -190t-204.5 -64q-104 0 -163.5 55.5zM324.5 793q-32.5 27 -32.5 77q0 18 4 35l2 9h73l-2 -9
q-3 -15 -3 -27q0 -26 14.5 -39.5t39.5 -13.5q61 0 79 80l2 9h73l-2 -9q-15 -66 -59 -102.5t-104 -36.5q-52 0 -84.5 27z" />
    <glyph glyph-name="ubreve" unicode="&#x16d;" horiz-adv-x="532" 
d="M83 32q-41 42 -41 111q0 22 4 42l54 300h84l-53 -299q-4 -20 -4 -41q0 -41 23 -62.5t73 -21.5q60 0 101.5 45t52.5 109l48 270h84l-64 -363q-5 -30 -5 -51q0 -28 9 -52l-80 -29q-13 37 -10 86q-68 -86 -166 -86q-69 0 -110 42zM236.5 578q-32.5 27 -32.5 77q0 18 4 35
l2 9h73l-2 -9q-3 -15 -3 -27q0 -26 14.5 -39.5t39.5 -13.5q61 0 79 80l2 9h73l-2 -9q-15 -66 -59 -102.5t-104 -36.5q-52 0 -84.5 27z" />
    <glyph glyph-name="Uring" unicode="&#x16e;" horiz-adv-x="632" 
d="M111.5 45.5q-59.5 55.5 -59.5 146.5q0 22 5 52l80 456h86l-81 -462q-5 -28 -5 -48q0 -63 38 -95t111 -32q82 0 136.5 44.5t69.5 130.5l81 462h86l-80 -456q-22 -126 -99.5 -190t-204.5 -64q-104 0 -163.5 55.5zM342 773q-27 21 -27 59q0 49 37 83.5t90 34.5q39 0 66 -21
t27 -59q0 -32 -17 -59t-46.5 -43t-64.5 -16q-38 0 -65 21zM459.5 819q17.5 17 17.5 43q0 19 -12.5 29t-30.5 10q-26 0 -43.5 -17.5t-17.5 -42.5q0 -18 12 -28.5t31 -10.5q26 0 43.5 17z" />
    <glyph glyph-name="uring" unicode="&#x16f;" horiz-adv-x="532" 
d="M83 32q-41 42 -41 111q0 22 4 42l54 300h84l-53 -299q-4 -20 -4 -41q0 -41 23 -62.5t73 -21.5q60 0 101.5 45t52.5 109l48 270h84l-64 -363q-5 -30 -5 -51q0 -28 9 -52l-80 -29q-13 37 -10 86q-68 -86 -166 -86q-69 0 -110 42zM254 558q-27 21 -27 59q0 49 37 83.5
t90 34.5q39 0 66 -21t27 -59q0 -32 -17 -59t-46.5 -43t-64.5 -16q-38 0 -65 21zM371.5 604q17.5 17 17.5 43q0 19 -12.5 29t-30.5 10q-26 0 -43.5 -17.5t-17.5 -42.5q0 -18 12 -28.5t31 -10.5q26 0 43.5 17z" />
    <glyph glyph-name="Uhungarumlaut" unicode="&#x170;" horiz-adv-x="632" 
d="M111.5 45.5q-59.5 55.5 -59.5 146.5q0 22 5 52l80 456h86l-81 -462q-5 -28 -5 -48q0 -63 38 -95t111 -32q82 0 136.5 44.5t69.5 130.5l81 462h86l-80 -456q-22 -126 -99.5 -190t-204.5 -64q-104 0 -163.5 55.5zM414 952h91l-153 -179h-70zM586 952h94l-178 -179h-72z" />
    <glyph glyph-name="uhungarumlaut" unicode="&#x171;" horiz-adv-x="532" 
d="M83 32q-41 42 -41 111q0 22 4 42l54 300h84l-53 -299q-4 -20 -4 -41q0 -41 23 -62.5t73 -21.5q60 0 101.5 45t52.5 109l48 270h84l-64 -363q-5 -30 -5 -51q0 -28 9 -52l-80 -29q-13 37 -10 86q-68 -86 -166 -86q-69 0 -110 42zM326 737h91l-153 -179h-70zM498 737h94
l-178 -179h-72z" />
    <glyph glyph-name="Uogonek" unicode="&#x172;" horiz-adv-x="632" 
d="M659 700l-80 -456q-21 -116 -88 -179.5t-178 -72.5q-89 -56 -89 -115q0 -16 11 -24.5t33 -8.5q23 0 55 17l8 -50q-43 -27 -90 -27q-39 0 -63.5 20.5t-24.5 55.5q0 38 23.5 73t62.5 59q-88 10 -137.5 63.5t-49.5 136.5q0 22 5 52l80 456h86l-81 -462q-5 -28 -5 -48
q0 -63 38 -95t111 -32q82 0 136.5 44.5t69.5 130.5l81 462h86z" />
    <glyph glyph-name="uogonek" unicode="&#x173;" horiz-adv-x="532" 
d="M368 -40.5q-32 -31.5 -32 -69.5q0 -16 11 -24.5t33 -8.5q23 0 55 17l8 -50q-43 -27 -90 -27q-39 0 -63.5 20.5t-24.5 55.5q0 41 27 78.5t71 60.5q-5 32 -4 64q-68 -86 -166 -86q-69 0 -110 42t-41 111q0 22 4 42l54 300h84l-53 -299q-4 -20 -4 -41q0 -41 23 -62.5
t73 -21.5q60 0 101.5 45t52.5 109l48 270h84l-64 -363q-5 -30 -5 -51q0 -28 9 -52q-49 -28 -81 -59.5z" />
    <glyph glyph-name="Wcircumflex" unicode="&#x174;" horiz-adv-x="832" 
d="M120 23q0 10 6 20l7 12l-6 645h86l-4 -539l248 523q12 26 42 26q24 0 36 -7.5t12 -19.5q0 -5 -4 -15l-5 -10l59 -497l185 539h87l-230 -645l3 -12q1 -3 1 -9q0 -28 -39 -40q-18 -4 -24 -4q-18 0 -27.5 12t-12.5 38l-63 525l-250 -525q-12 -26 -26 -38t-32 -12q-7 0 -23 4
q-26 7 -26 29zM506 930q14 14 22.5 19t21.5 5q17 0 27 -7.5t10 -16.5q0 -4 -4 -10l-4 -5l100 -136h-90l-59 98l-90 -98h-88z" />
    <glyph glyph-name="wcircumflex" unicode="&#x175;" horiz-adv-x="712" 
d="M141.5 -2.5q-9.5 7.5 -9.5 20.5q0 7 3 14l4 10l-50 443h88l23 -364l167 354q5 9 13.5 14.5t28.5 5.5q39 0 39 -25q0 -6 -4 -18l-8 -21l36 -310l151 364h88l-200 -443v-10q0 -18 -13.5 -30t-34.5 -12q-22 0 -31.5 7.5t-11.5 23.5l-39 340l-159 -340q-8 -16 -20 -23.5
t-33 -7.5q-18 0 -27.5 7.5zM405 715q14 14 22.5 19t21.5 5q17 0 27 -7.5t10 -16.5q0 -4 -4 -10l-4 -5l100 -136h-90l-59 98l-90 -98h-88z" />
    <glyph glyph-name="Ycircumflex" unicode="&#x176;" horiz-adv-x="631" 
d="M281 271l-154 429h90l116 -350l239 350h96l-305 -429l-47 -271h-82zM404 930q14 14 22.5 19t21.5 5q17 0 27 -7.5t10 -16.5q0 -4 -4 -10l-4 -5l100 -136h-90l-59 98l-90 -98h-88z" />
    <glyph glyph-name="ycircumflex" unicode="&#x177;" horiz-adv-x="568" 
d="M14 -160q140 48 195 186l-120 459h94l82 -371l203 371h99l-287 -498q-49 -86 -107.5 -136.5t-145.5 -80.5zM335 715q14 14 22.5 19t21.5 5q17 0 27 -7.5t10 -16.5q0 -4 -4 -10l-4 -5l100 -136h-90l-59 98l-90 -98h-88z" />
    <glyph glyph-name="Ydieresis" unicode="&#x178;" horiz-adv-x="631" 
d="M281 271l-154 429h90l116 -350l239 350h96l-305 -429l-47 -271h-82zM276.5 792q-13.5 13 -13.5 33q0 26 21 46t48 20q21 0 34 -13t13 -33q0 -26 -20.5 -46t-46.5 -20q-22 0 -35.5 13zM480 792.5q-14 13.5 -14 33.5q0 25 21.5 45t48.5 20q20 0 33.5 -13t13.5 -33
q0 -26 -20.5 -46t-46.5 -20q-22 0 -36 13.5z" />
    <glyph glyph-name="Zacute" unicode="&#x179;" horiz-adv-x="621" 
d="M46 -11q-15 0 -34 27q-4 8 -4 10q0 6 6 14t14 17l494 569h-382l13 74h428l10 9q10 10 25 10q14 0 25 -11q13 -14 13 -26q0 -15 -20 -38l-496 -570h410l-13 -74h-465l-11 -7q-5 -4 -13 -4zM489 952h94l-143 -179h-69z" />
    <glyph glyph-name="zacute" unicode="&#x17a;" horiz-adv-x="528" 
d="M47 -10q-22 0 -35 35q-2 8 -2 10q0 8 5.5 14.5t17.5 14.5q11 6 21 16l342 335h-293l12 70h329q20 0 28 6q6 4 13 4q18 0 31 -20q6 -9 6 -17q0 -14 -16 -30l-367 -358h312l-12 -70h-348q-19 0 -32 -7q-6 -3 -12 -3zM406 737h94l-143 -179h-69z" />
    <glyph glyph-name="Zdotaccent" unicode="&#x17b;" horiz-adv-x="621" 
d="M46 -11q-15 0 -34 27q-4 8 -4 10q0 6 6 14t14 17l494 569h-382l13 74h428l10 9q10 10 25 10q14 0 25 -11q13 -14 13 -26q0 -15 -20 -38l-496 -570h410l-13 -74h-465l-11 -7q-5 -4 -13 -4zM378.5 810q-13.5 13 -13.5 33q0 26 20.5 46t47.5 20q21 0 33.5 -13t12.5 -32
q0 -27 -20 -47t-46 -20q-21 0 -34.5 13z" />
    <glyph glyph-name="zdotaccent" unicode="&#x17c;" horiz-adv-x="528" 
d="M47 -10q-22 0 -35 35q-2 8 -2 10q0 8 5.5 14.5t17.5 14.5q11 6 21 16l342 335h-293l12 70h329q20 0 28 6q6 4 13 4q18 0 31 -20q6 -9 6 -17q0 -14 -16 -30l-367 -358h312l-12 -70h-348q-19 0 -32 -7q-6 -3 -12 -3zM295.5 595q-13.5 13 -13.5 33q0 26 20.5 46t47.5 20
q21 0 33.5 -13t12.5 -32q0 -27 -20 -47t-46 -20q-21 0 -34.5 13z" />
    <glyph glyph-name="Zcaron" unicode="&#x17d;" horiz-adv-x="621" 
d="M46 -11q-15 0 -34 27q-4 8 -4 10q0 6 6 14t14 17l494 569h-382l13 74h428l10 9q10 10 25 10q14 0 25 -11q13 -14 13 -26q0 -15 -20 -38l-496 -570h410l-13 -74h-465l-11 -7q-5 -4 -13 -4zM379 786q-9 7 -9 17q0 6 3 10l3 5l-99 136h89l60 -98l89 98h88l-153 -152
q-13 -13 -22 -18t-23 -5q-17 0 -26 7z" />
    <glyph glyph-name="zcaron" unicode="&#x17e;" horiz-adv-x="528" 
d="M47 -10q-22 0 -35 35q-2 8 -2 10q0 8 5.5 14.5t17.5 14.5q11 6 21 16l342 335h-293l12 70h329q20 0 28 6q6 4 13 4q18 0 31 -20q6 -9 6 -17q0 -14 -16 -30l-367 -358h312l-12 -70h-348q-19 0 -32 -7q-6 -3 -12 -3zM296 571q-9 7 -9 17q0 6 3 10l3 5l-99 136h89l60 -98
l89 98h88l-153 -152q-13 -13 -22 -18t-23 -5q-17 0 -26 7z" />
    <glyph glyph-name="uni018F" unicode="&#x18f;" horiz-adv-x="671" 
d="M115 57q-62 67 -62 184q0 63 11.5 93.5t26.5 37.5t36 7h436q9 50 9 90q0 85 -41 127.5t-131 42.5q-102 0 -217 -67l-35 56q60 38 130 60t134 22q118 0 180 -68t62 -191q0 -130 -45.5 -235t-128.5 -165.5t-192 -60.5q-111 0 -173 67zM464.5 127q66.5 66 87.5 182h-410
q-8 -45 -8 -77q0 -82 42 -126.5t125 -44.5q97 0 163.5 66z" />
    <glyph glyph-name="florin" unicode="&#x192;" horiz-adv-x="602" 
d="M-16 -113l37 65q32 -14 61 -14q32 0 52.5 16.5t35.5 59.5l120 341h-104l43 70h85l58 168q49 143 187 143q39 0 83 -18l-40 -66q-27 13 -56 13q-36 0 -56.5 -18t-34.5 -58l-56 -164h145l-42 -70h-128l-123 -345q-25 -71 -69 -107t-111 -36q-45 0 -87 20z" />
    <glyph glyph-name="Ohorn" unicode="&#x1a0;" horiz-adv-x="664" 
d="M754 786l-3 -20q-9 -64 -47 -103.5t-96 -53.5q38 -64 38 -159q0 -132 -45.5 -237t-127.5 -164t-187 -59q-111 0 -169.5 69.5t-58.5 190.5q0 132 44.5 237t125.5 164t185 59q87 0 145 -44q53 1 79 26t34 71l4 23h79zM431.5 113q58.5 50 92 137.5t33.5 197.5
q0 189 -157 189q-73 0 -131 -50t-90.5 -138t-32.5 -197q0 -91 36 -140t117 -49q74 0 132.5 50z" />
    <glyph glyph-name="ohorn" unicode="&#x1a1;" horiz-adv-x="548" 
d="M638 572l-3 -20q-10 -65 -48.5 -105t-97.5 -53q19 -41 19 -91q0 -94 -33 -164.5t-95.5 -109.5t-148.5 -39q-85 0 -136.5 53t-51.5 139q0 94 33.5 164.5t96 109.5t147.5 39q77 0 126 -43q51 1 76 26.5t33 70.5l4 23h79zM336.5 90.5q40.5 29.5 62.5 82.5t22 123
q0 61 -31 94.5t-83 33.5q-53 0 -93 -29t-62 -82.5t-22 -122.5q0 -65 30 -97t83 -32t93.5 29.5z" />
    <glyph glyph-name="Uhorn" unicode="&#x1af;" horiz-adv-x="683" 
d="M828 766l-3 -20q-12 -77 -62 -117.5t-125 -45.5l-59 -339q-22 -126 -99.5 -190t-204.5 -64q-104 0 -163.5 55.5t-59.5 146.5q0 22 5 52l80 456h86l-81 -462q-5 -28 -5 -48q0 -63 38 -95t111 -32q82 0 136.5 44.5t69.5 130.5l81 462h86l-9 -53q44 5 66 29.5t29 66.5l4 23
h79z" />
    <glyph glyph-name="uhorn" unicode="&#x1b0;" horiz-adv-x="532" 
d="M680 571l-3 -20q-12 -76 -61.5 -117t-123.5 -46l-47 -266q-5 -30 -5 -51q0 -28 9 -52l-80 -29q-13 37 -10 86q-68 -86 -166 -86q-69 0 -110 42t-41 111q0 22 4 42l54 300h84l-53 -299q-4 -20 -4 -41q0 -41 23 -62.5t73 -21.5q60 0 101.5 45t52.5 109l48 270h84l-6 -33
q43 5 65 30t29 66l4 23h79z" />
    <glyph glyph-name="uni01CD" unicode="&#x1cd;" horiz-adv-x="662" 
d="M358 672q24 46 64 46q22 0 34.5 -9.5t12.5 -23.5q0 -8 -8 -22l120 -663h-88l-32 191h-269l-100 -191h-93zM453 261l-53 338l-173 -338h226zM402 786q-9 7 -9 17q0 6 3 10l3 5l-99 136h89l60 -98l89 98h88l-153 -152q-13 -13 -22 -18t-23 -5q-17 0 -26 7z" />
    <glyph glyph-name="uni01CE" unicode="&#x1ce;" horiz-adv-x="566" 
d="M88 43q-47 53 -47 136q0 88 35 160.5t96.5 114t136.5 41.5q98 0 139 -80l12 70h82l-63 -360q-6 -33 -6 -56q0 -28 10 -51l-74 -28q-15 24 -15 60q0 6 2 24l-3 1q-36 -41 -82 -63t-97 -22q-79 0 -126 53zM355 105.5q47 45.5 59 115.5l7 42q3 17 3 32q0 55 -30.5 92.5
t-89.5 37.5q-49 0 -89.5 -31.5t-64 -86.5t-23.5 -121q0 -59 27.5 -92.5t82.5 -33.5q71 0 118 45.5zM305 571q-9 7 -9 17q0 6 3 10l3 5l-99 136h89l60 -98l89 98h88l-153 -152q-13 -13 -22 -18t-23 -5q-17 0 -26 7z" />
    <glyph glyph-name="uni01CF" unicode="&#x1cf;" horiz-adv-x="287" 
d="M181 700h86l-123 -700h-86zM208 786q-9 7 -9 17q0 6 3 10l3 5l-99 136h89l60 -98l89 98h88l-153 -152q-13 -13 -22 -18t-23 -5q-17 0 -26 7z" />
    <glyph glyph-name="uni01D0" unicode="&#x1d0;" horiz-adv-x="244" 
d="M124 485h83l-86 -485h-83zM149 571q-9 7 -9 17q0 6 3 10l3 5l-99 136h89l60 -98l89 98h88l-153 -152q-13 -13 -22 -18t-23 -5q-17 0 -26 7z" />
    <glyph glyph-name="uni01D1" unicode="&#x1d1;" horiz-adv-x="664" 
d="M116.5 59.5q-58.5 69.5 -58.5 190.5q0 132 44.5 237t125.5 164t185 59q113 0 173 -70t60 -190q0 -132 -45.5 -237t-127.5 -164t-187 -59q-111 0 -169.5 69.5zM431.5 113q58.5 50 92 137.5t33.5 197.5q0 189 -157 189q-73 0 -131 -50t-90.5 -138t-32.5 -197q0 -91 36 -140
t117 -49q74 0 132.5 50zM396 786q-9 7 -9 17q0 6 3 10l3 5l-99 136h89l60 -98l89 98h88l-153 -152q-13 -13 -22 -18t-23 -5q-17 0 -26 7z" />
    <glyph glyph-name="uni01D2" unicode="&#x1d2;" horiz-adv-x="548" 
d="M94.5 43q-51.5 53 -51.5 139q0 94 33.5 164.5t96 109.5t147.5 39t136.5 -53t51.5 -139q0 -94 -33 -164.5t-95.5 -109.5t-148.5 -39q-85 0 -136.5 53zM336.5 90.5q40.5 29.5 62.5 82.5t22 123q0 61 -31 94.5t-83 33.5q-53 0 -93 -29t-62 -82.5t-22 -122.5q0 -65 30 -97
t83 -32t93.5 29.5zM303 571q-9 7 -9 17q0 6 3 10l3 5l-99 136h89l60 -98l89 98h88l-153 -152q-13 -13 -22 -18t-23 -5q-17 0 -26 7z" />
    <glyph glyph-name="uni01D3" unicode="&#x1d3;" horiz-adv-x="632" 
d="M111.5 45.5q-59.5 55.5 -59.5 146.5q0 22 5 52l80 456h86l-81 -462q-5 -28 -5 -48q0 -63 38 -95t111 -32q82 0 136.5 44.5t69.5 130.5l81 462h86l-80 -456q-22 -126 -99.5 -190t-204.5 -64q-104 0 -163.5 55.5zM382 786q-9 7 -9 17q0 6 3 10l3 5l-99 136h89l60 -98l89 98
h88l-153 -152q-13 -13 -22 -18t-23 -5q-17 0 -26 7z" />
    <glyph glyph-name="uni01D4" unicode="&#x1d4;" horiz-adv-x="532" 
d="M83 32q-41 42 -41 111q0 22 4 42l54 300h84l-53 -299q-4 -20 -4 -41q0 -41 23 -62.5t73 -21.5q60 0 101.5 45t52.5 109l48 270h84l-64 -363q-5 -30 -5 -51q0 -28 9 -52l-80 -29q-13 37 -10 86q-68 -86 -166 -86q-69 0 -110 42zM294 571q-9 7 -9 17q0 6 3 10l3 5l-99 136
h89l60 -98l89 98h88l-153 -152q-13 -13 -22 -18t-23 -5q-17 0 -26 7z" />
    <glyph glyph-name="uni01D5" unicode="&#x1d5;" horiz-adv-x="632" 
d="M111.5 45.5q-59.5 55.5 -59.5 146.5q0 22 5 52l80 456h86l-81 -462q-5 -28 -5 -48q0 -63 38 -95t111 -32q82 0 136.5 44.5t69.5 130.5l81 462h86l-80 -456q-22 -126 -99.5 -190t-204.5 -64q-104 0 -163.5 55.5zM276.5 792q-13.5 13 -13.5 33q0 26 21 46t48 20
q21 0 34 -13t13 -33q0 -26 -20.5 -46t-46.5 -20q-22 0 -35.5 13zM480 792.5q-14 13.5 -14 33.5q0 25 21.5 45t48.5 20q20 0 33.5 -13t13.5 -33q0 -26 -20.5 -46t-46.5 -20q-22 0 -36 13.5zM306 1038h304l-12 -66h-304z" />
    <glyph glyph-name="uni01D6" unicode="&#x1d6;" horiz-adv-x="532" 
d="M83 32q-41 42 -41 111q0 22 4 42l54 300h84l-53 -299q-4 -20 -4 -41q0 -41 23 -62.5t73 -21.5q60 0 101.5 45t52.5 109l48 270h84l-64 -363q-5 -30 -5 -51q0 -28 9 -52l-80 -29q-13 37 -10 86q-68 -86 -166 -86q-69 0 -110 42zM188.5 577q-13.5 13 -13.5 33q0 26 21 46
t48 20q21 0 34 -13t13 -33q0 -26 -20.5 -46t-46.5 -20q-22 0 -35.5 13zM392 577.5q-14 13.5 -14 33.5q0 25 21.5 45t48.5 20q20 0 33.5 -13t13.5 -33q0 -26 -20.5 -46t-46.5 -20q-22 0 -36 13.5zM218 823h304l-12 -66h-304z" />
    <glyph glyph-name="uni01D7" unicode="&#x1d7;" horiz-adv-x="632" 
d="M111.5 45.5q-59.5 55.5 -59.5 146.5q0 22 5 52l80 456h86l-81 -462q-5 -28 -5 -48q0 -63 38 -95t111 -32q82 0 136.5 44.5t69.5 130.5l81 462h86l-80 -456q-22 -126 -99.5 -190t-204.5 -64q-104 0 -163.5 55.5zM499 1055h86l-123 -146h-63zM284 802.5q-13 12.5 -13 31.5
q0 25 19.5 43.5t45.5 18.5q19 0 32 -12.5t13 -31.5q0 -24 -19.5 -43t-43.5 -19q-21 0 -34 12.5zM479 802.5q-13 12.5 -13 31.5q0 25 19.5 43.5t45.5 18.5q19 0 32 -12.5t13 -31.5q0 -24 -19.5 -43t-43.5 -19q-21 0 -34 12.5z" />
    <glyph glyph-name="uni01D8" unicode="&#x1d8;" horiz-adv-x="532" 
d="M83 32q-41 42 -41 111q0 22 4 42l54 300h84l-53 -299q-4 -20 -4 -41q0 -41 23 -62.5t73 -21.5q60 0 101.5 45t52.5 109l48 270h84l-64 -363q-5 -30 -5 -51q0 -28 9 -52l-80 -29q-13 37 -10 86q-68 -86 -166 -86q-69 0 -110 42zM411 840h86l-123 -146h-63zM196 587.5
q-13 12.5 -13 31.5q0 25 19.5 43.5t45.5 18.5q19 0 32 -12.5t13 -31.5q0 -24 -19.5 -43t-43.5 -19q-21 0 -34 12.5zM391 587.5q-13 12.5 -13 31.5q0 25 19.5 43.5t45.5 18.5q19 0 32 -12.5t13 -31.5q0 -24 -19.5 -43t-43.5 -19q-21 0 -34 12.5z" />
    <glyph glyph-name="uni01D9" unicode="&#x1d9;" horiz-adv-x="632" 
d="M111.5 45.5q-59.5 55.5 -59.5 146.5q0 22 5 52l80 456h86l-81 -462q-5 -28 -5 -48q0 -63 38 -95t111 -32q82 0 136.5 44.5t69.5 130.5l81 462h86l-80 -456q-22 -126 -99.5 -190t-204.5 -64q-104 0 -163.5 55.5zM401.5 907q-8.5 7 -8.5 16q0 6 2 9l3 5l-93 120h84l57 -84
l82 84h83l-142 -135q-13 -12 -21.5 -17t-21.5 -5q-16 0 -24.5 7zM284 802.5q-13 12.5 -13 31.5q0 25 19.5 43.5t45.5 18.5q19 0 32 -12.5t13 -31.5q0 -24 -19.5 -43t-43.5 -19q-21 0 -34 12.5zM479 802.5q-13 12.5 -13 31.5q0 25 19.5 43.5t45.5 18.5q19 0 32 -12.5
t13 -31.5q0 -24 -19.5 -43t-43.5 -19q-21 0 -34 12.5z" />
    <glyph glyph-name="uni01DA" unicode="&#x1da;" horiz-adv-x="532" 
d="M83 32q-41 42 -41 111q0 22 4 42l54 300h84l-53 -299q-4 -20 -4 -41q0 -41 23 -62.5t73 -21.5q60 0 101.5 45t52.5 109l48 270h84l-64 -363q-5 -30 -5 -51q0 -28 9 -52l-80 -29q-13 37 -10 86q-68 -86 -166 -86q-69 0 -110 42zM313.5 692q-8.5 7 -8.5 16q0 6 2 9l3 5
l-93 120h84l57 -84l82 84h83l-142 -135q-13 -12 -21.5 -17t-21.5 -5q-16 0 -24.5 7zM196 587.5q-13 12.5 -13 31.5q0 25 19.5 43.5t45.5 18.5q19 0 32 -12.5t13 -31.5q0 -24 -19.5 -43t-43.5 -19q-21 0 -34 12.5zM391 587.5q-13 12.5 -13 31.5q0 25 19.5 43.5t45.5 18.5
q19 0 32 -12.5t13 -31.5q0 -24 -19.5 -43t-43.5 -19q-21 0 -34 12.5z" />
    <glyph glyph-name="uni01DB" unicode="&#x1db;" horiz-adv-x="632" 
d="M111.5 45.5q-59.5 55.5 -59.5 146.5q0 22 5 52l80 456h86l-81 -462q-5 -28 -5 -48q0 -63 38 -95t111 -32q82 0 136.5 44.5t69.5 130.5l81 462h86l-80 -456q-22 -126 -99.5 -190t-204.5 -64q-104 0 -163.5 55.5zM331 1055h87l48 -146h-63zM283.5 802.5
q-12.5 12.5 -12.5 31.5q0 24 19.5 43t44.5 19q20 0 33 -12.5t13 -31.5q0 -25 -19.5 -43.5t-45.5 -18.5q-20 0 -32.5 12.5zM479 803q-13 13 -13 31q0 25 19.5 43.5t45.5 18.5q19 0 32 -12.5t13 -30.5q0 -25 -19.5 -44t-44.5 -19q-20 0 -33 13z" />
    <glyph glyph-name="uni01DC" unicode="&#x1dc;" horiz-adv-x="532" 
d="M83 32q-41 42 -41 111q0 22 4 42l54 300h84l-53 -299q-4 -20 -4 -41q0 -41 23 -62.5t73 -21.5q60 0 101.5 45t52.5 109l48 270h84l-64 -363q-5 -30 -5 -51q0 -28 9 -52l-80 -29q-13 37 -10 86q-68 -86 -166 -86q-69 0 -110 42zM243 840h87l48 -146h-63zM195.5 587.5
q-12.5 12.5 -12.5 31.5q0 24 19.5 43t44.5 19q20 0 33 -12.5t13 -31.5q0 -25 -19.5 -43.5t-45.5 -18.5q-20 0 -32.5 12.5zM391 588q-13 13 -13 31q0 25 19.5 43.5t45.5 18.5q19 0 32 -12.5t13 -30.5q0 -25 -19.5 -44t-44.5 -19q-20 0 -33 13z" />
    <glyph glyph-name="Gcaron" unicode="&#x1e6;" horiz-adv-x="647" 
d="M180 23q-58 33 -89.5 94.5t-31.5 143.5q0 127 47.5 229t134 161t199.5 59q60 0 109 -20.5t78 -57.5l-47 -63q-27 34 -63 51t-90 17q-79 0 -142.5 -47t-100 -130.5t-36.5 -190.5q0 -99 46 -152.5t137 -53.5q44 0 74.5 8t61.5 26l36 205h-165l13 72h200q9 8 15.5 11.5
t15.5 3.5q16 0 27.5 -15t11.5 -30q0 -7 -2.5 -11t-9.5 -10q-9 -7 -14.5 -15t-8.5 -25l-40 -227q-66 -37 -116.5 -51.5t-113.5 -14.5q-78 0 -136 33zM419 786q-9 7 -9 17q0 6 3 10l3 5l-99 136h89l60 -98l89 98h88l-153 -152q-13 -13 -22 -18t-23 -5q-17 0 -26 7z" />
    <glyph glyph-name="gcaron" unicode="&#x1e7;" horiz-adv-x="568" 
d="M95 -208.5q-38 9.5 -67 24.5l37 65q24 -13 55.5 -20.5t66.5 -7.5q92 0 134 46t57 130l9 50q-32 -37 -75 -58t-93 -21q-82 0 -129.5 51.5t-47.5 136.5q0 89 33 159t92.5 109.5t136.5 39.5q102 0 149 -86q6 28 18.5 51.5t26.5 35.5l66 -28q-17 -23 -26.5 -48t-16.5 -62
l-59 -333q-22 -121 -94 -182.5t-194 -61.5q-41 0 -79 9.5zM323 93.5q37 23.5 61 61t31 77.5l6 33q3 17 3 34q0 55 -32 91t-90 36q-50 0 -90 -30t-62.5 -83t-22.5 -120q0 -57 27.5 -90t86.5 -33q45 0 82 23.5zM316 571q-9 7 -9 17q0 6 3 10l3 5l-99 136h89l60 -98l89 98h88
l-153 -152q-13 -13 -22 -18t-23 -5q-17 0 -26 7z" />
    <glyph glyph-name="Aringacute" unicode="&#x1fa;" horiz-adv-x="662" 
d="M358 672q24 46 64 46q22 0 34.5 -9.5t12.5 -23.5q0 -8 -8 -22l120 -663h-88l-32 191h-269l-100 -191h-93zM453 261l-53 338l-173 -338h226zM362 773q-27 21 -27 59q0 49 37 83.5t90 34.5q39 0 66 -21t27 -59q0 -32 -17 -59t-46.5 -43t-64.5 -16q-38 0 -65 21zM479.5 819
q17.5 17 17.5 43q0 19 -12.5 29t-30.5 10q-26 0 -43.5 -17.5t-17.5 -42.5q0 -18 12 -28.5t31 -10.5q26 0 43.5 17zM550 1168h94l-143 -179h-69z" />
    <glyph glyph-name="aringacute" unicode="&#x1fb;" horiz-adv-x="566" 
d="M88 43q-47 53 -47 136q0 88 35 160.5t96.5 114t136.5 41.5q98 0 139 -80l12 70h82l-63 -360q-6 -33 -6 -56q0 -28 10 -51l-74 -28q-15 24 -15 60q0 6 2 24l-3 1q-36 -41 -82 -63t-97 -22q-79 0 -126 53zM355 105.5q47 45.5 59 115.5l7 42q3 17 3 32q0 55 -30.5 92.5
t-89.5 37.5q-49 0 -89.5 -31.5t-64 -86.5t-23.5 -121q0 -59 27.5 -92.5t82.5 -33.5q71 0 118 45.5zM265 558q-27 21 -27 59q0 49 37 83.5t90 34.5q39 0 66 -21t27 -59q0 -32 -17 -59t-46.5 -43t-64.5 -16q-38 0 -65 21zM382.5 604q17.5 17 17.5 43q0 19 -12.5 29t-30.5 10
q-26 0 -43.5 -17.5t-17.5 -42.5q0 -18 12 -28.5t31 -10.5q26 0 43.5 17zM453 953h94l-143 -179h-69z" />
    <glyph glyph-name="AEacute" unicode="&#x1fc;" horiz-adv-x="810" 
d="M421 700h417l-13 -74h-290l-39 -223h206l-13 -72h-206l-45 -257h299l-13 -74h-381l34 191h-167l-113 -191h-93zM389 261l62 349l-204 -349h142zM644 952h94l-143 -179h-69z" />
    <glyph glyph-name="aeacute" unicode="&#x1fd;" horiz-adv-x="886" 
d="M68 23.5q-41 33.5 -41 91.5q0 54 27.5 94.5t77 63t114.5 22.5h152l3 15q2 14 2 20q0 41 -29.5 68t-79.5 27q-85 0 -157 -53l-35 51q41 33 96 52.5t111 19.5q60 0 96 -25t53 -72h1q71 97 205 97q97 0 142 -49.5t45 -129.5q0 -49 -11 -72.5t-25 -29t-35 -5.5h-311l-3 -14
q-3 -15 -3 -28q0 -48 34.5 -77t96.5 -29q86 0 153 53l35 -52q-42 -34 -93 -53t-107 -19q-66 0 -112.5 31.5t-58.5 79.5h-1q-38 -50 -95.5 -80.5t-130.5 -30.5q-75 0 -116 33.5zM766 277q4 28 4 39q0 52 -30 80.5t-90 28.5q-45 0 -81.5 -19.5t-58.5 -49.5t-27 -61l-3 -18h286
zM288.5 79.5q38.5 18.5 62.5 48.5t30 64l6 35h-157q-55 0 -86.5 -27t-31.5 -75q0 -64 91 -64q47 0 85.5 18.5zM560 737h94l-143 -179h-69z" />
    <glyph glyph-name="Oslashacute" unicode="&#x1fe;" horiz-adv-x="664" 
d="M588 638q58 -70 58 -188q0 -132 -45.5 -237t-127.5 -164t-187 -59q-85 0 -141 42l-75 -103l-41 25l82 112q-53 68 -53 184q0 132 44.5 237t125.5 164t185 59q84 0 139 -40l74 101l41 -25zM165 141l339 463q-39 33 -104 33q-73 0 -131 -50t-90.5 -138t-32.5 -197
q0 -67 19 -111zM534 564l-340 -465q38 -36 105 -36q74 0 132.5 50t92 137.5t33.5 197.5q0 73 -23 116zM503 952h94l-143 -179h-69z" />
    <glyph glyph-name="oslashacute" unicode="&#x1ff;" horiz-adv-x="548" 
d="M493.5 384.5q14.5 -36.5 14.5 -81.5q0 -94 -33 -164.5t-95.5 -109.5t-148.5 -39q-55 0 -96 23l-61 -84l-41 25l64 87q-54 52 -54 141q0 94 33.5 164.5t96 109.5t147.5 39q53 0 93 -21l60 82l41 -25l-62 -85q27 -25 41.5 -61.5zM147 111l219 299q-26 14 -59 14
q-53 0 -93 -29t-62 -82.5t-22 -122.5q0 -48 17 -79zM336.5 90.5q40.5 29.5 62.5 82.5t22 123q0 49 -20 80l-220 -300q27 -15 62 -15q53 0 93.5 29.5zM413 737h94l-143 -179h-69z" />
    <glyph glyph-name="uni0218" unicode="&#x218;" horiz-adv-x="579" 
d="M118.5 18.5q-61.5 28.5 -98.5 75.5l63 55q69 -87 192 -87q76 0 118 34.5t42 95.5q0 26 -14 44.5t-45.5 36t-91.5 40.5q-88 34 -130.5 79t-42.5 106q0 64 32.5 112t91.5 74t137 26q65 0 117.5 -19.5t89.5 -53.5l-57 -61q-32 30 -70.5 45.5t-92.5 15.5q-75 0 -117 -35
t-42 -97q0 -41 34 -67t115 -58q92 -36 133.5 -78t41.5 -104q0 -97 -71 -152.5t-191 -55.5q-82 0 -143.5 28.5zM167 -233q54 22 76 65q-4 -1 -12 -1q-19 0 -31 11.5t-12 29.5q0 29 22 50t51 21q25 0 38.5 -14t13.5 -39q0 -46 -35.5 -89t-93.5 -68z" />
    <glyph glyph-name="uni0219" unicode="&#x219;" horiz-adv-x="485" 
d="M98.5 11q-51.5 21 -82.5 59l61 55q23 -31 64 -48.5t87 -17.5q53 0 80.5 19.5t27.5 55.5q0 22 -21.5 37.5t-84.5 38.5q-76 28 -111 59.5t-35 77.5q0 70 54.5 109t148.5 39q49 0 90 -14.5t69 -37.5l-43 -60q-31 23 -61 33t-66 10q-49 0 -78 -19.5t-29 -53.5q0 -25 22 -38.5
t86 -38.5q78 -31 111 -60t33 -74q0 -72 -54 -112t-149 -40q-68 0 -119.5 21zM103 -233q54 22 76 65q-4 -1 -12 -1q-19 0 -31 11.5t-12 29.5q0 29 22 50t51 21q25 0 38.5 -14t13.5 -39q0 -46 -35.5 -89t-93.5 -68z" />
    <glyph glyph-name="uni021A" unicode="&#x21a;" horiz-adv-x="556" 
d="M304 626h-200l13 74h486l-13 -74h-200l-110 -626h-86zM128 -233q54 22 76 65q-4 -1 -12 -1q-19 0 -31 11.5t-12 29.5q0 29 22 50t51 21q25 0 38.5 -14t13.5 -39q0 -46 -35.5 -89t-93.5 -68z" />
    <glyph glyph-name="uni021B" unicode="&#x21b;" horiz-adv-x="369" 
d="M125 17q-27 26 -27 73q0 16 3 34l51 291h-85l30 70h68l22 123l88 37l-29 -160h125l-29 -70h-106l-51 -292q-3 -15 -3 -26q0 -20 10.5 -28.5t33.5 -8.5q32 0 59 12l9 -63q-16 -7 -42.5 -12.5t-50.5 -5.5q-49 0 -76 26zM88 -233q54 22 76 65q-4 -1 -12 -1q-19 0 -31 11.5
t-12 29.5q0 29 22 50t51 21q25 0 38.5 -14t13.5 -39q0 -46 -35.5 -89t-93.5 -68z" />
    <glyph glyph-name="uni0237" unicode="&#x237;" horiz-adv-x="418" 
d="M19.5 -207q-34.5 12 -56.5 31l43 59q40 -32 94 -32q46 0 70.5 26t35.5 88l92 520h84l-92 -517q-17 -96 -65 -141.5t-134 -45.5q-37 0 -71.5 12z" />
    <glyph glyph-name="uni0251" unicode="&#x251;" horiz-adv-x="567" 
d="M88 42.5q-47 52.5 -47 135.5q0 88 37.5 160.5t102 114.5t142.5 42q93 0 140.5 -50.5t47.5 -125.5q0 -13 -4 -41l-27 -153q-6 -33 -6 -56q0 -28 10 -51l-74 -28q-15 25 -15 57q0 7 2 27l-3 1q-77 -85 -179 -85q-80 0 -127 52.5zM355.5 105.5q47.5 45.5 59.5 115.5l7 42
q5 32 5 52q0 54 -28.5 82t-91.5 28q-50 0 -91 -30t-65 -84.5t-24 -123.5q0 -127 111 -127q70 0 117.5 45.5z" />
    <glyph glyph-name="uni0259" unicode="&#x259;" horiz-adv-x="543" 
d="M122.5 17.5q-42.5 27.5 -63 71t-20.5 91.5q0 61 18.5 80t51.5 19h309q4 28 4 40q0 105 -126 105q-88 0 -150 -48l-38 49q37 32 89.5 51t110.5 19q94 0 145 -51.5t51 -139.5q0 -89 -34.5 -160.5t-97 -112.5t-144.5 -41q-63 0 -105.5 27.5zM321.5 82q35.5 22 57.5 56.5
t28 71.5h-283q-3 -16 -3 -33q0 -52 30 -84.5t89 -32.5q46 0 81.5 22z" />
    <glyph glyph-name="uni02BB" unicode="&#x2bb;" horiz-adv-x="229" 
d="M123 547q-14 14 -14 39q0 46 38.5 92.5t99.5 72.5l17 -40q-26 -12 -47 -29.5t-29 -34.5q20 2 34.5 -10t14.5 -32q0 -29 -22 -50.5t-52 -21.5q-26 0 -40 14z" />
    <glyph glyph-name="uni02BC" unicode="&#x2bc;" horiz-adv-x="232" 
d="M107 573q28 13 47.5 30t27.5 34q-20 -2 -34.5 10.5t-14.5 31.5q0 29 22 50.5t53 21.5q26 0 40 -14.5t14 -39.5q0 -46 -39 -92t-100 -72z" />
    <glyph glyph-name="uni02BE" unicode="&#x2be;" 
d="M-12 579h10q27 0 44.5 15.5t17.5 40.5q0 17 -12 27t-34 10h-10l10 57h11q47 0 74 -22t27 -61q0 -54 -39 -89t-98 -35h-11z" />
    <glyph glyph-name="uni02BF" unicode="&#x2bf;" 
d="M17 544q-27 22 -27 60q0 54 39 89.5t98 35.5h11l-10 -57h-10q-27 0 -44.5 -16t-17.5 -40q0 -17 12 -27t34 -10h10l-10 -57h-11q-47 0 -74 22z" />
    <glyph glyph-name="circumflex" unicode="&#x2c6;" horiz-adv-x="416" 
d="M252 700q14 14 23 19t22 5q17 0 27 -7.5t10 -16.5q0 -4 -4 -10l-4 -5l99 -136h-89l-60 98l-89 -98h-88z" />
    <glyph glyph-name="caron" unicode="&#x2c7;" horiz-adv-x="416" 
d="M232 556q-9 7 -9 17q0 6 3 10l3 5l-99 136h89l60 -98l89 98h88l-153 -152q-13 -13 -22 -18t-23 -5q-17 0 -26 7z" />
    <glyph glyph-name="uni02C8" unicode="&#x2c8;" 
d="M50 742h76l-31 -176h-76z" />
    <glyph glyph-name="uni02C9" unicode="&#x2c9;" horiz-adv-x="428" 
d="M117 637h334l-12 -67h-334z" />
    <glyph glyph-name="uni02CA" unicode="&#x2ca;" 
d="M-27 589l164 140l45 -55l-171 -131z" />
    <glyph glyph-name="uni02CB" unicode="&#x2cb;" 
d="M-11 674l66 55l113 -140l-54 -46z" />
    <glyph glyph-name="uni02CC" unicode="&#x2cc;" 
d="M-86 -26h76l-31 -176h-76z" />
    <glyph glyph-name="breve" unicode="&#x2d8;" horiz-adv-x="370" 
d="M151.5 563q-32.5 27 -32.5 77q0 18 4 35l2 9h73l-2 -9q-3 -15 -3 -27q0 -26 14.5 -39.5t39.5 -13.5q62 0 80 80l2 9h72l-2 -9q-15 -66 -59 -102.5t-104 -36.5q-52 0 -84.5 27z" />
    <glyph glyph-name="dotaccent" unicode="&#x2d9;" horiz-adv-x="207" 
d="M126.5 580q-13.5 13 -13.5 33q0 26 20.5 46t47.5 20q21 0 34 -13t13 -33q0 -26 -20.5 -46t-46.5 -20q-21 0 -34.5 13z" />
    <glyph glyph-name="ring" unicode="&#x2da;" horiz-adv-x="307" 
d="M137 543q-27 21 -27 59q0 49 37 83.5t90 34.5q40 0 67 -21t27 -59q0 -32 -17 -59t-47 -43t-65 -16q-38 0 -65 21zM254.5 589q17.5 17 17.5 43q0 19 -12.5 29t-30.5 10q-26 0 -43 -17.5t-17 -43.5q0 -18 11.5 -28t30.5 -10q26 0 43.5 17z" />
    <glyph glyph-name="ogonek" unicode="&#x2db;" horiz-adv-x="282" 
d="M5 -195.5q-24 20.5 -24 56.5q0 43 31.5 83t83.5 62h70q-114 -64 -114 -129q0 -33 43 -33q22 0 56 17l7 -50q-42 -27 -89 -27q-40 0 -64 20.5z" />
    <glyph glyph-name="tilde" unicode="&#x2dc;" horiz-adv-x="405" 
d="M107 583q12 37 41.5 61.5t63.5 24.5q24 0 41 -8.5t38 -23.5q13 -10 22 -15t18 -5q19 0 32 12t23 39l43 -24q-9 -39 -37 -63t-63 -24q-21 0 -37 7.5t-36 21.5q-14 11 -25 16.5t-23 5.5q-36 0 -56 -51z" />
    <glyph glyph-name="hungarumlaut" unicode="&#x2dd;" horiz-adv-x="460" 
d="M233 722h90l-153 -179h-70zM404 722h94l-178 -179h-71z" />
    <glyph glyph-name="gravecomb" unicode="&#x300;" 
d="M6 722h95l53 -179h-69z" />
    <glyph glyph-name="acutecomb" unicode="&#x301;" 
d="M103 722h94l-143 -179h-69z" />
    <glyph glyph-name="uni0302" unicode="&#x302;" 
d="M45 700q14 14 22.5 19t21.5 5q17 0 27 -7.5t10 -16.5q0 -4 -4 -10l-4 -5l100 -136h-90l-59 98l-90 -98h-88z" />
    <glyph glyph-name="tildecomb" unicode="&#x303;" 
d="M-97 583q12 37 41.5 61.5t62.5 24.5q24 0 40.5 -8t39.5 -24q13 -10 22 -15t18 -5q19 0 32 12t22 39l44 -24q-9 -39 -37 -63t-63 -24q-21 0 -37 7.5t-36 21.5q-14 11 -25 16.5t-23 5.5q-36 0 -56 -51z" />
    <glyph glyph-name="uni0304" unicode="&#x304;" 
d="M-83 631h304l-12 -66h-304z" />
    <glyph glyph-name="uni0306" unicode="&#x306;" 
d="M-33.5 563q-32.5 27 -32.5 77q0 18 4 35l2 9h73l-2 -9q-3 -15 -3 -27q0 -26 14.5 -39.5t39.5 -13.5q61 0 79 80l2 9h73l-2 -9q-15 -66 -59 -102.5t-104 -36.5q-52 0 -84.5 27z" />
    <glyph glyph-name="uni0307" unicode="&#x307;" 
d="M22.5 580q-13.5 13 -13.5 33q0 26 20.5 46t47.5 20q21 0 33.5 -13t12.5 -32q0 -27 -20 -47t-46 -20q-21 0 -34.5 13z" />
    <glyph glyph-name="uni0308" unicode="&#x308;" 
d="M-81.5 562q-13.5 13 -13.5 33q0 26 21 46t48 20q21 0 34 -13t13 -33q0 -26 -20.5 -46t-46.5 -20q-22 0 -35.5 13zM122 562.5q-14 13.5 -14 33.5q0 25 21.5 45t48.5 20q20 0 33.5 -13t13.5 -33q0 -26 -20.5 -46t-46.5 -20q-22 0 -36 13.5z" />
    <glyph glyph-name="hookabovecomb" unicode="&#x309;" 
d="M-189.5 583.5q12.5 15.5 34.5 34.5q20 16 29.5 28t9.5 29q0 12 -9 18.5t-24 6.5q-35 0 -65 -35l-40 34q54 62 127 62q41 0 64 -18t23 -50q0 -29 -11.5 -46.5t-34.5 -37.5q-19 -16 -30 -29.5t-14 -33.5h-76q4 22 16.5 37.5z" />
    <glyph glyph-name="uni030A" unicode="&#x30a;" 
d="M-16 543q-27 21 -27 59q0 49 37 83.5t90 34.5q39 0 66 -21t27 -59q0 -32 -17 -59t-46.5 -43t-64.5 -16q-38 0 -65 21zM101.5 589q17.5 17 17.5 43q0 19 -12.5 29t-30.5 10q-26 0 -43.5 -17.5t-17.5 -42.5q0 -18 12 -28.5t31 -10.5q26 0 43.5 17z" />
    <glyph glyph-name="uni030B" unicode="&#x30b;" 
d="M56 722h91l-153 -179h-70zM228 722h94l-178 -179h-72z" />
    <glyph glyph-name="uni030C" unicode="&#x30c;" 
d="M23 556q-9 7 -9 17q0 6 3 10l3 5l-99 136h89l60 -98l89 98h88l-153 -152q-13 -13 -22 -18t-23 -5q-17 0 -26 7z" />
    <glyph glyph-name="uni031B" unicode="&#x31b;" 
d="M-59 417q55 0 81.5 25.5t34.5 71.5l4 23h79l-3 -20q-12 -81 -68 -122.5t-139 -41.5z" />
    <glyph glyph-name="dotbelowcomb" unicode="&#x323;" 
d="M-104.5 -140q-13.5 13 -13.5 33q0 26 20.5 46t47.5 20q21 0 33.5 -13t12.5 -32q0 -27 -20 -47t-46 -20q-21 0 -34.5 13z" />
    <glyph glyph-name="uni0324" unicode="&#x324;" 
d="M-203.5 -144q-13.5 13 -13.5 33q0 26 20.5 46t47.5 20q21 0 34 -13t13 -33q0 -26 -20.5 -46t-46.5 -20q-21 0 -34.5 13zM-5.5 -144q-13.5 13 -13.5 33q0 26 21 46t48 20q21 0 33.5 -13t12.5 -32q0 -27 -20 -47t-46 -20q-22 0 -35.5 13z" />
    <glyph glyph-name="uni0326" unicode="&#x326;" 
d="M-257 -233q54 22 76 65q-4 -1 -12 -1q-19 0 -31 11.5t-12 29.5q0 29 22 50t51 21q25 0 38.5 -14t13.5 -39q0 -46 -35.5 -89t-93.5 -68z" />
    <glyph glyph-name="uni0327" unicode="&#x327;" 
d="M-144.5 -208.5q-24.5 8.5 -44.5 23.5l32 46q30 -23 66 -23q21 0 34 12t13 31q0 15 -11 22t-31 7q-10 0 -16 -1l-17 22l60 75h68l-48 -59q64 -9 64 -61q0 -46 -33.5 -74.5t-87.5 -28.5q-24 0 -48.5 8.5z" />
    <glyph glyph-name="uni0328" unicode="&#x328;" 
d="M-150.5 -195.5q-24.5 20.5 -24.5 55.5q0 44 32 84.5t82 61.5h70q-49 -28 -81 -59.5t-32 -69.5q0 -16 11 -24.5t33 -8.5q23 0 55 17l8 -50q-43 -27 -90 -27q-39 0 -63.5 20.5z" />
    <glyph glyph-name="uni032E" unicode="&#x32e;" 
d="M-162 -165q-32 27 -32 77q0 15 3 33l2 10h73l-2 -10q-3 -14 -3 -25q0 -53 54 -53q63 0 79 78l2 10h73l-2 -10q-13 -66 -57.5 -101.5t-104.5 -35.5q-53 0 -85 27z" />
    <glyph glyph-name="uni0331" unicode="&#x331;" 
d="M-205 -61h304l-12 -66h-304z" />
    <glyph glyph-name="uni0394" unicode="&#x394;" horiz-adv-x="671" 
d="M363 672q12 23 27 34.5t38 11.5t35 -9t12 -23q0 -13 -9 -24l119 -662h-581zM487 76l-85 506l-265 -506h350z" />
    <glyph glyph-name="uni03A9" unicode="&#x3a9;" horiz-adv-x="706" 
d="M58 74h153l16 89q-152 48 -152 202q0 101 42.5 179.5t123.5 122t193 43.5q77 0 137 -28t94 -80t34 -120q0 -79 -30.5 -146.5t-86 -112.5t-127.5 -60l-16 -89h153l-13 -74h-239l38 218q110 10 171 76.5t61 177.5q0 78 -49.5 121.5t-136.5 43.5q-77 0 -136 -31.5t-92 -92.5
t-33 -145q0 -69 39 -106t120 -44l-38 -218h-239z" />
    <glyph glyph-name="uni03BC" unicode="&#x3bc;" horiz-adv-x="542" 
d="M109 485h84l-53 -299q-4 -19 -4 -39q0 -43 23 -64.5t74 -21.5q60 0 102 45t53 109l48 270h84l-64 -363q-5 -33 -5 -53q0 -26 8 -50l-80 -29q-11 31 -11 67q0 13 1 19q-32 -42 -73 -64t-89 -22q-30 0 -55.5 10t-39.5 28l-49 -278h-84z" />
    <glyph glyph-name="pi" unicode="&#x3c0;" horiz-adv-x="633" 
d="M397.5 16q-24.5 25 -24.5 72q0 17 3 36l49 276h-175l-71 -400h-86l71 400h-100l12 70h556l-12 -70h-111l-49 -277q-3 -15 -3 -26q0 -20 9 -28.5t28 -8.5q33 0 54 10l10 -63q-17 -7 -41.5 -11.5t-48.5 -4.5q-46 0 -70.5 25z" />
    <glyph glyph-name="uni0E01" unicode="&#xe01;" horiz-adv-x="643" 
d="M133 274q7 42 30 66l-88 65q19 52 65.5 97.5t110 73t131.5 27.5q71 0 116.5 -25t76.5 -73q7 7 19 7q14 0 24 -11q11 -13 11 -28q0 -9 -3.5 -14.5t-7.5 -9.5l-5 -5q-9 -8 -14.5 -16t-8.5 -22l-71 -406h-84l71 407q5 29 17 45q-20 40 -55 61t-97 21q-70 0 -123.5 -29.5
t-83.5 -75.5l45 -32q14 14 34 26.5t41 18.5l20 -54q-39 -17 -58.5 -41.5t-26.5 -63.5l-50 -283h-84z" />
    <glyph glyph-name="uni0E02" unicode="&#xe02;" horiz-adv-x="583" 
d="M121 -10q-20 0 -31 24q-4 9 -4 18t5 15.5t17 14.5q13 8 19.5 20t9.5 30l11 61q7 39 28.5 67t61.5 64q32 29 51 50t32 51t13 70q0 34 -18 51t-50 17q-24 0 -52 -10v-3q37 -3 55 -21.5t18 -46.5q0 -46 -35 -79.5t-84 -33.5q-39 0 -62.5 22t-23.5 60q0 46 27 85.5t72 63
t97 23.5q64 0 99.5 -32.5t35.5 -87.5q0 -46 -15 -82t-36 -61t-55 -57q-35 -33 -53 -56t-23 -52l-12 -67q-1 -12 -7 -23.5t-13 -18.5h205l93 527h84l-93 -528q-5 -29 -25.5 -47t-50.5 -18h-244q-17 0 -33 -7q-6 -3 -14 -3zM214.5 416.5q16.5 15.5 16.5 36.5q0 16 -11 26.5
t-27 10.5q-22 0 -38.5 -16t-16.5 -37q0 -16 11 -26t28 -10q21 0 37.5 15.5z" />
    <glyph glyph-name="uni0E03" unicode="&#xe03;" horiz-adv-x="628" 
d="M166 -10q-21 0 -30 24q-5 12 -5 19q0 8 5.5 14.5t17.5 14.5q12 7 18.5 19t9.5 31l11 63q9 49 38 89.5t81 94.5q45 47 66 76t21 59q0 27 -18 42l-34 -23q4 -16 4 -20q0 -17 -19 -25q-8 -4 -17 -4q-12 0 -16 14q-9 34 -23 49.5t-42 15.5t-48 -20.5t-31 -52.5h1
q11 9 27 14.5t29 5.5q33 0 52 -20t19 -51q0 -46 -34.5 -79.5t-82.5 -33.5q-43 0 -65.5 25.5t-22.5 69.5q0 53 23 99.5t61.5 74.5t82.5 28q31 0 51 -11t35 -33l43 31q17 13 32 13t26 -9q40 -37 40 -88q0 -46 -23.5 -83t-70.5 -88q-44 -47 -69 -83.5t-33 -80.5l-11 -63
q-4 -24 -20 -42h204l93 527h84l-93 -528q-5 -29 -25.5 -47t-50.5 -18h-244q-17 0 -33 -7q-6 -3 -14 -3zM211.5 373q16.5 16 16.5 36q0 16 -10.5 26t-26.5 10q-22 0 -38 -15.5t-16 -35.5q0 -16 10.5 -26.5t27.5 -10.5q20 0 36.5 16z" />
    <glyph glyph-name="uni0E04" unicode="&#xe04;" horiz-adv-x="627" 
d="M492 407q5 27 16 45q-20 40 -56 61.5t-94 21.5q-83 0 -137 -44t-69 -128q-10 -58 -10 -124q0 -7 -1 -34.5t-5 -57.5h2q22 39 33.5 67t24.5 67q6 19 13.5 38t16.5 35q38 67 111 67q42 0 65 -20.5t23 -56.5q0 -50 -32.5 -83t-83.5 -33q-17 0 -33.5 5.5t-26.5 15.5
q-32 -78 -59 -126.5t-80 -107.5q-18 -21 -35 -21q-11 0 -25 11q-16 12 -16 23q0 10 16 29q17 21 17 68q0 26 -3 60q-4 54 -4 91q0 113 40.5 186t108 107t151.5 34q75 0 126.5 -26t80.5 -72q7 7 16 7q10 0 20 -11q11 -13 11 -27q0 -10 -4 -16t-12 -14q-19 -17 -23 -38
l-72 -406h-83zM349 294.5q16 15.5 16 36.5q0 15 -10.5 25.5t-26.5 10.5q-21 0 -37 -16t-16 -37q0 -16 10.5 -25.5t26.5 -9.5q21 0 37 15.5z" />
    <glyph glyph-name="uni0E05" unicode="&#xe05;" horiz-adv-x="627" 
d="M494 427q4 25 16 45q-2 31 -15.5 47t-41.5 16q-35 0 -68 -31q2 -8 -3.5 -16.5t-20.5 -14.5q-10 -5 -20 -5q-14 0 -22 18q-11 25 -22.5 37t-32.5 12q-41 0 -67.5 -41t-42.5 -131q-10 -58 -10 -124q0 -7 -1 -34.5t-5 -57.5h2q22 39 33.5 67t24.5 67q6 19 13.5 38t16.5 35
q38 67 111 67q42 0 65 -20.5t23 -56.5q0 -50 -33 -83t-84 -33q-17 0 -32.5 5.5t-26.5 15.5q-32 -78 -59 -126.5t-80 -107.5q-18 -21 -35 -21q-11 0 -25 11q-16 12 -16 23q0 10 16 29q17 21 17 68q0 26 -3 60q-4 54 -4 91q0 96 24.5 170t71 115.5t111.5 41.5q63 0 93 -55
q22 25 51.5 40t60.5 15q42 0 64.5 -20.5t31.5 -57.5q7 7 15 7q9 0 20 -11q12 -12 12 -27q0 -10 -4 -16t-13 -14q-19 -17 -23 -38l-75 -426h-83zM351 294.5q16 15.5 16 36.5q0 15 -10.5 25.5t-26.5 10.5q-21 0 -37 -16t-16 -37q0 -16 10.5 -25.5t26.5 -9.5q21 0 37 15.5z" />
    <glyph glyph-name="uni0E06" unicode="&#xe06;" horiz-adv-x="675" 
d="M95 14.5q-25 24.5 -25 65.5q0 66 47 115t118 58l2 10q5 26 24.5 49.5t57.5 60.5q42 40 63 67.5t21 57.5q0 14 -4.5 21.5t-14.5 16.5l-34 -23q4 -14 4 -19q0 -18 -19 -26q-8 -4 -16 -4q-13 0 -16 12q-10 36 -23.5 51.5t-42.5 15.5t-50 -19t-31 -48h2q10 9 25 14t29 5
q33 0 52.5 -20t19.5 -51q0 -45 -33 -78.5t-80 -33.5q-43 0 -67.5 27.5t-24.5 70.5q0 53 23 97.5t62 70t84 25.5q31 0 51 -11t35 -33l43 31q18 13 32 13q15 0 26 -9q21 -19 31 -38.5t10 -45.5q0 -45 -22.5 -77t-65.5 -71q-33 -30 -50.5 -51t-22.5 -48l-2 -10q58 -6 112.5 -32
t88.5 -66l77 438h82l-104 -593h-82l10 61q-28 56 -80.5 87t-118.5 41l-17 -99q-8 -45 -40 -72.5t-79 -27.5q-42 0 -67 24.5zM212 379q16 16 16 36q0 16 -10.5 26t-26.5 10q-21 0 -37 -16t-16 -36q0 -16 10.5 -26t27.5 -10q20 0 36 16zM197 56q11 10 15 30l19 109
q-43 -7 -68.5 -37.5t-25.5 -73.5q0 -19 9 -28.5t26 -9.5q14 0 25 10z" />
    <glyph glyph-name="uni0E07" unicode="&#xe07;" horiz-adv-x="507" 
d="M317 -10q-16 0 -29 13q-11 11 -11 20t9 18l-244 289l62 53l227 -268q8 16 10 29l48 273q-18 -8 -36 -8q-34 0 -57 22t-23 57q0 50 34 82.5t87 32.5q42 0 69 -24t27 -59q0 -11 -1 -16l-67 -376q-7 -39 -23 -67.5t-52 -58.5q-14 -12 -30 -12zM412 475.5q15 15.5 15 36.5
q0 15 -10.5 25.5t-26.5 10.5q-23 0 -38.5 -14t-15.5 -39q0 -15 10.5 -25t27.5 -10q23 0 38 15.5z" />
    <glyph glyph-name="uni0E08" unicode="&#xe08;" horiz-adv-x="614" 
d="M353 -10q-18 0 -27 15q-6 11 -6 18q0 15 24 34l-11 184q-12 -10 -29.5 -16t-35.5 -6q-36 0 -59.5 22.5t-23.5 57.5q0 48 33.5 80.5t84.5 32.5q43 0 67 -23.5t26 -63.5l8 -201l95 303q8 21 18 30q-24 37 -62.5 57t-101.5 20q-66 0 -118.5 -31.5t-87.5 -94.5l-67 23
q38 74 113 123t172 49q74 0 121 -25.5t80 -70.5q8 4 13 4q12 0 24 -17q7 -10 7 -20q0 -13 -20 -29q-17 -14 -25 -35l-115 -339q-11 -33 -67 -71q-15 -10 -30 -10zM319 285.5q16 15.5 16 36.5q0 15 -10.5 25.5t-26.5 10.5q-20 0 -36 -16t-16 -36q0 -16 10.5 -26t26.5 -10
q20 0 36 15.5z" />
    <glyph glyph-name="uni0E09" unicode="&#xe09;" horiz-adv-x="638" 
d="M365.5 14q-27.5 24 -27.5 59q0 30 17.5 57t47.5 43v2q-50 0 -98 -41.5t-109 -127.5q-10 -15 -29 -15q-16 0 -27 10q-17 12 -17 26q0 10 9 19q24 26 30 59l13 74q-15 -6 -31 -6q-35 0 -58 22t-23 56q0 49 36 82.5t88 33.5q41 0 66.5 -22.5t25.5 -56.5q0 -12 -3.5 -27.5
t-9.5 -24.5l-15 -86q86 86 186 86q11 0 33 -2l30 174q5 30 17 45q-19 41 -57 61t-100 20q-67 0 -122.5 -31t-89.5 -89l-68 22q38 73 111.5 120t171.5 47q77 0 131.5 -25t80.5 -71q7 7 16 7q13 0 25 -16q9 -12 9 -24q0 -7 -4 -13q-2 -4 -12 -13.5t-16.5 -19.5t-9.5 -25
l-39 -222q26 -23 26 -63q0 -54 -36 -91t-96 -37q-45 0 -72.5 24zM200 239.5q16 15.5 16 36.5q0 16 -10.5 26t-26.5 10q-22 0 -38 -16t-16 -36q0 -16 11 -26t28 -10q20 0 36 15.5zM488 64.5q17 17.5 17 42.5q0 18 -11 29t-31 11q-24 0 -42 -18t-18 -42q0 -17 12 -28.5
t31 -11.5q25 0 42 17.5z" />
    <glyph glyph-name="uni0E0A" unicode="&#xe0a;" horiz-adv-x="651" 
d="M143 -10q-21 0 -30 24q-4 9 -4 18t5 15.5t17 14.5q13 8 19.5 20t9.5 30l12 67q7 41 27 69.5t54 62.5q40 40 60.5 74.5t20.5 89.5q0 34 -18 51t-50 17q-24 0 -52 -10v-3q37 -3 55 -21.5t18 -46.5q0 -47 -34 -80t-85 -33q-38 0 -62 23t-24 61q0 48 26 87t70.5 61t97.5 22
q64 0 100.5 -32.5t36.5 -87.5q0 -43 -12 -76t-29.5 -56t-45.5 -53q-31 -34 -48 -59t-23 -58l-13 -73q-5 -26 -20 -42h207l50 285q4 24 4 31q0 16 -7.5 24t-24.5 13q-17 4 -17 22q0 14 10 27q87 120 195 178l39 -59q-47 -24 -91 -60t-71 -73q28 -9 39 -24.5t11 -40.5
q0 -20 -4 -40l-50 -284q-5 -29 -25.5 -47t-50.5 -18h-245q-18 0 -34 -7q-6 -3 -14 -3zM214.5 416.5q16.5 15.5 16.5 36.5q0 16 -11 26.5t-27 10.5q-22 0 -38.5 -16t-16.5 -37q0 -16 11 -26t28 -10q21 0 37.5 15.5z" />
    <glyph glyph-name="uni0E0B" unicode="&#xe0b;" horiz-adv-x="683" 
d="M176 -10q-19 0 -30 25q-4 9 -4 18q0 8 5.5 14.5t17.5 14.5t18.5 19.5t9.5 30.5l11 63q9 50 34 88t71 90q41 43 61 74.5t20 67.5q0 27 -16 41l-32 -24q4 -11 4 -20q0 -16 -19 -24q-12 -5 -18 -5q-11 0 -14 14q-9 35 -22.5 50.5t-41.5 15.5q-50 0 -76 -73h1q12 9 27 14
t29 5q33 0 52 -20t19 -51q0 -46 -34.5 -79.5t-82.5 -33.5q-43 0 -65.5 25.5t-22.5 69.5q0 54 22.5 100.5t60 74t81.5 27.5q31 0 50.5 -11t34.5 -33l40 30q19 14 33 14q16 0 25 -9q37 -35 37 -89q0 -48 -21 -85t-63 -87q-39 -47 -61 -82t-30 -79l-11 -63q-5 -24 -21 -42h207
l50 285q4 19 4 35q0 15 -5 22.5t-17 10.5q-19 4 -19 23q0 12 9 24q44 61 87 105t101 75l38 -59q-47 -25 -85.5 -60t-66.5 -73q22 -9 31 -24t9 -39q0 -21 -4 -42l-50 -284q-5 -29 -25.5 -47t-49.5 -18h-244q-19 0 -35 -7q-7 -3 -14 -3zM211.5 372q16.5 16 16.5 36
q0 16 -10.5 26t-26.5 10q-22 0 -38 -15.5t-16 -35.5q0 -16 10.5 -26.5t27.5 -10.5q20 0 36.5 16z" />
    <glyph glyph-name="uni0E0C" unicode="&#xe0c;" horiz-adv-x="913" 
d="M125 14.5q-26 24.5 -26 61.5q0 5 2 17l32 181q7 42 30 66l-88 65q19 52 65.5 97.5t110 73t131.5 27.5q126 0 189 -98q7 7 16 7q11 0 21 -11q12 -13 12 -27q0 -10 -4 -16t-13 -14q-19 -17 -23 -38l-27 -155q64 -7 114.5 -31.5t84.5 -65.5l77 439h82l-104 -593h-82l11 62
q-28 57 -71.5 85.5t-102.5 36.5q8 -21 8 -46q0 -65 -32.5 -106.5t-88.5 -41.5q-40 0 -64 24.5t-24 65.5q0 53 29 96t80 68l29 165q5 30 15 43q-20 41 -53 61.5t-90 20.5q-70 0 -123.5 -29.5t-83.5 -75.5l45 -32q14 14 34 26.5t41 18.5l20 -54q-39 -17 -58.5 -41.5
t-26.5 -63.5l-20 -111q22 9 40 9q31 0 52 -22t21 -56q0 -48 -33 -80.5t-87 -32.5q-41 0 -67 24.5zM494 69.5q15 26.5 15 68.5q0 32 -14 56q-33 -13 -52.5 -43.5t-19.5 -67.5q0 -19 8 -29.5t23 -10.5q25 0 40 26.5zM236 58q15 15 15 38q0 16 -10.5 25.5t-27.5 9.5
q-21 0 -37 -15.5t-16 -36.5q0 -16 10.5 -26t26.5 -10q24 0 39 15z" />
    <glyph glyph-name="uni0E0D" unicode="&#xe0d;" horiz-adv-x="902" 
d="M443 -134q-38 25 -38 68q0 30 16.5 56.5t44.5 42t60 15.5q41 0 64 -20t23 -52q0 -20 -9 -38t-25 -29l-1 -1q63 4 105.5 51.5t56.5 128.5h-249q-18 0 -34 -7q-7 -3 -15 -3q-20 0 -29 23q-4 9 -4 18q0 19 22 31q13 7 19.5 18.5t9.5 31.5l36 207q5 30 15 43q-20 41 -54 62.5
t-91 21.5q-69 0 -120.5 -29t-81.5 -76l45 -32q14 14 34 26.5t41 18.5l20 -54q-39 -17 -58.5 -41.5t-26.5 -63.5l-20 -111q22 9 39 9q34 0 54 -19.5t20 -52.5q0 -50 -36 -84.5t-88 -34.5q-40 0 -64.5 23t-24.5 60q0 6 2 20l32 181q7 42 30 66l-88 65q19 52 64 97.5t107.5 73
t130.5 27.5q75 0 117.5 -24t74.5 -74q7 7 17 7q11 0 21 -11q12 -13 12 -27q0 -10 -4 -16t-13 -14q-19 -17 -23 -38l-37 -213q-7 -27 -19 -38h226l77 438h84l-88 -500q-13 -72 -51.5 -129t-98 -90t-132.5 -33q-59 0 -97 25zM235 58.5q16 15.5 16 37.5q0 16 -10.5 25.5
t-27.5 9.5q-21 0 -37 -15.5t-16 -36.5q0 -16 10.5 -26t26.5 -10q22 0 38 15.5zM538.5 -76q15.5 15 15.5 34q0 15 -10.5 24.5t-26.5 9.5q-19 0 -34 -15t-15 -34q0 -15 10 -24.5t25 -9.5q20 0 35.5 15z" />
    <glyph glyph-name="uni0E0E" unicode="&#xe0e;" horiz-adv-x="650" 
d="M1 -334q-26 25 -26 65q0 59 44.5 93t116.5 34q14 0 22 -1l9 50h73l-9 -55q45 -13 76.5 -43t43.5 -71q26 15 40.5 39t20.5 58l101 572q5 28 16 43q-42 84 -147 84q-67 0 -122 -29t-85 -75l55 -36q16 16 36 28.5t38 16.5l20 -54q-38 -17 -56.5 -41.5t-25.5 -65.5l-26 -146
q4 -9 4 -27q0 -47 -32 -81t-87 -34q-42 0 -67 24.5t-25 63.5q0 46 30.5 75t75.5 29q14 0 26 -5l16 91q9 52 26 70l-98 67q21 53 68 98.5t110 72.5t130 27q74 0 118.5 -24.5t75.5 -73.5q7 7 17 7q11 0 21 -11q12 -12 12 -27q0 -10 -4 -16t-13 -14q-19 -17 -23 -38l-101 -572
q-21 -123 -158 -185q-18 -8 -31 -8q-19 0 -28 16q-5 10 -5 16q0 17 21 30q-20 68 -77 85l-2 -14q-8 -57 -46.5 -95t-99.5 -38q-43 0 -69 25zM144.5 58.5q14.5 15.5 14.5 36.5q0 16 -10.5 26t-26.5 10q-22 0 -37 -14t-15 -38q0 -17 10 -26.5t27 -9.5q23 0 37.5 15.5z
M124.5 -280q14.5 18 20.5 53l5 26q-8 1 -22 1q-38 0 -60 -17t-22 -46q0 -16 9.5 -25.5t26.5 -9.5q28 0 42.5 18z" />
    <glyph glyph-name="uni0E0F" unicode="&#xe0f;" horiz-adv-x="657" 
d="M-32 -338.5q-22 20.5 -22 55.5q0 55 41 91.5t104 36.5q13 0 19 -1l8 49h69l-10 -56q65 -23 74 -86q16 17 28.5 25t26.5 8q12 0 20.5 -5t16.5 -17l19 -29q10 -15 19 -15q8 0 14 6t8 17l118 666q4 28 15 43q-42 84 -147 84q-67 0 -122.5 -29.5t-83.5 -74.5l55 -36
q14 14 35 27.5t38 17.5l21 -54q-39 -17 -57.5 -42t-25.5 -65l-26 -146q4 -9 4 -27q0 -47 -36 -81t-87 -34q-41 0 -65 22.5t-24 57.5q0 29 15.5 55t40.5 41.5t53 15.5q12 0 24 -5l16 91q10 52 27 70l-99 67q21 53 68 98.5t110 72.5t130 27q72 0 118 -25t77 -74q10 8 18 8
q11 0 19 -11q7 -9 9.5 -14t2.5 -13q0 -10 -4 -16t-12 -14q-19 -17 -23 -38l-118 -668q-8 -46 -32 -71.5t-64 -25.5q-39 0 -58 29l-20 29q-7 9 -10.5 12.5t-9.5 3.5q-11 0 -23 -15l-37 -45q-11 -14 -25 -14q-9 0 -20 8t-11 18q0 8 10 21l13 18q3 52 -33 70l-2 -9
q-13 -57 -45.5 -91.5t-89.5 -34.5q-40 0 -62 20.5zM150 59q16 16 16 36q0 16 -10.5 26t-26.5 10q-22 0 -37.5 -15.5t-15.5 -36.5q0 -16 10.5 -26t27.5 -10q20 0 36 16zM78.5 -290.5q13.5 14.5 20.5 50.5l5 28q-7 1 -21 1q-35 0 -55 -16t-20 -45q0 -15 8.5 -24t23.5 -9
q25 0 38.5 14.5z" />
    <glyph glyph-name="uni0E10" unicode="&#xe10;" horiz-adv-x="622" 
d="M343 -9q-18 0 -27 13q-7 10 -7 19t6 16.5t19 18.5l-15 146q-12 -10 -29.5 -16t-35.5 -6q-36 0 -59.5 23.5t-23.5 58.5q0 47 33.5 78t84.5 31q43 0 66 -22.5t25 -63.5l9 -171l68 215q11 29 19 39q-29 20 -83 32t-113 12t-110 -14l-9 -15q-9 -13 -26 -13q-8 0 -20 5
q-18 8 -18 22q0 9 8 25q45 88 113 133.5t165 45.5q32 0 61 -5t80 -16q68 -16 111 -20l-32 -66q-31 4 -92 18q-50 11 -79.5 16t-65.5 5q-58 0 -95.5 -17t-60.5 -58q38 7 87 7q65 0 123.5 -13t90.5 -36q8 6 14 6q13 0 24 -14q10 -11 10 -23q0 -13 -15 -25q-7 -6 -12.5 -17.5
t-9.5 -24.5l-82 -249q-12 -35 -65 -70q-17 -10 -32 -10zM305.5 248.5q15.5 15.5 15.5 36.5q0 15 -10.5 25t-26.5 10q-24 0 -38.5 -15t-14.5 -36q0 -16 10.5 -26t27.5 -10q21 0 36.5 15.5zM-23 -339q-22 20 -22 55q0 53 40.5 88.5t98.5 35.5q7 0 23 -2l10 60h67l-12 -71
q71 -28 81 -99q34 22 70 22q25 0 53 -13l10 59q-16 -9 -39 -9q-33 0 -53 20t-20 51q0 45 32.5 75t80.5 30q39 0 61 -19.5t22 -54.5q0 -6 -2 -20l-26 -150q4 -8 4 -12q0 -16 -21 -33q-14 -13 -29 -13q-16 0 -34 17q-18 15 -45 15q-21 0 -41.5 -9.5t-35.5 -27.5
q-11 -13 -26 -13q-9 0 -17 5q-15 10 -15 21q0 7 8 20l11 17q-4 25 -12 38t-27 24q-10 -58 -45.5 -92.5t-86.5 -34.5q-41 0 -63 20zM413 -156q15 15 15 35q0 15 -10 24.5t-27 9.5q-21 0 -35.5 -14.5t-14.5 -35.5q0 -16 10 -25t27 -9q20 0 35 15zM106 -243l5 26q-14 3 -27 3
q-30 0 -49.5 -16.5t-19.5 -43.5q0 -15 10 -23t26 -8q43 0 55 62z" />
    <glyph glyph-name="uni0E11" unicode="&#xe11;" horiz-adv-x="758" 
d="M213 10q-6 8 -6 16q0 9 8 19q18 22 22 43l33 188q9 49 29.5 83.5t53.5 72.5q22 26 31 40t9 29q0 21 -19 36l-37 -24q3 -7 3 -13q0 -13 -19 -23q-10 -6 -18 -6q-12 0 -15 14q-10 31 -24 44.5t-37 13.5q-28 0 -46 -22t-27 -55h1q10 9 26 14t30 5q33 0 52 -20t19 -51
q0 -46 -34 -79t-82 -33q-43 0 -66 27.5t-23 74.5q0 54 21.5 99.5t58.5 72.5t79 27q30 0 49.5 -10.5t33.5 -31.5l40 26q12 8 20 12t17 4q17 0 30 -11q15 -14 27 -36t12 -44t-11.5 -41t-34.5 -45q-29 -34 -46.5 -63t-24.5 -69l-19 -106l244 408q45 0 75 -12t52 -36q11 9 20 9
q11 0 21 -10q6 -5 9 -12.5t3 -13.5q0 -10 -3.5 -16t-12.5 -15q-10 -10 -15.5 -18.5t-8.5 -22.5l-79 -449h-82l79 449q8 33 18 48q-7 12 -21.5 19.5t-28.5 7.5l-304 -507q-15 -26 -39 -26q-13 0 -27 7q-10 4 -16 12zM211 369q16 16 16 36q0 16 -10.5 26t-26.5 10
q-22 0 -38.5 -15.5t-16.5 -36.5q0 -16 11 -26t28 -10q21 0 37 16z" />
    <glyph glyph-name="uni0E12" unicode="&#xe12;" horiz-adv-x="908" 
d="M380 14q-24 24 -24 64q0 52 29.5 97t78.5 69l32 182q6 32 16 44q-2 33 -14.5 49t-43.5 16q-32 0 -66 -31q5 -20 -24 -31q-15 -5 -22 -5q-15 0 -21 16q-10 26 -22.5 38.5t-33.5 12.5q-35 0 -61.5 -33.5t-41.5 -94.5t-15 -140l1 -46q1 -13 1 -36q0 -21 -3 -45h2
q34 39 60 65t55 43q-22 7 -36.5 27t-14.5 46q0 47 35 79t87 32q41 0 67 -22t26 -57q0 -38 -23.5 -66.5t-64.5 -53.5q-56 -34 -108 -86.5t-112 -130.5q-18 -22 -36 -22q-13 0 -27 11q-16 12 -16 24q0 10 15 27q6 6 12.5 26.5t6.5 58.5q0 22 -4 70q-5 45 -5 85q0 91 24 160.5
t70.5 108t110.5 38.5t94 -55q21 24 50.5 39.5t60.5 15.5q78 0 97 -78q8 6 15 6q11 0 21 -11q12 -15 12 -27q0 -10 -4.5 -16t-12.5 -13q-11 -10 -16.5 -17.5t-8.5 -21.5l-31 -174q63 -7 114.5 -32t84.5 -65l78 439h82l-105 -593h-82l11 62q-29 56 -72 85t-101 37q8 -24 8 -48
q0 -64 -32.5 -105t-88.5 -41q-40 0 -64 24zM348.5 304q15.5 16 15.5 36q0 16 -10.5 26t-26.5 10q-21 0 -37 -15.5t-16 -36.5q0 -16 10.5 -26t27.5 -10q21 0 36.5 16zM489.5 70q15.5 27 15.5 68q0 31 -15 56q-32 -13 -52 -43.5t-20 -67.5q0 -19 8 -29.5t23 -10.5
q25 0 40.5 27z" />
    <glyph glyph-name="uni0E13" unicode="&#xe13;" horiz-adv-x="940" 
d="M123.5 13q-24.5 23 -24.5 60q0 6 2 20l32 181q7 42 30 66l-88 65q19 52 64 97.5t107.5 73t130.5 27.5q75 0 117.5 -24t74.5 -74q7 7 16 7q11 0 21 -11q12 -13 12 -27q0 -10 -4 -16t-13 -14q-19 -17 -23 -38l-45 -257q97 87 215 87q19 0 29 -1l63 358h84l-74 -421
q22 -20 22 -56q0 -34 -18 -63t-49 -46t-67 -17q-45 0 -71 23.5t-26 59.5q0 30 17 56.5t47 42.5v2q-58 -2 -114 -45t-112 -122q-12 -16 -30 -16q-16 0 -27 10q-17 14 -17 26q0 11 9 18q10 10 18 26t11 33l53 303q4 28 15 43q-20 41 -54 62.5t-91 21.5q-69 0 -120.5 -29
t-81.5 -76l45 -32q14 14 34 26.5t41 18.5l20 -54q-39 -17 -58.5 -41.5t-26.5 -63.5l-20 -111q22 9 39 9q34 0 54 -19.5t20 -52.5q0 -50 -36 -84.5t-88 -34.5q-40 0 -64.5 23zM790 64.5q17 17.5 17 42.5q0 18 -11 29t-30 11q-25 0 -42.5 -18t-17.5 -42q0 -18 11.5 -29
t30.5 -11q25 0 42 17.5zM235 58.5q16 15.5 16 37.5q0 16 -10.5 25.5t-27.5 9.5q-21 0 -37 -15.5t-16 -36.5q0 -16 10.5 -26t26.5 -10q22 0 38 15.5z" />
    <glyph glyph-name="uni0E14" unicode="&#xe14;" horiz-adv-x="637" 
d="M501 407q8 32 17 45q-36 83 -156 83q-105 0 -161 -67t-56 -194q0 -19 2 -49q2 -28 2 -42q0 -19 -3 -42h2q36 40 63 64.5t56 42.5q-22 7 -36.5 27.5t-14.5 46.5q0 46 37.5 78t88.5 32q40 0 65 -22t25 -57q0 -38 -23.5 -66.5t-65.5 -53.5q-59 -36 -112 -88t-113 -129
q-18 -22 -36 -22q-13 0 -27 11q-15 11 -15 23q0 11 15 29q6 6 12 22.5t6 47.5q0 16 -2 37.5t-3 32.5q-7 49 -7 90q0 95 36.5 166.5t104.5 110.5t161 39q76 0 131 -27t82 -72q9 7 17 7q10 0 20 -10q11 -13 11 -27q0 -10 -4 -16t-12 -14q-19 -17 -23 -38l-72 -406h-84z
M353 304q16 16 16 36q0 16 -10.5 26t-26.5 10q-21 0 -37.5 -15.5t-16.5 -36.5q0 -16 11 -26t28 -10q20 0 36 16z" />
    <glyph glyph-name="uni0E15" unicode="&#xe15;" horiz-adv-x="637" 
d="M504 430q3 16 6 26t10 17q-5 32 -17.5 47t-41.5 15q-32 0 -67 -31q2 -7 -3.5 -16t-19.5 -15q-13 -5 -21 -5q-17 0 -23 16q-10 25 -23 38t-35 13q-36 0 -63.5 -33.5t-43 -94.5t-15.5 -140l1 -46q1 -13 1 -36q0 -21 -3 -45h2q71 79 120 108q-22 7 -36.5 27t-14.5 46
q0 48 36 79.5t88 31.5q41 0 66.5 -22t25.5 -57q0 -38 -23.5 -66.5t-65.5 -53.5q-59 -36 -113.5 -89t-111.5 -128q-18 -22 -36 -22q-13 0 -27 11q-16 12 -16 24q0 10 15 27q6 6 12.5 26.5t6.5 58.5q0 22 -4 70q-5 45 -5 85q0 91 25 160.5t72.5 108t111.5 38.5q65 0 95 -55
q22 24 52.5 39.5t61.5 15.5q40 0 64.5 -21t33.5 -56q7 5 13 5q10 0 20 -11q13 -14 13 -26q0 -10 -4 -16t-13 -15q-19 -17 -23 -38l-75 -425h-84zM354 304q16 16 16 36q0 16 -10.5 26t-26.5 10q-21 0 -37.5 -15.5t-16.5 -36.5q0 -16 11 -26t28 -10q20 0 36 16z" />
    <glyph glyph-name="uni0E16" unicode="&#xe16;" horiz-adv-x="643" 
d="M125 14.5q-26 24.5 -26 61.5q0 5 2 17l32 181q7 42 30 66l-88 65q19 52 65.5 97.5t110 73t131.5 27.5q71 0 116.5 -25t76.5 -73q7 7 19 7q14 0 24 -11q11 -13 11 -28q0 -9 -3.5 -14.5t-7.5 -9.5l-5 -5q-9 -8 -14.5 -16t-8.5 -22l-71 -406h-84l71 407q5 29 17 45
q-20 40 -55 61t-97 21q-70 0 -123.5 -29.5t-83.5 -75.5l45 -32q14 14 34 26.5t41 18.5l20 -54q-39 -17 -58.5 -41.5t-26.5 -63.5l-20 -111q22 9 40 9q31 0 52 -22t21 -56q0 -48 -33 -80.5t-87 -32.5q-41 0 -67 24.5zM236 58q15 15 15 38q0 16 -10.5 25.5t-27.5 9.5
q-21 0 -37 -15.5t-16 -36.5q0 -16 10.5 -26t26.5 -10q24 0 39 15z" />
    <glyph glyph-name="uni0E17" unicode="&#xe17;" horiz-adv-x="660" 
d="M111 24q0 11 9 21q6 7 12.5 19.5t8.5 25.5l57 327q-18 -8 -36 -8q-34 0 -57 22t-23 57q0 50 34 82.5t87 32.5q42 0 67.5 -24.5t25.5 -59.5q0 -10 -1 -15l-52 -291l226 390q86 0 131 -47q10 8 22 8t21 -9q13 -13 13 -27q0 -9 -3.5 -15t-7.5 -10.5t-5 -5.5
q-9 -9 -14.5 -17.5t-8.5 -22.5l-81 -457h-83l80 455q5 27 16 47q-5 13 -19.5 21t-28.5 8l-303 -514q-16 -27 -38 -27q-13 0 -27 7q-22 11 -22 27zM221 475.5q15 15.5 15 36.5q0 15 -10.5 25.5t-26.5 10.5q-23 0 -38.5 -14t-15.5 -39q0 -15 10.5 -25t27.5 -10q23 0 38 15.5z
" />
    <glyph glyph-name="uni0E18" unicode="&#xe18;" horiz-adv-x="611" 
d="M180 435q29 4 76 4q76 0 149.5 -12.5t105.5 -33.5q6 6 14 6q12 0 24 -15q10 -11 10 -22q0 -14 -15 -26q-19 -15 -23 -41l-40 -230q-5 -29 -25.5 -47t-50.5 -18h-246q-17 0 -33 -7q-6 -3 -14 -3q-21 0 -30 24q-5 13 -5 19q0 8 5.5 14.5t17.5 14.5q25 16 31 50l47 265
l-37 -6l-8 -11q-10 -13 -27 -13q-10 0 -19 4q-17 7 -17 22q0 10 8 28q43 94 115 148t172 54q32 0 61 -5t74 -15q78 -18 124 -21l-31 -67q-43 6 -100 19q-49 11 -78 15.5t-66 4.5q-118 0 -169 -99zM457 343q-24 16 -79 25.5t-119 11.5l-48 -274q-5 -25 -20 -39h208l42 238
q5 26 16 38z" />
    <glyph glyph-name="uni0E19" unicode="&#xe19;" horiz-adv-x="653" 
d="M379.5 13.5q-26.5 23.5 -26.5 59.5q0 31 17 57t47 43l1 2q-57 0 -118.5 -44.5t-120.5 -123.5q-12 -16 -31 -16q-16 0 -27 10q-15 12 -15 26q0 11 8 19q23 25 29 58l55 313q-18 -8 -36 -8q-34 0 -57 22t-23 57q0 50 34 82.5t87 32.5q42 0 69 -24t27 -59q0 -11 -1 -16
l-63 -355q46 40 105 63.5t120 23.5q19 0 29 -1l63 358h84l-73 -419q22 -22 22 -57q0 -34 -18 -63.5t-49 -46.5t-68 -17q-44 0 -70.5 23.5zM221 475.5q15 15.5 15 36.5q0 15 -10.5 25.5t-26.5 10.5q-23 0 -38.5 -14t-15.5 -39q0 -15 10.5 -25t27.5 -10q23 0 38 15.5z
M502.5 64.5q17.5 17.5 17.5 42.5q0 18 -11 29t-31 11q-25 0 -42.5 -18t-17.5 -42q0 -18 12 -29t30 -11q25 0 42.5 17.5z" />
    <glyph glyph-name="uni0E1A" unicode="&#xe1a;" horiz-adv-x="670" 
d="M127 -11q-19 0 -30 27q-4 12 -4 16q0 16 23 30q13 8 19.5 20t9.5 30l53 305q-18 -8 -36 -8q-34 0 -57 22t-23 57q0 50 34 82.5t87 32.5q42 0 69 -24t27 -59q0 -11 -1 -16l-70 -397q-5 -27 -20 -40h284l92 526h84l-93 -528q-5 -29 -25.5 -47t-49.5 -18h-325q-19 0 -33 -7
q-10 -4 -15 -4zM221 475.5q15 15.5 15 36.5q0 15 -10.5 25.5t-26.5 10.5q-23 0 -38.5 -14t-15.5 -39q0 -15 10.5 -25t27.5 -10q23 0 38 15.5z" />
    <glyph glyph-name="uni0E1B" unicode="&#xe1b;" horiz-adv-x="672" 
d="M127 -11q-19 0 -30 27q-4 12 -4 16q0 16 23 30q13 8 19.5 20t9.5 30l53 305q-18 -8 -36 -8q-34 0 -57 22t-23 57q0 50 34 82.5t87 32.5q42 0 69 -24t27 -59q0 -11 -1 -16l-70 -397q-5 -27 -20 -40h286l131 747h84l-132 -749q-5 -29 -25.5 -47t-49.5 -18h-327
q-19 0 -33 -7q-10 -4 -15 -4zM221 475.5q15 15.5 15 36.5q0 15 -10.5 25.5t-26.5 10.5q-23 0 -38.5 -14t-15.5 -39q0 -15 10.5 -25t27.5 -10q23 0 38 15.5z" />
    <glyph glyph-name="uni0E1C" unicode="&#xe1c;" horiz-adv-x="620" 
d="M471 -9q-18 0 -27 22l-112 269l-232 -272q-18 -21 -38 -21q-14 0 -27 13q-16 16 -16 27q0 9 10 19q11 11 16 21t7 25l72 409q9 48 42.5 74t82.5 26q42 0 66.5 -22.5t24.5 -57.5q0 -47 -33 -80.5t-80 -33.5q-20 0 -34 8l-46 -264l152 182q20 23 44 23q16 0 21.5 -5.5
t11.5 -17.5l81 -180l77 438h84l-98 -557q-4 -21 -9.5 -29.5t-21.5 -12.5q-11 -3 -18 -3zM261.5 475.5q15.5 15.5 15.5 36.5q0 16 -10.5 26t-27.5 10q-21 0 -37 -16t-16 -36q0 -16 10.5 -26t27.5 -10q22 0 37.5 15.5z" />
    <glyph glyph-name="uni0E1D" unicode="&#xe1d;" horiz-adv-x="622" 
d="M473 -9q-18 0 -27 22l-113 269l-233 -272q-18 -21 -38 -21q-14 0 -27 13q-16 16 -16 27q0 9 10 19q11 11 16 21t7 25l72 409q8 45 42.5 72.5t82.5 27.5q42 0 66.5 -22.5t24.5 -57.5q0 -47 -33 -80.5t-80 -33.5q-20 0 -34 8l-46 -264l153 182q10 12 20 17.5t24 5.5
q15 0 21 -6t12 -17l82 -180l116 659h84l-137 -778q-4 -21 -9.5 -29.5t-21.5 -12.5q-10 -3 -18 -3zM261.5 475.5q15.5 15.5 15.5 36.5q0 16 -10.5 26t-27.5 10q-21 0 -37 -16t-16 -36q0 -16 10.5 -26t27.5 -10q22 0 37.5 15.5z" />
    <glyph glyph-name="uni0E1E" unicode="&#xe1e;" horiz-adv-x="708" 
d="M528 -3.5q-8 6.5 -11 25.5l-65 446l-234 -440q-20 -37 -52 -37q-9 0 -24 5q-25 9 -25 30q0 12 10 25q12 16 16 41l57 325q-18 -8 -38 -8q-34 0 -57 22t-23 57q0 50 34 82.5t87 32.5q42 0 69 -24t27 -59q0 -11 -1 -16l-53 -299l186 353q15 26 43 26q27 0 30 -26l53 -346
l67 381h82l-98 -557q-8 -46 -51 -46q-21 0 -29 6.5zM221 475.5q15 15.5 15 36.5q0 15 -10.5 25.5t-26.5 10.5q-23 0 -38.5 -14t-15.5 -39q0 -15 10.5 -25t27.5 -10q23 0 38 15.5z" />
    <glyph glyph-name="uni0E1F" unicode="&#xe1f;" horiz-adv-x="710" 
d="M532.5 -3.5q-7.5 6.5 -10.5 25.5l-67 446l-234 -440q-20 -37 -52 -37q-9 0 -24 5q-27 11 -27 31q0 12 9 24q12 16 16 41l57 325q-18 -8 -38 -8q-34 0 -57 22t-23 57q0 50 34 82.5t87 32.5q42 0 69 -24t27 -59q0 -11 -1 -16l-53 -299l186 353q15 26 43 26q16 0 22 -7
t8 -19l55 -346l106 602h82l-137 -778q-8 -46 -48 -46q-22 0 -29.5 6.5zM221 475.5q15 15.5 15 36.5q0 15 -10.5 25.5t-26.5 10.5q-23 0 -38.5 -14t-15.5 -39q0 -15 10.5 -25t27.5 -10q23 0 38 15.5z" />
    <glyph glyph-name="uni0E20" unicode="&#xe20;" horiz-adv-x="648" 
d="M34 14.5q-25 24.5 -25 63.5q0 46 30.5 75t75.5 29q14 0 26 -5l16 91q10 53 26 70l-98 67q21 53 67.5 98.5t109.5 72.5t130 27q70 0 113.5 -24.5t74.5 -73.5q7 7 19 7q14 0 24 -11q11 -13 11 -28q0 -9 -3.5 -14.5t-7.5 -9.5l-5 -5q-9 -8 -14.5 -16t-8.5 -22l-72 -406h-84
l72 407q5 29 17 45q-21 41 -54 61.5t-94 20.5q-66 0 -121.5 -29.5t-83.5 -74.5l55 -36q15 14 36 27.5t38 17.5l20 -54q-38 -16 -56.5 -41.5t-25.5 -65.5l-26 -146q4 -9 4 -27q0 -47 -32 -81t-87 -34q-42 0 -67 24.5zM144.5 58.5q14.5 15.5 14.5 36.5q0 16 -10.5 26t-26.5 10
q-22 0 -37 -14t-15 -38q0 -17 10 -26.5t27 -9.5q23 0 37.5 15.5z" />
    <glyph glyph-name="uni0E21" unicode="&#xe21;" horiz-adv-x="629" 
d="M48.5 14q-24.5 24 -24.5 65q0 64 45 114.5t111 63.5l28 160q-18 -8 -36 -8q-34 0 -57 22t-23 57q0 50 34 82.5t87 32.5q42 0 69 -24t27 -59q0 -11 -1 -16l-44 -247q60 -8 116 -35t88 -67l77 438h82l-104 -593h-82l10 61q-28 57 -81 89t-117 42l-18 -102q-8 -46 -39.5 -73
t-80.5 -27q-42 0 -66.5 24zM231 475.5q15 15.5 15 36.5q0 15 -10.5 25.5t-26.5 10.5q-23 0 -38.5 -14t-15.5 -39q0 -15 10.5 -25t27.5 -10q23 0 38 15.5zM151.5 56.5q10.5 10.5 14.5 29.5l20 112q-41 -7 -68 -38.5t-27 -76.5q0 -37 34 -37q16 0 26.5 10.5z" />
    <glyph glyph-name="uni0E22" unicode="&#xe22;" horiz-adv-x="604" 
d="M71 -10q-19 0 -28 24q-4 11 -4 19q0 9 5.5 15t19.5 14q12 7 18 17.5t9 27.5l27 152q-46 40 -46 107q0 62 29.5 116.5t79.5 87.5t106 33q44 0 68.5 -21.5t24.5 -57.5q0 -51 -32.5 -83t-88.5 -32q-30 0 -51.5 16.5t-27.5 44.5h-2q-12 -16 -20 -42t-8 -49q0 -42 27 -64.5
t78 -22.5q54 0 114 25l10 -59q-30 -14 -67.5 -22.5t-63.5 -8.5q-23 0 -51 6l-23 -130q-5 -24 -19 -36h270l93 526h84l-93 -528q-5 -29 -25.5 -47t-49.5 -18h-311q-18 0 -34 -6q-12 -4 -18 -4zM301.5 476q15.5 16 15.5 36q0 16 -10.5 26t-26.5 10q-22 0 -38 -15.5t-16 -36.5
q0 -16 11 -26t28 -10q21 0 36.5 16z" />
    <glyph glyph-name="uni0E23" unicode="&#xe23;" horiz-adv-x="561" 
d="M212.5 14q-24.5 24 -24.5 59q0 45 32 76.5t77 31.5q17 0 33 -9l26 147q7 27 17 37q-28 18 -66.5 27.5t-82.5 9.5q-45 0 -80 -8l-8 -11q-10 -14 -27 -14q-8 0 -20 5q-17 7 -17 21q0 11 9 29q41 87 104.5 137.5t152.5 50.5q31 0 56 -5t64 -15q67 -18 116 -21l-32 -67
q-47 6 -101 21q-40 10 -63 14t-55 4q-50 0 -83 -22t-57 -65q38 5 67 5q52 0 98.5 -12t78.5 -35q7 7 17 7q12 0 22 -13q9 -13 9 -24q0 -14 -14 -25q-18 -14 -23 -42l-38 -215q-9 -48 -38.5 -75.5t-83.5 -27.5q-41 0 -65.5 24zM324 59q16 16 16 36q0 16 -10.5 26t-26.5 10
q-22 0 -38.5 -15.5t-16.5 -36.5q0 -16 11 -26t28 -10q21 0 37 16z" />
    <glyph glyph-name="uni0E24" unicode="&#xe24;" horiz-adv-x="645" 
d="M508 407q5 29 17 45q-20 40 -56 61t-98 21q-70 0 -123.5 -29.5t-83.5 -75.5l45 -32q14 14 34 26.5t41 18.5l20 -54q-38 -17 -58 -41t-27 -64l-20 -111q22 9 40 9q31 0 52 -22t21 -56q0 -48 -33 -80.5t-87 -32.5q-41 0 -67 24.5t-26 61.5q0 5 2 17l32 181q7 42 30 66
l-88 65q19 52 65.5 97.5t110 73t131.5 27.5q71 0 117.5 -25t77.5 -73q7 7 19 7q14 0 24 -11q11 -13 11 -28q0 -9 -3.5 -14.5t-7.5 -9.5l-5 -5q-9 -8 -14.5 -16t-8.5 -22l-135 -765h-84zM236 58q15 15 15 38q0 16 -10.5 25.5t-27.5 9.5q-21 0 -37 -15.5t-16 -36.5
q0 -16 10.5 -26t26.5 -10q24 0 39 15z" />
    <glyph glyph-name="uni0E25" unicode="&#xe25;" horiz-adv-x="625" 
d="M89 13.5q-25 23.5 -25 61.5q0 50 25.5 105t69.5 103.5t99 79.5q-3 3 -3 10t5 16t14 16q15 12 28 12q10 0 20 -8q45 -37 81 -85.5t53 -98.5l35 197q5 25 17 37q-48 75 -153 75q-137 0 -208 -126l-67 23q39 76 109.5 124t167.5 48q71 0 124 -24t83 -69q4 4 12 4
q13 0 25 -18q10 -14 10 -26t-14 -23q-21 -15 -25 -40l-72 -407h-83l5 27q4 28 4 42q0 72 -34 145t-84 108q-49 -22 -88 -62.5t-60 -90.5q18 12 43 12q33 0 53 -20.5t20 -54.5q0 -52 -34 -84t-87 -32q-41 0 -66 23.5zM199 58.5q16 15.5 16 37.5q0 16 -10.5 25.5t-27.5 9.5
q-21 0 -37 -16t-16 -36q0 -15 10.5 -25.5t26.5 -10.5q22 0 38 15.5z" />
    <glyph glyph-name="uni0E26" unicode="&#xe26;" horiz-adv-x="650" 
d="M513 407q5 29 17 45q-20 41 -54 61.5t-96 20.5q-66 0 -121.5 -29.5t-83.5 -74.5l55 -36q15 14 36 27.5t38 17.5l20 -54q-38 -16 -56.5 -41.5t-25.5 -65.5l-26 -146q4 -9 4 -27q0 -47 -32 -81t-87 -34q-42 0 -67 24.5t-25 63.5q0 46 30.5 75t75.5 29q14 0 26 -5l16 91
q10 53 26 70l-98 67q21 53 67.5 98.5t109.5 72.5t130 27q71 0 115 -24.5t75 -73.5q7 7 19 7q14 0 24 -11q11 -13 11 -28q0 -9 -3.5 -14.5t-7.5 -9.5l-5 -5q-9 -8 -14.5 -16t-8.5 -22l-135 -765h-84zM144.5 58.5q14.5 15.5 14.5 36.5q0 16 -10.5 26t-26.5 10q-22 0 -37 -14
t-15 -38q0 -17 10 -26.5t27 -9.5q23 0 37.5 15.5z" />
    <glyph glyph-name="uni0E27" unicode="&#xe27;" horiz-adv-x="561" 
d="M265.5 12.5q-25.5 22.5 -25.5 57.5q0 48 32.5 79.5t77.5 31.5q17 0 33 -9l43 244q6 33 17 45q-18 37 -46 55t-77 18q-54 0 -100 -30t-80 -90l-69 23q37 73 104.5 119.5t150.5 46.5q66 0 107.5 -21.5t68.5 -66.5q7 7 14 7q11 0 23 -16q10 -12 10 -24q0 -5 -4 -13
q-7 -10 -13 -15q-9 -10 -14.5 -19t-8.5 -24l-56 -318q-8 -46 -40.5 -74.5t-80.5 -28.5q-41 0 -66.5 22.5zM377 59q16 16 16 36q0 16 -10.5 26t-27.5 10q-22 0 -37.5 -15.5t-15.5 -36.5q0 -16 10.5 -26t27.5 -10q21 0 37 16z" />
    <glyph glyph-name="uni0E28" unicode="&#xe28;" horiz-adv-x="629" 
d="M583 512q10 0 20 -11q11 -13 11 -27q0 -10 -4 -16t-12 -14q-19 -17 -23 -38l-72 -406h-83l72 407q5 27 16 45q-20 40 -56 61.5t-94 21.5q-83 0 -136.5 -44t-69.5 -128q-10 -58 -10 -124q0 -7 -1 -34.5t-5 -57.5h2q22 39 33.5 67t24.5 67q6 19 13.5 38t16.5 35
q38 67 111 67q42 0 65 -20.5t23 -56.5q0 -50 -32.5 -83t-83.5 -33q-17 0 -33.5 5.5t-26.5 15.5q-30 -74 -58 -123.5t-81 -110.5q-17 -20 -35 -20q-12 0 -25 10q-16 12 -16 23q0 10 16 29q17 20 17 67q0 26 -3 59q-4 56 -4 93q0 113 40.5 186t108 107t151.5 34q91 0 150 -40
q56 58 115 91l33 -55q-59 -34 -105 -75l14 -19q7 7 16 7zM291 351q-16 -16 -16 -37q0 -16 10.5 -25.5t26.5 -9.5q21 0 37 15.5t16 36.5q0 15 -10.5 25.5t-26.5 10.5q-21 0 -37 -16z" />
    <glyph glyph-name="uni0E29" unicode="&#xe29;" horiz-adv-x="671" 
d="M128 -10q-20 0 -30 26q-4 12 -4 16q0 16 23 30q13 8 19.5 20t9.5 30l52 305q-18 -8 -36 -8q-34 0 -57 22t-23 57q0 50 34 82.5t87 32.5q42 0 68.5 -23.5t26.5 -59.5q0 -11 -1 -16l-70 -397q-4 -26 -19 -40h286l30 172q-22 -25 -51 -38t-62 -13q-47 0 -77.5 26.5
t-30.5 69.5q0 59 38 94t94 35q17 0 25.5 -5t8.5 -17q0 -7 -1 -11q-7 -29 -40 -29q-22 0 -37.5 -17.5t-15.5 -41.5q0 -20 14.5 -29.5t40.5 -9.5q49 0 78.5 31.5t39.5 88.5l38 220h83l-93 -528q-5 -29 -25 -47t-50 -18h-325q-19 0 -33 -7q-7 -3 -15 -3zM221 475.5
q15 15.5 15 36.5q0 15 -10.5 25.5t-26.5 10.5q-23 0 -38.5 -14t-15.5 -39q0 -15 10.5 -25t27.5 -10q23 0 38 15.5z" />
    <glyph glyph-name="uni0E2A" unicode="&#xe2a;" horiz-adv-x="627" 
d="M576 514q13 0 25 -18q10 -14 10 -26t-14 -23q-21 -15 -25 -40l-72 -407h-83l5 27q4 28 4 42q0 72 -34 145t-84 108q-49 -22 -88 -62.5t-60 -90.5q18 12 43 12q33 0 53 -20.5t20 -54.5q0 -52 -34 -84t-87 -32q-41 0 -66 23.5t-25 61.5q0 50 25.5 105t69.5 103.5t99 79.5
q-3 3 -3 10t5 16t14 16q15 12 28 12q10 0 20 -8q45 -37 81 -85.5t53 -98.5l35 197q5 25 17 37q-48 75 -153 75q-137 0 -208 -126l-67 23q39 76 109.5 124t167.5 48q93 0 155 -42q61 61 127 92l27 -56q-63 -30 -111 -75l9 -12q4 4 12 4zM140 115q-16 -16 -16 -36
q0 -15 10.5 -25.5t26.5 -10.5q22 0 38 15.5t16 37.5q0 16 -10.5 25.5t-27.5 9.5q-21 0 -37 -16z" />
    <glyph glyph-name="uni0E2B" unicode="&#xe2b;" horiz-adv-x="646" 
d="M102 25q0 12 11 24q25 27 32 66l53 302q-18 -8 -36 -8q-34 0 -57 22t-23 57q0 50 34 82.5t87 32.5q42 0 69 -24t27 -59q0 -11 -1 -16l-60 -340l217 259q-15 12 -23.5 29.5t-8.5 37.5q0 49 35.5 81t88.5 32q41 0 67 -22.5t26 -58.5q0 -33 -17.5 -59.5t-49.5 -40.5
q25 -15 25 -49q0 -13 -3 -31l-60 -342h-83l60 341q1 4 1 11q0 26 -22 26l-316 -373q-14 -16 -32 -16q-13 0 -25 9q-16 13 -16 27zM221 475.5q15 15.5 15 36.5q0 15 -10.5 25.5t-26.5 10.5q-23 0 -38.5 -14t-15.5 -39q0 -15 10.5 -25t27.5 -10q23 0 38 15.5zM561 476
q16 16 16 36q0 15 -10.5 25.5t-26.5 10.5q-22 0 -38.5 -15.5t-16.5 -36.5q0 -16 11 -26t28 -10q21 0 37 16z" />
    <glyph glyph-name="uni0E2C" unicode="&#xe2c;" horiz-adv-x="775" 
d="M532.5 -3.5q-7.5 6.5 -11.5 25.5l-77 385l-225 -379q-22 -37 -52 -37q-9 0 -24 5q-12 5 -19 12.5t-7 17.5q0 12 10 25q12 16 16 41l57 325q-18 -8 -38 -8q-34 0 -57 22t-23 57q0 50 34 82.5t87 32.5q42 0 69 -24t27 -59q0 -11 -1 -16l-55 -313l178 302q8 13 17.5 19.5
t24.5 6.5t22 -6.5t9 -19.5l64 -295l76 430q-8 -4 -20.5 -7t-21.5 -3q-38 0 -62.5 22.5t-24.5 58.5q0 50 35.5 82.5t88.5 32.5q34 0 58 -16t28 -44l67 63l53 -45l-112 -104l-112 -632q-4 -22 -16.5 -34t-33.5 -12t-28.5 6.5zM644.5 687q15.5 16 15.5 38q0 16 -10 25t-27 9
q-23 0 -38.5 -15.5t-15.5 -38.5q0 -16 10 -25t28 -9q22 0 37.5 16zM221 475.5q15 15.5 15 36.5q0 15 -10.5 25.5t-26.5 10.5q-23 0 -38.5 -14t-15.5 -39q0 -15 10.5 -25t27.5 -10q23 0 38 15.5z" />
    <glyph glyph-name="uni0E2D" unicode="&#xe2d;" horiz-adv-x="617" 
d="M80 -10q-19 0 -30 25q-4 9 -4 17q0 9 5 15.5t17 14.5q13 8 19.5 19.5t9.5 30.5l28 161q9 49 42.5 75t82.5 26q43 0 67.5 -23.5t24.5 -58.5q0 -48 -32 -80t-82 -32q-20 0 -34 8l-15 -83q-6 -27 -19 -39h263l60 342q6 33 16 45q-19 42 -52 61.5t-94 19.5q-132 0 -205 -122
l-68 22q40 75 110 122t165 47q76 0 126.5 -25t75.5 -71q7 7 14 7q11 0 23 -16q10 -12 10 -24q0 -5 -4 -13q-3 -5 -12.5 -14t-15 -18.5t-8.5 -25.5l-59 -338q-5 -29 -25.5 -47t-50.5 -18h-301q-18 0 -34 -7q-6 -3 -14 -3zM263 246.5q16 15.5 16 36.5q0 16 -10.5 26t-27.5 10
q-22 0 -38 -16t-16 -36q0 -16 10.5 -26t27.5 -10q22 0 38 15.5z" />
    <glyph glyph-name="uni0E2E" unicode="&#xe2e;" horiz-adv-x="585" 
d="M43 -11q-18 0 -29 26q-4 9 -4 18q0 8 5 14.5t17 14.5q13 8 19.5 19.5t9.5 30.5l28 161q9 49 42.5 75t82.5 26q43 0 67.5 -23.5t24.5 -58.5q0 -48 -32 -80t-82 -32q-20 0 -34 8l-15 -83q-6 -27 -19 -39h261l58 330q0 2 3.5 19t15.5 30l-21 19q-45 -30 -90.5 -42.5
t-107.5 -12.5q-69 0 -109 23t-40 64q0 56 50.5 87.5t143.5 31.5q52 0 96.5 -17t74.5 -44q62 62 132 101l28 -56q-37 -19 -65 -39.5t-56 -49.5l15 -13q9 7 20 7q14 0 23 -12q10 -11 10 -24q0 -7 -4.5 -14t-10.5 -13q-11 -12 -16.5 -21t-8.5 -23l-58 -332q-5 -29 -25.5 -47
t-50.5 -18h-300q-18 0 -34 -7q-10 -4 -15 -4zM397 512q-46 40 -120 40q-51 0 -77.5 -12t-26.5 -35q0 -34 83 -34q88 0 141 41zM227 246.5q16 15.5 16 36.5q0 16 -10.5 26t-27.5 10q-22 0 -38 -16t-16 -36q0 -16 10.5 -26t27.5 -10q22 0 38 15.5z" />
    <glyph glyph-name="uni0E2F" unicode="&#xe2f;" horiz-adv-x="529" 
d="M347 -10q-23 0 -32 17q-5 10 -5 16q0 14 22 30q18 12 26 22t11 26l53 304q-35 -38 -75.5 -56t-90.5 -18q-46 0 -84 19t-60 52t-22 74q0 58 35.5 92.5t91.5 34.5q44 0 71 -24t27 -60q0 -45 -29 -74.5t-80 -35.5q21 -19 60 -19q65 0 114.5 45t91.5 142q11 26 35 26
q18 0 28 -6.5t10 -18.5q0 -4 -4 -16l-11 -24l-79 -445q-12 -66 -78 -97q-12 -6 -26 -6zM232.5 467q17.5 16 17.5 42q0 17 -10.5 26t-29.5 9q-24 0 -39.5 -15.5t-15.5 -39.5q0 -16 10.5 -27t27.5 -11q22 0 39.5 16z" />
    <glyph glyph-name="uni0E30" unicode="&#xe30;" horiz-adv-x="528" 
d="M121.5 348q-41.5 27 -41.5 75q0 32 17 59.5t46.5 43.5t63.5 16q40 0 65.5 -21.5t25.5 -58.5q0 -25 -11.5 -45t-32.5 -32l-1 -2q134 9 211 150l66 -33q-46 -85 -126.5 -132t-175.5 -47q-65 0 -106.5 27zM219.5 413.5q15.5 15.5 15.5 37.5q0 16 -10 25.5t-28 9.5
q-22 0 -37.5 -15.5t-15.5 -37.5q0 -16 10.5 -25.5t27.5 -9.5q22 0 37.5 15.5zM65.5 30.5q-41.5 27.5 -41.5 75.5q0 32 17.5 59t46.5 43t63 16q40 0 65 -22t25 -58q0 -27 -11.5 -46.5t-31.5 -29.5l-1 -3q136 10 211 150l66 -33q-46 -85 -126.5 -132t-175.5 -47
q-65 0 -106.5 27.5zM163 95.5q15 15.5 15 37.5q0 16 -9.5 25.5t-27.5 9.5q-22 0 -37.5 -15.5t-15.5 -37.5q0 -16 10 -25.5t28 -9.5q22 0 37 15.5z" />
    <glyph glyph-name="uni0E31" unicode="&#xe31;" 
d="M-256.5 685.5q-42.5 27.5 -42.5 72.5q0 49 33 80.5t86 31.5q40 0 64.5 -20.5t24.5 -55.5q0 -26 -12 -48.5t-31 -34.5v-3q80 0 148.5 41.5t115.5 119.5l59 -34q-55 -88 -136.5 -132.5t-194.5 -44.5q-72 0 -114.5 27.5zM-165 745q16 15 16 38q0 16 -11 26t-28 10
q-21 0 -37.5 -15.5t-16.5 -36.5q0 -16 11 -26.5t28 -10.5q22 0 38 15z" />
    <glyph glyph-name="uni0E32" unicode="&#xe32;" horiz-adv-x="531" 
d="M394 418q7 31 17 44q-16 36 -42.5 54t-72.5 18q-98 0 -166 -90l-57 34q43 61 100.5 93t123.5 32q61 0 105.5 -23t68.5 -64q8 7 17 7q10 0 20 -11q12 -13 12 -27q0 -10 -4.5 -16t-12.5 -13q-11 -10 -16.5 -17.5t-8.5 -21.5l-73 -417h-84z" />
    <glyph glyph-name="uni0E33" unicode="&#xe33;" horiz-adv-x="532" 
d="M-100 666.5q-26 23.5 -26 61.5q0 54 36.5 87t95.5 33q43 0 69 -23t26 -61q0 -55 -36.5 -88t-95.5 -33q-43 0 -69 23.5zM18.5 715.5q14.5 14.5 14.5 38.5q0 17 -10 27t-27 10q-24 0 -39 -15t-15 -39q0 -16 10.5 -26t27.5 -10q24 0 38.5 14.5zM395 418q5 29 17 44
q-17 36 -43.5 54t-71.5 18q-98 0 -166 -90l-57 34q44 61 101 93t123 32q60 0 104.5 -23.5t68.5 -63.5q9 7 17 7q11 0 20 -10q12 -13 12 -28q0 -10 -4 -16t-13 -14q-10 -8 -15.5 -16t-8.5 -22l-74 -417h-84z" />
    <glyph glyph-name="uni0E34" unicode="&#xe34;" 
d="M-160 689q-62 9 -128 9q-57 0 -97 -3.5t-70 -13.5q-8 -2 -13 -2q-18 0 -26 22q-2 4 -2 12q0 19 32 32q47 63 113.5 99t139.5 36q93 0 153.5 -44t82.5 -125q2 -5 2 -15q0 -22 -24 -39q-10 -7 -20 -7q-9 0 -21 5q-60 25 -122 34zM-222 819q-48 0 -90 -18.5t-74 -52.5
q40 8 105 8q70 0 125 -8t108 -28q-45 99 -174 99z" />
    <glyph glyph-name="uni0E35" unicode="&#xe35;" 
d="M24 708q3 -6 3 -13q0 -21 -26 -38q-10 -7 -21 -7q-8 0 -20 5q-58 26 -119.5 34.5t-130.5 8.5q-111 0 -167 -17q-10 -2 -13 -2q-18 0 -26 22q-2 4 -2 12q0 19 32 32q47 63 113.5 99t139.5 36q103 0 170 -67l16 93h79l-33 -187zM-158 748q55 -8 108 -28q-45 99 -174 99
q-48 0 -90 -18.5t-74 -52.5q40 8 105 8q70 0 125 -8z" />
    <glyph glyph-name="uni0E36" unicode="&#xe36;" 
d="M-158.5 689.5q-61.5 8.5 -130.5 8.5q-111 0 -167 -17q-10 -2 -13 -2q-18 0 -26 22q-2 4 -2 12q0 19 32 32q47 63 113.5 99t139.5 36q29 0 58 -7t51 -20q10 26 37 44t60 18q35 0 55.5 -18.5t20.5 -49.5q0 -30 -17.5 -55t-47.5 -35q13 -21 20 -49q1 -4 1 -11q0 -24 -24 -40
q-10 -7 -21 -7q-8 0 -20 5q-58 26 -119.5 34.5zM4 805q14 14 14 32q0 14 -9 23t-22 9q-18 0 -33 -14t-15 -32q0 -13 10 -22.5t24 -9.5q17 0 31 14zM-223 819q-48 0 -90 -18.5t-74 -52.5q40 8 105 8q70 0 125 -8t108 -28q-45 99 -174 99z" />
    <glyph glyph-name="uni0E37" unicode="&#xe37;" 
d="M24 708q3 -6 3 -13q0 -21 -26 -38q-10 -7 -21 -7q-8 0 -20 5q-58 26 -119.5 34.5t-130.5 8.5q-111 0 -167 -17q-10 -2 -13 -2q-18 0 -26 22q-2 4 -2 12q0 19 32 32q47 63 113.5 99t139.5 36q44 0 87 -16l7 42h68l-13 -77q24 -21 30 -29l19 106h67l-33 -187zM-158 748
q55 -8 108 -28q-45 99 -174 99q-48 0 -90 -18.5t-74 -52.5q40 8 105 8q70 0 125 -8z" />
    <glyph glyph-name="uni0E38" unicode="&#xe38;" 
d="M-223 -214q-18 -8 -34 -8q-36 0 -57.5 19t-21.5 53q0 47 35 79.5t86 32.5q39 0 62.5 -20t23.5 -53q0 -10 -1 -15l-31 -174h-77zM-204 -158.5q15 14.5 15 34.5q0 16 -10 25.5t-25 9.5q-21 0 -37 -15t-16 -35q0 -15 10.5 -24.5t27.5 -9.5q20 0 35 14.5z" />
    <glyph glyph-name="uni0E39" unicode="&#xe39;" 
d="M-357 -317q-16 0 -25 19q-4 8 -4 14q0 7 5 12.5t17 13.5q13 9 17 29l3 17q-16 -8 -33 -8q-35 0 -56.5 19t-21.5 52q0 46 34.5 78.5t84.5 32.5q38 0 59.5 -19.5t21.5 -52.5q0 -6 -2 -18l-16 -91q-4 -22 -13 -32h63l37 206h70l-35 -197q-5 -29 -24 -44.5t-49 -15.5h-96
l-11 -6q-16 -9 -26 -9zM-325 -157.5q15 14.5 15 34.5q0 16 -10 25.5t-25 9.5q-21 0 -36.5 -15.5t-15.5 -35.5q0 -14 10.5 -23.5t26.5 -9.5q20 0 35 14.5z" />
    <glyph glyph-name="uni0E3A" unicode="&#xe3a;" 
d="M-211 -136.5q-13 12.5 -13 32.5q0 26 20 46t48 20q21 0 34 -12.5t13 -32.5q0 -26 -20 -46t-47 -20q-22 0 -35 12.5z" />
    <glyph glyph-name="uni0E3F" unicode="&#xe3f;" horiz-adv-x="591" 
d="M513 313q30 -34 30 -83q0 -65 -33.5 -117.5t-92.5 -82.5t-131 -30h-25l-17 -98h-50l17 98h-180l107 609q1 5 1 14q0 10 -3 16t-9 12.5t-6 12.5q0 15 19 34.5t38 19.5q15 0 28 -18h129l17 99h50l-17 -99h21q84 0 129 -40t45 -106q0 -71 -39 -120.5t-109 -68.5l-1 -2
q52 -16 82 -50zM185 399h97l40 232h-96zM372 631l-40 -232q73 1 116 40.5t43 104.5q0 41 -24 64t-80 23h-15zM223 69l46 260h-96l-46 -260h96zM411 112q44 43 44 115q0 49 -34.5 75.5t-97.5 26.5h-4l-46 -260h21q73 0 117 43z" />
    <glyph glyph-name="uni0E40" unicode="&#xe40;" horiz-adv-x="310" 
d="M63 13q-25 23 -25 60q0 6 2 20l88 500h84l-74 -421q22 9 39 9q34 0 53.5 -20.5t19.5 -53.5q0 -51 -33 -84t-88 -33q-41 0 -66 23zM173.5 58.5q15.5 15.5 15.5 37.5q0 16 -10 25.5t-27 9.5q-22 0 -38 -15.5t-16 -36.5q0 -16 11 -26t27 -10q22 0 37.5 15.5z" />
    <glyph glyph-name="uni0E41" unicode="&#xe41;" horiz-adv-x="557" 
d="M63 13q-25 23 -25 60q0 6 2 20l88 500h84l-74 -421q22 9 39 9q34 0 53.5 -20.5t19.5 -53.5q0 -51 -33 -84t-88 -33q-41 0 -66 23zM310 13q-25 23 -25 60q0 6 2 20l88 500h84l-74 -421q22 9 39 9q34 0 53.5 -20.5t19.5 -53.5q0 -51 -33 -84t-88 -33q-41 0 -66 23z
M173.5 58.5q15.5 15.5 15.5 37.5q0 16 -10 25.5t-27 9.5q-22 0 -38 -15.5t-16 -36.5q0 -16 11 -26t27 -10q22 0 37.5 15.5zM420.5 58.5q15.5 15.5 15.5 37.5q0 16 -10 25.5t-27 9.5q-22 0 -38 -15.5t-16 -36.5q0 -16 11 -26t27 -10q22 0 37.5 15.5z" />
    <glyph glyph-name="uni0E42" unicode="&#xe42;" horiz-adv-x="424" 
d="M156 13q-25 23 -25 60q0 6 2 20l107 605q5 27 5 45q0 50 -31 74t-99 25l-11 -9q-13 -9 -22 -9q-10 0 -23 10q-12 11 -12 20q0 14 22 42q57 74 128.5 114.5t154.5 40.5q85 0 142 -36.5t82 -99.5l-65 -32q-22 53 -62 76t-109 23q-51 0 -99 -22t-79 -59q85 -8 126 -48.5
t41 -106.5q0 -20 -5 -48l-93 -526q22 9 39 9q34 0 53.5 -20.5t19.5 -53.5q0 -51 -33 -84t-88 -33q-41 0 -66 23zM266.5 58.5q15.5 15.5 15.5 37.5q0 16 -10 25.5t-27 9.5q-22 0 -38 -15.5t-16 -36.5q0 -16 11 -26t27 -10q22 0 37.5 15.5z" />
    <glyph glyph-name="uni0E43" unicode="&#xe43;" horiz-adv-x="353" 
d="M112 13q-25 23 -25 60q0 6 2 20l82 468q17 103 68.5 174t144.5 115q3 17 3 32q0 101 -115 101q-99 0 -154 -62l-1 -2q10 5 25 9t28 4q34 0 53 -20.5t19 -52.5q0 -49 -36 -82.5t-89 -33.5q-42 0 -68.5 26t-26.5 68q0 55 36.5 104.5t97 79.5t128.5 30q86 0 133.5 -42.5
t47.5 -115.5q0 -37 -7.5 -57t-18.5 -29.5t-30 -17.5q-66 -28 -101.5 -80t-52.5 -148l-68 -389q22 9 39 9q34 0 53.5 -20.5t19.5 -53.5q0 -51 -33 -84t-88 -33q-41 0 -66 23zM166.5 811q15.5 15 15.5 38q0 16 -10.5 25.5t-28.5 9.5q-21 0 -36.5 -16t-15.5 -36q0 -16 10.5 -26
t26.5 -10q23 0 38.5 15zM222.5 58.5q15.5 15.5 15.5 37.5q0 16 -10 25.5t-27 9.5q-22 0 -38 -15.5t-16 -36.5q0 -16 11 -26t27 -10q22 0 37.5 15.5z" />
    <glyph glyph-name="uni0E44" unicode="&#xe44;" horiz-adv-x="442" 
d="M175 13q-25 23 -25 60q0 6 2 20l89 504q19 104 86.5 178t173.5 117q-7 25 -20 48t-29 37q-54 -17 -99 -50.5t-87 -86.5q-17 -22 -32 -22q-7 0 -17 5q-15 8 -15 20q0 8 6 18q-22 97 -140 135l49 59q57 -21 92.5 -55t52.5 -83q36 39 83.5 69.5t95.5 47.5q17 6 28 6
q12 0 19 -7q33 -30 55.5 -73t29.5 -82q2 -14 2 -18q0 -19 -20 -30q-13 -7 -22 -7t-18 11q-84 -35 -129 -90t-61 -147l-75 -425q22 9 39 9q34 0 53.5 -20.5t19.5 -53.5q0 -51 -33 -84t-88 -33q-41 0 -66 23zM285.5 58.5q15.5 15.5 15.5 37.5q0 16 -10 25.5t-27 9.5
q-22 0 -38 -15.5t-16 -36.5q0 -16 11 -26t27 -10q22 0 37.5 15.5z" />
    <glyph glyph-name="uni0E45" unicode="&#xe45;" horiz-adv-x="531" 
d="M394 418q7 31 17 44q-17 36 -44 54t-71 18q-98 0 -166 -90l-57 34q43 61 100.5 93t123.5 32q60 0 105 -23.5t69 -63.5q8 7 17 7q10 0 20 -11q12 -13 12 -27q0 -10 -4.5 -16t-12.5 -13q-11 -10 -16.5 -17.5t-8.5 -21.5l-137 -776h-84z" />
    <glyph glyph-name="uni0E46" unicode="&#xe46;" horiz-adv-x="602" 
d="M285 -363q-21 0 -32 28q-2 4 -2 11q0 17 25 31q22 13 27 38l99 565q9 53 32.5 94.5t64.5 76.5l-33 46l-50 -42q2 -8 2 -11q0 -20 -28 -33q-12 -6 -21 -6q-19 0 -26 25q-8 26 -15.5 41t-23 24t-42.5 9q-38 0 -66 -29t-36 -69q13 11 32.5 18t36.5 7q35 0 57 -21.5t22 -59.5
q0 -53 -35 -86.5t-91 -33.5q-50 0 -79.5 31t-29.5 81q0 62 26 115t73 84.5t106 31.5q42 0 72.5 -16.5t45.5 -47.5l60 52q14 12 31 12q15 0 22 -10l51 -71q6 3 12 3q15 0 22 -13t7 -24q0 -19 -23 -34q-42 -29 -62 -59.5t-30 -84.5l-100 -567q-6 -34 -22 -55.5t-56 -43.5
q-11 -7 -23 -7zM226.5 331q16.5 17 16.5 39q0 16 -10.5 27t-27.5 11q-23 0 -40 -16.5t-17 -38.5q0 -17 11 -28t29 -11q22 0 38.5 17z" />
    <glyph glyph-name="uni0E47" unicode="&#xe47;" 
d="M-202.5 683q-32.5 21 -39.5 59q-32 -12 -53 -57q-4 -10 -13.5 -16.5t-20.5 -6.5t-22 8q-50 40 -50 102q0 73 49.5 118.5t128.5 45.5h97q58 0 89.5 16t52.5 58l59 -19q-25 -60 -79.5 -88.5t-131.5 -28.5h-99q-46 0 -72.5 -25t-26.5 -68q0 -27 12 -49q34 50 77 62
q6 28 34 28q25 0 25 -16q0 -42 2 -58t10 -22.5t29 -11.5l1 1q-7 12 -7 27q0 34 27.5 58.5t65.5 24.5q30 0 48 -16.5t18 -44.5q0 -43 -36 -72.5t-89 -29.5t-85.5 21zM-50 726.5q12 11.5 12 27.5q0 12 -8 19.5t-20 7.5q-16 0 -28 -11.5t-12 -27.5q0 -12 8 -19.5t20 -7.5
q16 0 28 11.5z" />
    <glyph glyph-name="uni0E48" unicode="&#xe48;" 
d="M-38 874h84l-37 -212h-84z" />
    <glyph glyph-name="uni0E49" unicode="&#xe49;" 
d="M-298 715q59 9 93 44v2q-5 -1 -14 -1q-32 0 -51.5 19t-19.5 50q0 11 1 16q7 43 40.5 69.5t80.5 26.5q40 0 64 -21.5t24 -56.5q0 -7 -2 -19q-6 -34 -27 -63.5t-56 -51.5q77 5 135.5 58t84.5 134l68 -14q-31 -108 -114 -170t-207 -69l-109 -6zM-155.5 816q15.5 14 15.5 36
q0 16 -10 25.5t-26 9.5q-23 0 -39 -14.5t-16 -35.5q0 -16 11 -25.5t29 -9.5q20 0 35.5 14z" />
    <glyph glyph-name="uni0E4A" unicode="&#xe4a;" 
d="M-369 688q-23 26 -23 68q0 46 19.5 85.5t52 63t70.5 23.5q54 0 75 -44q37 44 92 44q36 0 57.5 -19.5t21.5 -54.5q0 -29 -13 -59.5t-34 -55.5q56 28 86.5 70t53.5 127l66 -9q-29 -114 -93.5 -175.5t-177.5 -83.5q-4 -1 -11 -1q-9 0 -14.5 4.5t-9.5 14.5q-3 11 2.5 19.5
t18.5 19.5q25 20 42 51.5t17 59.5q0 15 -9 23.5t-26 8.5q-21 0 -34 -11.5t-13 -29.5v-16h-56q-2 29 -13.5 43t-35.5 14q-56 0 -70 -83h1q11 11 27.5 17t33.5 6q26 0 41.5 -15t15.5 -40q0 -40 -27.5 -65.5t-70.5 -25.5q-39 0 -62 26zM-269 715.5q12 11.5 12 27.5
q0 11 -8 18.5t-20 7.5q-16 0 -28 -11.5t-12 -27.5q0 -12 8 -19t20 -7q16 0 28 11.5z" />
    <glyph glyph-name="uni0E4B" unicode="&#xe4b;" 
d="M-55 755h-108l12 67h108l16 93h80l-16 -93h108l-12 -67h-108l-16 -93h-80z" />
    <glyph glyph-name="uni0E4C" unicode="&#xe4c;" 
d="M-219 675.5q-25 22.5 -25 58.5q0 37 21 67t57.5 47t80.5 17q54 0 95 19t76 57l41 -45q-42 -42 -83.5 -61t-93.5 -19l-1 -3q10 -9 15.5 -22t5.5 -26q0 -29 -17.5 -55t-46 -41.5t-60.5 -15.5q-40 0 -65 22.5zM-106.5 724q15.5 15 15.5 36q0 16 -10.5 26t-26.5 10
q-22 0 -38.5 -15.5t-16.5 -36.5q0 -16 11 -25.5t29 -9.5q21 0 36.5 15z" />
    <glyph glyph-name="uni0E4D" unicode="&#xe4d;" 
d="M-116 666.5q-25 22.5 -25 60.5q0 51 37.5 87t91.5 36q42 0 67.5 -23t25.5 -60q0 -51 -37.5 -87t-91.5 -36q-43 0 -68 22.5zM0.5 717.5q16.5 16.5 16.5 38.5q0 16 -11 26.5t-28 10.5q-23 0 -39.5 -16t-16.5 -39q0 -17 10.5 -27t29.5 -10q22 0 38.5 16.5z" />
    <glyph glyph-name="uni0E4E" unicode="&#xe4e;" 
d="M-171.5 680.5q-26.5 18.5 -26.5 51.5q0 44 37 77.5t94 40.5q-24 18 -24 46q0 44 39.5 73.5t95.5 29.5q34 0 63 -11l-26 -53q-20 7 -39 7q-26 0 -42 -13t-16 -34q0 -36 59 -42l-26 -44q-133 1 -133 -61q0 -28 46 -28q13 0 28 3t23 7l2 -53q-17 -7 -39.5 -11t-40.5 -4
q-48 0 -74.5 18.5z" />
    <glyph glyph-name="uni0E4F" unicode="&#xe4f;" horiz-adv-x="603" 
d="M150.5 21q-49.5 26 -78 73t-28.5 108q0 87 39.5 153.5t109 103t156.5 36.5q64 0 112.5 -26t74.5 -72.5t26 -108.5q0 -87 -37.5 -153.5t-105.5 -103t-158 -36.5q-61 0 -110.5 26zM432 118q56 57 56 161q0 70 -37 110t-114 40q-65 0 -114.5 -27t-77 -76.5t-27.5 -113.5
q0 -70 39 -110.5t115 -40.5q104 0 160 57zM196 139.5q-32 30.5 -32 79.5q0 73 45.5 117.5t119.5 44.5q52 0 83.5 -30t31.5 -79q0 -73 -44.5 -118t-118.5 -45q-53 0 -85 30.5zM358.5 192.5q25.5 27.5 25.5 71.5q0 28 -18 44.5t-47 16.5q-42 0 -68 -27.5t-26 -71.5
q0 -28 18 -44.5t48 -16.5q42 0 67.5 27.5z" />
    <glyph glyph-name="uni0E50" unicode="&#xe50;" horiz-adv-x="636" 
d="M152.5 15.5q-52.5 25.5 -81 72t-28.5 106.5q0 90 39.5 158t112 105.5t168.5 37.5q69 0 121.5 -25.5t81.5 -72.5t29 -107q0 -90 -40 -158t-112.5 -105t-168.5 -37q-69 0 -121.5 25.5zM402.5 88q50.5 28 78.5 79t28 117q0 65 -42 103.5t-116 38.5q-66 0 -116.5 -28t-78 -79
t-27.5 -118q0 -65 41 -103t116 -38q66 0 116.5 28z" />
    <glyph glyph-name="uni0E51" unicode="&#xe51;" horiz-adv-x="668" 
d="M324 -43q101 48 159.5 134.5t58.5 183.5q0 72 -41 111.5t-127 39.5q-73 0 -129.5 -31t-88.5 -87.5t-32 -131.5q0 -65 27 -94.5t84 -31.5l1 2q-22 10 -34 29t-12 42q0 49 33.5 79.5t86.5 30.5q41 0 66.5 -21.5t25.5 -56.5q0 -44 -26 -82t-69.5 -60.5t-94.5 -22.5
q-50 0 -89.5 23.5t-61 66t-21.5 96.5q0 90 44.5 163t123 114.5t175.5 41.5q117 0 180.5 -57.5t63.5 -152.5q0 -116 -74 -221.5t-200 -167.5zM326.5 107q15.5 16 15.5 39q0 16 -10.5 25t-27.5 9q-23 0 -38.5 -15.5t-15.5 -38.5q0 -16 10.5 -25.5t27.5 -9.5q23 0 38.5 16z" />
    <glyph glyph-name="uni0E52" unicode="&#xe52;" horiz-adv-x="795" 
d="M102 4q-6 4 -6 15q0 21 9 32t24 11q27 156 27 260q0 70 -11 136.5t-35 145.5l77 39q26 -90 37.5 -161t11.5 -145q0 -110 -28 -271l380 1q32 1 37 31l47 268q4 21 11 30q-10 31 -51 31q-22 0 -39.5 -13t-24.5 -33q1 -6 1 -20q0 -20 -3 -38h-61q1 8 1 23q0 41 -16 61
t-49 20q-37 0 -61 -29t-32 -76q10 9 26 16t31 7q35 0 54 -20.5t19 -54.5q0 -48 -31.5 -77t-81.5 -29q-44 0 -69.5 27t-25.5 75q0 66 23 118.5t63.5 81.5t89.5 29q66 0 93 -55q18 23 46.5 39t60.5 16q68 0 95 -53q5 4 12 4q11 0 20 -13q7 -13 7 -22q0 -14 -14 -25
q-7 -5 -9 -11t-5 -20l-45 -255q-8 -46 -40.5 -73t-79.5 -27h-468q-11 0 -17 4zM408 226.5q16 15.5 16 36.5q0 16 -11 25.5t-27 9.5q-22 0 -37.5 -15t-15.5 -38q0 -16 10.5 -25t27.5 -9q21 0 37 15.5z" />
    <glyph glyph-name="uni0E53" unicode="&#xe53;" horiz-adv-x="682" 
d="M73 36q-31 45 -31 124q0 103 27.5 178.5t79 116t122.5 40.5q43 0 68.5 -19t41.5 -62q26 40 62.5 60.5t80.5 20.5q72 0 104 -53q6 3 12 3q12 0 20 -16q7 -14 7 -23t-9 -18q-12 -10 -15 -32l-62 -356h-84l64 366q3 18 11 32q-19 28 -60 28q-38 0 -67 -26t-38 -78l-16 -92
q-2 -14 -14.5 -23t-30.5 -9q-19 0 -28.5 9t-7.5 23l16 92q3 18 3 34q0 70 -66 70q-42 0 -74 -33t-49.5 -93.5t-17.5 -141.5q0 -17 1 -25q14 25 36.5 38t49.5 13q34 0 56 -23t22 -58q0 -53 -33 -82.5t-90 -29.5q-60 0 -91 45zM211 60q15 16 15 39q0 16 -10 25.5t-28 9.5
q-22 0 -38.5 -15.5t-16.5 -37.5q0 -16 11 -26.5t28 -10.5q24 0 39 16z" />
    <glyph glyph-name="uni0E54" unicode="&#xe54;" horiz-adv-x="803" 
d="M99.5 50.5q-57.5 50.5 -57.5 137.5q0 143 98 225t282 82q84 0 141 12t106 43.5t104 92.5l48 -49q-61 -66 -120 -102.5t-127.5 -51t-163.5 -14.5q-136 0 -209 -58.5t-73 -172.5q0 -63 34 -95.5t101 -32.5h87q-35 25 -57 64.5t-22 80.5q0 55 32.5 88t87.5 33q42 0 68 -22
t26 -58q0 -49 -31 -77.5t-86 -29.5q17 -35 56 -57t93 -22h98q31 0 31 -23q0 -21 -11 -32.5t-31 -11.5h-353q-94 0 -151.5 50.5zM408.5 206.5q15.5 15.5 15.5 37.5q0 16 -10.5 26t-27.5 10q-22 0 -37.5 -16t-15.5 -38q0 -16 10.5 -25.5t27.5 -9.5q22 0 37.5 15.5z" />
    <glyph glyph-name="uni0E55" unicode="&#xe55;" horiz-adv-x="803" 
d="M99 50.5q-57 50.5 -57 137.5q0 113 69.5 191.5t187.5 101.5q-11 16 -11 39q0 45 34.5 76t88.5 31q42 0 69 -20t27 -55q0 -33 -21 -56q87 3 152.5 36.5t134.5 110.5l48 -49q-61 -66 -120 -102.5t-127.5 -51t-163.5 -14.5q-134 0 -208 -60.5t-74 -170.5q0 -63 33.5 -95.5
t100.5 -32.5h87q-35 25 -57 64.5t-22 80.5q0 55 32.5 88t87.5 33q42 0 68 -22t26 -58q0 -49 -31 -77.5t-86 -29.5q17 -35 56 -57t93 -22h98q31 0 31 -23q0 -21 -11 -32.5t-31 -11.5h-353q-94 0 -151 50.5zM426 503q15 15 15 35q0 15 -10 24.5t-27 9.5q-22 0 -37 -14.5
t-15 -35.5q0 -15 10.5 -24.5t26.5 -9.5q22 0 37 15zM407.5 206.5q15.5 15.5 15.5 37.5q0 16 -10.5 26t-27.5 10q-22 0 -37.5 -16t-15.5 -38q0 -16 10.5 -25.5t27.5 -9.5q22 0 37.5 15.5z" />
    <glyph glyph-name="uni0E56" unicode="&#xe56;" horiz-adv-x="797" 
d="M268 19.5q-47 28.5 -47 77.5q0 51 34 81.5t88 30.5q42 0 67 -21.5t25 -56.5q0 -25 -10.5 -44.5t-24.5 -29.5q127 0 199.5 63.5t72.5 174.5q0 64 -35 97.5t-113 33.5q-117 0 -220 -94q-16 -15 -32 -15q-15 0 -28 14q-10 12 -10 20q0 9 11 23q-49 53 -79.5 110t-53.5 133
l79 36q34 -142 121 -233q52 37 106.5 56t117.5 19q105 0 163.5 -53t58.5 -139q0 -99 -44 -169.5t-123.5 -106.5t-185.5 -36q-90 0 -137 28.5zM358.5 82q15.5 16 15.5 39q0 16 -10.5 25.5t-27.5 9.5q-23 0 -38.5 -16t-15.5 -39q0 -16 10 -25.5t28 -9.5q23 0 38.5 16z" />
    <glyph glyph-name="uni0E57" unicode="&#xe57;" horiz-adv-x="906" 
d="M72 36q-31 45 -31 124q0 98 28 174t79.5 118.5t119.5 42.5q43 0 69.5 -19t42.5 -62q26 40 63.5 60.5t81.5 20.5q64 0 95.5 -35.5t31.5 -98.5q0 -75 -43 -181h4q86 123 138 222t103 242l75 -21q-41 -114 -87 -205t-115 -188t-177 -220q-16 -19 -39 -19q-11 0 -19 5
q-14 8 -14 23q0 10 9 28q44 80 70 156.5t26 131.5q0 43 -18 67t-54 24q-38 0 -66.5 -25.5t-37.5 -78.5l-16 -92q-2 -14 -14.5 -23t-30.5 -9q-19 0 -28.5 9t-7.5 23l16 92q3 18 3 34q0 70 -66 70q-41 0 -73.5 -34.5t-50.5 -95.5t-18 -138q0 -17 1 -25q14 25 36.5 38t49.5 13
q34 0 56 -21t22 -57q0 -51 -33.5 -83t-90.5 -32q-59 0 -90 45zM209 60q16 16 16 39q0 16 -10 25.5t-28 9.5q-22 0 -38.5 -15.5t-16.5 -37.5q0 -16 11 -26.5t28 -10.5q22 0 38 16z" />
    <glyph glyph-name="uni0E58" unicode="&#xe58;" horiz-adv-x="824" 
d="M372 21.5q-47 30.5 -67 79.5l-53 -72q-22 -29 -47 -29h-113q-27 0 -27 22q0 15 7 25.5t16 10.5q-44 69 -44 142q0 139 104.5 217t299.5 78q91 0 151 14.5t102.5 47.5t78.5 91l66 -31q-66 -105 -160.5 -148t-249.5 -43q-153 0 -230 -58t-77 -171q0 -70 39 -130h29l145 206
q13 18 31 18q9 0 19 -5q16 -9 16 -24q0 -11 -7 -22l-44 -67q3 -49 35 -80t69 -36q-14 18 -14 42q0 28 17 52.5t45 39t61 14.5q42 0 65.5 -21t23.5 -57q0 -39 -21.5 -70t-59.5 -48.5t-86 -17.5q-73 0 -120 30.5zM583 78q15 16 15 39q0 16 -9.5 25.5t-27.5 9.5
q-22 0 -38 -15.5t-16 -38.5q0 -16 10.5 -26t27.5 -10q23 0 38 16z" />
    <glyph glyph-name="uni0E59" unicode="&#xe59;" horiz-adv-x="861" 
d="M122.5 17q-37.5 26 -59.5 70.5t-22 96.5q0 82 39.5 146t110.5 97l125 58q22 10 39 10q20 0 27 -8.5t15 -33.5l20 -69q20 50 63 80.5t92 30.5q50 0 77 -23.5t33 -69.5q43 55 74.5 120t58.5 150l75 -17q-34 -104 -80.5 -182.5t-121.5 -157.5q-16 -16 -35 -16
q-14 0 -24.5 8.5t-10.5 20.5q0 3 2 9q1 7 1 20q0 32 -15.5 50.5t-48.5 18.5q-41 0 -73 -37t-37 -85l85 -269l-72 -35l-134 416l-103 -48q-47 -22 -72.5 -67t-25.5 -106q0 -48 26 -89q7 38 37.5 62.5t68.5 24.5q41 0 64.5 -21t23.5 -57q0 -53 -40.5 -88.5t-100.5 -35.5
q-44 0 -81.5 26zM267.5 65q16.5 16 16.5 38q0 16 -10.5 26t-27.5 10q-23 0 -39 -15.5t-16 -37.5q0 -16 10.5 -26.5t28.5 -10.5q21 0 37.5 16z" />
    <glyph glyph-name="uni0E5A" unicode="&#xe5a;" horiz-adv-x="748" 
d="M763 578q0 -8 -4 -16l-11 -24l-79 -445q-12 -66 -77 -97q-13 -6 -27 -6q-21 0 -31 17q-5 10 -5 16q0 14 22 30q18 11 25.5 21.5t10.5 26.5l53 304q-59 -68 -147 -74l-42 -238q-12 -66 -78 -97q-12 -6 -26 -6q-23 0 -32 17q-5 10 -5 16q0 14 22 30q18 12 26 22t11 26
l53 304q-35 -38 -75.5 -56.5t-92.5 -18.5q-45 0 -82.5 19t-59.5 52t-22 74q0 57 35.5 92t92.5 35q44 0 70.5 -24t26.5 -61q0 -44 -29 -73.5t-80 -35.5q21 -19 60 -19q65 0 114.5 45.5t91.5 142.5q11 26 35 26q18 0 28 -6.5t10 -18.5q0 -8 -4 -16l-11 -24l-26 -147
q61 5 105 49t82 139q10 24 35 24q4 0 14 -2q23 -6 23 -23zM165.5 461q10.5 -11 27.5 -11q22 0 39.5 16t17.5 42q0 17 -10.5 26t-29.5 9q-24 0 -39.5 -15.5t-15.5 -39.5q0 -16 10.5 -27z" />
    <glyph glyph-name="uni0E5B" unicode="&#xe5b;" horiz-adv-x="1173" 
d="M156.5 63.5q-49.5 26.5 -76 74.5t-26.5 111q0 91 35.5 164.5t99.5 115t146 41.5q71 0 113.5 -40.5t42.5 -102.5q0 -65 -20.5 -113.5t-56 -75t-79.5 -26.5q-42 0 -67.5 24t-25.5 62q0 51 34 83.5t85 32.5q16 0 30.5 -5.5t23.5 -15.5q5 15 5 29q0 33 -23 56t-69 23
q-51 0 -94 -30.5t-68.5 -87.5t-25.5 -131q0 -69 38.5 -107.5t105.5 -38.5q121 0 188.5 84t67.5 233v13h77q15 -41 23.5 -77t15.5 -86q21 38 34.5 70t28.5 79h56q16 -50 28 -141q15 27 28.5 63.5t18.5 64.5h55q30 -61 34 -131q11 18 20 45t12 49h50q13 -43 29 -59t45 -16h44
l-11 -60h-52q-25 0 -47 12t-34 33q-13 -33 -24 -55t-27 -44h-54q1 10 1 29q0 31 -3.5 56t-10.5 38q-31 -82 -71 -139h-49q0 80 -12 137q-43 -97 -80 -154h-52q-6 101 -17 146q-20 -82 -67.5 -140.5t-113.5 -88.5t-143 -30q-66 0 -115.5 26.5zM378.5 281.5
q15.5 12.5 19.5 33.5q1 3 1 8q0 17 -11.5 27t-28.5 10q-22 0 -38.5 -16.5t-16.5 -38.5q0 -16 11 -26t28 -10q20 0 35.5 12.5z" />
    <glyph glyph-name="uni1E0C" unicode="&#x1e0c;" horiz-adv-x="632" 
d="M137 609q1 5 1 13q0 16 -8.5 27t-8.5 16q0 6 9 19t22 23.5t26 10.5t27 -18h137q125 0 198 -68.5t73 -191.5q0 -130 -46.5 -229.5t-133 -155t-203.5 -55.5h-200zM237 74q86 0 151.5 44.5t101 125.5t35.5 188q0 99 -45.5 146.5t-147.5 47.5h-106l-97 -552h108zM204.5 -152
q-13.5 13 -13.5 33q0 26 20.5 46t47.5 20q21 0 33.5 -13t12.5 -32q0 -27 -20 -47t-46 -20q-21 0 -34.5 13z" />
    <glyph glyph-name="uni1E0D" unicode="&#x1e0d;" horiz-adv-x="570" 
d="M399.5 14.5q-4.5 16.5 -4.5 36.5q0 7 2 25q-74 -86 -179 -86q-85 0 -130.5 51.5t-45.5 136.5q0 94 35 166t96.5 111.5t138.5 39.5q50 0 84 -21.5t54 -57.5l56 318h84l-107 -608q-5 -29 -5 -57q0 -31 9 -52l-76 -28q-7 9 -11.5 25.5zM357 107q48 47 59 114l7 42q3 17 3 32
q0 56 -30 93t-88 37q-51 0 -92 -31.5t-64.5 -86t-23.5 -122.5q0 -58 27 -91.5t85 -33.5q69 0 117 47zM178.5 -152q-13.5 13 -13.5 33q0 26 20.5 46t47.5 20q21 0 33.5 -13t12.5 -32q0 -27 -20 -47t-46 -20q-21 0 -34.5 13z" />
    <glyph glyph-name="uni1E0E" unicode="&#x1e0e;" horiz-adv-x="632" 
d="M137 609q1 5 1 13q0 16 -8.5 27t-8.5 16q0 6 9 19t22 23.5t26 10.5t27 -18h137q125 0 198 -68.5t73 -191.5q0 -130 -46.5 -229.5t-133 -155t-203.5 -55.5h-200zM237 74q86 0 151.5 44.5t101 125.5t35.5 188q0 99 -45.5 146.5t-147.5 47.5h-106l-97 -552h108zM105 -61h304
l-12 -66h-304z" />
    <glyph glyph-name="uni1E0F" unicode="&#x1e0f;" horiz-adv-x="570" 
d="M399.5 14.5q-4.5 16.5 -4.5 36.5q0 7 2 25q-74 -86 -179 -86q-85 0 -130.5 51.5t-45.5 136.5q0 94 35 166t96.5 111.5t138.5 39.5q50 0 84 -21.5t54 -57.5l56 318h84l-107 -608q-5 -29 -5 -57q0 -31 9 -52l-76 -28q-7 9 -11.5 25.5zM357 107q48 47 59 114l7 42q3 17 3 32
q0 56 -30 93t-88 37q-51 0 -92 -31.5t-64.5 -86t-23.5 -122.5q0 -58 27 -91.5t85 -33.5q69 0 117 47zM79 -61h304l-12 -66h-304z" />
    <glyph glyph-name="uni1E20" unicode="&#x1e20;" horiz-adv-x="647" 
d="M180 23q-58 33 -89.5 94.5t-31.5 143.5q0 127 47.5 229t134 161t199.5 59q60 0 109 -20.5t78 -57.5l-47 -63q-27 34 -63 51t-90 17q-79 0 -142.5 -47t-100 -130.5t-36.5 -190.5q0 -99 46 -152.5t137 -53.5q44 0 74.5 8t61.5 26l36 205h-165l13 72h200q9 8 15.5 11.5
t15.5 3.5q16 0 27.5 -15t11.5 -30q0 -7 -2.5 -11t-9.5 -10q-9 -7 -14.5 -15t-8.5 -25l-40 -227q-66 -37 -116.5 -51.5t-113.5 -14.5q-78 0 -136 33zM312 861h304l-12 -66h-304z" />
    <glyph glyph-name="uni1E21" unicode="&#x1e21;" horiz-adv-x="568" 
d="M95 -208.5q-38 9.5 -67 24.5l37 65q24 -13 55.5 -20.5t66.5 -7.5q92 0 134 46t57 130l9 50q-32 -37 -75 -58t-93 -21q-82 0 -129.5 51.5t-47.5 136.5q0 89 33 159t92.5 109.5t136.5 39.5q102 0 149 -86q6 28 18.5 51.5t26.5 35.5l66 -28q-17 -23 -26.5 -48t-16.5 -62
l-59 -333q-22 -121 -94 -182.5t-194 -61.5q-41 0 -79 9.5zM323 93.5q37 23.5 61 61t31 77.5l6 33q3 17 3 34q0 55 -32 91t-90 36q-50 0 -90 -30t-62.5 -83t-22.5 -120q0 -57 27.5 -90t86.5 -33q45 0 82 23.5zM209 646h304l-12 -66h-304z" />
    <glyph glyph-name="uni1E24" unicode="&#x1e24;" horiz-adv-x="613" 
d="M142 700h86l-52 -295h321l52 295h86l-123 -700h-86l58 331h-321l-58 -331h-86zM203.5 -152q-13.5 13 -13.5 33q0 26 20.5 46t47.5 20q21 0 33.5 -13t12.5 -32q0 -27 -20 -47t-46 -20q-21 0 -34.5 13z" />
    <glyph glyph-name="uni1E25" unicode="&#x1e25;" horiz-adv-x="539" 
d="M360 67q0 22 4 42l34 190q4 20 4 41q0 43 -22 63.5t-67 20.5q-40 0 -74.5 -22t-57.5 -59t-31 -79l-47 -264h-84l129 734h84l-56 -318q32 37 76.5 58t92.5 21q70 0 106 -37t36 -105q0 -30 -5 -55l-34 -189q-3 -16 -3 -32q0 -33 11 -57l-81 -30q-15 40 -15 77zM159.5 -152
q-13.5 13 -13.5 33q0 26 20.5 46t47.5 20q21 0 33.5 -13t12.5 -32q0 -27 -20 -47t-46 -20q-21 0 -34.5 13z" />
    <glyph glyph-name="uni1E2A" unicode="&#x1e2a;" horiz-adv-x="613" 
d="M142 700h86l-52 -295h321l52 295h86l-123 -700h-86l58 331h-321l-58 -331h-86zM148 -165q-32 27 -32 77q0 15 3 33l2 10h73l-2 -10q-3 -14 -3 -25q0 -53 54 -53q63 0 79 78l2 10h73l-2 -10q-13 -66 -57.5 -101.5t-104.5 -35.5q-53 0 -85 27z" />
    <glyph glyph-name="uni1E2B" unicode="&#x1e2b;" horiz-adv-x="539" 
d="M360 67q0 22 4 42l34 190q4 20 4 41q0 43 -22 63.5t-67 20.5q-40 0 -74.5 -22t-57.5 -59t-31 -79l-47 -264h-84l129 734h84l-56 -318q32 37 76.5 58t92.5 21q70 0 106 -37t36 -105q0 -30 -5 -55l-34 -189q-3 -16 -3 -32q0 -33 11 -57l-81 -30q-15 40 -15 77zM104 -165
q-32 27 -32 77q0 15 3 33l2 10h73l-2 -10q-3 -14 -3 -25q0 -53 54 -53q63 0 79 78l2 10h73l-2 -10q-13 -66 -57.5 -101.5t-104.5 -35.5q-53 0 -85 27z" />
    <glyph glyph-name="uni1E36" unicode="&#x1e36;" horiz-adv-x="494" 
d="M20.5 0.5q-11.5 13.5 -11.5 29.5q0 12 13 23q9 8 14.5 16.5t8.5 23.5l107 607h86l-110 -626h303l-13 -74h-340q-15 -13 -30 -13q-16 0 -27.5 13.5zM145.5 -152q-13.5 13 -13.5 33q0 26 20.5 46t47.5 20q21 0 33.5 -13t12.5 -32q0 -27 -20 -47t-46 -20q-21 0 -34.5 13z
" />
    <glyph glyph-name="uni1E37" unicode="&#x1e37;" horiz-adv-x="204" 
d="M148 734h84l-129 -734h-84zM-1.5 -152q-13.5 13 -13.5 33q0 26 20.5 46t47.5 20q21 0 33.5 -13t12.5 -32q0 -27 -20 -47t-46 -20q-21 0 -34.5 13z" />
    <glyph glyph-name="uni1E38" unicode="&#x1e38;" horiz-adv-x="494" 
d="M20.5 0.5q-11.5 13.5 -11.5 29.5q0 12 13 23q9 8 14.5 16.5t8.5 23.5l107 607h86l-110 -626h303l-13 -74h-340q-15 -13 -30 -13q-16 0 -27.5 13.5zM145.5 -152q-13.5 13 -13.5 33q0 26 20.5 46t47.5 20q21 0 33.5 -13t12.5 -32q0 -27 -20 -47t-46 -20q-21 0 -34.5 13z
M76 861h304l-12 -66h-304z" />
    <glyph glyph-name="uni1E39" unicode="&#x1e39;" horiz-adv-x="204" 
d="M148 734h84l-129 -734h-84zM-1.5 -152q-13.5 13 -13.5 33q0 26 20.5 46t47.5 20q21 0 33.5 -13t12.5 -32q0 -27 -20 -47t-46 -20q-21 0 -34.5 13zM67 895h304l-12 -66h-304z" />
    <glyph glyph-name="uni1E3A" unicode="&#x1e3a;" horiz-adv-x="494" 
d="M20.5 0.5q-11.5 13.5 -11.5 29.5q0 12 13 23q9 8 14.5 16.5t8.5 23.5l107 607h86l-110 -626h303l-13 -74h-340q-15 -13 -30 -13q-16 0 -27.5 13.5zM46 -61h304l-12 -66h-304z" />
    <glyph glyph-name="uni1E3B" unicode="&#x1e3b;" horiz-adv-x="204" 
d="M148 734h84l-129 -734h-84zM-101 -61h304l-12 -66h-304z" />
    <glyph glyph-name="uni1E42" unicode="&#x1e42;" horiz-adv-x="773" 
d="M323.5 -4.5q-9.5 6.5 -10.5 18.5l-78 516l-143 -531h-89l183 653l-4 10q-2 6 -2 10q0 17 14.5 31.5t39.5 14.5q27 0 38.5 -12t15.5 -38l80 -533l269 533q13 25 29 37.5t43 12.5q20 0 30 -9.5t10 -23.5q0 -15 -7 -23l-8 -10l-48 -653h-85l45 531l-244 -483l1 -10
q2 -21 -14.5 -34.5t-41.5 -13.5q-14 0 -23.5 6.5zM281.5 -152q-13.5 13 -13.5 33q0 26 20.5 46t47.5 20q21 0 33.5 -13t12.5 -32q0 -27 -20 -47t-46 -20q-21 0 -34.5 13z" />
    <glyph glyph-name="uni1E43" unicode="&#x1e43;" horiz-adv-x="793" 
d="M614 67q0 22 4 42l34 192q6 38 6 52q0 35 -17 53t-57 18q-53 0 -88 -36.5t-45 -93.5l-52 -294h-82l53 301q4 20 4 41q0 82 -74 82q-55 0 -92.5 -43t-49.5 -110l-48 -271h-84l64 363q5 33 5 52q0 30 -9 52l80 29q1 -2 6.5 -20t5.5 -45q0 -12 -1 -19q26 39 67 61t82 22
q93 0 112 -91q31 43 74.5 67t95.5 24q67 0 101 -34.5t34 -96.5q0 -24 -4 -47l-37 -208q-3 -16 -3 -32q0 -33 11 -57l-81 -30q-15 40 -15 77zM294.5 -152q-13.5 13 -13.5 33q0 26 20.5 46t47.5 20q21 0 33.5 -13t12.5 -32q0 -27 -20 -47t-46 -20q-21 0 -34.5 13z" />
    <glyph glyph-name="uni1E44" unicode="&#x1e44;" horiz-adv-x="613" 
d="M135 619q1 4 1 10q0 12 -7 22.5t-7 15.5t3 12q7 16 23.5 27.5t33.5 11.5q24 0 34 -22l238 -538l95 542h86l-123 -700h-74l-233 525l-93 -525h-86zM379.5 810q-13.5 13 -13.5 33q0 26 20.5 46t47.5 20q21 0 33.5 -13t12.5 -32q0 -27 -20 -47t-46 -20q-21 0 -34.5 13z" />
    <glyph glyph-name="uni1E45" unicode="&#x1e45;" horiz-adv-x="546" 
d="M367 67q0 22 4 42l34 190q4 21 4 43q0 42 -21 62t-67 20q-40 0 -75 -22t-58 -59t-31 -79l-47 -264h-84l64 363q5 30 5 50q0 28 -9 53l80 29q11 -29 11 -67q0 -13 -1 -19q34 41 81.5 63.5t96.5 22.5q68 0 104 -37t36 -105q0 -22 -5 -55l-34 -189q-3 -16 -3 -32
q0 -33 11 -57l-81 -30q-15 40 -15 77zM302.5 595q-13.5 13 -13.5 33q0 26 20.5 46t47.5 20q21 0 33.5 -13t12.5 -32q0 -27 -20 -47t-46 -20q-21 0 -34.5 13z" />
    <glyph glyph-name="uni1E46" unicode="&#x1e46;" horiz-adv-x="613" 
d="M135 619q1 4 1 10q0 12 -7 22.5t-7 15.5t3 12q7 16 23.5 27.5t33.5 11.5q24 0 34 -22l238 -538l95 542h86l-123 -700h-74l-233 525l-93 -525h-86zM210.5 -152q-13.5 13 -13.5 33q0 26 20.5 46t47.5 20q21 0 33.5 -13t12.5 -32q0 -27 -20 -47t-46 -20q-21 0 -34.5 13z" />
    <glyph glyph-name="uni1E47" unicode="&#x1e47;" horiz-adv-x="546" 
d="M367 67q0 22 4 42l34 190q4 21 4 43q0 42 -21 62t-67 20q-40 0 -75 -22t-58 -59t-31 -79l-47 -264h-84l64 363q5 30 5 50q0 28 -9 53l80 29q11 -29 11 -67q0 -13 -1 -19q34 41 81.5 63.5t96.5 22.5q68 0 104 -37t36 -105q0 -22 -5 -55l-34 -189q-3 -16 -3 -32
q0 -33 11 -57l-81 -30q-15 40 -15 77zM170.5 -152q-13.5 13 -13.5 33q0 26 20.5 46t47.5 20q21 0 33.5 -13t12.5 -32q0 -27 -20 -47t-46 -20q-21 0 -34.5 13z" />
    <glyph glyph-name="uni1E48" unicode="&#x1e48;" horiz-adv-x="613" 
d="M135 619q1 4 1 10q0 12 -7 22.5t-7 15.5t3 12q7 16 23.5 27.5t33.5 11.5q24 0 34 -22l238 -538l95 542h86l-123 -700h-74l-233 525l-93 -525h-86zM111 -61h304l-12 -66h-304z" />
    <glyph glyph-name="uni1E49" unicode="&#x1e49;" horiz-adv-x="546" 
d="M367 67q0 22 4 42l34 190q4 21 4 43q0 42 -21 62t-67 20q-40 0 -75 -22t-58 -59t-31 -79l-47 -264h-84l64 363q5 30 5 50q0 28 -9 53l80 29q11 -29 11 -67q0 -13 -1 -19q34 41 81.5 63.5t96.5 22.5q68 0 104 -37t36 -105q0 -22 -5 -55l-34 -189q-3 -16 -3 -32
q0 -33 11 -57l-81 -30q-15 40 -15 77zM71 -61h304l-12 -66h-304z" />
    <glyph glyph-name="uni1E5A" unicode="&#x1e5a;" horiz-adv-x="582" 
d="M137 615q1 4 1 11q0 12 -8 23.5t-8 18.5q0 8 8.5 20t21.5 21t27 9q17 0 31 -18h141q110 0 171.5 -46.5t61.5 -127.5q0 -67 -29.5 -119t-83.5 -84t-126 -37l136 -286h-99l-133 280h-85l-49 -280h-86zM293 353q100 0 150.5 42.5t50.5 125.5q0 53 -37.5 79t-116.5 26h-115
l-48 -273h116zM182.5 -152q-13.5 13 -13.5 33q0 26 20.5 46t47.5 20q21 0 33.5 -13t12.5 -32q0 -27 -20 -47t-46 -20q-21 0 -34.5 13z" />
    <glyph glyph-name="uni1E5B" unicode="&#x1e5b;" horiz-adv-x="396" 
d="M90 363q5 30 5 50q0 28 -9 53l80 29q11 -29 11 -67q0 -13 -1 -19q33 43 68 64.5t79 21.5q24 0 41.5 -5.5t37.5 -19.5l-44 -61q-23 15 -54 15q-57 0 -96 -43.5t-51 -113.5l-47 -267h-84zM6.5 -152q-13.5 13 -13.5 33q0 26 20.5 46t47.5 20q21 0 33.5 -13t12.5 -32
q0 -27 -20 -47t-46 -20q-21 0 -34.5 13z" />
    </font>
</defs>
</svg>
