<?xml version="1.0" standalone="no"?>
<!DOCTYPE svg PUBLIC "-//W3C//DTD SVG 1.1//EN" "http://www.w3.org/Graphics/SVG/1.1/DTD/svg11.dtd" >
<svg xmlns="http://www.w3.org/2000/svg">
<metadata>
<json>
<![CDATA[
{
	"fontFamily": "riseandshine",
	"majorVersion": 1,
	"minorVersion": 0,
	"version": "Version 1.0",
	"fontId": "riseandshine",
	"psName": "riseandshine",
	"subFamily": "Regular",
	"fullName": "riseandshine",
	"description": "Font generated by IcoMoon."
}
]]>
</json>
</metadata>
<defs>
<font id="riseandshine" horiz-adv-x="1024">
<font-face units-per-em="1024" ascent="960" descent="-64" />
<missing-glyph horiz-adv-x="1024" />
<glyph unicode="&#x20;" horiz-adv-x="512" d="" />
<glyph unicode="&#xe900;" glyph-name="play" data-tags="play" d="M692.326 448l-296.96-171.52v342.938l296.96-171.418zM512 950.682c-277.094 0-501.76-225.075-501.76-502.682s224.666-502.682 501.76-502.682c277.094 0 501.76 225.075 501.76 502.682s-224.666 502.682-501.76 502.682v0zM512-28.877c-263.066 0-476.365 213.709-476.365 477.286 0 263.68 213.299 477.389 476.365 477.389s476.365-213.709 476.365-477.286c0-263.68-213.299-477.389-476.365-477.389z" />
<glyph unicode="&#xe901;" glyph-name="facebook" data-tags="facebook" d="M967.269 960h-910.853c-31.158 0-56.416-25.258-56.416-56.416v0-910.853c0 0 0-0.001 0-0.001 0-31.221 25.22-56.552 56.399-56.73h490.428v396.489h-133.319v154.75h133.319v113.778c0 132.373 81 204.233 198.875 204.233 1.297 0.006 2.831 0.009 4.367 0.009 40.425 0 80.342-2.178 119.639-6.424l-4.87 0.427v-138.361h-81.63c-63.035 0-76.587-31.517-76.587-75.011v-98.649h152.859l-19.856-154.75h-133.003v-396.489h260.649c31.26 0.178 56.554 25.471 56.731 56.714v910.87c-0.179 31.196-25.509 56.416-56.73 56.416 0 0-0.001 0-0.001 0v0z" />
<glyph unicode="&#xe902;" glyph-name="instagram" data-tags="instagram" d="M511.842 867.654c136.785 0 152.859 0 207.069-2.837 34.078-0.498 66.505-6.928 96.502-18.299l-1.95 0.649c44.727-17.739 79.511-52.42 96.98-95.92l0.409-1.154c10.511-28.040 16.919-60.436 17.644-94.232l0.005-0.32c2.206-53.895 2.837-70.284 2.837-206.754s0-152.859-2.837-207.069c-0.642-34.101-7.059-66.509-18.308-96.558l0.658 2.006c-17.741-44.824-52.565-79.648-96.234-96.984l-1.155-0.404c-28.043-10.591-60.451-17.008-94.274-17.646l-0.279-0.004c-54.21-2.206-70.284-2.837-207.069-2.837s-152.859 0-206.754 2.837c-34.116 0.731-66.513 7.139-96.593 18.314l2.040-0.664c-44.653 17.878-79.335 52.662-96.667 96.23l-0.407 1.158c-10.722 28.047-17.152 60.475-17.647 94.339l-0.002 0.213c-2.521 54.21-2.837 70.284-2.837 207.069s0 152.859 2.837 206.754c0.551 34.086 6.976 66.507 18.302 96.523l-0.652-1.97c8.585 22.953 21.468 42.524 37.8 58.602l0.021 0.020c16.062 16.593 35.634 29.683 57.53 38.083l1.092 0.368c28.046 10.674 60.466 17.099 94.315 17.647l0.237 0.003c53.895 2.521 70.284 2.837 206.754 2.837zM511.212 960c-138.992 0-157.587 0-210.851-3.152-45.459-0.754-88.683-9.358-128.688-24.508l2.619 0.87c-34.542-13.973-63.942-34.067-88.177-59.178l-0.071-0.074c-25.412-24.892-45.553-55.058-58.664-88.737l-0.589-1.718c-14.28-37.387-22.884-80.611-23.634-125.746l-0.004-0.324c-3.152-52.949-3.152-70.284-3.152-209.275s0-157.587 3.152-211.167c0.933-44.831 9.522-87.379 24.505-126.776l-0.867 2.598c13.581-35.547 33.742-65.837 59.205-90.724l0.047-0.046c24.878-25.341 55.054-45.388 88.743-58.358l1.712-0.579c37.367-14.551 80.6-23.28 125.786-23.95l0.283-0.003c54.525-2.521 71.86-3.152 210.851-3.152s157.587 0 211.167 3.152c44.837 0.828 87.398 9.544 126.688 24.811l-2.509-0.858c69.057 27.027 122.68 80.65 149.096 147.939l0.612 1.768c14.409 36.781 23.125 79.342 23.948 123.832l0.005 0.346c2.521 54.525 3.152 71.86 3.152 211.167s0 157.587-3.152 210.851c-0.674 45.469-9.402 88.703-24.816 128.611l0.863-2.541c-13.549 35.401-33.596 65.577-58.899 90.418l-0.038 0.037c-25.439 25.083-56.277 44.762-90.606 57.13l-1.74 0.547c-36.799 14.116-79.347 22.705-123.779 23.631l-0.399 0.007c-54.525 3.152-71.86 3.152-211.167 3.152zM511.842 711.013c-145.171 0-262.855-117.684-262.855-262.855s117.684-262.855 262.855-262.855c145.171 0 262.855 117.684 262.855 262.855v0c-0.179 145.099-117.756 262.676-262.838 262.855h-0.017zM511.842 277.333c-94.344 0-170.824 76.481-170.824 170.824s76.481 170.824 170.824 170.824c94.344 0 170.824-76.481 170.824-170.824v0c0-94.344-76.481-170.824-170.824-170.824v0zM846.557 721.413c0-33.943-27.516-61.459-61.459-61.459s-61.459 27.516-61.459 61.459c0 33.943 27.516 61.459 61.459 61.459s61.459-27.516 61.459-61.459z" />
<glyph unicode="&#xe903;" glyph-name="location-pin" data-tags="location-pin" horiz-adv-x="727" d="M363.603-64l-30.098 33.337c-13.632 14.981-333.505 372.106-333.505 627.060 0 200.812 162.791 363.603 363.603 363.603s363.603-162.791 363.603-363.603v0c0-254.954-320.008-612.079-333.64-627.060zM363.603 879.019c-155.903-0.459-282.163-126.72-282.622-282.579v-0.044c0-182.071 204.206-444.044 282.622-537.846 78.281 94.477 282.622 356.045 282.622 537.846-0.459 155.903-126.72 282.163-282.579 282.622h-0.044zM363.603 440.509c-86.094 0-155.888 69.793-155.888 155.888s69.793 155.888 155.888 155.888c86.094 0 155.888-69.793 155.888-155.888v0c-0.077-86.063-69.824-155.811-155.88-155.888h-0.008zM363.603 671.304c-41.37 0-74.907-33.537-74.907-74.907s33.537-74.907 74.907-74.907c41.37 0 74.907 33.537 74.907 74.907v0c-0.077 41.339-33.568 74.83-74.9 74.907h-0.007z" />
<glyph unicode="&#xe904;" glyph-name="menu" data-tags="menu" horiz-adv-x="1728" d="M0 512h1728v-128h-1728v128zM0 960h1728v-128h-1728v128zM0 64h1728v-128h-1728v128z" />
<glyph unicode="&#xe905;" glyph-name="search" data-tags="search" horiz-adv-x="1031" d="M1031.202 14.386l-215.491 215.491c58.566 75.264 93.897 171.129 93.897 275.246 0 0.026 0 0.052 0 0.078v-0.004c0.001 0.411 0.002 0.897 0.002 1.384 0 251.946-204.242 456.188-456.188 456.188s-456.188-204.242-456.188-456.188c0-251.946 204.242-456.188 456.188-456.188 108.239 0 207.674 37.696 285.891 100.677l-0.88-0.685 214.384-215.214zM110.793 505.197c0 189.992 154.019 344.011 344.011 344.011s344.011-154.019 344.011-344.011c0-189.992-154.019-344.011-344.011-344.011v0c-189.929 0.158-343.853 154.082-344.011 343.996v0.015z" />
<glyph unicode="&#xe906;" glyph-name="youtube" data-tags="youtube" horiz-adv-x="1199" d="M845.699 852.878v-228.339c-5.232-6.28-11.271-11.646-18.014-16.021l-0.31-0.188c-4.947-3.489-10.969-5.781-17.486-6.334l-0.132-0.009c-0.508-0.062-1.095-0.097-1.691-0.097-4.743 0-8.966 2.232-11.674 5.702l-0.025 0.033c-2.752 3.695-4.405 8.349-4.405 13.39 0 0.994 0.064 1.973 0.189 2.932l-0.012-0.113v229.043h-62.018v-250.891c-0.137-1.539-0.216-3.33-0.216-5.139 0-13.414 4.308-25.822 11.615-35.916l-0.123 0.179c7.026-8.27 17.434-13.483 29.059-13.483 0.934 0 1.86 0.034 2.778 0.1l-0.123-0.007c13.423 0.493 25.957 3.822 37.176 9.4l-0.529-0.238c13.463 7.511 24.891 16.917 34.391 28.021l0.142 0.169v-33.123h62.018v300.928zM658.235 838.783c-15.621 13.628-36.19 21.938-58.7 21.938-1.415 0-2.822-0.033-4.22-0.098l0.198 0.007c-2.348 0.192-5.083 0.301-7.843 0.301-23.704 0-45.522-8.071-62.858-21.614l0.226 0.17c-15.156-13.004-24.697-32.179-24.697-53.583 0-0.736 0.011-1.469 0.034-2.199l-0.003 0.107v-155.749c-0.060-1.138-0.094-2.471-0.094-3.812 0-22.41 9.509-42.6 24.713-56.753l0.047-0.043c15.844-14.474 37.025-23.34 60.276-23.34 1.356 0 2.705 0.030 4.047 0.090l-0.191-0.007c1.894-0.142 4.102-0.222 6.328-0.222 23.041 0 44.064 8.638 60.007 22.853l-0.089-0.078c14.865 13.927 24.127 33.678 24.127 55.593 0 1.765-0.060 3.515-0.178 5.25l0.013-0.235v155.045c0.028 0.762 0.043 1.656 0.043 2.554 0 21.075-8.646 40.131-22.584 53.814l-0.011 0.011zM618.065 622.425c0-0.035 0-0.076 0-0.118 0-7.248-2.669-13.873-7.078-18.946l0.030 0.035c-4.858-4.416-11.342-7.119-18.457-7.119-0.697 0-1.388 0.026-2.072 0.077l0.091-0.005c-0.477-0.035-1.033-0.055-1.593-0.055-6.565 0-12.495 2.72-16.724 7.096l-0.006 0.007c-5.031 4.827-8.227 11.533-8.456 18.986l-0.001 0.042v164.206c-0.001 0.052-0.001 0.115-0.001 0.177 0 6.266 3.029 11.824 7.702 15.292l0.051 0.036c4.357 3.949 10.166 6.366 16.539 6.366 0.38 0 0.757-0.009 1.133-0.026l-0.053 0.002c0.21 0.005 0.458 0.007 0.707 0.007 7.407 0 14.258-2.38 19.829-6.418l-0.098 0.068c4.328-3.768 7.048-9.286 7.048-15.44 0-0.023 0-0.045 0-0.068v0.004zM427.078 960l-42.99-163.502h-4.933l-44.399 163.502h-70.475l83.16-246.662v-161.387h70.475v169.14l78.932 238.91zM907.716 241.156c3.246-5.668 5.16-12.459 5.16-19.697 0-1.502-0.082-2.985-0.243-4.445l0.016 0.18v-27.485h-47.923v27.485c-0.177 1.327-0.278 2.861-0.278 4.418 0 7.284 2.21 14.051 5.996 19.669l-0.080-0.125c4.167 5.199 10.518 8.5 17.639 8.5 0.489 0 0.974-0.016 1.455-0.046l-0.066 0.003c0.212 0.007 0.46 0.011 0.71 0.011 7.107 0 13.446-3.287 17.58-8.425l0.034-0.044zM717.434 241.156c-3.641 4.754-9.32 7.789-15.708 7.789-0.424 0-0.846-0.013-1.263-0.040l0.057 0.003c-1.692 0.455-3.634 0.716-5.638 0.716s-3.946-0.261-5.795-0.752l0.157 0.035c-4.379-2.219-8.109-5.050-11.253-8.432l-0.023-0.025v-170.549c3.675-3.892 8.138-6.998 13.138-9.069l0.252-0.093c3.664-2.044 8.005-3.326 12.626-3.522l0.059-0.002c0.558-0.068 1.203-0.107 1.858-0.107 5.27 0 9.952 2.515 12.913 6.41l0.029 0.040c3.121 4.688 4.98 10.449 4.98 16.644 0 0.591-0.017 1.178-0.050 1.76l0.004-0.081v140.95c0.021 0.413 0.032 0.896 0.032 1.382 0 6.959-2.402 13.358-6.421 18.411l0.046-0.060zM717.434 241.156c-3.641 4.754-9.32 7.789-15.708 7.789-0.424 0-0.846-0.013-1.263-0.040l0.057 0.003c-1.692 0.455-3.634 0.716-5.638 0.716s-3.946-0.261-5.795-0.752l0.157 0.035c-4.379-2.219-8.109-5.050-11.253-8.432l-0.023-0.025v-170.549c3.675-3.892 8.138-6.998 13.138-9.069l0.252-0.093c3.664-2.044 8.005-3.326 12.626-3.522l0.059-0.002c0.558-0.068 1.203-0.107 1.858-0.107 5.27 0 9.952 2.515 12.913 6.41l0.029 0.040c3.121 4.688 4.98 10.449 4.98 16.644 0 0.591-0.017 1.178-0.050 1.76l0.004-0.081v140.95c0.021 0.413 0.032 0.896 0.032 1.382 0 6.959-2.402 13.358-6.421 18.411l0.046-0.060zM1027.524 452.581h-856.27c-94.175-0.395-170.459-76.432-171.253-170.473l-0.001-0.076v-174.778c0.398-94.42 76.834-170.855 171.216-171.254h856.308c94.117 0.795 170.154 77.079 170.549 171.216v174.816c-0.395 94.175-76.432 170.459-170.473 171.253l-0.076 0.001zM401.707 333.478h-64.132v-316.432h-61.313v316.432h-64.837v53.561h190.282zM581.418 17.046h-54.97v26.78c-8.527-10.298-18.819-18.791-30.466-25.102l-0.543-0.269c-9.169-5.054-20.047-8.149-31.621-8.455l-0.093-0.002c-0.532-0.029-1.155-0.045-1.782-0.045-10.877 0-20.604 4.929-27.067 12.674l-0.046 0.056c-7.51 10.058-12.024 22.736-12.024 36.467 0 0.807 0.016 1.61 0.046 2.409l-0.004-0.115v229.043h54.266v-211.425c-0.052-0.535-0.081-1.157-0.081-1.786 0-4.673 1.624-8.967 4.339-12.347l-0.030 0.039c2.083-2.66 5.294-4.353 8.901-4.353 0.59 0 1.169 0.045 1.734 0.132l-0.063-0.008c5.88 0.314 11.222 2.383 15.574 5.689l-0.070-0.051c6.447 3.875 11.842 8.82 16.102 14.647l0.107 0.153v209.31h54.97zM780.157 73.426c0.069-1.167 0.108-2.533 0.108-3.907 0-15.166-4.791-29.213-12.941-40.711l0.147 0.219c-8.458-9.978-21-16.269-35.012-16.269-0.823 0-1.641 0.022-2.453 0.065l0.113-0.005c-0.457-0.012-0.995-0.019-1.534-0.019-9.963 0-19.377 2.349-27.719 6.524l0.358-0.162c-9.236 4.765-16.986 11.164-23.147 18.886l-0.109 0.142v-21.142h-54.97v369.993h54.97v-119.103c7.436 7.875 16.327 14.284 26.256 18.814l0.525 0.214c7.364 3.904 16.083 6.238 25.338 6.342h0.033c0.88 0.059 1.907 0.093 2.942 0.093 14.769 0 27.93-6.883 36.45-17.616l0.073-0.096c8.936-12.619 14.284-28.328 14.284-45.286 0-1.92-0.069-3.823-0.203-5.709l0.015 0.253zM969.734 143.901h-105.008v-51.447c-0.165-1.65-0.26-3.567-0.26-5.505 0-8.731 1.913-17.016 5.343-24.457l-0.15 0.363c3.6-5.246 9.564-8.643 16.322-8.643 0.954 0 1.893 0.068 2.811 0.199l-0.105-0.012c0.756-0.090 1.631-0.141 2.519-0.141 6.513 0 12.38 2.761 16.497 7.175l0.012 0.013c3.334 7.225 5.278 15.679 5.278 24.587 0 2.262-0.125 4.495-0.37 6.692l0.024-0.27v12.685h57.085v-14.095c0.165-1.995 0.259-4.319 0.259-6.664 0-21.798-8.112-41.702-21.482-56.857l0.081 0.093c-14.385-13.265-33.678-21.399-54.87-21.399-2.268 0-4.514 0.093-6.735 0.276l0.291-0.019c-1.083-0.055-2.351-0.086-3.626-0.086-21.189 0-40.356 8.659-54.156 22.631l-0.008 0.008c-13.221 15.228-21.278 35.248-21.278 57.151 0 1.712 0.049 3.413 0.146 5.101l-0.011-0.233v125.445c-0.025 0.746-0.040 1.623-0.040 2.504 0 21.885 8.906 41.689 23.292 55.986l0.004 0.004c15.139 13.582 35.255 21.886 57.311 21.886 0.912 0 1.82-0.014 2.725-0.042l-0.132 0.003c1.408 0.092 3.054 0.145 4.711 0.145 20.603 0 39.311-8.111 53.106-21.314l-0.028 0.027c12.795-14.173 20.623-33.045 20.623-53.744 0-1.919-0.067-3.823-0.2-5.708l0.014 0.254zM700.52 250.318c-1.692 0.455-3.634 0.716-5.638 0.716s-3.946-0.261-5.795-0.752l0.157 0.035c-4.379-2.219-8.109-5.050-11.253-8.432l-0.023-0.025v-170.549c3.675-3.892 8.138-6.998 13.138-9.069l0.252-0.093c3.664-2.044 8.005-3.326 12.626-3.522l0.059-0.002c0.558-0.068 1.203-0.107 1.858-0.107 5.27 0 9.952 2.515 12.913 6.41l0.029 0.040c3.121 4.688 4.98 10.449 4.98 16.644 0 0.591-0.017 1.178-0.050 1.76l0.004-0.081v140.95c0.045 0.61 0.070 1.321 0.070 2.039 0 6.981-2.417 13.397-6.459 18.458l0.046-0.059c-3.578 3.613-8.54 5.851-14.024 5.851-1.020 0-2.021-0.077-2.999-0.227l0.11 0.014zM717.434 242.566c-3.641 4.754-9.32 7.789-15.708 7.789-0.424 0-0.846-0.013-1.263-0.040l0.057 0.003c-1.692 0.455-3.634 0.716-5.638 0.716s-3.946-0.261-5.795-0.752l0.157 0.035c-4.379-2.219-8.109-5.050-11.253-8.432l-0.023-0.025v-170.549c3.675-3.892 8.138-6.998 13.138-9.069l0.252-0.093c3.664-2.044 8.005-3.326 12.626-3.522l0.059-0.002c0.558-0.068 1.203-0.107 1.858-0.107 5.27 0 9.952 2.515 12.913 6.41l0.029 0.040c3.121 4.688 4.98 10.449 4.98 16.644 0 0.591-0.017 1.178-0.050 1.76l0.004-0.081v140.95c0 0.004 0 0.009 0 0.014 0 6.941-2.389 13.324-6.39 18.371l0.047-0.061zM717.434 242.566c-3.641 4.754-9.32 7.789-15.708 7.789-0.424 0-0.846-0.013-1.263-0.040l0.057 0.003c-1.692 0.455-3.634 0.716-5.638 0.716s-3.946-0.261-5.795-0.752l0.157 0.035c-4.379-2.219-8.109-5.050-11.253-8.432l-0.023-0.025v-170.549c3.675-3.892 8.138-6.998 13.138-9.069l0.252-0.093c3.664-2.044 8.005-3.326 12.626-3.522l0.059-0.002c0.558-0.068 1.203-0.107 1.858-0.107 5.27 0 9.952 2.515 12.913 6.41l0.029 0.040c3.121 4.688 4.98 10.449 4.98 16.644 0 0.591-0.017 1.178-0.050 1.76l0.004-0.081v140.95c0 0.004 0 0.009 0 0.014 0 6.941-2.389 13.324-6.39 18.371l0.047-0.061z" />
<glyph unicode="&#xe907;" glyph-name="heart" data-tags="heart" d="M917.333 793.6v0c-51.2 51.2-119.467 81.067-192 81.067v0c-72.533 0-145.067-29.867-196.267-81.067 0 0 0 0 0 0l-17.067-17.067-17.067 17.067c-51.2 51.2-119.467 81.067-196.267 81.067-72.533 0-140.8-29.867-192-81.067s-85.333-123.733-85.333-196.267 29.867-145.067 81.067-196.267l375.467-375.467c8.533-8.533 17.067-12.8 29.867-12.8s21.333 4.267 29.867 12.8l375.467 375.467c115.2 106.667 115.2 285.867 4.267 392.533zM857.6 460.8l-345.6-345.6-345.6 345.6c-76.8 76.8-76.8 196.267 0 273.067 34.133 38.4 85.333 55.467 132.267 55.467 51.2 0 98.133-17.067 136.533-55.467l46.933-46.933c17.067-17.067 42.667-17.067 59.733 0l42.667 46.933c0 0 0 0 0 0 38.4 34.133 85.333 55.467 140.8 55.467 0 0 0 0 0 0 51.2 0 98.133-21.333 136.533-55.467v0c34.133-38.4 55.467-85.333 55.467-136.533s-21.333-98.133-59.733-136.533z" />
<glyph unicode="&#xe908;" glyph-name="check" data-tags="check" d="M384 270l452 452 60-60-512-512-238 238 60 60z" />
<glyph unicode="&#xe909;" glyph-name="arrow-right" data-tags="arrow-right" horiz-adv-x="618" d="M74.51 960.784c-41.58-0.010-75.283-33.72-75.283-75.302 0-21.178 8.742-40.313 22.815-53.995l0.018-0.017 383.48-383.48-383.48-383.431c-13.635-13.628-22.068-32.459-22.068-53.26 0-41.589 33.714-75.303 75.303-75.303 20.788 0 39.609 8.424 53.236 22.044l489.951 489.951-489.951 489.951c-13.699 14.096-32.838 22.842-54.019 22.843v0z" />
<glyph unicode="&#xe90a;" glyph-name="cart" data-tags="cart" horiz-adv-x="1437" d="M1253.596 206.924h-835.731c-18.368 0-36.735 13.776-45.919 32.143l-202.045 629.094h-123.982c-27.552 0-45.919 18.368-45.919 45.919s18.368 45.919 45.919 45.919h160.717c18.368 0 36.735-13.776 45.919-32.143l202.045-629.094h766.852l110.206 431.641h-904.61c-27.552 0-45.919 18.368-45.919 45.919s18.368 45.919 45.919 45.919h959.713c13.776 0 27.552-4.592 36.735-18.368 9.184-9.184 13.776-27.552 9.184-41.327l-137.758-523.48c-4.592-18.368-22.96-32.143-41.327-32.143zM541.848-64c-82.655 0-151.534 68.879-151.534 151.534s68.879 151.534 151.534 151.534 151.534-68.879 151.534-151.534-68.879-151.534-151.534-151.534zM541.848 161.004c-41.327 0-73.471-32.143-73.471-73.471s32.143-73.471 73.471-73.471 73.471 32.143 73.471 73.471-32.143 73.471-73.471 73.471zM1115.839-64c-82.655 0-151.534 68.879-151.534 151.534s68.879 151.534 151.534 151.534 151.534-68.879 151.534-151.534-64.287-151.534-151.534-151.534zM1115.839 161.004c-41.327 0-73.471-32.143-73.471-73.471s32.143-73.471 73.471-73.471 78.063 32.143 78.063 73.471-36.735 73.471-78.063 73.471zM1308.7 555.91h-835.731c-27.552 0-45.919 18.368-45.919 45.919s18.368 45.919 45.919 45.919h835.731c27.552 0 45.919-18.368 45.919-45.919s-18.368-45.919-45.919-45.919zM1262.78 386.009h-743.892c-27.552 0-45.919 18.368-45.919 45.919s18.368 45.919 45.919 45.919h743.892c27.552 0 45.919-18.368 45.919-45.919 0-22.96-18.368-45.919-45.919-45.919z" />
<glyph unicode="&#xe90b;" glyph-name="icon1" data-tags="icon1" d="M512 960c-282.77 0-512-229.23-512-512s229.23-512 512-512c282.77 0 512 229.23 512 512v0c-0.307 282.646-229.354 511.693-511.971 512h-0.029zM512-19.088c-257.965 0-467.088 209.122-467.088 467.088s209.122 467.088 467.088 467.088c257.965 0 467.088-209.122 467.088-467.088v0c0-257.965-209.122-467.088-467.088-467.088v0zM907.228 567.377c-17.188 56.132-44.106 104.74-79.108 146.319l0.512-0.624s-0.898 0.808-1.258 1.258l-0.988 1.168-2.695 1.976-1.707 1.168-1.976 0.808-2.156 0.898-1.796 0.449h-4.312c-0.377 0.043-0.815 0.067-1.258 0.067s-0.88-0.024-1.311-0.072l0.053 0.005c-0.269 0.021-0.582 0.033-0.898 0.033s-0.629-0.012-0.94-0.035l0.041 0.002c-0.972-0.163-1.79-0.351-2.591-0.579l0.165 0.040c-0.678-0.143-1.279-0.36-1.837-0.648l0.040 0.019c-0.915-0.309-1.687-0.643-2.425-1.031l0.090 0.043-1.437-1.168c-0.785-0.467-1.46-0.941-2.096-1.461l0.030 0.024h-0.539c-0.406-0.393-0.788-0.803-1.147-1.233l-0.020-0.025c-0.47-0.35-0.882-0.734-1.249-1.158l-0.008-0.010-100.604-113.808-40.96 8.444-13.294 39.792 36.559 41.050c3.538 3.969 5.7 9.233 5.7 15.001 0 12.475-10.113 22.587-22.587 22.587-6.707 0-12.731-2.923-16.867-7.564l-0.020-0.022-44.912-50.841c-3.552-3.968-5.724-9.236-5.724-15.011 0-2.534 0.418-4.971 1.189-7.245l-0.047 0.159 17.336-52.098-97.46-107.789-113.538 112.73c-0.427 5.568-2.816 10.508-6.469 14.194l-42.395 42.395c-4.103 4.058-9.748 6.565-15.977 6.565-6.794 0-12.892-2.982-17.056-7.708l-0.022-0.025-7.096-8.264c-3.43-3.934-5.522-9.114-5.522-14.782 0-6.269 2.558-11.94 6.688-16.026l0.002-0.002 42.577-42.397c3.666-3.557 8.528-5.901 13.926-6.371l0.086-0.006 114.167-113.628-79.674-87.938-45.541 8.982c-1.367 0.292-2.937 0.46-4.547 0.46-6.711 0-12.743-2.909-16.903-7.535l-0.018-0.021-38.984-43.655c-3.533-3.95-5.692-9.194-5.692-14.941 0-2.594 0.44-5.085 1.249-7.403l-0.048 0.158 18.504-55.781c2.578-7.621 8.912-13.329 16.74-14.975l0.147-0.026 57.667-11.857c0.673-0.061 1.455-0.096 2.246-0.096s1.573 0.035 2.346 0.103l-0.1-0.007c0.007 0 0.016 0 0.025 0 6.719 0 12.759 2.904 16.934 7.525l0.018 0.020 38.984 44.014c3.558 3.981 5.733 9.265 5.733 15.056 0 2.55-0.422 5.002-1.199 7.29l0.047-0.159-14.192 42.667 78.327 86.232 50.571-50.302c-3.374-3.906-5.43-9.034-5.43-14.641 0-6.211 2.522-11.833 6.597-15.898v0l119.916-121.353c4.093-4.16 9.783-6.737 16.075-6.737 0.001 0 0.003 0 0.004 0h0.718c6.406 0.323 12.065 3.273 15.964 7.786l0.024 0.029 25.241 29.013c3.43 3.934 5.522 9.114 5.522 14.782 0 6.179-2.486 11.778-6.512 15.85l0.002-0.002-119.377 121.712c-4.095 4.172-9.793 6.757-16.094 6.757-4.608 0-8.893-1.382-12.463-3.755l0.083 0.052-50.481 50.212 98.807 109.406 53.895-11.048c0.674-0.082 1.454-0.129 2.246-0.129s1.572 0.047 2.338 0.138l-0.093-0.009c0.032 0 0.069 0 0.106 0 6.711 0 12.735 2.944 16.85 7.611l0.021 0.024 91.352 102.58c43.367-59.545 69.381-134.15 69.381-214.831 0-202.85-164.443-367.293-367.293-367.293s-367.293 164.443-367.293 367.293c0 202.85 164.443 367.293 367.293 367.293 84.019 0 161.449-28.211 223.334-75.677l-0.875 0.644c4.069-3.946 9.626-6.379 15.751-6.379 12.501 0 22.636 10.134 22.636 22.636 0 8.383-4.557 15.702-11.33 19.614l-0.109 0.058c-68.708 52.856-155.96 84.709-250.653 84.709-228.2 0-413.193-184.993-413.193-413.193s184.993-413.193 413.193-413.193c42.991 0 84.448 6.566 123.424 18.749l-2.927-0.789c171.206 53.050 293.405 209.978 293.405 395.448 0 42.498-6.416 83.498-18.332 122.084l0.778-2.927zM381.215 265.297l-32.067 6.647-10.33 30.989 21.738 24.522 32.067-6.647 10.33-30.989z" />
<glyph unicode="&#xe90c;" glyph-name="icon2" data-tags="icon2" d="M512 960c-282.77 0-512-229.23-512-512s229.23-512 512-512c282.77 0 512 229.23 512 512v0c-0.307 282.646-229.354 511.693-511.971 512h-0.029zM512-19.088c-257.965 0-467.088 209.122-467.088 467.088s209.122 467.088 467.088 467.088c257.965 0 467.088-209.122 467.088-467.088v0c0-257.965-209.122-467.088-467.088-467.088v0zM512 860.744c-0.473 0.002-1.033 0.003-1.593 0.003-133.847 0-252.707-64.172-327.49-163.428l-0.753-1.044v-0.449c-3.082-3.834-4.947-8.761-4.947-14.124 0-11.713 8.896-21.348 20.3-22.517l0.096-0.008 75.992-8.084 107.789-316.721c-22.871-16.045-37.636-42.293-37.636-71.99 0-48.418 39.251-87.669 87.669-87.669s87.669 39.251 87.669 87.669c0 0.046 0 0.092 0 0.138v-0.007c0 1.078 0 2.156 0 3.144l243.964 82.189c8.385 3.442 14.182 11.543 14.182 20.998 0 12.501-10.134 22.636-22.636 22.636-2.105 0-4.143-0.287-6.077-0.825l0.159 0.038-242.526-81.74c-15.739 24.911-43.096 41.235-74.272 41.319h-0.013c-1.114 0.065-2.416 0.103-3.728 0.103s-2.614-0.037-3.907-0.111l0.179 0.008-113.089 329.027c-2.851 8.27-10.136 14.291-18.941 15.261l-0.102 0.009-48.146 4.94c66.7 71.491 161.465 116.055 266.638 116.055 0.429 0 0.857-0.001 1.286-0.002h-0.067c202.561-0.251 366.673-164.517 366.673-367.113 0-202.751-164.362-367.113-367.113-367.113s-367.113 164.362-367.113 367.113c0 54.574 11.908 106.367 33.268 152.922l-0.94-2.286c1.265 2.731 2.003 5.928 2.003 9.297 0 12.467-10.106 22.573-22.573 22.573-9.098 0-16.939-5.382-20.512-13.136l-0.058-0.14c-23.148-49.982-36.649-108.478-36.649-170.128 0-228.2 184.993-413.193 413.193-413.193s413.193 184.993 413.193 413.193c0 228.2-184.993 413.193-413.193 413.193-0.063 0-0.126 0-0.189 0h0.010zM473.106 262.422c0-23.465-19.022-42.487-42.487-42.487s-42.487 19.022-42.487 42.487c0 23.465 19.022 42.487 42.487 42.487v0c23.465 0 42.487-19.022 42.487-42.487v0zM633.802 682.891l-219.082-74.554c-5.726-2.022-10.306-6.077-12.964-11.278l-0.060-0.13c-1.451-2.896-2.301-6.31-2.301-9.922 0-2.623 0.448-5.141 1.271-7.482l-0.048 0.158 71.141-209.022c3.094-9.004 11.49-15.36 21.37-15.36 0.003 0 0.006 0 0.009 0v0c0.052 0 0.114-0.001 0.176-0.001 2.548 0 4.989 0.461 7.242 1.305l-0.143-0.047 219.082 74.554c8.991 3.069 15.341 11.442 15.341 21.299 0 2.635-0.454 5.163-1.287 7.512l0.049-0.157-71.051 209.022c-3.173 8.978-11.587 15.296-21.477 15.296-2.601 0-5.099-0.437-7.427-1.241l0.16 0.048zM507.239 406.591l-56.589 166.265 176.326 59.913 56.589-166.175z" />
<glyph unicode="&#xe90d;" glyph-name="icon3" data-tags="icon3" d="M512 960c-282.77 0-512-229.23-512-512s229.23-512 512-512c282.77 0 512 229.23 512 512v0c-0.307 282.646-229.354 511.693-511.971 512h-0.029zM512-19.088c-257.965 0-467.088 209.122-467.088 467.088s209.122 467.088 467.088 467.088c257.965 0 467.088-209.122 467.088-467.088v0c0-257.965-209.122-467.088-467.088-467.088v0zM512 861.193c-227.956-0.323-412.625-185.192-412.625-413.193 0-84.226 25.201-162.566 68.474-227.892l-0.955 1.533c4.173-5.537 10.736-9.078 18.127-9.078 12.501 0 22.636 10.134 22.636 22.636 0 4.17-1.127 8.076-3.094 11.431l0.058-0.107c-37.494 56.736-59.816 126.36-59.816 201.197 0 203.396 164.885 368.281 368.281 368.281s368.281-164.885 368.281-368.281c0-203.396-164.885-368.281-368.281-368.281-87.605 0-168.066 30.588-231.285 81.667l0.698-0.546v292.648h462.417v-91.531h-413.732c-11.217-1.462-19.79-10.958-19.79-22.456s8.573-20.994 19.676-22.444l0.114-0.012h436.368c0.107-0.002 0.234-0.003 0.361-0.003 12.358 0 22.394 9.943 22.544 22.265v136.817c0 12.501-10.134 22.636-22.636 22.636v0h-48.326v115.784c-0.152 12.385-10.228 22.366-22.634 22.366-0.001 0-0.001 0-0.002 0h-371.694c-12.463-0.051-22.546-10.166-22.546-22.636 0 0 0 0 0 0v0-115.514h-42.756c-12.501 0-22.636-10.134-22.636-22.636v0-326.063c0.024-8.112 4.327-15.213 10.771-19.166l0.098-0.056c71.11-59.572 163.58-95.753 264.5-95.753 228.2 0 413.193 184.993 413.193 413.193s-184.993 413.193-413.193 413.193c-0.209 0-0.418 0-0.627 0h0.032zM674.223 498.481h-139.587v93.238h139.587zM347.801 591.719h141.564v-93.238h-141.564z" />
<glyph unicode="&#xe90e;" glyph-name="icon4" data-tags="icon4" d="M512 960c-282.77 0-512-229.23-512-512s229.23-512 512-512c282.77 0 512 229.23 512 512v0c-0.307 282.646-229.354 511.693-511.971 512h-0.029zM512-19.088c-257.965 0-467.088 209.122-467.088 467.088s209.122 467.088 467.088 467.088c257.965 0 467.088-209.122 467.088-467.088v0c0-257.965-209.122-467.088-467.088-467.088v0zM512 860.744c-18.575-0.017-36.843-1.257-54.749-3.643l2.111 0.23h-4.042c-40.323-5.889-70.941-40.233-70.941-81.729 0-36.796 24.075-67.969 57.332-78.626l0.584-0.162c-28.718-9.262-50.276-32.97-56.318-62.341l-0.092-0.536c-89.465-19.402-134.378-71.231-134.378-154.498 0-61.171 40.331-132.312 61.979-170.667 3.952-7.006 7.096-12.575 8.982-16.258 0-0.808 43.385-77.249 71.86-77.249h17.965c33.055 0 42.218 30.451 46.709 44.912 0.539 1.796 1.168 4.132 1.886 6.108h26.319s20.121 0 41.948 0c1.258-2.605 2.695-6.557 3.773-9.432 5.3-14.282 15.18-41.050 44.284-41.050h6.647c36.918-0.988 51.649 13.294 64.584 64.135 11.498 45.451 15.899 48.954 70.602 81.381 58.116 34.313 61.709 61.26 60.632 101.502 0 4.132 0 8.444 0 13.025 0 38.086-26.947 52.098-47.876 63.416-12.903 6.036-23.948 13.777-33.431 23.101l0.017-0.016c-8.174 8.982-6.827 19.312-1.886 39.433 4.312 17.965 10.24 42.397-10.060 59.015-26.049 21.378-61.979 3.234-85.782-8.982-4.415-2.444-9.769-4.95-15.292-7.121l-0.967-0.335c-9.85-1.182-21.257-1.856-32.822-1.856-2.072 0-4.138 0.022-6.2 0.065l0.307-0.005c-8.387 25.677-28.218 45.508-53.307 53.728l-0.588 0.167c33.896 10.814 58.016 42.022 58.027 78.865v0.001c0 0.046 0 0.099 0 0.153 0 14.336-3.695 27.809-10.183 39.518l0.213-0.419c190.444-14.938 339.323-173.154 339.323-366.143 0-202.801-164.402-367.203-367.203-367.203s-367.203 164.402-367.203 367.203c0 139.62 77.923 261.041 192.652 323.144l1.941 0.961c7.772 3.696 13.048 11.485 13.048 20.505 0 12.501-10.134 22.636-22.636 22.636-4.323 0-8.364-1.212-11.8-3.315l0.099 0.056c-131.46-70.911-219.285-207.633-219.285-364.867 0-228.2 184.993-413.193 413.193-413.193s413.193 184.993 413.193 413.193c0 228.192-184.98 413.18-413.169 413.193h-0.001zM592.842 600.253c10.591 2.905 19.843 6.831 28.413 11.801l-0.568-0.304c10.029 5.539 21.663 10.319 33.868 13.734l1.164 0.278c-0.539-3.862-1.886-8.982-2.874-13.474-5.12-21.199-12.935-53.266 12.575-80.842 12.84-13.006 27.868-23.813 44.494-31.831l0.957-0.416c21.019-11.138 23.893-14.013 23.893-23.534 0-5.030 0-9.701 0-14.192 0.719-28.564 0.988-38.175-38.445-61.44-59.464-35.211-75.722-46.978-91.441-109.227-2.5-11.379-5.932-21.368-10.346-30.806l0.376 0.894c-1.346-0.124-2.91-0.194-4.491-0.194s-3.146 0.071-4.691 0.209l0.2-0.014h-5.659c-1.704 3.085-3.513 6.897-5.112 10.818l-0.278 0.77c-5.030 13.653-14.372 38.984-41.409 38.984-23.085 0-45.721 0-46.26 0h-34.133c-26.319 0-33.774-24.881-37.816-38.265-1.371-5.033-2.965-9.331-4.885-13.446l0.214 0.511h-9.521c-14.417 15.215-27.153 32.27-37.755 50.708l-0.689 1.301c-2.156 4.312-5.659 10.599-10.24 18.594-18.145 32.427-55.961 99.166-55.961 148.57 0 43.206 11.498 89.825 93.238 108.867 1.285-3.589 2.587-6.553 4.064-9.412l-0.202 0.43c-11.534-1.093-20.485-10.729-20.485-22.456 0-12.455 10.096-22.551 22.551-22.551 0.727 0 1.447 0.034 2.157 0.102l-0.091-0.007h136.354c0.010 0 0.023 0 0.035 0 12.452 0 22.546 10.094 22.546 22.546 0 10.323-6.937 19.025-16.404 21.699l-0.159 0.038c2.752 5.142 5.117 11.115 6.783 17.373l0.134 0.592c0.754-0.007 1.646-0.011 2.538-0.011 15.306 0 30.329 1.213 44.977 3.547l-1.615-0.212zM504.185 617.589c0.002-0.133 0.003-0.29 0.003-0.447 0-20.687-16.77-37.457-37.457-37.457s-37.457 16.77-37.457 37.457c0 20.687 16.77 37.457 37.457 37.457 0.125 0 0.251-0.001 0.376-0.002h-0.019c20.508-0.152 37.086-16.762 37.187-37.268v-0.010zM467.088 737.774c-20.599 0.051-37.277 16.761-37.277 37.367 0 20.637 16.73 37.367 37.367 37.367s37.367-16.73 37.367-37.367v0c0 0 0 0 0 0 0-20.637-16.73-37.367-37.367-37.367-0.032 0-0.063 0-0.095 0h0.005zM625.179 486.625c0.027 0 0.058 0 0.090 0 13.99 0 25.331 11.341 25.331 25.331s-11.341 25.331-25.331 25.331c-13.99 0-25.331-11.341-25.331-25.331 0-0.032 0-0.063 0-0.095v0.005c0-13.94 11.301-25.241 25.241-25.241v0zM625.179 516.806c2.69-0.050 4.851-2.243 4.851-4.94 0 0 0-0.001 0-0.001v0c0-2.679-2.172-4.851-4.851-4.851v0c0 0-0.001 0-0.001 0-2.697 0-4.889 2.161-4.939 4.846v0.005c0 2.728 2.212 4.94 4.94 4.94v0z" />
<glyph unicode="&#xe90f;" glyph-name="icon5" data-tags="icon5" d="M512 960c-282.77 0-512-229.23-512-512s229.23-512 512-512c282.77 0 512 229.23 512 512v0c-0.307 282.646-229.354 511.693-511.971 512h-0.029zM512-19.088c-257.965 0-467.088 209.122-467.088 467.088s209.122 467.088 467.088 467.088c257.965 0 467.088-209.122 467.088-467.088v0c0-257.965-209.122-467.088-467.088-467.088v0zM531.312 642.291c-3.819 7.332-11.344 12.262-20.025 12.306h-0.006c-0.016 0-0.036 0-0.055 0-8.684 0-16.212-4.949-19.917-12.18l-0.059-0.126-44.912-88.836-103.388-15.091c-11.005-1.664-19.342-11.056-19.342-22.395 0-6.363 2.625-12.112 6.852-16.225l0.005-0.005 74.375-72.488-17.965-102.31c-0.202-1.137-0.318-2.445-0.318-3.781 0-12.501 10.134-22.636 22.636-22.636 3.862 0 7.498 0.967 10.679 2.672l-0.121-0.059 92.25 48.056 91.891-48.326c2.998-1.641 6.569-2.605 10.364-2.605 0.051 0 0.102 0 0.153 0.001h-0.008c0.010 0 0.022 0 0.034 0 4.984 0 9.591 1.617 13.323 4.356l-0.063-0.044c5.682 4.090 9.338 10.685 9.338 18.134 0 1.401-0.129 2.772-0.377 4.101l0.021-0.138-17.516 102.58 74.375 72.488c4.164 4.121 6.743 9.837 6.743 16.156 0 11.349-8.318 20.754-19.19 22.452l-0.128 0.016-103.119 14.911zM579.099 451.324c-4.192-4.098-6.792-9.81-6.792-16.129 0-1.347 0.118-2.666 0.345-3.948l-0.020 0.136 11.767-68.985-61.889 32.606c-3.049 1.623-6.665 2.584-10.503 2.605h-0.007c-3.845-0.010-7.462-0.972-10.632-2.664l0.122 0.060-61.889-32.606 11.767 68.985c0.207 1.146 0.325 2.465 0.325 3.812 0 6.319-2.6 12.031-6.788 16.125l-0.004 0.004-49.673 48.865 69.255 10.060c7.412 1.117 13.56 5.692 16.828 12l0.059 0.126 30.63 60.362 31.618-60.452c3.37-6.304 9.467-10.771 16.673-11.842l0.124-0.015 69.255-10.060zM512 860.025c-0.329 0.001-0.717 0.001-1.106 0.001-92.375 0-177.594-30.64-246.048-82.31l1.035 0.748s-0.539-0.629-0.898-0.898c-0.77-0.682-1.474-1.386-2.133-2.13l-0.022-0.026-1.078-1.347c0-0.719-0.988-1.437-1.437-2.246-0.294-0.509-0.567-1.102-0.785-1.72l-0.023-0.076c-0.305-0.564-0.637-1.274-0.933-2.002l-0.055-0.154c-0.024-0.309-0.038-0.669-0.038-1.033s0.014-0.724 0.041-1.080l-0.003 0.047c0-0.719 0-1.437-0.449-2.066s0-1.617 0-2.335v-1.976c-0.024-0.376-0.037-0.815-0.037-1.258s0.014-0.882 0.040-1.317l-0.003 0.060c-0.020-0.269-0.032-0.582-0.032-0.898s0.011-0.629 0.034-0.94l-0.002 0.042c0.647-1.941 1.165-3.309 1.718-4.659l-0.191 0.527c0.457-0.933 0.935-1.727 1.472-2.477l-0.035 0.052c0-0.449 0-0.898 0.719-1.258s0 0 0 0v0l119.018-150.456c4.149-5.468 10.647-8.967 17.962-8.982h0.002c0.007 0 0.015 0 0.023 0 5.318 0 10.2 1.863 14.031 4.973l-0.041-0.032c5.233 4.166 8.558 10.536 8.558 17.682 0 5.363-1.872 10.288-4.999 14.158l0.033-0.043-104.196 130.964c56.045 37.104 124.844 59.196 198.804 59.196 0.371 0 0.742-0.001 1.113-0.002h-0.057c202.375-0.17 366.366-164.266 366.366-366.664 0-202.503-164.161-366.664-366.664-366.664s-366.664 164.161-366.664 366.664c0 88.98 31.695 170.557 84.411 234.057l-0.487-0.603c3.213 3.873 5.162 8.895 5.162 14.372 0 12.475-10.113 22.588-22.588 22.588-6.998 0-13.253-3.182-17.396-8.179l-0.030-0.037c-58.638-70.65-94.22-162.269-94.22-262.198 0-227.506 184.43-411.935 411.935-411.935s411.935 184.43 411.935 411.935c0 227.444-184.331 411.836-411.752 411.935h-0.010zM218.723 351.169c3.361-8.432 11.455-14.282 20.916-14.282 0.005 0 0.009 0 0.014 0h-0.001c3.042 0.015 5.942 0.607 8.601 1.673l-0.158-0.056 95.304 37.636c9.096 3.075 15.528 11.532 15.528 21.491 0 12.501-10.134 22.636-22.636 22.636-3.52 0-6.853-0.804-9.824-2.237l0.135 0.059-95.304-37.547c-8.396-3.407-14.209-11.499-14.209-20.948 0-3.036 0.6-5.931 1.688-8.575l-0.055 0.15zM489.364 271.944v-89.286c-0.114-0.855-0.18-1.843-0.18-2.846 0-12.501 10.134-22.636 22.636-22.636s22.636 10.134 22.636 22.636c0 1.003-0.065 1.991-0.192 2.96l0.012-0.114v89.286c-1.462 11.217-10.958 19.79-22.456 19.79s-20.994-8.573-22.444-19.676l-0.012-0.114zM669.462 405.423c-1.014-2.472-1.602-5.341-1.602-8.347 0-9.437 5.798-17.52 14.027-20.881l0.151-0.054 93.867-37.547c2.501-1.018 5.402-1.611 8.441-1.617h0.002c12.481 0.027 22.588 10.151 22.588 22.636 0 9.475-5.822 17.591-14.083 20.964l-0.151 0.055-93.867 37.367c-2.493 1.033-5.389 1.633-8.425 1.633-9.449 0-17.541-5.813-20.894-14.058l-0.054-0.151zM626.167 589.025c0.064-0.001 0.139-0.001 0.215-0.001 7.162 0 13.55 3.313 17.716 8.49l0.034 0.044 53.895 67.997c3.634 4.001 5.859 9.338 5.859 15.196 0 12.501-10.134 22.636-22.636 22.636-7.629 0-14.376-3.774-18.477-9.556l-0.047-0.070-53.895-67.997c-3.073-3.831-4.931-8.75-4.931-14.104 0-12.501 10.134-22.636 22.636-22.636 0.091 0 0.183 0.001 0.274 0.002h-0.014z" />
<glyph unicode="&#xe910;" glyph-name="zoom-in" data-tags="zoom-in" horiz-adv-x="880" d="M853.867 93.867l-157.867 157.867c51.2 64 85.333 149.333 85.333 238.933 0 213.333-170.667 384-384 384s-384-170.667-384-384c0-213.333 170.667-384 384-384 89.6 0 174.933 29.867 238.933 85.333l157.867-157.867c8.533-8.533 21.333-12.8 29.867-12.8s21.333 4.267 29.867 12.8c17.067 17.067 17.067 42.667 0 59.733zM98.667 490.667c0 166.4 132.267 298.667 298.667 298.667s298.667-132.267 298.667-298.667c0-81.067-34.133-157.867-85.333-209.067 0 0 0 0 0 0s0 0 0 0c-55.467-55.467-128-85.333-209.067-85.333-170.667-4.267-302.933 128-302.933 294.4zM525.333 533.333h-85.333v85.333c0 25.6-17.067 42.667-42.667 42.667s-42.667-17.067-42.667-42.667v-85.333h-85.333c-25.6 0-42.667-17.067-42.667-42.667s17.067-42.667 42.667-42.667h85.333v-85.333c0-25.6 17.067-42.667 42.667-42.667s42.667 17.067 42.667 42.667v85.333h85.333c25.6 0 42.667 17.067 42.667 42.667s-17.067 42.667-42.667 42.667z" />
<glyph unicode="&#xe911;" glyph-name="pinterest" data-tags="pinterest" d="M512.725 960c-282.496 0-511.488-228.992-511.488-511.445 0-216.704 134.741-401.792 325.035-476.245-4.48 40.491-8.491 102.528 1.749 146.731 9.344 39.979 59.989 254.165 59.989 254.165s-15.317 30.72-15.317 75.989c0 70.955 41.259 124.203 92.501 124.203 43.691 0 64.768-32.811 64.768-72.021 0-43.904-27.861-109.525-42.325-170.325-12.16-50.901 25.6-92.373 75.733-92.373 90.795 0 160.768 95.787 160.768 234.112 0 122.069-88.021 207.744-213.675 207.744-145.493 0-230.784-109.312-230.784-221.824 0-44.075 16.811-91.435 37.931-116.949 4.224-5.12 4.779-9.6 3.627-14.72-3.84-16-12.501-51.157-14.251-58.155-2.261-9.6-7.339-11.563-17.109-7.040-63.787 29.44-103.808 122.795-103.808 198.229 0 161.109 117.248 309.419 337.92 309.419 177.408 0 315.392-126.592 315.392-295.381 0-176.427-111.232-318.379-265.941-318.379-51.797 0-100.437 26.837-117.675 58.837l-31.957-121.515c-11.477-44.587-42.837-100.352-63.915-134.229 47.915-14.72 98.389-22.827 151.467-22.827 281.899 0 511.36 228.907 511.36 511.445 0 282.581-229.461 511.445-511.36 511.445l1.365 1.109z" />
<glyph unicode="&#xe912;" glyph-name="lock" data-tags="lock" horiz-adv-x="640" d="M592 544h-16v192c0 105.87-86.13 192-192 192h-128c-105.87 0-192-86.13-192-192v-192h-16c-26.4 0-48-21.6-48-48v-480c0-26.4 21.6-48 48-48h544c26.4 0 48 21.6 48 48v480c0 26.4-21.6 48-48 48zM192 736c0 35.29 28.71 64 64 64h128c35.29 0 64-28.71 64-64v-192h-256v192z" />
<glyph unicode="&#xe913;" glyph-name="diamond" data-tags="diamond" horiz-adv-x="1170" d="M121.143 521.143l356-380-171.429 380h-184.571zM585.143 80l199.429 441.143h-398.857zM307.429 594.286l116.571 219.429h-149.714l-164.571-219.429h197.714zM693.143 141.143l356 380h-184.571zM390.286 594.286h389.714l-116.571 219.429h-156.571zM862.857 594.286h197.714l-164.571 219.429h-149.714zM943.429 872l219.429-292.571c10.857-13.714 9.714-33.714-2.286-46.857l-548.571-585.143c-6.857-7.429-16.571-11.429-26.857-11.429s-20 4-26.857 11.429l-548.571 585.143c-12 13.143-13.143 33.143-2.286 46.857l219.429 292.571c6.857 9.714 17.714 14.857 29.143 14.857h658.286c11.429 0 22.286-5.143 29.143-14.857z" />
<glyph unicode="&#xe914;" glyph-name="arrow-down" data-tags="arrow-down" d="M1024.393 682.345c-0.010 41.58-33.72 75.283-75.302 75.283-21.178 0-40.313-8.742-53.995-22.815l-0.017-0.018-383.48-383.48-383.431 383.48c-13.628 13.635-32.459 22.068-53.26 22.068-41.589 0-75.303-33.714-75.303-75.303 0-20.788 8.424-39.609 22.044-53.236l489.951-489.951 489.951 489.951c14.096 13.699 22.842 32.838 22.843 54.019v0z" />
<glyph unicode="&#xe915;" glyph-name="close" data-tags="close" d="M589.961 447.969l415.523 417.705c9.598 9.906 15.514 23.428 15.514 38.332 0 30.438-24.675 55.112-55.112 55.112-14.904 0-28.427-5.916-38.347-15.528l0.014 0.014-415.523-417.705-417.705 417.705c-9.906 9.598-23.428 15.514-38.332 15.514-30.438 0-55.112-24.675-55.112-55.112 0-14.904 5.916-28.427 15.528-38.347l-0.014 0.014 415.523-417.705-415.523-417.705c-10.298-9.819-16.702-23.644-16.702-38.965s6.404-29.146 16.68-38.945l0.021-0.020c9.837-10.285 23.67-16.679 38.996-16.679s29.159 6.393 38.977 16.659l0.019 0.020 417.705 417.705 417.705-417.705c9.837-10.285 23.67-16.679 38.996-16.679s29.159 6.393 38.977 16.659l0.019 0.020c10.298 9.819 16.702 23.644 16.702 38.965s-6.404 29.146-16.68 38.945l-0.021 0.020z" />
</font>
</defs>
</svg>
