<?xml version="1.0" encoding="utf-8"?>
<!-- Generator: Adobe Illustrator 22.0.0, SVG Export Plug-In . SVG Version: 6.00 Build 0)  -->
<svg version="1.1" id="Layer_1" xmlns="http://www.w3.org/2000/svg" xmlns:xlink="http://www.w3.org/1999/xlink" x="0px" y="0px"
	 viewBox="0 0 475.5 545" style="enable-background:new 0 0 475.5 545;" xml:space="preserve">
<style type="text/css">
	.st0{fill:#243E50;}
	.st1{fill:none;stroke:#FFFFFF;stroke-width:0.4136;}
	.st2{fill:none;stroke:#FFFFFF;stroke-width:0.8046;}
	.st3{fill:none;stroke:#FFFFFF;stroke-width:0.2;}
	.st4{fill:#FFFFFF;}
</style>
<rect x="-1" class="st0" width="475.2" height="474.8"/>
<g>
	<line class="st1" x1="21" y1="414.5" x2="452.2" y2="428.2"/>
	<line class="st2" x1="22" y1="421.3" x2="430.6" y2="402.7"/>
	<line class="st2" x1="29.9" y1="406.6" x2="383.3" y2="436.1"/>
	<line class="st2" x1="120.5" y1="433.2" x2="442.4" y2="411.5"/>
</g>
<g>
	<g>
		<g>
			<line class="st3" x1="183" y1="357.4" x2="215" y2="354.5"/>
			<line class="st3" x1="183.2" y1="356.2" x2="214.1" y2="357.6"/>
			<path class="st3" d="M183.6,355.2l15.1,1.3l6.7,0.6l7.6,0.7l2.4,0.2l-32.5,0.6l2.3-0.2l21.1-1.8l5.8-0.5c0,0-21.6-2.2-22.5-1.9
				c-0.9,0.3-4.1,2.8-4.6,2.9s-3.6-0.1-2.6,0c0.7,0.1,5.4-0.4,8.8-0.5c1.5-0.1,2.8-0.1,3.3,0c1.6,0.2,19,0.5,19,0.5l-1.2-1.9
				c0,0,0,0.1-0.4,0s-12.8,2.2-17.5,2.9c-4.7,0.7-13-1.6-11.8-2c1.2-0.4,20.2,0.5,23.8,1.4s7-1.1,7-1.1l-29.5-1.4"/>
			<line class="st3" x1="183.4" y1="356" x2="215.4" y2="359"/>
			<line class="st3" x1="183.6" y1="357.2" x2="214.5" y2="355.8"/>
			<line class="st3" x1="184.3" y1="358.5" x2="214" y2="357.1"/>
		</g>
		<g>
			<line class="st3" x1="199.8" y1="372.5" x2="196.8" y2="340.6"/>
			<line class="st3" x1="198.5" y1="372.4" x2="199.9" y2="341.4"/>
			<path class="st3" d="M197.5,372l1.3-15.1l0.6-6.7l0.7-7.6l0.2-2.4l0.6,32.4l-0.2-2.3l-1.8-21.1l-0.5-5.8c0,0-2.2,21.6-1.9,22.5
				c0.3,0.9,2.8,4.1,2.9,4.5c0.1,0.5-0.1,3.6,0,2.6c0.1-0.7-0.4-5.4-0.5-8.8c-0.1-1.5-0.1-2.8,0-3.3c0.2-1.6,0.5-19,0.5-19l-1.9,1.2
				c0,0,0.1,0,0,0.4s2.2,12.8,2.9,17.5c0.7,4.7-1.6,13-2,11.8s0.5-20.2,1.4-23.8c0.9-3.6-1.1-7-1.1-7l-1.4,29.7"/>
			<line class="st3" x1="198.4" y1="372.2" x2="201.3" y2="340.2"/>
			<line class="st3" x1="199.6" y1="372" x2="198.2" y2="341.1"/>
			<line class="st3" x1="200.8" y1="371.3" x2="199.4" y2="341.6"/>
		</g>
	</g>
	<g>
		<g>
			<line class="st3" x1="182.5" y1="358.9" x2="214.5" y2="355.9"/>
			<line class="st3" x1="182.7" y1="357.7" x2="213.6" y2="359.1"/>
			<path class="st3" d="M183.1,356.7l15.1,1.3l6.7,0.6l7.6,0.7l2.4,0.2l-32.5,0.6l2.3-0.2l21.1-1.8l5.8-0.5c0,0-21.6-2.2-22.5-1.9
				c-0.9,0.4-4.1,2.8-4.6,2.9s-3.6-0.1-2.6,0c0.7,0.1,5.4-0.4,8.8-0.5c1.5-0.1,2.8-0.1,3.3,0c1.6,0.2,19,0.5,19,0.5l-1.2-1.9
				c0,0,0,0.1-0.4,0s-12.8,2.2-17.5,2.9c-4.7,0.7-13-1.6-11.8-2c1.2-0.4,20.2,0.5,23.8,1.4s7-1.1,7-1.1l-29.7-1.4"/>
			<line class="st3" x1="182.9" y1="357.5" x2="214.9" y2="360.5"/>
			<line class="st3" x1="183.1" y1="358.7" x2="214" y2="357.3"/>
			<line class="st3" x1="183.8" y1="360" x2="213.5" y2="358.6"/>
		</g>
		<g>
			<line class="st3" x1="199.3" y1="374" x2="196.3" y2="342.1"/>
			<line class="st3" x1="198" y1="373.8" x2="199.4" y2="342.9"/>
			<path class="st3" d="M197,373.5l1.3-15.1l0.6-6.7l0.7-7.6l0.2-2.4l0.6,32.4l-0.2-2.3l-1.8-21.1l-0.5-5.8c0,0-2.2,21.6-1.9,22.5
				c0.4,0.9,2.8,4.1,2.9,4.6s-0.1,3.6,0,2.6c0.1-0.7-0.4-5.4-0.5-8.8c-0.1-1.5-0.1-2.8,0-3.3c0.2-1.6,0.5-19,0.5-19l-1.9,1.2
				c0,0,0.1,0,0,0.4s2.2,12.8,2.9,17.5c0.7,4.7-1.6,13-2,11.8s0.5-20.2,1.4-23.8c0.9-3.6-1.1-7-1.1-7l-1.4,29.7"/>
			<line class="st3" x1="197.9" y1="373.7" x2="200.8" y2="341.7"/>
			<line class="st3" x1="199.1" y1="373.5" x2="197.7" y2="342.6"/>
			<line class="st3" x1="200.3" y1="372.8" x2="198.9" y2="343.1"/>
		</g>
	</g>
	<g>
		<g>
			<line class="st3" x1="184.7" y1="358.5" x2="216.7" y2="355.5"/>
			<line class="st3" x1="184.8" y1="357.2" x2="215.8" y2="358.6"/>
			<path class="st3" d="M185.2,356.2l15.1,1.3l6.7,0.6l7.6,0.7l2.4,0.2l-32.5,0.6l2.3-0.2l21.1-1.8l5.8-0.5c0,0-21.6-2.2-22.5-1.9
				c-0.9,0.4-4.1,2.8-4.6,2.9s-3.6-0.1-2.6,0c0.7,0.1,5.4-0.4,8.8-0.5c1.5-0.1,2.8-0.1,3.3,0c1.6,0.2,19,0.5,19,0.5l-1.2-1.9
				c0,0,0,0.1-0.3,0s-12.8,2.2-17.5,2.9c-4.7,0.7-13-1.6-11.8-2c1.2-0.4,20.2,0.5,23.8,1.4s7-1.1,7-1.1l-29.7-1.4"/>
			<line class="st3" x1="185" y1="357.1" x2="217" y2="360"/>
			<line class="st3" x1="185.2" y1="358.3" x2="216.1" y2="356.9"/>
			<line class="st3" x1="185.9" y1="359.5" x2="215.6" y2="358.1"/>
		</g>
		<g>
			<line class="st3" x1="201.4" y1="373.6" x2="198.4" y2="341.6"/>
			<line class="st3" x1="200.2" y1="373.4" x2="201.6" y2="342.5"/>
			<path class="st3" d="M199.2,373l1.3-15.1l0.6-6.7l0.7-7.6l0.2-2.4l0.6,32.4l-0.2-2.3l-1.8-21.1l-0.5-5.8c0,0-2.2,21.6-1.9,22.5
				c0.3,0.9,2.8,4.1,2.9,4.6s-0.1,3.6,0,2.6c0.1-0.7-0.4-5.4-0.5-8.8c-0.1-1.5-0.1-2.8,0-3.3c0.2-1.6,0.5-19,0.5-19l-1.9,1.2
				c0,0,0.1,0,0,0.4s2.2,12.8,2.9,17.5c0.7,4.7-1.6,13-2,11.8s0.5-20.2,1.4-23.8c0.9-3.6-1.1-7-1.1-7l-1.4,29.7"/>
			<line class="st3" x1="200" y1="373.2" x2="203" y2="341.3"/>
			<line class="st3" x1="201.2" y1="373" x2="199.8" y2="342.1"/>
			<line class="st3" x1="202.4" y1="372.4" x2="201" y2="342.7"/>
		</g>
	</g>
</g>
<g>
	<g>
		<path class="st4" d="M44.5,330.1l5.3,5.8c5-5.1,8.8-7,13.9-7c4.3,0,7.3,1.4,10.3,4.9l-3.8,4.3c-2.3-2.5-4.8-3.6-7.8-3.6
			c-7.1,0-12.6,6-12.6,13.6v33.7h-5.7V330L44.5,330.1z"/>
		<path class="st4" d="M87.1,317.1c0,2.5-2.2,4.7-4.7,4.7s-4.7-2.2-4.7-4.8c0-2.4,2.2-4.5,4.7-4.5C84.9,312.4,87.1,314.6,87.1,317.1
			z M85.3,381.8h-5.7V330h5.7V381.8z"/>
		<path class="st4" d="M324.7,317.1c0,2.5-2.2,4.7-4.7,4.7s-4.7-2.2-4.7-4.8c0-2.4,2.2-4.5,4.7-4.5
			C322.5,312.4,324.7,314.6,324.7,317.1z M322.9,381.8h-5.7V330h5.7V381.8z"/>
		<path class="st4" d="M121.2,341.9c-2-5.4-5-7.5-10.3-7.5c-5.6,0-9.3,3.2-9.3,8.2c0,4.5,2.5,6.7,11.1,9.2c6.1,1.8,8.4,2.9,10.5,4.9
			c2.3,2.3,3.7,5.9,3.7,9.4c0,9.4-7.9,16.7-18.1,16.7c-8.8,0-14.2-3.9-18.2-13.6l5.9-3.2c2,7.8,6,11.4,12.6,11.4
			c6.7,0,11.6-4.4,11.6-10.6c0-5.1-1.9-6.8-11.1-9.7c-6.6-2-8.6-3-10.6-5c-2.3-2.3-3.6-5.5-3.6-8.8c0-8.1,6.7-14.3,15.7-14.3
			c6.7,0,11.5,2.6,15.1,8.4L121.2,341.9z"/>
		<path class="st4" d="M138.8,357.1c0.7,12.5,7.5,20.3,17.7,20.3c6.3,0,10.3-2.7,14.1-9.8l5.4,3.2c-4.1,7.9-11,12.1-19.6,12.1
			c-14.2,0-23.9-10.9-23.9-27.1c0-15.9,9.4-27,23-27c9,0,15.9,4.5,18.9,12.2c1.7,4.1,2.2,8,2.2,16.1L138.8,357.1L138.8,357.1z
			 M170,351.7c-0.1-11.4-5.3-17.4-14.7-17.4s-15.2,6.2-16.1,17.4H170z"/>
	</g>
	<g>
		<path class="st4" d="M249.1,341.9c-2-5.4-5-7.5-10.3-7.5c-5.6,0-9.3,3.2-9.3,8.2c0,4.5,2.5,6.7,11.1,9.2c6.1,1.8,8.4,2.9,10.5,4.9
			c2.3,2.3,3.7,5.9,3.7,9.4c0,9.4-7.9,16.7-18.1,16.7c-8.8,0-14.2-3.9-18.2-13.6l5.9-3.2c2,7.8,6,11.4,12.6,11.4
			c6.7,0,11.6-4.4,11.6-10.6c0-5.1-1.9-6.8-11.1-9.7c-6.6-2-8.6-3-10.6-5c-2.3-2.3-3.6-5.5-3.6-8.8c0-8.1,6.7-14.3,15.7-14.3
			c6.7,0,11.5,2.6,15.1,8.4L249.1,341.9z"/>
		<path class="st4" d="M270.1,335.9c5.3-5.3,9.3-7.2,15.4-7.2c6.6,0,12.3,2.9,15.3,7.8c1.9,3.1,2.6,6.5,2.6,12.7v32.6h-5.7v-32.6
			c0-6.1-0.5-8-2.6-10.6c-2.2-2.7-5.6-4.2-9.9-4.2c-8.7,0-15.1,5.5-15.1,12.9v34.5h-5.7v-83.6h5.7L270.1,335.9L270.1,335.9z"/>
		<path class="st4" d="M342.3,335.9c5.3-5.3,9.3-7.2,15.4-7.2c6.6,0,12.3,2.9,15.3,7.8c1.9,3.1,2.6,6.5,2.6,12.7v32.6h-5.7v-32.6
			c0-6.1-0.5-8-2.6-10.6c-2.2-2.7-5.6-4.2-9.9-4.2c-8.8,0-15.1,5.5-15.1,13.1v34.3h-5.7V330h0.4L342.3,335.9z"/>
		<path class="st4" d="M391.6,357.1c0.7,12.5,7.5,20.3,17.7,20.3c6.3,0,10.3-2.7,14.1-9.8l5.4,3.2c-4.1,7.9-11,12.1-19.6,12.1
			c-14.2,0-23.9-10.9-23.9-27.1c0-15.9,9.4-27,23-27c9,0,15.9,4.5,18.9,12.2c1.7,4.1,2.2,8,2.2,16.1L391.6,357.1L391.6,357.1z
			 M422.8,351.7c-0.1-11.4-5.3-17.4-14.7-17.4c-9.4,0-15.2,6.2-16.1,17.4H422.8z"/>
	</g>
</g>
<g>
	<path class="st0" d="M-1,513.8h13c5.7,0,8.9,2.8,8.9,7.8c0,3.1-1.2,5.3-4,7.1c1.9,0.8,2.7,1.3,3.5,2.4c1,1.4,1.6,3.2,1.6,5.3
		c0,3.6-1.5,6.6-4,8.2c-1.6,1-3.8,1.5-6.5,1.5H-1V513.8z M8,526.9c3.9,0,5.5-1.1,5.5-3.9c0-2.6-1.2-3.4-4.9-3.4H6v7.3L8,526.9
		L8,526.9z M8.6,540.2c3.9,0,5.6-1.3,5.6-4.2c0-1.8-0.9-3.2-2.5-3.6c-0.7-0.2-1.5-0.2-3.6-0.2H5.9v8.1L8.6,540.2L8.6,540.2z"/>
	<path class="st0" d="M45.6,526.9v5.7H34.4v7.5h12.9v6h-20v-32.3h18.3v6H34.4v7.1H45.6z"/>
	<path class="st0" d="M66.4,522.3c-0.8-2.6-2.3-3.9-4.5-3.9c-2,0-3.6,1.5-3.6,3.5c0,1.1,0.6,2.1,1.6,2.7c0.8,0.5,0.8,0.5,4.5,1.9
		c2.6,1,4.5,2,5.7,3.1c1.6,1.5,2.6,4,2.6,6.6c0,3.3-1.3,6.2-3.7,8.2c-2,1.7-4.5,2.4-8.1,2.4c-3.4,0-5.8-0.7-7.9-2.2
		c-1.8-1.3-2.6-2.4-3.6-5l6.3-2.9c1,2.8,2.8,4.2,5.3,4.2c2.4,0,3.9-1.4,3.9-3.5c0-1.4-0.5-2.3-1.8-3.1c-1-0.6-1-0.6-4.2-1.7
		c-2.1-0.7-4.7-2.4-5.9-3.9c-1.2-1.5-2-3.9-2-6c0-2.7,1.1-5.2,2.9-7c1.9-1.8,4.6-2.7,8.1-2.7c5.5,0,8.7,1.9,10.3,6.2L66.4,522.3z"/>
	<path class="st0" d="M88.6,546.1h-7.1v-26.3h-8v-6h23.2v6h-8.1L88.6,546.1L88.6,546.1z"/>
	<path class="st0" d="M117.4,546.1h-7.1v-32.3h7.1V546.1z"/>
	<path class="st0" d="M151.6,546.1h-7.1l-13.4-19.8v19.8H124v-32.3h6.7l13.7,20.3v-20.3h7.1v32.3H151.6z"/>
	<path class="st0" d="M180.3,546.1h-7.1v-26.3h-8v-6h23.2v6h-8.1V546.1z"/>
	<path class="st0" d="M216.2,546.1h-7.1V533H198v13.1h-7.1v-32.3h7.1v13h11.1v-13h7.1L216.2,546.1L216.2,546.1z"/>
	<path class="st0" d="M241.3,526.9v5.7h-11.2v7.5H243v6h-20v-32.3h18.3v6h-11.2v7.1H241.3z"/>
	<path class="st0" d="M259.1,513.8h13c5.7,0,8.9,2.8,8.9,7.8c0,3.1-1.2,5.3-4,7.1c1.9,0.8,2.7,1.3,3.5,2.4c1,1.4,1.6,3.2,1.6,5.3
		c0,3.6-1.5,6.6-4,8.2c-1.6,1-3.8,1.5-6.5,1.5h-12.3v-32.3H259.1z M268.1,526.9c3.9,0,5.5-1.1,5.5-3.9c0-2.6-1.2-3.4-4.9-3.4h-2.6
		v7.3L268.1,526.9L268.1,526.9z M268.7,540.2c3.9,0,5.6-1.3,5.6-4.2c0-1.8-0.9-3.2-2.5-3.6c-0.7-0.2-1.5-0.2-3.6-0.2H266v8.1
		L268.7,540.2L268.7,540.2z"/>
	<path class="st0" d="M305.7,526.9v5.7h-11.2v7.5h12.9v6h-20v-32.3h18.3v6h-11.2v7.1H305.7z"/>
	<path class="st0" d="M324.5,513.8c9.3,0,14.2,5.3,14.2,15.5c0,6.7-2.2,11.9-6.1,14.6c-2,1.4-5.2,2.2-8.5,2.2h-11.8v-32.3H324.5z
		 M319.4,540h3.5c2.7,0,4.4-0.6,5.7-2c1.6-1.7,2.6-4.9,2.6-8.6c0-4.2-1.2-7.3-3.3-8.7c-1.2-0.8-2.4-1-5.1-1h-3.4L319.4,540
		L319.4,540z"/>
	<path class="st0" d="M343.9,513.8h10.5c4.2,0,5.6,0.2,7.4,1.4c2.4,1.5,3.8,4.4,3.8,7.8c0,4-1.6,6.7-5.1,9l7.4,14.1h-8.3l-5.9-12.7
		h-2.8v12.7h-7V513.8z M352.9,527.6h0.3c3.2,0,5-1.4,5-4.1c0-2.6-1.3-3.8-4.7-3.6h-1.1h-1.5v7.7L352.9,527.6L352.9,527.6z"/>
	<path class="st0" d="M395.8,516.5c3.4,3,4.9,7.2,4.9,13.4s-1.6,10.4-4.9,13.4c-2.7,2.3-6.1,3.5-10.2,3.5c-4.2,0-7.5-1.2-10.2-3.5
		c-3.5-3.1-5-7.2-5-13.7c0-6,1.6-10.2,5-13.1c2.7-2.3,6-3.5,10.2-3.5C389.8,513,393.1,514.1,395.8,516.5z M378.1,529.8
		c0,6.7,2.9,11,7.5,11c4.5,0,7.5-4.3,7.5-10.9c0-6.6-2.9-10.8-7.5-10.8C381.1,519,378.1,523.3,378.1,529.8z"/>
	<path class="st0" d="M429.6,516.5c3.4,3,4.9,7.2,4.9,13.4s-1.6,10.4-4.9,13.4c-2.7,2.3-6.1,3.5-10.2,3.5c-4.2,0-7.5-1.2-10.2-3.5
		c-3.5-3.1-5-7.2-5-13.7c0-6,1.6-10.2,5-13.1c2.7-2.3,6-3.5,10.2-3.5C423.6,513,426.9,514.1,429.6,516.5z M412,529.8
		c0,6.7,2.9,11,7.5,11c4.5,0,7.5-4.3,7.5-10.9c0-6.6-2.9-10.8-7.5-10.8C415,519,412,523.3,412,529.8z"/>
	<path class="st0" d="M474,546.1h-6.9v-20.7l-7.5,20.7h-5.4l-7.6-20.7v20.7h-6.9v-32.3h9l8.1,20.6l8.3-20.6h8.8v32.3H474z"/>
</g>
</svg>
